<?xml version="1.0" standalone="no"?>
<!DOCTYPE svg PUBLIC "-//W3C//DTD SVG 20010904//EN"
 "http://www.w3.org/TR/2001/REC-SVG-20010904/DTD/svg10.dtd">
<svg version="1.0" xmlns="http://www.w3.org/2000/svg"
 width="1280.000000pt" height="640.000000pt" viewBox="0 0 1280.000000 640.000000"
 preserveAspectRatio="xMidYMid meet">
<metadata>
Created by potrace 1.15, written by Peter Selinger 2001-2017
</metadata>
<g transform="translate(0.000000,640.000000) scale(0.100000,-0.100000)"
fill="#000000" stroke="none">
<path d="M11392 4642 c-7 -5 -17 -39 -23 -76 -15 -107 -40 -207 -50 -200 -5 3
-9 66 -9 140 0 121 -2 134 -17 134 -42 -1 -45 -12 -34 -106 16 -132 15 -166
-6 -162 -20 4 -27 36 -40 175 l-8 82 -23 -18 -23 -17 16 -90 c9 -49 19 -100
22 -112 5 -20 2 -23 -18 -20 -21 3 -25 11 -36 77 -6 40 -16 85 -21 99 l-8 26
-23 -23 c-21 -21 -22 -25 -8 -33 9 -5 19 -25 22 -46 4 -20 9 -50 12 -66 l5
-29 -76 8 c-101 9 -324 -11 -405 -37 -187 -60 -363 -155 -425 -229 -13 -16
-34 -58 -46 -94 -12 -37 -28 -69 -36 -72 -7 -3 -41 12 -74 32 -68 41 -41 38
-540 66 -370 21 -386 21 -463 4 -67 -15 -150 -57 -177 -91 -20 -23 -34 -17
-98 40 -90 80 -124 88 -422 97 -135 4 -289 12 -343 18 -63 6 -116 7 -148 1
-63 -12 -148 -54 -200 -99 l-42 -35 -76 41 c-69 38 -174 68 -193 56 -12 -7
-10 -113 2 -113 6 0 10 16 10 37 0 20 3 33 7 29 4 -4 8 -82 8 -173 0 -124 3
-167 13 -171 6 -2 9 -9 5 -15 -4 -7 -8 -29 -9 -51 -2 -30 2 -39 17 -43 24 -7
25 -23 1 -30 -17 -4 -19 -19 -18 -226 0 -202 -11 -426 -33 -692 -8 -97 -8 -94
-11 90 -1 105 -4 183 -6 175 -2 -8 -10 -87 -17 -174 -11 -120 -18 -162 -29
-170 -9 -6 -18 -20 -21 -31 -2 -11 -5 -3 -6 19 0 22 5 47 13 55 14 17 32 211
19 197 -5 -4 -13 -37 -19 -74 l-12 -67 -1 93 c-1 110 -21 127 -22 20 0 -50 -3
-67 -9 -53 -5 11 -9 94 -10 185 -1 91 -5 210 -9 265 -7 93 2 571 15 803 l6
102 34 0 34 0 1 -62 c1 -77 17 -51 18 29 l1 52 -52 5 c-253 29 -377 32 -464
11 -34 -8 -100 -19 -147 -25 -47 -6 -104 -17 -127 -25 -23 -8 -64 -21 -90 -29
l-49 -15 -43 33 c-96 73 -246 126 -357 126 -31 0 -109 7 -174 16 -100 14 -126
15 -172 4 -35 -8 -68 -10 -97 -5 -96 19 -169 11 -243 -23 -38 -18 -78 -40 -87
-49 -16 -15 -20 -13 -50 20 -18 19 -63 49 -99 66 -78 37 -139 41 -381 27 -98
-6 -152 -6 -160 1 -25 20 -88 24 -146 9 -31 -8 -87 -21 -124 -30 -70 -16 -222
-95 -232 -121 -8 -21 -25 -19 -87 10 -30 13 -106 35 -169 49 -63 14 -153 38
-200 53 -80 25 -97 27 -275 27 -165 1 -195 -1 -225 -17 -19 -10 -57 -21 -85
-24 -60 -7 -94 -23 -159 -74 -27 -22 -52 -39 -57 -39 -4 0 -17 14 -29 30 -40
56 -255 143 -310 125 -10 -3 -125 -7 -256 -9 -229 -4 -244 -6 -354 -35 -225
-60 -265 -74 -268 -99 -5 -34 -24 -36 -87 -13 -95 36 -216 26 -335 -27 -32
-14 -76 -21 -158 -25 -102 -5 -113 -4 -122 13 -6 10 -79 54 -163 97 -197 101
-316 135 -461 131 l-99 -3 -10 -29 c-8 -23 -6 -31 9 -46 26 -24 136 -61 173
-58 16 1 38 -5 48 -14 10 -9 68 -41 128 -72 111 -56 215 -135 215 -163 0 -37
-75 -146 -140 -205 -38 -33 -74 -74 -81 -90 -7 -17 -34 -43 -64 -62 -83 -53
-135 -130 -135 -199 0 -18 -10 -48 -22 -67 -114 -186 -223 -421 -234 -507 -3
-21 -10 -71 -16 -111 -11 -70 -10 -73 13 -98 13 -15 48 -41 77 -60 44 -29 52
-38 52 -64 0 -43 24 -96 53 -114 13 -9 84 -25 158 -36 74 -11 186 -35 249 -54
l115 -34 37 19 c39 20 52 47 63 134 12 92 34 141 86 194 37 37 49 57 49 79 0
29 3 31 53 42 41 8 63 20 92 50 37 38 42 40 100 40 128 0 242 46 328 132 32
32 62 58 67 58 4 0 37 -17 71 -39 85 -51 154 -85 212 -105 163 -55 488 -61
631 -11 l78 27 29 -28 c16 -15 29 -33 29 -39 0 -7 28 -37 62 -69 136 -123 143
-131 172 -200 27 -64 29 -72 17 -115 -6 -25 -24 -70 -38 -99 -19 -38 -23 -56
-16 -63 8 -8 15 -6 25 10 7 11 19 21 26 21 10 0 10 -5 -2 -22 -18 -25 -21 -58
-6 -58 5 0 19 14 32 30 31 42 41 38 34 -15 -8 -49 4 -60 22 -20 15 32 36 34
27 3 -12 -37 -11 -42 7 -46 12 -2 19 5 24 22 8 33 25 23 21 -12 -4 -50 17 -43
40 13 5 15 8 6 11 -33 4 -64 21 -65 40 -4 16 49 35 46 30 -6 -2 -21 2 -37 9
-39 11 -4 18 12 25 61 6 40 23 19 26 -32 4 -65 25 -66 32 -1 6 53 23 54 30 3
7 -56 30 -56 30 -1 0 55 8 77 26 77 11 0 12 -4 2 -19 -15 -25 1 -106 22 -106
12 0 14 12 13 55 -3 56 3 52 23 -14 5 -16 15 -31 22 -34 15 -5 16 32 1 59 -6
11 -8 25 -6 32 3 7 14 -9 26 -36 16 -33 28 -47 42 -47 22 0 20 18 -7 72 -28
55 -6 140 64 247 23 36 42 76 42 91 0 39 27 65 87 85 62 19 154 78 205 130
l37 38 63 -40 c35 -22 77 -48 95 -58 27 -16 32 -25 38 -74 4 -36 20 -81 45
-126 21 -38 46 -94 55 -123 18 -53 18 -53 -8 -100 -14 -26 -33 -69 -42 -96
-21 -61 -18 -64 95 -106 47 -17 93 -35 102 -41 38 -20 101 -7 116 24 l11 22 0
-22 c1 -21 6 -23 64 -23 90 0 105 6 109 44 l3 31 28 -42 c34 -54 51 -56 43 -5
-4 20 -11 98 -17 173 l-10 135 45 45 c32 32 49 60 60 100 l17 56 62 17 c69 20
111 42 178 98 25 21 48 38 52 38 3 0 31 -18 61 -41 55 -41 65 -59 66 -114 0
-16 9 -50 20 -74 11 -24 20 -57 20 -75 0 -17 7 -41 15 -53 12 -17 13 -31 4
-78 -10 -57 -30 -93 -78 -147 -29 -32 -22 -46 14 -30 29 13 32 6 8 -20 -14
-16 -14 -18 -1 -18 9 0 21 7 28 15 22 26 31 16 15 -16 -21 -39 -10 -52 16 -20
25 30 37 20 15 -13 -9 -14 -12 -27 -6 -31 5 -3 14 4 20 15 16 29 30 24 24 -9
-5 -25 -3 -29 26 -35 18 -3 37 -3 42 0 6 4 14 0 19 -7 8 -11 13 -10 28 9 23
27 33 28 30 4 -3 -36 1 -43 20 -37 11 3 22 1 26 -5 3 -5 24 -10 47 -10 32 0
41 4 45 21 5 19 7 20 18 6 9 -13 19 -14 55 -6 83 19 92 41 56 137 -11 28 -14
56 -10 78 9 46 56 118 92 140 36 20 52 52 52 99 0 25 5 35 20 40 35 11 70 63
70 106 0 38 1 39 33 39 69 0 134 28 184 80 26 28 53 50 58 50 6 0 40 -25 77
-54 37 -30 90 -67 117 -82 52 -28 62 -44 75 -125 4 -21 15 -48 25 -60 52 -67
71 -157 40 -185 -15 -13 -19 -31 -19 -79 0 -53 -3 -65 -26 -86 -32 -29 -59
-79 -44 -79 6 0 27 11 47 25 36 24 58 26 35 3 -17 -17 -15 -48 3 -48 8 0 21
12 29 28 14 25 15 25 16 5 0 -37 19 -36 34 2 20 46 30 44 23 -5 -7 -52 9 -61
28 -16 21 50 33 45 28 -11 -4 -45 -3 -47 11 -29 9 11 16 28 16 37 0 10 5 21
12 25 8 5 9 -5 5 -34 -3 -24 -1 -45 5 -48 13 -8 28 14 28 43 0 12 5 25 11 29
9 5 10 -7 5 -43 -6 -50 -6 -50 25 -57 17 -3 36 -3 43 1 6 4 37 6 70 4 l58 -3
-4 41 c-5 52 8 53 22 1 14 -52 30 -51 30 3 l1 42 19 -36 c10 -19 26 -41 34
-48 27 -22 20 15 -19 108 -31 72 -35 93 -35 167 0 70 3 84 16 84 34 0 86 34
99 64 8 17 17 61 20 98 7 74 10 76 110 93 56 9 93 30 146 82 l46 45 85 -30
c142 -51 260 -71 490 -84 380 -23 478 -13 601 63 27 16 60 29 75 29 15 0 61
-19 102 -41 121 -66 271 -98 530 -114 171 -11 359 17 510 74 68 26 175 105
215 160 17 22 33 41 37 41 4 0 35 -25 70 -55 94 -82 204 -136 297 -146 131
-13 196 -65 219 -176 14 -62 92 -172 189 -263 94 -89 145 -123 214 -141 41
-11 50 -10 73 4 16 11 26 27 26 40 0 26 -33 61 -67 71 -34 11 -119 110 -139
163 -10 27 -24 57 -31 69 -11 18 -11 27 2 57 8 20 15 57 15 82 0 37 6 52 34
82 18 21 40 52 49 68 8 17 27 43 41 58 l26 28 49 -41 c39 -33 50 -49 54 -81 3
-22 18 -59 34 -81 15 -22 40 -60 54 -84 14 -24 37 -56 51 -71 14 -16 38 -48
53 -73 36 -59 118 -144 175 -180 58 -36 186 -68 203 -50 9 9 1 21 -38 54 -93
78 -119 111 -147 187 -54 145 -55 181 -9 223 12 11 21 24 21 31 0 20 37 47 60
43 15 -2 28 -18 43 -57 17 -43 31 -60 64 -80 24 -15 63 -55 90 -92 27 -37 68
-94 92 -129 57 -78 121 -132 207 -172 79 -37 166 -46 172 -17 2 11 -12 23 -45
38 -88 39 -98 46 -121 91 -13 25 -31 56 -41 70 -10 14 -27 46 -38 71 l-21 47
56 41 56 41 32 -25 c18 -14 44 -29 58 -35 14 -5 34 -27 46 -49 20 -40 89 -91
123 -91 25 0 21 8 -23 56 -22 24 -40 52 -40 62 0 11 38 59 83 108 121 129 166
209 192 348 18 94 7 139 -40 167 -34 20 -44 42 -45 94 -1 17 -9 60 -19 98 -22
84 -15 95 67 126 58 22 82 47 82 86 0 21 -23 19 -36 -3 -14 -21 -133 -96 -141
-88 -3 3 -1 11 4 18 111 145 137 188 114 188 -9 0 -69 -65 -114 -123 -15 -21
-34 -37 -42 -37 -22 0 -64 57 -75 103 -17 68 -52 150 -77 180 -30 37 -29 53 5
62 30 7 102 72 102 91 0 7 -30 -8 -66 -32 -36 -24 -76 -44 -90 -44 -13 0 -24
2 -24 4 0 3 22 30 49 60 26 31 60 74 75 95 27 38 27 40 11 70 -15 30 -35 34
-35 7 0 -22 -40 -108 -67 -143 -16 -22 -33 -33 -49 -33 -32 0 -31 19 4 72 66
101 103 248 69 276 -13 11 -22 1 -62 -77 -47 -91 -80 -141 -93 -141 -4 0 -27
27 -51 60 -58 80 -112 128 -198 178 -56 33 -82 42 -118 42 -29 0 -48 5 -51 13
-2 7 8 40 25 73 49 99 62 137 52 147 -14 14 -28 0 -41 -41 -19 -56 -71 -152
-90 -162 -9 -5 -22 -5 -30 0 -12 7 -9 17 14 57 52 92 97 194 94 216 -3 16 -18
-7 -55 -80 -54 -107 -89 -163 -102 -163 -5 0 -11 17 -15 39 -3 23 -24 63 -51
100 -40 54 -55 66 -135 103 -49 24 -90 48 -90 55 0 7 20 67 45 134 25 67 42
126 38 130 -13 12 -97 20 -111 11z m78 -30 c0 -15 -82 -237 -91 -246 -26 -28
23 207 49 237 15 17 42 23 42 9z m-220 -278 c0 -3 -18 -26 -40 -51 -22 -25
-40 -54 -40 -64 0 -10 -9 -23 -20 -29 -11 -6 -20 -7 -20 -1 0 5 7 12 16 15 22
9 9 23 -29 31 -62 12 -95 26 -101 41 -5 13 0 14 24 9 41 -9 38 3 -5 21 -62 26
-41 34 90 34 69 0 125 -3 125 -6z m88 -22 c-12 -13 -10 -14 9 -4 30 17 58 15
74 -4 12 -15 11 -18 -6 -28 -11 -6 -35 -26 -54 -44 -30 -29 -33 -37 -28 -72 3
-22 19 -68 36 -103 56 -116 62 -222 14 -282 -13 -16 -39 -52 -56 -79 -25 -39
-51 -62 -122 -104 -112 -66 -119 -73 -150 -136 -19 -39 -27 -76 -33 -158 -9
-108 -6 -168 8 -168 4 0 11 39 14 88 14 189 23 202 193 285 57 27 114 62 127
78 13 15 38 63 56 106 18 43 37 84 42 91 35 42 55 -37 33 -133 -21 -95 -44
-162 -60 -175 -8 -7 -15 -18 -15 -25 0 -8 -39 -55 -86 -107 -48 -51 -93 -108
-102 -125 -16 -34 -36 -46 -25 -15 14 38 58 100 105 148 52 54 52 83 -1 39
-82 -69 -169 -253 -187 -393 -4 -29 -10 -50 -15 -45 -15 15 13 183 48 280 5
16 4 16 -10 3 -60 -57 -77 -261 -33 -400 13 -41 22 -77 19 -80 -9 -9 -33 33
-50 87 -9 29 -20 53 -24 53 -10 0 5 -58 30 -114 11 -27 19 -51 16 -54 -7 -7
-9 -5 -49 63 -20 32 -36 53 -36 47 0 -16 36 -87 62 -124 35 -50 0 -29 -43 25
-95 118 -113 210 -106 519 3 112 8 215 12 231 9 32 -9 37 -25 8 -5 -11 -24
-80 -42 -153 -28 -121 -31 -148 -32 -308 -1 -190 6 -222 68 -303 14 -19 26
-37 26 -42 0 -4 -30 -5 -67 -2 -94 9 -172 -14 -226 -65 -56 -53 -70 -48 -80
33 -12 90 1 131 76 230 34 47 78 118 97 159 35 75 35 76 35 215 0 161 -25 476
-37 469 -4 -3 -8 -13 -8 -22 0 -10 -8 -34 -19 -54 -16 -33 -18 -55 -13 -225 5
-221 -2 -271 -60 -383 -55 -107 -150 -197 -102 -96 14 29 15 39 5 49 -10 9
-16 7 -32 -12 -20 -25 -26 -46 -9 -36 6 3 10 13 10 21 0 8 5 14 10 14 13 0 13
-13 0 -42 -5 -13 -14 -42 -20 -66 -9 -37 -14 -42 -31 -37 -20 7 -20 4 -14 -67
6 -57 5 -70 -5 -62 -6 7 -14 39 -17 73 -6 65 -23 74 -23 12 0 -46 22 -111 50
-151 22 -30 25 -40 12 -40 -16 0 -72 91 -83 134 -10 42 -3 124 17 196 7 22 6
24 -9 11 -20 -16 -22 -3 -5 34 10 22 13 24 18 10 4 -12 25 18 71 101 36 66 71
132 77 148 23 53 25 17 2 -39 -12 -31 -20 -58 -18 -61 9 -8 50 98 62 159 6 31
15 57 20 57 14 0 -3 -96 -30 -168 -14 -37 -28 -78 -31 -92 -3 -14 -12 -29 -19
-33 -8 -4 -14 -16 -14 -25 1 -12 12 -4 39 25 44 48 71 131 78 239 7 99 -10
186 -63 316 -39 94 -46 122 -46 178 0 75 17 123 63 181 38 49 22 52 -20 4 -46
-53 -61 -89 -68 -160 -6 -62 -23 -92 -23 -40 0 14 -7 42 -15 61 -13 32 -13 35
1 30 12 -5 14 0 8 29 -5 27 -3 34 7 30 16 -5 74 70 74 97 0 10 14 35 30 57 22
29 36 39 50 36 11 -3 34 2 50 10 l30 15 -40 -5 c-74 -10 -13 20 81 40 86 18
88 18 213 -4 69 -11 141 -21 159 -21 51 0 94 23 140 75 42 48 50 74 12 40 -38
-35 -33 -5 6 34 36 37 70 48 42 13z m-445 -57 c59 -4 107 -11 107 -16 0 -5 -6
-9 -12 -9 -8 -1 -5 -6 6 -15 10 -7 15 -18 12 -24 -9 -14 -36 -2 -36 16 0 10
-6 13 -15 9 -9 -3 -25 0 -35 7 -16 9 -24 9 -40 -1 -11 -6 -35 -12 -53 -12 -18
0 -38 -5 -44 -11 -7 -7 -35 -15 -63 -20 -72 -11 -136 -46 -200 -109 -68 -67
-91 -114 -100 -203 -9 -105 3 -186 40 -264 17 -37 41 -92 51 -122 20 -56 26
-151 10 -151 -5 0 -17 26 -26 57 -9 32 -43 109 -75 173 -104 205 -110 268 -48
474 31 101 115 186 174 174 12 -2 0 -14 -40 -41 -32 -21 -56 -41 -53 -44 3 -2
35 12 70 32 40 21 89 40 126 46 74 12 111 25 111 40 0 10 -20 9 -60 -3 -8 -3
-12 -3 -7 -1 4 3 7 11 7 19 0 10 11 13 43 10 23 -2 90 -7 150 -11z m-266 -1
c-3 -3 -12 -4 -19 -1 -8 3 -5 6 6 6 11 1 17 -2 13 -5z m940 -26 l28 -11 -44
-8 c-55 -11 -71 -24 -71 -61 0 -54 124 -146 251 -187 20 -6 51 -23 69 -36 19
-14 46 -25 61 -25 15 0 40 -5 55 -10 21 -8 24 -14 16 -22 -16 -16 -15 -28 3
-28 8 0 21 -13 29 -29 17 -32 40 -41 109 -41 26 0 47 -4 47 -10 0 -5 -18 -10
-40 -10 -51 0 -84 -17 -135 -69 -21 -23 -43 -41 -49 -41 -5 0 0 10 12 23 27
29 27 39 1 63 -17 15 -23 16 -41 5 -24 -15 -36 -7 -19 13 17 20 6 35 -19 29
-22 -6 -28 15 -9 34 8 8 6 19 -5 40 -23 46 -106 113 -106 87 0 -3 11 -43 25
-88 14 -44 33 -151 44 -237 13 -107 26 -170 41 -202 27 -58 118 -143 168 -157
48 -13 164 -13 274 1 117 14 185 0 239 -48 52 -47 53 -69 3 -48 -46 19 -121
19 -167 0 -50 -21 -105 -71 -124 -114 -10 -20 -19 -39 -21 -43 -2 -5 1 -8 6
-8 5 0 15 14 22 30 36 87 166 141 259 109 32 -11 42 -29 16 -29 -9 0 -15 -9
-15 -24 0 -16 -14 -36 -42 -60 -31 -27 -37 -36 -23 -36 24 0 102 46 114 68 13
22 28 7 37 -34 5 -27 0 -35 -50 -78 -94 -80 -144 -203 -211 -515 -16 -77 -28
-109 -43 -122 -21 -16 -24 -16 -84 8 -66 27 -120 33 -176 19 -48 -13 -32 17
25 45 49 24 115 22 195 -6 59 -20 60 -10 2 17 -42 20 -65 23 -156 22 -60 0
-108 2 -108 6 0 3 -7 15 -16 26 -15 18 -15 18 -9 -3 7 -25 -4 -93 -14 -93 -4
0 -15 16 -24 36 -15 31 -16 37 -2 50 22 23 19 37 -6 23 -19 -10 -21 -17 -15
-57 l6 -46 -30 29 c-36 34 -42 84 -11 92 11 3 24 17 30 32 6 14 15 33 20 41 5
8 14 57 19 108 9 79 17 103 53 170 24 42 67 107 96 144 57 72 60 78 39 78 -23
0 -68 -42 -85 -80 -9 -20 -33 -51 -53 -69 -21 -18 -51 -61 -67 -94 -38 -80
-45 -64 -38 94 l4 121 49 40 c65 52 121 88 137 88 7 0 22 7 33 15 18 15 17 16
-16 9 -45 -8 -107 -44 -144 -83 -32 -33 -49 -40 -40 -16 7 18 0 19 -26 5 -11
-6 -17 -17 -14 -25 4 -9 -3 -18 -18 -24 -20 -8 -28 -21 -39 -73 -23 -106 -17
-192 19 -277 47 -108 39 -186 -19 -202 -36 -9 -44 -2 -60 49 -11 37 -10 50 5
98 19 61 17 77 -20 171 -13 34 -24 79 -24 101 0 38 29 146 65 242 22 60 21
149 -3 239 -24 91 -36 81 -15 -14 25 -117 15 -179 -53 -314 -32 -64 -57 -120
-55 -126 2 -5 7 -29 12 -52 4 -23 24 -75 43 -115 l34 -73 -14 -70 c-17 -87
-17 -138 -2 -153 6 -6 8 -15 4 -19 -4 -4 -11 -1 -15 6 -6 9 -11 4 -19 -17 -8
-23 -7 -32 1 -36 9 -3 8 -8 -3 -16 -9 -7 -36 -9 -67 -5 -45 4 -60 12 -100 50
-55 52 -52 57 37 76 105 21 116 44 85 174 -8 33 -15 78 -15 100 0 22 -5 47
-11 55 -10 15 -9 -18 7 -214 5 -52 3 -75 -5 -81 -7 -4 -40 -9 -74 -12 l-62 -6
26 29 c15 16 32 39 38 51 19 37 13 123 -14 188 -14 33 -25 73 -25 88 0 20 -6
30 -20 34 -11 3 -20 12 -20 20 0 10 6 12 19 8 19 -6 25 9 98 230 5 17 4 18 -8
8 -8 -7 -28 -54 -44 -105 -31 -99 -45 -127 -45 -88 0 31 31 129 60 193 12 27
19 51 16 54 -6 7 -66 -119 -66 -139 0 -7 -11 -35 -25 -63 -38 -78 -29 -161 27
-239 34 -48 35 -64 3 -165 -27 -86 -49 -111 -97 -111 -21 0 -28 5 -28 20 0 11
-12 55 -27 97 -25 71 -27 92 -28 223 0 80 4 165 9 190 4 25 5 42 1 38 -10 -10
-32 -121 -41 -208 -6 -61 -9 -70 -16 -50 -8 23 1 156 17 230 2 14 -6 -6 -19
-45 l-24 -70 -1 43 c-2 88 58 216 202 431 38 57 70 115 71 130 0 14 5 29 10
33 5 3 11 12 13 20 1 7 8 36 15 63 26 106 7 209 -54 298 -11 15 -15 27 -9 27
13 0 66 -78 91 -132 14 -33 19 -38 19 -20 1 12 -6 38 -13 57 -21 50 -1 43 26
-7 35 -69 37 -192 5 -288 -14 -41 -23 -77 -21 -79 7 -8 55 108 66 163 9 43 9
69 0 112 -15 74 -57 164 -76 164 -37 0 -136 119 -151 182 -5 19 0 42 15 73 21
43 24 45 65 45 24 0 56 -5 72 -12z m-11188 -28 c159 -36 252 -69 362 -131 129
-72 154 -96 144 -138 -9 -42 19 -43 34 -1 14 40 23 38 16 -4 -8 -38 9 -57 20
-23 8 21 8 21 12 -5 2 -15 -5 -47 -15 -72 -18 -39 -26 -46 -78 -65 -91 -33
-92 -34 -66 -38 35 -7 82 13 142 58 54 40 55 42 52 85 -3 39 -1 44 17 44 13 0
25 -9 30 -22 10 -27 2 -46 -10 -27 -7 11 -9 10 -9 -3 0 -10 9 -22 20 -28 17
-9 22 -6 34 22 l14 33 1 -28 c2 -45 37 -161 76 -247 20 -44 43 -115 52 -158
16 -81 42 -146 42 -107 1 36 -36 198 -72 320 -19 66 -38 135 -41 154 -5 29 -4
32 9 21 13 -11 15 -8 16 21 1 19 5 45 9 59 7 23 8 22 9 -10 2 -54 17 -69 24
-23 4 21 7 50 7 66 0 51 20 27 21 -25 l1 -53 12 43 c13 51 25 46 27 -12 2 -34
3 -36 6 -11 9 64 20 42 27 -52 3 -54 13 -143 20 -198 18 -119 33 -280 46 -465
5 -74 12 -151 16 -170 7 -33 6 -34 -10 -20 -10 8 -22 25 -27 38 -5 14 -12 22
-16 19 -3 -3 4 -22 16 -42 33 -57 24 -64 -19 -15 -46 53 -53 41 -10 -18 17
-23 26 -42 21 -42 -15 0 -81 72 -108 118 -14 23 -27 42 -29 42 -13 0 2 -35 41
-95 25 -37 44 -70 42 -72 -7 -6 -45 42 -129 162 -46 66 -129 177 -185 247 -56
71 -107 136 -112 147 -6 10 -22 26 -37 35 -26 18 -26 17 -19 -6 l7 -23 -23 23
c-20 19 -21 24 -10 32 12 7 7 16 -21 44 -20 20 -43 36 -52 36 -9 0 -16 5 -16
10 0 6 9 10 20 10 20 0 20 0 0 33 -20 32 -27 87 -12 87 4 0 14 -6 21 -12 11
-11 13 -10 7 5 -3 10 -9 36 -12 56 l-6 38 42 7 c33 5 47 3 61 -10 19 -17 24
-9 13 20 -3 9 -15 16 -26 16 -11 0 -48 24 -81 53 -90 76 -121 95 -167 106 -51
11 -56 16 -40 36 11 13 6 15 -37 15 -37 0 -55 5 -67 19 -10 11 -41 25 -69 32
-67 16 -137 46 -137 58 0 14 30 29 49 25 9 -2 58 -13 110 -24z m10675 -1 c-3
-5 -10 -7 -15 -3 -5 3 -7 10 -3 15 3 5 10 7 15 3 5 -3 7 -10 3 -15z m-7670
-84 c4 17 11 39 16 50 7 16 9 13 9 -17 1 -44 21 -63 21 -19 0 48 20 48 21 -1
1 -41 1 -42 11 -15 16 44 29 32 23 -20 -20 -155 -6 -737 19 -793 14 -32 15 -2
17 380 1 228 5 429 8 445 7 27 8 25 16 -25 l8 -55 13 48 c17 66 24 69 25 11 0
-37 3 -44 9 -29 5 11 9 32 9 48 2 51 21 27 21 -25 0 -38 3 -49 10 -38 5 8 10
25 10 38 0 12 5 22 11 22 5 0 9 -8 8 -17 -3 -34 2 -38 16 -13 14 24 14 23 15
-27 0 -65 15 -69 24 -8 4 24 12 48 18 51 12 7 10 -17 -13 -216 -15 -134 6
-698 27 -719 13 -13 13 27 2 211 -11 187 -10 208 5 241 13 26 17 63 17 139 0
98 22 303 33 314 9 9 47 -20 54 -41 5 -18 7 -18 16 5 11 24 11 24 15 -12 4
-43 17 -50 26 -13 11 42 24 28 20 -22 l-4 -48 15 30 c8 17 14 38 15 48 0 9 5
17 11 17 9 0 9 -19 3 -67 -4 -38 -9 -174 -9 -303 -1 -172 -6 -258 -18 -320
-19 -100 -25 -251 -13 -334 9 -57 9 -58 -13 -51 -21 6 -21 4 -20 -72 1 -44 -3
-87 -9 -98 -9 -16 -12 16 -13 145 -1 203 -15 169 -25 -62 -4 -91 -11 -158 -17
-158 -6 0 -7 26 -3 69 8 81 -3 207 -15 176 -4 -11 -8 -46 -8 -77 -1 -32 -5
-58 -11 -58 -13 0 -13 117 1 199 6 40 6 68 1 73 -10 10 -12 -9 -28 -205 -4
-42 -11 -80 -17 -84 -6 -4 -7 40 -2 136 4 86 3 141 -3 141 -5 0 -12 -60 -15
-133 -7 -146 -25 -231 -26 -119 -1 39 -5 61 -11 57 -5 -3 -10 -27 -10 -53 0
-26 -5 -54 -11 -62 -7 -11 -9 24 -5 115 5 137 6 140 -23 -70 -7 -53 -9 -44
-11 75 -3 156 -15 130 -26 -53 -3 -60 -8 -106 -12 -103 -3 3 -5 90 -6 193 -1
111 -5 195 -11 206 -8 13 -11 1 -11 -51 0 -84 -22 -128 -83 -159 l-42 -23 6
23 c6 22 6 22 -12 2 -22 -24 -105 -48 -138 -39 -34 8 -21 24 20 24 19 0 37 4
40 10 3 5 26 18 50 29 24 10 48 28 54 40 11 19 9 19 -25 -4 -74 -50 -177 -26
-225 52 -13 20 -25 31 -27 24 -5 -16 44 -86 75 -106 14 -9 22 -19 20 -22 -11
-10 -49 20 -87 68 -36 45 -40 57 -40 105 0 34 -4 53 -10 49 -13 -8 -13 -54 1
-94 16 -45 2 -52 -16 -8 -8 20 -15 66 -15 102 0 36 -4 65 -9 65 -14 0 -21 -27
-22 -78 0 -51 -17 -108 -18 -65 -2 38 -18 34 -25 -5 -3 -20 -6 -82 -6 -137 0
-55 -5 -107 -11 -115 -7 -11 -9 39 -4 170 6 181 1 248 -16 204 -4 -10 -8 -97
-8 -192 -1 -113 -4 -171 -11 -167 -5 3 -10 26 -10 51 0 24 -4 44 -10 44 -5 0
-10 -24 -10 -54 0 -30 -5 -58 -11 -61 -7 -5 -8 62 -4 231 9 288 22 383 25 184
2 -102 4 -124 10 -90 13 74 14 354 1 358 -13 4 -14 256 -2 342 6 37 5 60 -3
69 -9 12 -7 13 12 9 21 -6 22 -4 23 70 0 43 4 95 8 117 7 34 9 27 10 -45 1
-59 4 -80 11 -70 5 8 10 31 10 50 0 54 12 110 22 110 6 0 7 -17 3 -41 -5 -26
-4 -39 3 -35 5 3 13 25 17 48 7 35 9 38 12 18 7 -41 20 -44 27 -5 8 42 25 37
27 -8 1 -30 2 -30 12 11 12 50 27 55 27 10 0 -18 5 -40 10 -48 7 -11 10 -6 10
20 0 19 5 42 10 50 7 11 10 4 10 -27 0 -63 -19 -441 -25 -495 -3 -27 -2 -48 3
-48 12 0 19 74 32 340 12 219 16 253 28 234 4 -6 15 -13 25 -17 13 -5 17 -18
18 -54 1 -60 17 -30 18 33 1 64 15 62 21 -3 5 -51 7 -55 14 -28z m1561 76 c3
-5 -6 -35 -20 -67 -14 -31 -25 -59 -25 -61 0 -15 29 22 45 57 21 46 34 52 28
13 -4 -21 -2 -24 6 -13 21 30 19 1 -5 -74 -13 -43 -22 -81 -20 -84 6 -6 12 7
36 85 10 32 23 59 30 61 9 3 11 -1 6 -14 -15 -39 -46 -180 -52 -238 -3 -35
-14 -73 -25 -88 -17 -25 -19 -46 -18 -225 0 -109 4 -218 8 -243 6 -31 9 19 11
160 2 151 5 185 10 130 3 -41 11 -91 18 -110 6 -19 22 -102 36 -185 22 -136
24 -163 15 -284 -5 -73 -6 -137 -4 -141 3 -5 1 -11 -5 -15 -7 -4 -10 41 -10
132 0 93 -3 133 -10 123 -5 -8 -10 -77 -10 -153 0 -90 -4 -136 -10 -132 -5 3
-10 41 -10 83 0 42 -5 84 -10 92 -7 10 -10 -23 -11 -105 -1 -91 -3 -110 -10
-80 -4 22 -8 92 -8 155 0 63 -7 210 -16 325 -9 116 -18 268 -21 338 -3 71 -8
126 -10 124 -3 -2 -11 -41 -19 -86 -13 -74 -12 -93 5 -214 31 -219 40 -331 39
-506 -1 -165 -15 -186 -18 -26 -1 63 -4 76 -13 61 -7 -12 -8 -48 -4 -102 4
-50 3 -84 -2 -84 -12 0 -22 49 -22 114 -1 28 -5 71 -11 96 -5 25 -12 63 -15
85 -9 62 -12 69 -28 56 -9 -8 -14 -36 -14 -86 -1 -41 -6 -84 -12 -95 -9 -16
-8 -20 4 -20 9 0 18 12 22 28 17 79 30 69 37 -30 10 -118 8 -218 -2 -218 -5 0
-14 39 -21 88 -6 48 -12 94 -14 102 -1 8 -6 -31 -10 -87 -4 -57 -12 -103 -17
-103 -5 0 -9 39 -10 88 0 87 -16 93 -19 7 -2 -69 -18 -88 -19 -22 -1 71 -16
74 -26 5 -6 -36 -10 -45 -12 -28 -8 52 -16 56 -29 15 l-12 -40 -1 56 -1 56 40
16 c25 9 40 22 40 32 0 9 8 29 18 43 34 50 33 68 -2 27 -29 -34 -36 -38 -50
-26 -14 12 -16 11 -16 -7 0 -24 -28 -38 -36 -17 -9 23 -40 18 -63 -11 -19 -24
-23 -25 -50 -14 -61 25 -103 101 -115 208 -8 71 -14 92 -27 92 -16 0 -10 -153
6 -174 16 -21 19 -108 5 -161 -5 -21 -8 -3 -9 60 -2 105 -20 101 -22 -5 -2
-94 -17 -134 -18 -47 -1 82 -17 88 -26 10 -10 -87 -13 -86 -15 2 -2 76 -2 79
-15 50 l-14 -30 -1 33 c0 43 -16 41 -24 -3 -4 -20 -11 -33 -17 -29 -6 3 -8 11
-6 18 14 38 17 56 9 56 -5 0 -13 -10 -17 -22 -7 -21 -8 -20 -12 10 -6 47 -23
29 -23 -24 0 -28 -4 -43 -10 -39 -6 4 -10 68 -11 158 -1 193 -17 167 -20 -33
l-2 -145 -10 148 c-9 137 -11 147 -29 147 -16 0 -19 4 -14 23 10 30 9 13 7
287 -1 162 -5 240 -11 230 -7 -11 -10 -1 -10 35 1 39 3 46 11 33 5 -10 16 -18
24 -18 11 0 12 -51 10 -287 -2 -178 0 -263 5 -223 4 36 8 115 9 175 1 125 21
417 29 425 2 3 7 -1 9 -7 3 -7 9 -13 15 -13 7 0 8 18 4 50 -5 40 -4 49 7 44
10 -3 21 14 37 58 28 78 70 162 77 155 3 -3 -4 -31 -16 -62 -12 -31 -21 -71
-21 -90 0 -19 -4 -35 -8 -35 -16 0 -34 -70 -23 -84 11 -13 9 -26 -9 -71 -18
-45 -30 -160 -30 -289 0 -114 2 -136 15 -136 10 0 15 10 15 28 -1 292 32 514
98 656 21 45 38 72 40 63 5 -27 21 -20 39 18 22 47 37 45 17 -2 -9 -21 -18
-44 -21 -50 -3 -7 0 -13 5 -13 6 0 23 23 38 50 15 28 31 50 36 50 11 0 10 -7
-8 -41 -26 -51 -10 -55 19 -6 16 26 32 47 37 47 13 0 13 -1 -5 -44 -20 -46 -4
-47 18 -1 9 19 21 35 27 35 15 0 12 -17 -6 -46 -9 -13 -14 -27 -11 -30 3 -3
17 13 31 35 25 39 55 58 42 26 -18 -44 -15 -47 12 -15 38 43 50 35 21 -14 -32
-54 -16 -55 21 -2 17 25 36 46 41 46 6 0 9 -3 7 -7 -2 -5 -13 -29 -25 -54
l-21 -47 -136 -1 c-127 -1 -139 -2 -176 -26 -31 -20 -42 -35 -55 -77 -27 -91
-22 -115 34 -169 71 -68 96 -73 292 -61 197 12 243 27 259 82 6 19 15 68 21
108 5 40 17 91 25 114 18 52 12 60 -10 13 -9 -19 -19 -35 -22 -35 -3 0 -18 9
-33 21 -17 12 -58 26 -100 32 -46 7 -71 16 -71 24 0 20 48 93 61 93 6 0 8 -7
5 -15 -18 -44 -15 -47 13 -15 34 39 38 36 16 -17 -21 -49 -19 -53 9 -18 13 17
28 27 32 23 4 -4 1 -14 -6 -23 -7 -9 -10 -18 -8 -21 3 -3 20 18 37 45 29 49
61 66 76 42z m-550 -11 c-3 -5 -15 -10 -26 -10 -11 0 -17 5 -14 10 3 6 15 10
26 10 11 0 17 -4 14 -10z m-2342 -77 c4 15 10 39 14 55 6 24 7 22 13 -20 6
-51 20 -76 20 -37 0 13 4 30 9 38 13 20 24 -112 25 -299 1 -139 -1 -162 -22
-220 -13 -36 -39 -90 -58 -120 -45 -73 -77 -167 -70 -207 2 -18 17 -49 32 -68
27 -36 31 -38 34 -20 1 6 6 15 11 21 6 7 4 16 -6 24 -19 16 -20 108 -1 154 7
18 30 55 50 83 41 58 80 148 90 209 4 22 0 107 -8 188 -23 212 -20 353 4 229
7 -37 8 -36 9 15 1 50 2 52 29 51 15 0 21 -3 15 -6 -16 -6 -18 -103 -3 -103 6
0 10 20 10 45 0 54 19 61 22 8 l1 -38 4 38 c5 44 23 50 23 8 0 -17 5 -33 10
-36 6 -4 10 7 10 24 0 17 5 31 10 31 6 0 10 -13 10 -28 0 -16 7 -37 15 -48 11
-14 14 -49 15 -136 0 -64 4 -119 9 -122 11 -7 21 69 21 169 0 125 9 175 31
175 14 0 20 -10 25 -41 8 -48 24 -34 24 21 0 26 3 31 10 20 5 -8 10 -27 10
-42 0 -15 5 -30 10 -33 6 -4 10 10 10 34 0 23 4 41 9 41 5 0 12 -44 15 -97 10
-160 26 -354 35 -418 5 -33 10 -114 10 -180 1 -85 5 -115 12 -103 11 19 14
375 5 628 -3 99 -2 155 3 140 5 -14 9 -45 10 -69 1 -55 13 -46 21 17 l7 47 8
-52 c7 -52 25 -64 25 -18 0 13 5 27 10 30 6 4 10 -7 10 -27 0 -18 4 -40 9 -47
8 -12 11 -9 17 13 4 19 10 24 17 17 15 -15 14 -535 -1 -716 -15 -183 -21 -217
-35 -208 -6 4 -8 41 -3 107 4 57 3 96 -2 91 -5 -6 -14 -86 -21 -179 -6 -93
-15 -174 -19 -180 -4 -6 -9 30 -12 79 -6 109 -16 95 -27 -40 l-8 -100 -5 140
c-4 112 -7 130 -12 91 -5 -27 -8 -74 -8 -105 0 -31 -3 -81 -7 -111 -12 -98
-20 -23 -16 140 4 191 -11 174 -22 -23 -11 -214 -23 -217 -26 -7 -2 178 -2
182 -10 90 -5 -52 -13 -126 -18 -165 -8 -68 -8 -66 -10 53 -1 79 -5 121 -11
117 -6 -3 -10 -55 -11 -118 0 -62 -4 -130 -8 -152 -6 -28 -9 13 -10 133 0 94
-5 172 -10 172 -9 0 -21 -129 -21 -238 0 -46 -4 -71 -10 -67 -6 4 -10 66 -10
154 0 145 0 148 25 169 26 23 33 42 15 42 -13 0 -86 -46 -95 -60 -3 -5 -1 -10
5 -10 21 0 -3 -22 -44 -41 -25 -12 -64 -19 -102 -19 -54 0 -68 4 -113 34 -58
40 -65 35 -20 -13 27 -30 31 -44 36 -106 4 -48 2 -74 -6 -79 -6 -4 -11 -2 -11
4 0 6 -4 8 -10 5 -5 -3 -10 -17 -10 -31 0 -13 -4 -24 -10 -24 -6 0 -10 43 -10
108 0 59 -5 114 -10 122 -7 10 -10 -20 -10 -93 0 -70 -4 -106 -10 -102 -5 3
-10 39 -11 78 0 40 -4 90 -8 112 -7 30 -9 8 -11 -90 -2 -166 -18 -138 -20 35
-2 206 -18 187 -21 -25 -2 -203 -15 -176 -19 40 -1 61 -5 130 -9 155 -8 44 -9
45 -11 10 -1 -19 -6 -105 -10 -190 l-6 -155 -2 127 c-2 126 -16 177 -26 96 -3
-24 -7 -54 -10 -68 -2 -14 -4 43 -6 125 -3 215 -18 237 -19 28 -1 -103 -5
-174 -11 -178 -6 -4 -10 8 -10 29 0 49 -20 57 -22 9 -1 -21 -5 12 -8 72 -10
152 -10 934 0 965 5 14 9 -90 10 -240 2 -225 13 -493 18 -438 1 9 9 21 18 26
14 8 15 35 10 248 -3 131 -9 278 -12 327 -4 60 -3 87 5 87 6 0 11 -16 11 -35
0 -58 17 -39 24 27 8 65 26 65 26 0 0 -20 4 -31 10 -27 6 3 10 24 10 45 0 21
5 42 10 45 6 4 10 -6 10 -24 0 -16 5 -33 10 -36 6 -4 10 7 10 24 0 17 5 31 10
31 6 0 10 -18 10 -41 0 -24 4 -38 10 -34 6 3 10 24 10 45 0 21 5 42 10 45 6 4
10 -13 10 -45 0 -32 4 -49 10 -45 6 3 10 21 10 38 0 18 4 43 8 57 6 20 8 14
12 -30 5 -46 7 -51 13 -27z m3438 20 l1 -48 10 35 c18 65 30 59 22 -10 -4 -36
-8 -241 -8 -457 -1 -301 2 -395 12 -404 10 -10 12 -2 12 41 0 69 11 57 20 -22
l7 -63 2 51 c0 27 8 59 16 70 17 23 19 67 4 96 -8 14 -8 23 0 31 6 6 11 40 11
76 0 46 -3 62 -10 51 -7 -11 -10 2 -10 43 0 31 4 57 10 57 6 0 10 10 10 23 0
12 6 31 14 42 7 11 16 37 20 58 5 29 3 39 -9 43 -8 4 -21 1 -29 -5 -7 -6 -16
-8 -19 -4 -11 10 -8 63 3 63 6 0 10 -4 10 -10 0 -5 11 -10 24 -10 22 0 23 3
30 115 6 108 20 175 35 175 4 0 6 -33 4 -72 l-2 -73 17 67 c23 90 36 99 28 19
-7 -73 1 -73 26 2 l18 52 -6 -72 c-3 -40 -1 -73 4 -73 4 0 14 28 20 62 13 73
38 109 28 41 -7 -50 0 -56 15 -13 18 50 29 34 24 -32 -4 -44 -2 -57 4 -43 5
11 10 29 11 40 0 11 6 33 13 49 10 23 12 -26 12 -270 0 -255 3 -308 17 -358
10 -33 21 -114 24 -180 6 -102 4 -127 -11 -161 -9 -22 -20 -62 -25 -90 -10
-60 -34 -128 -62 -174 -23 -36 -70 -61 -117 -61 -48 0 -45 18 4 26 25 3 56 15
68 26 l22 20 -25 -7 c-14 -3 -45 -9 -70 -12 -25 -3 -51 -10 -58 -16 -28 -22
-91 76 -79 124 3 10 1 19 -4 19 -5 0 -9 -23 -9 -51 0 -32 -4 -48 -10 -44 -13
8 -6 175 8 223 10 30 0 48 -11 20 -3 -8 -9 -3 -14 12 -9 23 -11 23 -16 5 -3
-11 -9 -63 -13 -115 -6 -81 -9 -91 -18 -67 -15 42 -26 32 -28 -25 l-2 -53 -3
50 c-5 63 -23 84 -24 30 l-1 -40 -9 40 c-4 22 -9 65 -9 95 -2 38 -4 48 -9 31
-3 -13 -16 -28 -29 -32 -20 -8 -22 -5 -22 29 0 20 -5 44 -10 52 -7 10 -10 -11
-11 -70 -1 -47 -5 -116 -9 -155 l-7 -70 -2 65 c-2 55 -18 129 -20 93 -1 -17
-21 -17 -21 0 0 8 9 24 20 37 17 19 20 38 21 114 2 112 16 184 18 91 1 -49 4
-57 13 -41 13 22 4 210 -12 266 -5 19 -10 66 -10 105 0 49 -3 65 -10 55 -5 -8
-10 -56 -10 -107 0 -91 -10 -123 -26 -80 -5 15 -10 -14 -14 -88 l-6 -110 -2
128 c-2 117 -3 127 -21 127 -25 0 -34 37 -25 110 4 40 3 60 -6 65 -10 6 -9 9
0 15 19 12 26 110 10 120 -11 7 -11 11 -1 24 7 9 10 23 7 32 -4 11 2 25 15 37
l22 21 -6 -50 c-12 -87 -28 -327 -22 -332 9 -9 14 21 34 211 11 103 25 195 31
205 8 13 9 9 5 -18 -11 -73 -35 -366 -34 -409 l1 -46 8 40 c5 22 20 151 34
287 14 135 32 260 39 277 13 30 14 31 30 13 15 -17 15 -19 -3 -35 -15 -12 -20
-29 -20 -63 0 -42 1 -44 16 -30 9 9 22 47 30 84 19 91 19 92 54 92 29 0 30 -1
31 -47z m6156 41 c-3 -3 -12 -4 -19 -1 -8 3 -5 6 6 6 11 1 17 -2 13 -5z
m-9280 -26 c-3 -8 -6 -5 -6 6 -1 11 2 17 5 13 3 -3 4 -12 1 -19z m643 -50 c0
-38 -3 -49 -10 -38 -13 20 -13 90 0 90 6 0 10 -24 10 -52z m2315 -11 c-8 -20
-22 -40 -31 -45 -9 -5 -20 -27 -25 -48 -8 -39 -8 -39 -5 8 2 33 11 57 30 78
14 17 26 39 26 48 0 11 3 13 10 6 7 -7 6 -22 -5 -47z m-2356 -47 c-1 -36 -4
-90 -9 -120 -6 -44 -7 -27 -8 80 -1 90 2 130 8 120 5 -8 9 -44 9 -80z m3049
65 c-3 -13 -1 -22 3 -19 5 3 9 11 9 19 0 25 20 27 30 3 l9 -23 7 23 c12 41 21
23 16 -33 -4 -48 -2 -54 12 -49 14 5 15 -11 14 -153 -1 -87 4 -239 11 -338 7
-99 11 -226 9 -282 -3 -81 -1 -100 9 -91 8 6 13 34 13 71 0 42 5 66 16 79 14
15 15 20 4 34 -12 13 -11 17 1 25 11 7 12 11 1 18 -10 6 -13 55 -13 222 1 287
22 479 51 479 12 0 12 -4 1 -53 -12 -49 4 -58 19 -10 20 61 33 65 26 8 -5 -42
-4 -47 7 -32 36 54 38 54 32 7 -6 -45 -6 -45 10 -17 27 47 45 34 25 -19 -6
-15 -8 -29 -6 -32 3 -3 10 8 16 23 18 48 33 15 15 -35 -10 -27 -19 -113 -25
-234 -9 -160 -42 -424 -56 -448 -7 -11 -54 -439 -54 -491 0 -30 -4 -46 -10
-42 -13 8 -13 89 -1 152 13 64 22 262 12 243 -4 -8 -13 -64 -20 -125 -7 -60
-17 -114 -22 -120 -6 -6 -8 1 -5 20 12 72 16 235 6 235 -5 0 -10 -17 -10 -38
0 -48 -28 -263 -35 -271 -3 -3 -3 58 1 134 4 77 4 137 0 133 -4 -3 -12 -52
-17 -108 -14 -145 -28 -157 -22 -19 6 143 -12 131 -22 -15 -11 -148 -27 -166
-19 -22 6 130 -9 156 -20 34 -3 -40 -10 -86 -15 -103 -7 -24 -10 -13 -11 55
l-3 85 -8 -55 c-5 -30 -13 -86 -18 -125 -9 -63 -10 -58 -6 54 5 156 -10 149
-29 -15 l-15 -119 4 100 c2 55 10 183 17 285 18 265 17 828 -1 839 -11 7 -11
12 2 32 8 13 18 46 22 73 4 27 9 55 12 62 9 24 26 15 21 -11z m-3095 -177
l-10 -73 -2 83 c-2 130 -21 90 -22 -46 0 -64 -4 -135 -8 -157 -6 -27 -9 25
-10 157 -1 122 3 199 9 203 6 3 10 -5 10 -19 0 -45 20 -40 21 6 2 40 2 39 12
-19 6 -42 6 -87 0 -135z m2655 106 c16 -12 16 -13 1 -19 -12 -4 -19 -25 -25
-63 -4 -31 -7 -60 -6 -64 1 -5 -3 -8 -9 -8 -11 0 -6 137 9 210 l6 35 4 -39 c2
-22 11 -45 20 -52z m5012 82 c0 -3 -4 -8 -10 -11 -5 -3 -10 -1 -10 4 0 6 5 11
10 11 6 0 10 -2 10 -4z m-5425 -23 c-15 -34 -53 -168 -60 -210 -12 -72 11 -49
30 30 24 104 45 167 56 167 13 0 12 -2 -18 -120 -27 -104 -27 -109 -33 -537
-3 -237 -8 -435 -12 -439 -5 -4 -8 26 -9 67 0 41 -4 97 -9 124 -6 41 -8 27
-10 -75 -1 -69 -5 -163 -9 -210 l-8 -85 -1 121 c-1 67 -5 137 -9 155 -7 28 -9
21 -14 -46 -5 -74 -5 -71 -7 45 -1 69 -11 190 -21 270 -38 288 -36 471 8 653
19 78 30 102 38 80 2 -7 11 -9 20 -6 13 5 14 0 8 -28 -3 -19 -9 -42 -12 -53
-3 -11 -1 -16 5 -12 5 3 13 18 17 33 12 49 34 93 46 93 7 0 8 -7 4 -17z m961
-41 c-12 -12 -18 8 -10 35 l8 28 4 -28 c2 -16 1 -31 -2 -35z m-4423 -942 c-3
-3 -9 3 -14 13 -6 9 -18 17 -27 17 -15 0 -17 9 -14 65 4 79 22 87 22 11 0 -30
5 -58 10 -61 24 -15 2 125 -24 150 -12 13 -16 37 -17 108 -1 120 -17 173 -18
63 -1 -44 -4 -77 -7 -74 -5 6 -17 166 -33 473 -6 116 -9 136 -18 115 -11 -23
-12 -23 -12 -4 -1 12 9 34 22 50 l22 29 7 -50 c3 -28 7 -111 8 -185 3 -229 17
-251 20 -30 3 314 15 329 23 30 4 -146 7 -320 7 -387 0 -68 4 -123 9 -123 4 0
8 168 7 373 -1 223 3 380 9 392 6 13 11 -143 16 -475 3 -272 4 -497 2 -500z
m3894 968 c-3 -8 -6 -5 -6 6 -1 11 2 17 5 13 3 -3 4 -12 1 -19z m1324 -43 l1
-40 13 48 c15 54 25 70 25 41 1 -18 1 -18 11 -1 17 29 31 20 27 -18 -5 -46 7
-45 20 3 6 23 10 29 11 15 1 -12 4 -30 8 -40 6 -15 8 -13 13 12 8 45 24 36 29
-15 l5 -45 5 44 c8 59 35 71 29 12 -2 -22 0 -41 4 -41 5 0 8 15 8 34 0 19 5
38 10 41 6 4 10 -42 10 -130 0 -80 5 -145 11 -157 8 -15 8 -26 -2 -44 -14 -27
-5 -336 12 -414 9 -37 39 -265 39 -294 0 -4 -7 -6 -15 -2 -10 4 -15 -1 -15
-14 0 -22 -16 -27 -23 -7 -3 6 -6 -5 -6 -25 -1 -38 -38 -105 -90 -161 -72 -80
-168 -75 -226 10 -21 32 -25 49 -25 110 0 42 -4 73 -10 73 -6 0 -10 -32 -10
-75 0 -81 16 -127 50 -145 11 -6 20 -18 20 -27 0 -23 -55 30 -70 68 -7 16 -17
29 -22 29 -11 0 -4 212 8 231 4 8 7 50 5 95 -2 75 8 111 23 85 4 -5 2 -12 -4
-16 -13 -8 -13 -112 0 -120 6 -3 10 2 10 12 0 11 5 24 12 31 9 9 9 12 0 12 -7
0 -12 4 -12 10 0 5 6 7 14 4 11 -4 15 58 20 378 6 381 13 505 29 481 12 -19
27 -16 27 5 0 37 20 -12 21 -53z m-5181 -422 c0 -296 -3 -453 -10 -453 -7 0
-10 162 -10 468 0 305 4 462 10 452 6 -9 10 -193 10 -467z m8614 462 c3 -9 -3
-19 -14 -25 -17 -9 -20 -7 -20 8 0 32 23 44 34 17z m-7526 -44 c-14 -12 -25
-15 -27 -9 -2 6 7 19 20 29 31 23 38 4 7 -20z m1388 5 c-6 -24 -7 -25 -26 -9
-20 17 -20 17 3 29 27 15 31 12 23 -20z m3801 12 c-16 -69 -18 -88 -9 -88 5 0
13 15 16 33 3 19 13 42 21 53 14 18 15 17 9 -11 -5 -28 -5 -29 10 -11 25 31
29 12 11 -52 -10 -33 -15 -66 -12 -74 5 -15 4 -19 38 92 31 97 38 60 10 -53
-11 -45 -24 -118 -31 -162 -6 -44 -13 -91 -16 -105 -3 -16 -2 -21 4 -15 5 6
17 45 26 88 12 52 22 77 31 77 8 0 17 10 20 23 36 164 49 214 57 222 7 7 8 -9
4 -45 -5 -51 -4 -53 6 -21 l12 34 12 -34 11 -34 10 34 c5 19 15 37 23 39 9 3
11 -1 6 -14 -4 -10 -10 -145 -13 -299 -6 -248 -5 -279 9 -268 8 7 17 10 20 7
6 -5 -8 -55 -24 -87 -10 -21 6 -82 29 -109 9 -9 18 -38 21 -63 2 -25 8 -48 12
-50 4 -3 7 141 6 319 -1 258 -4 322 -13 314 -10 -8 -13 -2 -12 28 1 46 11 77
24 72 5 -2 11 6 13 17 10 69 27 133 35 128 4 -3 6 -11 3 -19 -3 -8 -1 -24 4
-36 8 -20 9 -18 9 14 1 46 16 57 29 21 l9 -28 7 33 c9 38 29 33 21 -6 -5 -25
-4 -24 15 8 l21 35 -8 -60 c-15 -116 -9 -589 11 -815 14 -165 17 -230 9 -280
l-10 -65 -2 74 c0 41 -4 72 -7 68 -3 -3 -10 -50 -14 -104 l-7 -98 -2 85 c-3
164 -27 109 -33 -74 -1 -34 -4 13 -7 104 -5 135 -9 171 -24 193 -25 38 -39 33
-21 -8 15 -37 18 -138 4 -170 -6 -13 -9 9 -9 68 -1 51 -5 87 -11 87 -6 0 -8
-15 -4 -39 4 -25 0 -57 -10 -88 -15 -44 -21 -51 -81 -80 -74 -37 -137 -43
-188 -17 -50 25 -66 44 -73 83 -9 49 -23 74 -24 41 0 -18 -3 -21 -12 -12 -20
20 5 132 50 226 3 5 0 6 -7 2 -20 -13 -12 9 21 53 23 32 27 41 12 33 -79 -43
-139 -198 -151 -389 -3 -57 -10 -103 -16 -103 -6 0 -8 148 -4 418 6 494 19
602 89 800 28 78 46 109 35 60z m-3916 -61 c-13 -13 -15 15 -3 53 7 24 7 23
10 -9 2 -18 -1 -38 -7 -44z m2590 -35 l2 -87 7 78 c4 43 10 80 12 83 3 2 8
-137 11 -308 4 -172 14 -383 22 -468 13 -136 13 -159 1 -185 -9 -18 -19 -84
-24 -165 l-9 -135 -2 90 c-2 50 -6 113 -11 140 -5 38 -8 16 -9 -92 0 -82 -5
-144 -11 -148 -6 -4 -10 51 -11 157 -1 97 -4 153 -9 138 -4 -14 -9 -54 -9 -90
-1 -36 -6 -72 -11 -80 -7 -10 -10 24 -10 104 0 66 -3 116 -7 112 -5 -4 -11
-71 -14 -149 l-5 -142 -2 183 c-1 113 -6 182 -12 182 -5 0 -11 -12 -11 -27 -1
-16 -5 -100 -9 -188 l-6 -160 -3 170 c-2 94 -7 197 -11 230 -7 56 -7 52 -10
-50 -1 -60 -6 -159 -10 -220 -5 -93 -7 -69 -10 150 -3 275 -16 271 -20 -5 -1
-80 -6 -154 -11 -165 -9 -21 -3 628 7 720 5 38 3 47 -6 39 -8 -8 -15 -120 -21
-375 -6 -200 -14 -375 -19 -389 -11 -28 -4 425 10 720 9 182 34 376 51 394 5
6 12 -4 16 -25 l7 -34 10 35 10 35 6 -50 c6 -52 13 -47 26 20 6 33 8 35 11 15
8 -51 15 -55 28 -15 l12 40 7 -40 c4 -22 9 -47 10 -55 2 -8 6 13 11 47 4 35
11 60 16 57 5 -3 10 -44 10 -92z m789 -2 c2 -34 3 -33 14 15 10 47 12 49 34
40 18 -8 22 -18 23 -55 l1 -45 12 34 12 34 18 -29 c22 -32 19 -66 -35 -462
-25 -181 -29 -247 -29 -428 0 -120 4 -213 9 -210 5 3 11 -10 14 -29 8 -47 -4
-176 -14 -169 -5 3 -9 14 -9 25 0 11 -4 17 -10 14 -13 -8 -13 -72 0 -80 12 -7
4 -25 -11 -25 -6 0 -9 90 -9 236 1 130 -1 238 -3 240 -4 4 -7 -60 -24 -399 -3
-75 -8 -135 -10 -133 -3 2 -5 100 -5 218 0 141 -3 198 -8 168 -5 -25 -9 -74
-9 -109 -1 -50 -4 -62 -15 -58 -17 7 -26 -13 -26 -56 1 -30 1 -31 15 -13 14
19 15 18 15 -12 0 -21 -6 -35 -19 -42 -17 -8 -20 -6 -26 21 -4 16 -4 57 0 90
6 47 10 57 20 49 21 -17 25 43 25 383 0 210 3 316 10 312 7 -4 10 81 10 248 0
140 3 270 7 288 l7 34 7 -30 c4 -16 8 -46 9 -65z m312 35 c-7 -37 5 -30 25 13
l17 37 4 -29 c3 -28 4 -28 18 -7 18 25 34 27 34 5 0 -8 5 -12 10 -9 15 9 12
-9 -10 -74 -11 -33 -27 -101 -35 -153 -19 -115 -33 -568 -18 -568 7 0 12 75
14 220 3 169 7 222 18 232 11 11 13 -5 7 -102 -3 -63 -7 -263 -8 -445 -1 -248
-3 -292 -7 -178 -4 83 -9 155 -13 159 -5 4 -9 -37 -9 -92 -2 -123 -13 -234
-22 -214 -4 8 -8 78 -10 155 l-3 140 -3 -165 c-2 -91 -7 -176 -11 -190 -11
-33 -11 -25 -10 110 0 63 -4 122 -10 130 -7 10 -10 -15 -10 -84 0 -55 -3 -96
-7 -92 -5 4 -10 161 -13 349 -4 305 -7 345 -22 367 l-18 24 0 -44 c0 -32 3
-41 10 -30 5 8 10 12 12 10 2 -3 1 -162 -2 -355 -5 -327 -6 -341 -14 -210 -14
246 -23 281 -25 102 -1 -123 -4 -162 -15 -173 -8 -8 -17 -14 -20 -14 -12 0 -6
31 7 35 9 4 12 75 12 305 0 165 -3 288 -8 273 -4 -16 -11 -147 -16 -293 -4
-146 -9 -231 -10 -190 -2 41 -7 98 -11 125 -6 35 -8 8 -5 -90 5 -148 12 -198
26 -189 5 3 12 -3 16 -12 3 -10 15 -26 25 -36 10 -10 18 -29 18 -43 0 -14 5
-25 10 -25 6 0 10 -5 10 -11 0 -25 -25 1 -39 42 l-16 44 -3 -38 c-4 -49 -22
-38 -22 14 0 30 -4 39 -17 39 -15 0 -18 9 -19 52 -1 87 -27 293 -38 300 -7 4
-6 15 3 31 14 26 19 152 8 202 -3 17 -4 22 -1 13 11 -36 23 -16 29 50 9 99 25
172 37 172 6 0 8 -10 4 -25 -14 -57 -19 -118 -9 -112 6 4 14 29 18 56 5 34 11
48 19 45 8 -3 17 14 25 51 8 35 18 55 27 55 16 0 19 26 4 35 -5 3 -10 34 -10
67 0 34 -2 59 -4 57 -2 -2 -9 -42 -15 -89 -7 -47 -14 -98 -17 -113 l-6 -29
-19 21 c-27 29 -27 123 1 158 11 14 20 34 20 45 0 22 32 121 62 191 19 44 22
46 38 32 11 -10 15 -25 12 -40z m877 23 c-12 -45 -12 -138 1 -118 5 8 10 29
10 45 0 36 10 75 19 75 3 0 7 -179 8 -398 1 -218 6 -437 11 -487 6 -49 8 -94
4 -99 -3 -5 -5 -37 -4 -70 1 -34 -2 -86 -7 -116 -8 -50 -9 -45 -10 55 -2 126
-20 130 -22 5 0 -41 -4 -95 -8 -120 -7 -34 -9 -13 -10 88 -1 80 -5 132 -11
132 -6 0 -10 -34 -10 -82 0 -87 -16 -100 -22 -18 -5 66 -15 20 -25 -115 l-8
-110 -5 145 c-4 104 -7 134 -12 105 -4 -22 -8 -65 -9 -95 0 -30 -4 -77 -9
-105 -5 -29 -6 43 -3 170 4 158 1 282 -12 439 -22 293 -25 586 -5 646 l14 45
6 -45 c6 -46 9 -43 23 25 3 11 5 3 6 -17 1 -53 18 -56 29 -6 l10 43 1 -57 c1
-32 6 -58 11 -58 6 0 10 11 10 25 0 31 22 105 32 105 4 0 2 -15 -3 -32z
m-7215 -23 c-8 -44 0 -44 27 -2 18 27 20 28 14 7 -16 -59 -16 -179 -1 -272 9
-54 16 -151 16 -215 1 -114 31 -443 46 -492 5 -15 3 -22 -3 -18 -6 4 -8 -3 -5
-18 7 -37 -15 -31 -40 12 -12 20 -24 31 -26 24 -2 -7 1 -18 7 -24 6 -6 11 -18
11 -26 0 -22 -40 17 -57 57 -28 68 -69 962 -43 962 6 0 10 -4 10 -10 0 -21 18
-9 30 20 17 40 22 38 14 -5z m1556 26 c0 -17 -12 -41 -21 -41 -10 0 -12 33 -2
43 9 10 23 9 23 -2z m1471 -34 c-15 -15 -14 -27 3 -21 10 4 15 -7 20 -39 8
-50 -1 -87 -15 -65 -7 11 -11 10 -19 -2 -16 -25 -11 -59 10 -70 17 -9 22 -7
31 17 6 15 13 43 16 61 6 37 23 54 23 23 0 -10 5 -21 12 -23 15 -5 12 -78 -4
-93 -7 -7 -8 0 -3 24 9 44 -16 38 -27 -7 -9 -35 -29 -40 -73 -20 -20 9 -25 17
-20 32 15 55 18 79 7 72 -6 -3 -13 -20 -17 -36 -7 -31 -25 -51 -25 -28 0 49
81 237 88 204 2 -10 -1 -23 -7 -29z m407 36 c-3 -5 -11 -23 -18 -40 -16 -36
-25 -41 -33 -19 -3 8 2 17 11 21 16 6 16 7 -1 20 -13 10 -15 14 -5 18 20 8 50
8 46 0z m5446 -35 c-29 -79 -58 -128 -76 -128 -22 0 -23 13 -3 30 8 7 15 21
15 31 0 22 16 34 23 17 3 -7 6 -3 6 10 1 28 28 82 41 82 5 0 3 -19 -6 -42z
m-7494 -260 c-6 -156 -16 -299 -20 -318 -8 -27 -9 -20 -5 35 15 234 17 403 5
424 -8 17 -9 26 -1 34 16 16 13 64 -4 71 -8 3 -15 9 -15 13 0 8 42 31 48 27 2
-2 -1 -130 -8 -286z m6242 232 c-6 -33 -12 -44 -24 -42 -10 1 -18 -8 -22 -24
-5 -19 -10 -24 -18 -16 -7 7 -7 25 2 61 12 52 25 65 33 34 4 -20 4 -20 23 35
11 29 14 -1 6 -48z m128 38 c1 -22 1 -22 15 -4 8 11 16 18 18 15 1 -2 1 -39
-1 -82 -3 -54 -7 -77 -15 -74 -7 2 -13 22 -15 46 -3 40 -22 50 -22 11 0 -24
-15 -33 -40 -25 -23 7 -26 39 -9 82 l12 28 7 -25 7 -25 12 28 c6 16 11 33 11
38 0 5 5 9 10 9 6 0 10 -10 10 -22z m-90 -63 c-7 -43 -15 -64 -31 -76 -14 -10
-18 -19 -11 -23 6 -4 20 2 32 14 11 11 22 20 25 20 7 0 6 -71 -1 -109 -6 -30
-8 -31 -25 -15 -11 9 -19 28 -19 41 0 12 -5 23 -11 23 -6 0 -9 -9 -6 -19 2
-10 1 -25 -3 -32 -5 -7 0 -23 12 -40 14 -18 18 -34 13 -46 -6 -16 -8 -16 -16
5 -4 12 -13 22 -19 22 -5 0 -10 12 -10 28 0 15 -7 40 -15 55 -14 27 -13 30 20
76 19 26 40 71 47 100 15 68 28 52 18 -24z m205 -12 c-7 -97 8 -97 19 -1 7 61
14 88 25 88 4 0 4 -26 0 -57 -10 -82 -10 -115 0 -109 4 3 11 33 15 66 4 34 10
68 13 76 9 24 20 15 16 -13 -4 -22 -2 -25 6 -13 6 8 11 23 11 33 0 9 5 17 10
17 11 0 12 -51 1 -127 -10 -71 5 -67 19 5 22 108 24 111 30 37 l5 -70 9 55
c10 66 22 100 35 100 6 0 6 -12 0 -32 -5 -18 -9 -55 -8 -83 l1 -50 9 40 c24
100 27 104 29 35 1 -71 12 -61 24 23 11 73 27 57 21 -20 -7 -73 7 -71 19 2 12
71 26 76 26 10 0 -69 15 -60 25 17 4 26 12 48 17 48 7 0 8 -15 4 -40 -7 -46
-1 -52 16 -12 l12 27 4 -35 c5 -44 -22 -67 -128 -112 -64 -27 -91 -32 -180
-36 -97 -4 -107 -2 -133 18 -24 19 -27 27 -21 58 4 21 10 41 15 47 5 5 9 21 9
36 0 34 9 59 22 59 6 0 7 -33 3 -87z m-5165 56 c-7 -11 -14 -19 -16 -16 -7 7
7 37 17 37 6 0 5 -9 -1 -21z m2274 -26 c-3 -21 -11 -42 -16 -48 -10 -10 -2 60
8 77 11 18 14 6 8 -29z m2319 10 l-3 -28 12 25 c12 23 13 21 16 -33 3 -58 22
-72 22 -17 0 16 4 31 9 35 17 10 23 -15 11 -51 -9 -26 -12 -144 -11 -403 0
-344 -9 -585 -29 -711 -6 -37 -7 10 -5 145 3 166 2 186 -6 120 -27 -219 -34
-194 -35 118 0 144 -2 381 -5 527 -2 146 -1 273 3 283 11 27 26 20 21 -10z
m297 -304 c35 -53 54 -71 91 -86 l46 -20 -18 -154 c-24 -220 -49 -548 -49
-659 -1 -74 -3 -91 -12 -76 -7 13 -9 84 -6 223 3 112 1 206 -3 208 -8 5 -18
-150 -22 -321 -3 -175 -17 -109 -18 91 -2 199 -10 173 -27 -80 l-9 -130 -1
157 c-2 135 -4 158 -19 166 -14 9 -15 26 -10 153 4 79 11 159 16 177 9 29 8
33 -7 30 -24 -4 -30 -68 -40 -398 l-9 -275 -1 190 c-1 105 -7 197 -12 205 -7
11 -10 3 -10 -28 0 -26 -4 -41 -10 -37 -5 3 -10 35 -10 70 0 38 -4 65 -11 67
-12 4 -30 230 -20 257 10 31 20 -26 20 -124 1 -102 3 -110 34 -134 16 -13 17
1 17 258 0 174 -4 271 -10 271 -5 0 -10 -18 -10 -40 0 -22 -5 -40 -10 -40 -7
0 -8 30 -4 89 8 102 2 137 -25 146 -13 4 -17 12 -13 30 4 25 32 36 32 13 0
-23 15 5 27 50 12 47 12 46 8 -30 -2 -43 0 -78 4 -78 4 0 13 36 20 81 19 128
26 124 31 -21 l5 -135 45 -66z m-4670 278 l1 -32 14 25 c10 17 14 20 15 9 0
-14 -4 -30 -27 -99 -3 -12 -10 -9 -29 13 -30 35 -34 101 -7 116 24 13 33 5 33
-32z m401 -24 c-7 -23 -7 -41 -1 -47 5 -5 11 2 15 20 11 49 15 56 27 52 6 -2
16 -12 22 -21 9 -14 5 -22 -17 -42 -30 -29 -35 -45 -12 -45 26 0 16 -18 -17
-29 -17 -6 -62 -14 -100 -18 l-68 -6 0 32 c0 32 14 42 24 16 3 -8 14 -15 25
-15 15 0 23 12 35 54 9 30 21 58 26 61 6 4 7 -2 1 -17 -4 -13 -11 -40 -15 -60
-6 -36 -5 -38 18 -38 25 0 43 16 31 28 -3 3 -10 0 -15 -8 -8 -13 -10 -12 -10
3 0 30 34 153 38 135 2 -9 -1 -34 -7 -55z m5120 2 c0 -22 3 -34 6 -27 11 28
23 8 23 -40 0 -38 3 -49 10 -38 5 8 10 32 10 52 0 20 5 40 10 43 6 4 10 -29
10 -92 0 -54 7 -204 15 -333 23 -356 30 -636 16 -644 -8 -5 -11 13 -12 61 -2
89 -16 40 -19 -67 l-3 -75 -8 75 c-11 97 -17 108 -19 40 -1 -30 -6 -68 -9 -85
-7 -29 -8 -28 -14 15 -4 25 -8 61 -10 80 -2 19 -5 -39 -6 -130 -3 -188 -15
-188 -25 0 -4 69 -12 129 -17 135 -11 11 -11 9 -11 -140 0 -91 -1 -102 -8 -60
-5 28 -9 94 -9 147 -1 79 2 99 15 106 14 8 14 28 5 192 -6 101 -11 240 -12
309 0 69 -4 149 -8 176 -5 30 -5 57 1 68 12 22 34 141 43 231 7 74 24 75 26 1z
m1944 55 c3 -5 -1 -10 -9 -10 -8 0 -18 5 -21 10 -3 6 1 10 9 10 8 0 18 -4 21
-10z m-6948 -25 c-7 -13 -14 -20 -15 -14 -5 14 6 39 17 39 5 0 4 -11 -2 -25z
m1563 -97 c-22 -185 -28 -281 -29 -433 -1 -82 -4 -195 -9 -250 l-7 -100 -5
165 -5 165 -29 3 -29 4 32 19 c17 10 31 27 31 36 0 53 31 407 40 453 5 29 10
55 11 59 0 3 3 0 6 -6 2 -7 -1 -59 -7 -115z m3530 113 c0 -12 -20 -25 -27 -18
-7 7 6 27 18 27 5 0 9 -4 9 -9z m-5420 -17 c0 -8 -5 -12 -10 -9 -6 4 -8 11 -5
16 9 14 15 11 15 -7z m5282 -40 c-13 -23 -25 -1 -16 28 6 19 7 19 16 5 5 -10
5 -23 0 -33z m213 -51 c-2 -88 -2 -91 4 -28 4 39 12 81 18 95 11 23 12 22 13
-20 1 -44 1 -44 15 -20 l13 25 6 -25 c3 -14 7 -151 11 -305 3 -154 7 -320 10
-370 4 -84 4 -87 -8 -45 -11 43 -12 40 -15 -72 -1 -68 -7 -118 -12 -118 -6 0
-10 12 -11 28 0 15 -4 36 -9 47 -6 15 -9 4 -11 -40 -1 -33 -4 -109 -8 -170 -6
-102 -7 -94 -14 125 -4 129 -14 321 -22 425 -9 105 -18 224 -22 265 -7 100 20
300 41 300 2 0 3 -44 1 -97z m-4106 50 c0 -34 -1 -36 -11 -16 -6 12 -8 29 -5
37 11 27 17 18 16 -21z m2948 15 c-3 -8 -6 -5 -6 6 -1 11 2 17 5 13 3 -3 4
-12 1 -19z m2579 -3 c20 -31 15 -60 -11 -60 -16 0 -21 8 -23 43 -4 48 9 54 34
17z m-7399 -37 c-2 -13 -4 -5 -4 17 -1 22 1 32 4 23 2 -10 2 -28 0 -40z
m-2563 0 c4 -17 2 -28 -4 -28 -5 0 -10 14 -10 32 0 36 4 35 14 -4z m3146 22
c0 -5 -5 -10 -11 -10 -5 0 -7 5 -4 10 3 6 8 10 11 10 2 0 4 -4 4 -10z m2990
-15 c0 -14 -4 -25 -10 -25 -11 0 -14 33 -3 43 11 11 13 8 13 -18z m-2969 -48
c-8 -8 -11 -4 -11 14 0 33 14 47 18 19 2 -12 -1 -27 -7 -33z m5119 19 c0 -14
-4 -27 -9 -30 -10 -7 -20 23 -14 42 8 21 23 13 23 -12z m2165 14 c3 -5 1 -10
-4 -10 -6 0 -11 5 -11 10 0 6 2 10 4 10 3 0 8 -4 11 -10z m-4768 -22 c-3 -8
-6 -5 -6 6 -1 11 2 17 5 13 3 -3 4 -12 1 -19z m-802 -43 c7 -56 3 -85 -13 -85
-14 0 -23 57 -16 101 9 55 21 48 29 -16z m3795 45 c0 -5 -4 -10 -10 -10 -5 0
-10 5 -10 10 0 6 5 10 10 10 6 0 10 -4 10 -10z m97 -12 c-3 -8 -6 -5 -6 6 -1
11 2 17 5 13 3 -3 4 -12 1 -19z m2068 -45 c-13 -36 -35 -78 -49 -92 -25 -25
-26 -25 -26 -4 0 40 68 161 92 162 4 1 -3 -29 -17 -66z m-9414 -143 l-8 -75
-2 85 c0 47 3 110 7 140 l7 55 3 -65 c1 -36 -2 -99 -7 -140z m1079 190 c0 -5
-5 -10 -11 -10 -5 0 -7 5 -4 10 3 6 8 10 11 10 2 0 4 -4 4 -10z m5140 -31 c0
-24 -4 -38 -10 -34 -17 10 -11 75 7 75 2 0 3 -18 3 -41z m-3621 -201 c1 -108
-3 -179 -9 -183 -7 -4 -10 67 -9 207 1 120 5 200 9 183 4 -16 8 -110 9 -207z
m-3984 212 c3 -5 1 -10 -4 -10 -6 0 -11 5 -11 10 0 6 2 10 4 10 3 0 8 -4 11
-10z m1245 0 c0 -5 -4 -10 -10 -10 -5 0 -10 5 -10 10 0 6 5 10 10 10 6 0 10
-4 10 -10z m105 -229 c-4 -127 -12 -231 -17 -231 -8 0 -4 170 8 378 11 174 16
84 9 -147z m6305 209 c1 9 5 7 10 -7 6 -14 6 -32 0 -45 -9 -23 -9 -23 -9 -2
-1 12 -8 24 -16 28 -16 6 -20 37 -8 50 5 4 11 -3 14 -16 4 -13 8 -16 9 -8z
m510 -5 c0 -19 -4 -35 -10 -35 -11 0 -14 53 -3 63 11 12 13 8 13 -28z m27 13
c-3 -8 -6 -5 -6 6 -1 11 2 17 5 13 3 -3 4 -12 1 -19z m529 -34 c-4 -11 -10
-12 -25 -4 -29 15 -30 14 -34 -42 l-3 -53 -2 62 c-2 59 -1 62 26 71 30 10 49
-6 38 -34z m-4696 6 c0 -16 -4 -30 -10 -30 -5 0 -10 14 -10 30 0 17 5 30 10
30 6 0 10 -13 10 -30z m4889 -27 l-1 -58 -10 43 c-5 24 -7 50 -4 58 11 28 16
13 15 -43z m-789 6 c0 -18 -4 -28 -10 -24 -5 3 -10 20 -10 36 0 18 4 28 10 24
6 -3 10 -20 10 -36z m-2260 21 c0 -5 -2 -10 -4 -10 -3 0 -8 5 -11 10 -3 6 -1
10 4 10 6 0 11 -4 11 -10z m-5862 -28 c2 -7 -6 -12 -17 -12 -21 0 -27 11 -14
24 9 9 26 2 31 -12z m5202 9 c0 -6 -4 -13 -10 -16 -5 -3 -10 1 -10 9 0 9 5 16
10 16 6 0 10 -4 10 -9z m2536 -17 c-8 -30 1 -67 15 -59 5 4 9 23 10 43 l1 37
10 -43 c12 -54 5 -74 -24 -70 -19 2 -24 10 -26 47 -3 44 2 71 14 71 3 0 3 -12
0 -26z m261 -41 c-2 -16 -4 -5 -4 22 0 28 2 40 4 28 2 -13 2 -35 0 -50z m40 5
c-3 -20 -4 -21 -11 -5 -5 9 -5 29 0 45 7 25 8 26 11 5 3 -13 3 -33 0 -45z
m-107 7 c0 -25 -4 -45 -10 -45 -11 0 -14 49 -4 74 10 26 14 18 14 -29z m42 -5
c2 -30 -1 -49 -7 -47 -13 5 -19 97 -7 97 6 0 12 -23 14 -50z m-2337 30 c3 -5
-1 -10 -9 -10 -9 0 -16 5 -16 10 0 6 4 10 9 10 6 0 13 -4 16 -10z m1962 -12
c-3 -8 -6 -5 -6 6 -1 11 2 17 5 13 3 -3 4 -12 1 -19z m223 -35 c0 -18 -4 -33
-10 -33 -5 0 -10 21 -10 48 0 34 3 43 10 32 5 -8 10 -30 10 -47z m40 12 c0
-11 -5 -27 -10 -35 -7 -11 -10 -1 -10 35 0 36 3 46 10 35 5 -8 10 -24 10 -35z
m910 -10 c0 -17 -2 -17 -10 -5 -5 8 -10 24 -10 35 0 17 2 17 10 5 5 -8 10 -24
10 -35z m1769 36 c2 0 -2 -7 -8 -14 -15 -19 -3 -28 27 -20 23 5 24 4 18 -25
-6 -26 -3 -33 27 -56 19 -14 39 -26 46 -26 8 0 10 -7 6 -20 -5 -15 -2 -20 14
-20 23 0 37 -16 19 -22 -21 -7 0 -38 27 -38 14 0 25 -4 25 -10 0 -5 -7 -10
-16 -10 -24 0 -11 -23 27 -47 36 -23 119 -95 119 -103 0 -3 -20 -6 -45 -8 -37
-2 -50 2 -71 23 -14 14 -31 25 -39 25 -8 0 -15 7 -15 15 0 18 -12 19 -28 3
-18 -18 -40 6 -23 26 7 9 8 16 2 20 -5 4 -12 2 -16 -4 -6 -10 -45 -14 -45 -5
0 3 8 17 17 32 17 25 17 25 -5 19 -22 -7 -31 7 -12 19 15 9 12 55 -4 61 -8 3
-28 -5 -45 -17 -41 -30 -50 -17 -17 26 34 44 25 45 -30 0 -23 -19 -45 -35 -48
-35 -7 0 29 54 52 78 26 28 10 22 -33 -14 -25 -20 -49 -34 -53 -30 -4 4 0 13
8 19 21 17 63 78 57 83 -2 3 -18 -7 -35 -21 -39 -33 -46 -32 -27 5 20 38 19
43 -5 30 -27 -14 -27 8 0 43 18 22 26 25 73 22 28 -1 54 -3 56 -4z m-11414
-73 c20 -45 59 -102 100 -148 36 -41 91 -111 120 -156 51 -76 85 -116 85 -99
0 4 -11 20 -25 37 -21 25 -35 78 -20 78 7 0 191 -242 215 -283 44 -75 12 -57
-59 32 -40 51 -75 90 -78 88 -3 -3 18 -35 46 -72 59 -77 70 -117 18 -67 -18
18 -40 32 -48 32 -18 0 -141 115 -158 148 -7 13 -10 34 -7 47 7 29 -7 40 -32
24 -24 -15 -52 -5 -52 17 0 24 -77 124 -95 124 -36 0 -9 -42 113 -180 46 -52
92 -99 101 -104 21 -11 41 -37 41 -53 0 -9 -13 -4 -35 14 -19 15 -35 34 -35
41 0 6 -2 12 -4 12 -2 0 -12 3 -20 6 -12 5 -15 2 -10 -10 10 -25 -3 -19 -51
26 -55 50 -115 130 -115 152 0 15 -22 62 -50 106 -16 26 -60 148 -60 166 0 21
13 11 16 -13 2 -9 15 -42 30 -74 19 -40 34 -59 46 -59 26 0 22 27 -7 56 -14
14 -25 33 -25 43 0 10 -7 38 -15 61 -18 50 -18 50 -5 50 5 0 16 -12 25 -27
l16 -28 -7 43 c-3 23 -3 42 1 42 3 0 21 -33 40 -72z m8189 56 c4 -9 4 -19 2
-21 -8 -8 -26 8 -26 23 0 19 16 18 24 -2z m388 -14 c4 -24 1 -30 -13 -30 -21
0 -38 22 -21 28 7 2 12 10 12 18 0 27 18 14 22 -16z m498 -7 c0 -27 -3 -34
-11 -26 -7 7 -9 23 -5 37 9 37 16 32 16 -11z m1608 15 c-6 -13 -12 -31 -13
-42 -2 -21 -18 -32 -93 -63 -65 -27 -58 -12 14 29 39 21 59 40 69 64 8 19 19
34 25 34 7 0 7 -7 -2 -22z m-10668 -14 c0 -8 -5 -12 -10 -9 -6 4 -8 11 -5 16
9 14 15 11 15 -7z m868 -79 c0 -47 -4 -85 -9 -85 -10 0 -13 129 -3 154 3 9 7
16 8 16 1 0 3 -38 4 -85z m8156 58 c-10 -41 -17 -49 -24 -27 -6 17 -9 15 -23
-12 -29 -56 -70 -50 -48 7 7 17 10 19 10 7 1 -19 21 -26 21 -8 0 14 46 60 60
60 6 0 8 -11 4 -27z m-5661 -75 c-2 -46 -6 -89 -8 -95 -6 -18 -35 -16 -35 2 0
8 5 15 10 15 6 0 10 26 10 58 0 63 8 102 20 102 5 0 6 -37 3 -82z m2327 44 c0
-9 -5 -24 -10 -32 -7 -11 -10 -5 -10 23 0 23 4 36 10 32 6 -3 10 -14 10 -23z
m2769 -9 c0 -34 -1 -36 -11 -16 -6 12 -8 29 -5 37 11 27 17 18 16 -21z m-6298
-78 c-6 -43 -9 -50 -10 -25 -1 41 12 122 16 100 2 -8 -1 -42 -6 -75z m5429 63
c0 -16 -3 -19 -11 -11 -6 6 -8 16 -5 22 11 17 16 13 16 -11z m1308 -11 c2 -15
-1 -27 -7 -27 -6 0 -11 7 -11 15 0 23 -17 18 -25 -7 l-8 -23 -4 24 c-3 16 1
29 13 38 25 18 38 12 42 -20z m667 7 c6 -11 20 -29 31 -41 39 -38 88 -191 99
-310 6 -58 2 -90 -29 -219 -20 -83 -36 -175 -36 -205 -1 -40 -3 -50 -11 -37
-19 34 -28 161 -18 256 8 73 7 116 -5 204 -9 62 -16 152 -16 200 0 89 -12 116
-24 56 -4 -18 -4 -71 -1 -118 3 -61 2 -75 -4 -50 -5 19 -11 92 -13 163 -3 124
3 147 27 101z m1930 16 c3 -5 1 -10 -4 -10 -6 0 -11 5 -11 10 0 6 2 10 4 10 3
0 8 -4 11 -10z m-3305 -10 c0 -5 -5 -10 -11 -10 -5 0 -7 5 -4 10 3 6 8 10 11
10 2 0 4 -4 4 -10z m368 -30 l2 -35 -15 28 c-9 15 -20 27 -26 27 -6 0 -7 5 -4
11 14 22 40 4 43 -31z m518 -44 c-4 -46 -11 -99 -16 -118 -12 -41 -12 -345 0
-373 5 -13 9 31 9 118 1 75 5 137 9 137 5 0 12 -57 15 -127 8 -158 6 -590 -2
-511 -9 81 -18 80 -27 -4 l-8 -73 -9 130 c-11 158 -11 169 -3 200 11 45 -8 26
-39 -38 -26 -53 -37 -66 -83 -90 -29 -16 -60 -27 -70 -25 -12 3 -7 9 18 20 37
16 136 115 126 125 -3 4 -15 -2 -27 -13 -11 -10 -46 -31 -77 -46 -53 -26 -51
-29 6 -13 12 3 22 2 22 -3 0 -17 -56 -35 -127 -40 -75 -5 -92 -22 -22 -22 21
0 39 -4 39 -10 0 -13 -59 -13 -100 1 -45 16 -50 4 -50 -118 0 -67 -4 -103 -11
-103 -7 0 -10 37 -7 114 2 95 6 117 22 135 15 16 16 21 5 25 -8 2 -33 9 -57
15 -37 10 -46 19 -63 54 -27 61 -25 112 6 141 39 36 77 96 92 145 16 55 17
128 1 133 -8 3 -7 11 5 28 23 33 24 138 1 147 -25 9 -31 -10 -37 -125 -7 -119
-25 -193 -67 -267 -34 -60 -49 -143 -51 -280 -1 -55 -5 -134 -9 -175 -6 -63
-7 -50 -9 90 -2 91 -6 176 -11 190 l-7 25 -7 -25 c-3 -14 -7 -72 -9 -130 -2
-84 -3 -74 -5 48 -2 145 -1 156 24 215 29 69 43 182 44 360 l0 108 138 -7
c128 -6 144 -5 208 16 77 25 179 74 189 90 3 5 13 10 22 10 14 0 15 -11 9 -84z
m-576 54 c0 -11 -4 -20 -10 -20 -5 0 -10 9 -10 20 0 11 5 20 10 20 6 0 10 -9
10 -20z m330 8 c0 -7 -5 -20 -10 -28 -8 -12 -10 -9 -10 13 0 15 5 27 10 27 6
0 10 -6 10 -12z m-230 -28 c0 -11 -4 -20 -10 -20 -5 0 -10 9 -10 20 0 11 5 20
10 20 6 0 10 -9 10 -20z m114 -5 c15 -15 21 -27 14 -31 -6 -4 -18 3 -27 15
-13 17 -19 19 -29 9 -9 -9 -12 -9 -12 4 0 14 5 19 27 27 1 1 13 -10 27 -24z
m70 10 c-4 -8 -8 -15 -10 -15 -2 0 -4 7 -4 15 0 8 4 15 10 15 5 0 7 -7 4 -15z
m-144 -31 c0 -8 -5 -12 -10 -9 -6 4 -8 11 -5 16 9 14 15 11 15 -7z m1400 -142
c18 -164 10 -274 -25 -342 -31 -61 -85 -140 -95 -140 -4 0 20 53 53 117 l60
118 -11 165 c-7 91 -12 181 -11 200 1 63 16 3 29 -118z m-3990 117 c-7 -11
-14 -19 -16 -16 -7 7 7 37 17 37 6 0 5 -9 -1 -21z m2167 -51 c-2 -13 -4 -5 -4
17 -1 22 1 32 4 23 2 -10 2 -28 0 -40z m3233 44 c0 -14 -48 -54 -60 -50 -15 5
27 58 46 58 8 0 14 -4 14 -8z m-3260 -57 c0 -37 -16 -68 -24 -45 -12 40 -14
78 -4 88 16 16 28 -3 28 -43z m1327 8 c-3 -10 -5 -4 -5 12 0 17 2 24 5 18 2
-7 2 -21 0 -30z m-8647 -8 c0 -19 -4 -35 -10 -35 -11 0 -14 53 -3 63 11 12 13
8 13 -28z m-1080 -18 c0 -18 -2 -19 -10 -7 -13 20 -13 43 0 35 6 -3 10 -16 10
-28z m3569 -24 c0 -35 -1 -36 -10 -14 -5 14 -7 31 -5 38 10 24 16 13 15 -24z
m-1199 -12 c0 -22 -4 -43 -10 -46 -6 -4 -10 12 -10 39 0 25 5 46 10 46 6 0 10
-18 10 -39z m-2210 -53 c0 -5 -9 -8 -20 -8 -12 0 -20 7 -20 18 0 9 -7 26 -15
36 -8 11 -15 24 -15 30 0 11 69 -65 70 -76z m6110 57 c0 -8 -4 -17 -10 -20 -6
-4 -10 5 -10 20 0 15 4 24 10 20 6 -3 10 -12 10 -20z m-6210 -5 c0 -5 -4 -10
-10 -10 -5 0 -10 5 -10 10 0 6 5 10 10 10 6 0 10 -4 10 -10z m370 -5 c7 -8 8
-15 2 -15 -5 0 -15 7 -22 15 -7 8 -8 15 -2 15 5 0 15 -7 22 -15z m9540 -11 c0
-12 -2 -12 -14 -2 -8 7 -12 16 -9 21 7 11 23 -2 23 -19z m-5173 -171 c-2 -37
-3 -9 -3 62 0 72 1 102 3 68 2 -34 2 -93 0 -130z m5273 177 c0 -5 -2 -10 -4
-10 -3 0 -8 5 -11 10 -3 6 -1 10 4 10 6 0 11 -4 11 -10z m-4980 -15 c0 -8 -4
-15 -10 -15 -5 0 -10 7 -10 15 0 8 5 15 10 15 6 0 10 -7 10 -15z m3340 -11 c0
-8 -5 -12 -10 -9 -6 4 -8 11 -5 16 9 14 15 11 15 -7z m3235 6 c3 -5 -1 -10 -9
-10 -8 0 -18 5 -21 10 -3 6 1 10 9 10 8 0 18 -4 21 -10z m-3846 -37 c0 -31 -2
-34 -9 -18 -12 28 -12 55 0 55 6 0 10 -17 9 -37z m-7819 6 c0 -6 -4 -7 -10 -4
-5 3 -10 11 -10 16 0 6 5 7 10 4 6 -3 10 -11 10 -16z m9293 -9 c-7 -28 -13
-25 -13 6 0 14 4 23 9 20 5 -3 7 -15 4 -26z m2417 10 c0 -6 -11 -23 -25 -38
-28 -30 -34 -15 -9 23 17 26 34 33 34 15z m-1723 -47 c-3 -10 -5 -2 -5 17 0
19 2 27 5 18 2 -10 2 -26 0 -35z m-7637 -211 c-9 -13 -10 4 -6 68 3 47 7 103
8 125 1 22 4 -9 5 -68 2 -67 -1 -114 -7 -125z m1218 118 c0 -41 -4 -88 -8
-105 l-8 -30 -1 27 c-2 39 -20 45 -27 9 -4 -17 -10 -31 -14 -31 -4 0 -5 11 -3
25 4 19 0 27 -21 36 -14 7 -26 20 -26 31 0 10 -1 21 -2 26 -1 4 6 9 16 10 14
3 17 -1 11 -20 -6 -22 -6 -22 9 -4 9 11 16 28 16 38 0 10 5 18 10 18 6 0 10
-15 10 -32 0 -61 20 -7 21 57 0 43 3 54 9 40 5 -11 8 -54 8 -95z m7260 103
c-2 -5 -30 -61 -62 -125 -32 -65 -60 -118 -62 -118 -21 0 40 155 87 221 18 25
47 42 37 22z m932 -3 c0 -5 -2 -10 -4 -10 -3 0 -8 5 -11 10 -3 6 -1 10 4 10 6
0 11 -4 11 -10z m-11697 -27 c19 -19 26 -22 22 -10 -15 38 16 14 63 -50 65
-87 113 -132 183 -171 64 -36 84 -56 93 -94 3 -14 26 -57 51 -94 25 -36 45
-69 45 -71 0 -12 -82 62 -97 88 -10 16 -21 29 -25 29 -16 0 21 -56 66 -100 83
-80 48 -64 -46 21 -97 89 -107 81 -14 -11 31 -30 56 -59 56 -64 0 -5 -42 32
-94 82 -51 51 -96 92 -100 92 -10 0 27 -50 54 -75 12 -11 31 -33 43 -50 11
-16 -35 24 -102 90 -67 66 -129 132 -136 146 -11 20 -20 25 -39 22 -17 -4 -33
3 -55 23 -40 35 -40 52 -1 23 16 -13 33 -19 37 -15 4 4 -1 12 -12 19 -33 18
-124 108 -131 129 -7 24 15 53 30 38 15 -15 26 -12 26 7 0 14 2 14 21 -3 21
-19 22 -19 15 4 -10 31 11 29 47 -5z m2373 -157 c-4 -101 -11 -196 -15 -212
-5 -17 -7 48 -4 151 4 183 9 245 20 245 3 0 3 -83 -1 -184z m-2077 0 c6 -16
-25 10 -91 73 -32 31 -58 59 -58 64 0 11 143 -121 149 -137z m747 98 c-9 -31
-11 -32 -14 -12 -2 12 -9 29 -14 36 -8 9 -4 12 14 12 24 0 25 -1 14 -36z
m1294 -56 c-5 -35 -10 -83 -11 -108 -1 -25 -4 -36 -6 -26 -9 35 8 231 18 213
6 -10 6 -40 -1 -79z m7144 37 c4 -19 2 -43 -3 -53 -9 -15 -10 -13 -11 9 0 15
-3 41 -7 59 -4 22 -3 31 4 27 6 -4 14 -23 17 -42z m245 -137 c-2 -101 0 -208
4 -238 l8 -55 -20 35 c-10 19 -23 33 -28 30 -4 -3 -10 6 -11 19 -2 13 1 21 6
17 5 -3 12 35 15 92 13 195 20 282 25 282 2 0 2 -82 1 -182z m-5075 163 c3 -4
-1 -17 -9 -27 -14 -18 -14 -18 -15 9 0 26 13 36 24 18z m-2397 -68 c-2 -16 -4
-5 -4 22 0 28 2 40 4 28 2 -13 2 -35 0 -50z m-2052 7 c50 -51 47 -67 -6 -29
-29 20 -67 79 -51 79 4 0 30 -22 57 -50z m-315 10 c0 -5 -7 -10 -15 -10 -8 0
-15 -5 -15 -11 0 -8 -5 -8 -15 1 -23 19 -18 30 15 30 17 0 30 -4 30 -10z
m3660 -410 c6 0 10 15 10 34 0 19 5 38 10 41 6 4 10 -18 10 -59 0 -37 -4 -66
-10 -66 -5 0 -10 5 -10 10 0 6 -6 10 -14 10 -7 0 -16 14 -20 31 -8 43 -8 235
2 339 6 70 7 48 10 -127 1 -131 6 -213 12 -213z m2270 404 c0 -8 -4 -12 -10
-9 -5 3 -10 10 -10 16 0 5 5 9 10 9 6 0 10 -7 10 -16z m-5972 -46 c16 -16 15
-29 -2 -22 -16 6 -30 34 -18 34 5 0 13 -5 20 -12z m1332 -18 c0 -34 -24 -50
-43 -30 -10 10 -8 12 6 7 13 -5 17 -1 17 17 0 20 7 36 17 36 2 0 3 -14 3 -30z
m4567 -242 c-1 -51 -3 -10 -3 92 0 102 2 143 3 93 2 -51 2 -135 0 -185z m1693
262 c0 -5 -5 -10 -11 -10 -5 0 -7 5 -4 10 3 6 8 10 11 10 2 0 4 -4 4 -10z
m-2780 -20 c0 -21 -15 -27 -25 -10 -7 12 2 30 16 30 5 0 9 -9 9 -20z m-4883
-21 c41 -35 54 -32 27 8 -15 23 -9 20 34 -16 32 -26 69 -47 95 -53 57 -12 137
-67 225 -153 73 -72 86 -95 55 -95 -12 -1 6 -23 52 -67 58 -54 64 -62 35 -48
-19 10 -57 34 -85 54 -44 33 -146 91 -160 91 -2 0 -2 -7 2 -17 5 -13 2 -15
-18 -9 -34 9 -107 24 -153 31 -35 6 -37 7 -20 20 18 14 18 14 -2 15 -28 0
-121 -69 -157 -118 -16 -20 -47 -72 -69 -115 -23 -44 -48 -81 -55 -84 -33 -13
-50 35 -45 126 2 25 6 32 17 27 12 -4 15 3 15 29 0 19 5 35 11 35 8 0 9 12 4
37 l-7 38 21 -19 c25 -23 26 -17 6 31 -20 48 -19 50 11 22 l27 -24 -7 34 c-6
34 -6 34 14 16 27 -24 37 -12 16 19 -22 35 -20 41 9 22 36 -24 39 -20 16 20
-28 47 -27 49 14 18 43 -32 44 -22 5 39 -36 57 -29 60 22 10 21 -20 38 -33 38
-27 0 5 -5 15 -12 22 -22 22 1 24 31 2 41 -29 39 -17 -7 39 -65 78 -67 95 -5
40z m2024 -201 c-8 -28 -9 -20 -10 47 0 44 3 105 7 135 6 50 7 46 10 -47 1
-57 -2 -117 -7 -135z m10249 162 c14 -51 12 -77 -6 -84 -25 -9 -28 -1 -9 27
15 23 14 28 -5 78 -14 38 -16 48 -5 34 8 -10 20 -35 25 -55z m-11660 12 c-12
-4 -50 26 -50 40 0 5 14 -2 31 -14 16 -12 25 -24 19 -26z m80 -5 c0 -6 -11 0
-25 13 -14 13 -25 28 -25 33 0 6 11 0 25 -13 14 -13 25 -28 25 -33z m5347
-114 c-2 -32 -3 -6 -3 57 0 63 1 89 3 58 2 -32 2 -84 0 -115z m3664 -110 c-4
-104 -9 -169 -9 -146 -1 23 -8 48 -16 56 -11 11 -12 17 -3 26 7 7 13 71 16
179 3 121 7 154 12 120 4 -26 4 -132 0 -235z m-7711 163 c0 -59 -4 -108 -10
-111 -6 -4 -10 33 -10 104 0 67 4 111 10 111 6 0 10 -41 10 -104z m8115 85
c-3 -6 -11 -11 -17 -11 -6 0 -6 6 2 15 14 17 26 13 15 -4z m-8164 -179 c-8
-12 -11 7 -12 73 -2 97 -7 87 -27 -50 -9 -59 -9 -59 -11 42 l-1 101 28 10 27
9 3 -84 c1 -46 -2 -91 -7 -101z m-1211 168 c0 -5 -2 -10 -4 -10 -3 0 -8 5 -11
10 -3 6 -1 10 4 10 6 0 11 -4 11 -10z m1099 -109 c-1 -99 -16 -96 -18 4 -2 79
-21 93 -21 16 0 -46 -3 -62 -11 -54 -7 7 -8 35 -4 81 7 70 8 70 31 60 23 -11
24 -15 23 -107z m5231 -75 c-7 -7 -10 14 -10 70 0 119 14 148 18 35 2 -56 -1
-98 -8 -105z m-5740 170 c0 -3 -4 -8 -10 -11 -5 -3 -10 -1 -10 4 0 6 5 11 10
11 6 0 10 -2 10 -4z m541 -198 c-7 -26 -9 -10 -10 78 -1 61 2 114 7 118 11 12
14 -158 3 -196z m3209 169 c0 -12 -5 -29 -10 -37 -7 -11 -10 -3 -10 28 0 26 4
41 10 37 6 -3 10 -16 10 -28z m5508 -56 c7 -41 23 -101 37 -135 13 -33 23 -62
21 -64 -2 -2 -13 10 -25 26 -24 35 -47 118 -57 205 -9 86 9 62 24 -32z
m-10703 68 c10 -15 -1 -22 -24 -14 -12 3 -19 11 -16 16 8 12 32 11 40 -2z
m2866 -171 c-8 -27 -9 -17 -10 59 -1 50 2 100 7 110 11 27 14 -130 3 -169z
m36 40 c-2 -29 -3 -8 -3 47 0 55 1 79 3 53 2 -26 2 -71 0 -100z m5755 120 c-7
-7 -12 -8 -12 -2 0 14 12 26 19 19 2 -3 -1 -11 -7 -17z m-3513 -132 c-9 -8
-10 -1 -5 29 3 22 7 58 8 80 1 22 4 9 5 -29 3 -44 0 -73 -8 -80z m2598 122
c-3 -8 -6 -5 -6 6 -1 11 2 17 5 13 3 -3 4 -12 1 -19z m-4748 -32 c-3 -3 -11 5
-18 17 -13 21 -12 21 5 5 10 -10 16 -20 13 -22z m6628 -3 c-3 -10 -5 -4 -5 12
0 17 2 24 5 18 2 -7 2 -21 0 -30z m-4546 -100 c-8 -14 -10 -2 -11 48 0 36 3
69 8 73 11 12 14 -102 3 -121z m-2131 27 c0 -53 -4 -90 -10 -90 -5 0 -10 17
-10 38 0 45 11 142 16 142 2 0 4 -40 4 -90z m8671 20 c-13 -55 -16 -60 -19
-34 -3 29 23 112 32 103 2 -2 -3 -33 -13 -69z m-8245 -32 c-3 -51 -9 -136 -12
-188 -6 -91 -8 -95 -30 -96 -20 -2 -24 3 -24 27 0 16 9 38 20 49 18 18 20 32
19 138 -1 89 -3 108 -10 77 -4 -22 -9 -71 -9 -110 -2 -65 -3 -67 -12 -35 -17
58 -6 161 20 198 38 53 46 42 38 -60z m2311 60 c-3 -7 -5 -2 -5 12 0 14 2 19
5 13 2 -7 2 -19 0 -25z m4314 -19 l-10 -24 0 26 c-1 14 2 29 6 33 12 12 14 -9
4 -35z m-9011 16 c7 -9 8 -15 2 -15 -5 0 -12 7 -16 15 -3 8 -4 15 -2 15 2 0 9
-7 16 -15z m3231 -55 l-9 -55 -1 65 c-1 39 3 60 8 55 6 -6 6 -33 2 -65z m3538
28 c1 -5 -3 -8 -9 -8 -5 0 -10 12 -9 28 0 24 1 25 9 7 5 -11 9 -23 9 -27z
m-4768 -80 l-5 -83 -9 62 c-5 34 -6 79 -2 100 12 60 21 16 16 -79z m5728 60
c0 -29 -4 -75 -9 -103 -6 -43 -8 -35 -9 53 0 62 3 102 9 102 6 0 10 -24 9 -52z
m-3666 5 c-6 -39 -23 -70 -23 -41 0 30 13 78 21 78 4 0 5 -17 2 -37z m243 3
c-6 -19 -11 -34 -12 -33 -1 1 -4 17 -7 35 -5 27 -3 32 12 32 16 0 17 -4 7 -34z
m4619 -6 c-5 -15 -10 -19 -17 -12 -5 5 -7 20 -3 32 5 15 10 19 17 12 5 -5 7
-20 3 -32z m1535 30 c0 -5 -4 -10 -10 -10 -5 0 -10 5 -10 10 0 6 5 10 10 10 6
0 10 -4 10 -10z m-8160 -98 c0 -53 -3 -72 -10 -62 -5 8 -10 35 -10 60 0 54
-19 36 -21 -20 l-1 -35 -8 30 c-9 40 -1 87 18 102 25 21 32 5 32 -75z m437 66
c-3 -8 -6 -5 -6 6 -1 11 2 17 5 13 3 -3 4 -12 1 -19z m61 -138 c-13 -11 -26
-19 -30 -20 -12 0 13 58 28 64 9 4 15 24 16 63 2 54 2 53 5 -15 4 -66 2 -75
-19 -92z m8615 130 c-6 -21 -21 -35 -29 -27 -2 2 0 16 6 31 11 31 31 27 23 -4z
m-5403 -166 c0 -121 -3 -183 -10 -179 -6 4 -10 75 -10 179 0 152 3 186 17 186
2 0 3 -84 3 -186z m-6140 141 c25 -30 3 -25 -26 6 -22 24 -24 29 -8 21 11 -6
27 -18 34 -27z m370 31 c0 -11 -19 -15 -25 -6 -3 5 1 10 9 10 9 0 16 -2 16 -4z
m1809 -58 c0 -35 -4 -85 -9 -113 -6 -41 -8 -31 -9 63 0 69 3 112 9 112 6 0 10
-27 9 -62z m1212 -11 c-8 -8 -11 -1 -11 24 0 46 14 60 18 19 2 -18 -1 -37 -7
-43z m3484 -19 l-10 -83 -3 74 c-3 76 2 106 16 97 4 -2 3 -42 -3 -88z m1055
-20 c0 -77 -3 -108 -10 -98 -15 23 -9 210 6 210 2 0 4 -51 4 -112z m-6900 95
c0 -5 -5 -15 -10 -23 -8 -12 -10 -11 -10 8 0 12 5 22 10 22 6 0 10 -3 10 -7z
m1195 -69 c-5 -39 -10 -53 -16 -43 -10 16 -12 103 -2 113 16 16 25 -16 18 -70z
m985 55 c0 -5 -4 -9 -10 -9 -5 0 -10 7 -10 16 0 8 5 12 10 9 6 -3 10 -10 10
-16z m255 8 c12 -10 14 -16 7 -21 -7 -4 -12 -19 -13 -34 l-1 -27 -13 30 c-11
25 -13 27 -18 10 -3 -12 -5 -4 -6 18 -1 40 11 47 44 24z m893 -64 c-4 -23 -6
-25 -12 -10 -5 9 -5 34 0 55 7 34 8 35 12 10 2 -16 2 -40 0 -55z m7142 74 c0
-2 -10 -12 -22 -23 l-23 -19 19 23 c18 21 26 27 26 19z m-9150 -24 c0 -10 -4
-36 -8 -58 l-7 -40 -5 50 -6 50 -17 -35 -16 -35 -1 36 c0 42 5 49 37 49 15 0
23 -6 23 -17z m2450 13 c0 -3 -4 -8 -10 -11 -5 -3 -10 -1 -10 4 0 6 5 11 10
11 6 0 10 -2 10 -4z m2130 -6 c0 -5 -2 -10 -4 -10 -3 0 -8 5 -11 10 -3 6 -1
10 4 10 6 0 11 -4 11 -10z m2216 -17 c-10 -10 -19 5 -10 18 6 11 8 11 12 0 2
-7 1 -15 -2 -18z m-5599 -15 c-3 -7 -5 -2 -5 12 0 14 2 19 5 13 2 -7 2 -19 0
-25z m1003 7 c13 -14 21 -25 18 -25 -2 0 -15 11 -28 25 -13 14 -21 25 -18 25
2 0 15 -11 28 -25z m1486 -25 c-14 -22 -31 -40 -37 -40 -12 0 -6 11 28 58 35
46 42 31 9 -18z m4854 46 c0 -2 -8 -10 -17 -17 -16 -13 -17 -12 -4 4 13 16 21
21 21 13z m-7393 -83 c-2 -16 -4 -3 -4 27 0 30 2 43 4 28 2 -16 2 -40 0 -55z
m2254 -7 c18 -15 44 -33 58 -38 14 -6 21 -12 14 -15 -31 -11 -143 86 -143 125
0 12 6 7 19 -13 10 -17 33 -43 52 -59z m1558 -13 c1 -28 -3 -55 -9 -58 -6 -4
-10 17 -10 56 l0 62 -25 -23 c-18 -17 -25 -34 -26 -64 -1 -69 -17 -90 -18 -23
-1 63 -8 68 -70 46 -42 -15 -137 -3 -160 20 -10 10 -25 20 -34 24 -23 9 -21
24 3 32 25 8 39 0 50 -31 8 -19 17 -24 47 -26 69 -3 108 3 139 23 17 10 33 17
35 14 3 -2 18 7 34 20 l30 23 7 -21 c3 -12 6 -45 7 -74z m32 -8 l-8 -90 -2 82
c0 45 2 89 6 99 12 31 13 2 4 -91z m333 43 c-9 -84 -14 -86 -14 -5 0 40 4 67
10 67 7 0 9 -21 4 -62z m501 52 c4 -6 3 -72 -2 -148 -8 -135 -8 -136 -14 -62
-14 171 -8 249 16 210z m893 -39 c2 -29 0 -41 -7 -36 -6 3 -8 17 -5 30 3 12 1
26 -5 29 -15 10 -14 29 2 24 6 -3 13 -24 15 -47z m-6807 -18 c-9 -15 -10 -13
-11 13 0 17 3 34 8 38 11 12 14 -32 3 -51z m2199 35 c0 -16 -3 -19 -11 -11 -6
6 -8 16 -5 22 11 17 16 13 16 -11z m-4145 2 c3 -5 2 -10 -4 -10 -5 0 -13 5
-16 10 -3 6 -2 10 4 10 5 0 13 -4 16 -10z m5765 0 c0 -5 -5 -10 -11 -10 -5 0
-7 5 -4 10 3 6 8 10 11 10 2 0 4 -4 4 -10z m3394 -47 c-10 -24 -18 -33 -22
-24 -2 8 4 30 14 49 24 44 30 26 8 -25z m-1687 -5 c-2 -13 -4 -5 -4 17 -1 22
1 32 4 23 2 -10 2 -28 0 -40z m882 0 c0 -29 -4 -75 -9 -103 -6 -43 -8 -35 -9
53 0 62 3 102 9 102 6 0 10 -24 9 -52z m-5349 32 c0 -5 -4 -10 -10 -10 -5 0
-10 5 -10 10 0 6 5 10 10 10 6 0 10 -4 10 -10z m1522 -25 c-11 -21 -25 -4 -16
20 4 10 10 13 16 7 7 -7 7 -16 0 -27z m-1852 -10 c0 -19 -4 -35 -10 -35 -5 0
-10 16 -10 35 0 19 5 35 10 35 6 0 10 -16 10 -35z m1509 -7 c-1 -35 -2 -38 -8
-18 -7 23 -4 60 5 60 2 0 4 -19 3 -42z m541 12 c0 -16 -4 -30 -10 -30 -11 0
-14 43 -3 53 11 12 13 8 13 -23z m267 -17 c-3 -10 -5 -2 -5 17 0 19 2 27 5 18
2 -10 2 -26 0 -35z m793 -8 c0 -25 -4 -45 -10 -45 -5 0 -10 20 -10 45 0 25 5
45 10 45 6 0 10 -20 10 -45z m820 31 c0 -8 -4 -18 -10 -21 -5 -3 -10 3 -10 14
0 12 5 21 10 21 6 0 10 -6 10 -14z m519 -50 c-9 -8 -10 -7 -5 7 3 10 7 28 7
40 2 16 3 14 6 -7 3 -16 -1 -34 -8 -40z m118 -28 c-2 -18 -4 -4 -4 32 0 36 2
50 4 33 2 -18 2 -48 0 -65z m662 -45 c-1 -85 -4 -128 -9 -113 -12 37 -12 250
0 250 6 0 10 -52 9 -137z m2610 85 c-18 -62 -31 -75 -60 -54 l-23 16 27 0 c17
0 30 6 33 18 26 75 43 91 23 20z m-7729 7 c0 -19 -4 -35 -10 -35 -11 0 -13 30
-4 54 10 25 14 19 14 -19z m2588 -80 c0 -38 -1 -39 -8 -10 -4 17 -8 53 -8 80
l0 50 9 -40 c4 -22 8 -58 7 -80z m2935 -11 c-5 -75 -9 -100 -14 -79 -15 68 -6
216 13 197 5 -5 6 -55 1 -118z m-9155 101 c74 -18 162 -54 162 -66 0 -13 -3
-12 -109 22 -53 17 -126 33 -163 36 -38 3 -68 10 -68 14 0 14 109 10 178 -6z
m3702 -52 c0 -24 -5 -43 -10 -43 -7 0 -8 13 -5 34 6 28 3 36 -14 46 -12 6 -19
15 -16 20 4 6 14 5 25 -3 15 -9 20 -23 20 -54z m817 45 c-3 -8 -6 -5 -6 6 -1
11 2 17 5 13 3 -3 4 -12 1 -19z m734 -19 c-9 -23 -10 -22 -10 11 -1 23 2 31 9
24 7 -7 7 -19 1 -35z m279 15 c0 -8 -4 -14 -10 -14 -5 0 -10 9 -10 21 0 11 5
17 10 14 6 -3 10 -13 10 -21z m3259 -116 c-1 -87 -4 -133 -9 -118 -4 14 -8 75
-9 136 -1 97 3 124 16 124 2 0 3 -64 2 -142z m681 132 c0 -5 -5 -10 -11 -10
-5 0 -7 5 -4 10 3 6 8 10 11 10 2 0 4 -4 4 -10z m-6190 -10 c0 -5 -5 -10 -11
-10 -5 0 -7 5 -4 10 3 6 8 10 11 10 2 0 4 -4 4 -10z m3220 2 c0 -4 -13 -13
-29 -20 -24 -11 -38 -11 -73 0 l-43 13 60 6 c33 3 66 6 73 7 6 1 12 -1 12 -6z
m88 -38 c-2 -18 -9 -29 -18 -29 -12 0 -14 -12 -12 -57 2 -33 -1 -59 -7 -63
-18 -11 -14 130 4 145 8 7 15 22 15 33 0 15 3 18 11 10 6 -6 9 -23 7 -39z
m892 16 c0 -16 -4 -30 -10 -30 -11 0 -14 43 -3 53 11 12 13 8 13 -23z m320
-27 c0 -17 -4 -35 -10 -38 -6 -4 -10 14 -10 47 0 38 3 49 10 38 5 -8 10 -29
10 -47z m1887 35 c-3 -8 -6 -5 -6 6 -1 11 2 17 5 13 3 -3 4 -12 1 -19z m-4592
2 c3 -6 -4 -10 -17 -10 -18 0 -20 2 -8 10 19 12 18 12 25 0z m631 -17 c-10
-10 -19 5 -10 18 6 11 8 11 12 0 2 -7 1 -15 -2 -18z m3381 -125 c-2 -29 -3 -6
-3 52 0 58 1 81 3 53 2 -29 2 -77 0 -105z m-5340 105 c-3 -10 -5 -4 -5 12 0
17 2 24 5 18 2 -7 2 -21 0 -30z m710 5 c-3 -7 -5 -2 -5 12 0 14 2 19 5 13 2
-7 2 -19 0 -25z m810 0 c-3 -7 -5 -2 -5 12 0 14 2 19 5 13 2 -7 2 -19 0 -25z
m3784 -58 l-8 -75 -2 76 c0 42 2 79 6 83 13 12 13 -6 4 -84z m-9144 70 c92
-10 283 -71 283 -91 0 -14 -10 -12 -132 27 -62 19 -146 40 -185 46 -40 7 -73
15 -73 20 0 10 -6 10 107 -2z m3810 -22 c-3 -7 -5 -2 -5 12 0 14 2 19 5 13 2
-7 2 -19 0 -25z m709 -13 c-3 -8 -12 -12 -20 -9 -9 3 -16 -2 -18 -13 -3 -17
-4 -17 -10 -1 -5 12 1 26 20 43 22 21 28 22 30 10 2 -9 1 -23 -2 -30z m3104
16 c-1 -9 -7 -29 -15 -46 l-13 -30 -1 43 c-1 23 -5 42 -11 42 -5 0 -10 4 -10
9 0 4 11 6 25 3 15 -2 25 -11 25 -21z m168 -33 c-1 -42 -3 -51 -5 -25 -4 38
-23 53 -23 17 0 -11 -4 -20 -10 -20 -18 0 -11 68 8 79 29 18 32 13 30 -51z
m1151 -50 c-1 -88 -3 -104 -10 -73 -15 74 -11 185 8 185 2 0 2 -51 2 -112z
m-3702 70 c-3 -7 -5 -2 -5 12 0 14 2 19 5 13 2 -7 2 -19 0 -25z m50 10 c-3 -8
-6 -5 -6 6 -1 11 2 17 5 13 3 -3 4 -12 1 -19z m3692 -65 c-1 -81 -2 -85 -11
-46 -9 37 -4 133 8 133 2 0 3 -39 3 -87z m38 -20 c-2 -21 -4 -4 -4 37 0 41 2
58 4 38 2 -21 2 -55 0 -75z m52 75 c0 -18 -4 -55 -9 -83 -7 -47 -7 -45 -9 33
0 49 3 82 9 82 6 0 10 -15 9 -32z m40 10 c0 -13 -4 -32 -8 -43 -7 -17 -9 -14
-13 15 -6 37 -3 50 13 50 5 0 9 -10 8 -22z m-5219 3 c0 -6 -4 -13 -10 -16 -5
-3 -10 1 -10 9 0 9 5 16 10 16 6 0 10 -4 10 -9z m1325 -1 c3 -5 -1 -10 -10
-10 -9 0 -13 5 -10 10 3 6 8 10 10 10 2 0 7 -4 10 -10z m1310 0 c-3 -5 -20
-10 -36 -10 -18 0 -28 4 -24 10 3 6 20 10 36 10 18 0 28 -4 24 -10z m1124 -32
l-1 -43 -8 35 c-8 32 -6 50 6 50 2 0 4 -19 3 -42z m68 -50 c-2 -18 -4 -4 -4
32 0 36 2 50 4 33 2 -18 2 -48 0 -65z m-3286 39 c-8 -8 -11 -5 -11 9 0 27 14
41 18 19 2 -9 -1 -22 -7 -28z m3796 -4 c-3 -10 -5 -2 -5 17 0 19 2 27 5 18 2
-10 2 -26 0 -35z m-8167 14 c83 -23 226 -80 212 -85 -10 -3 -48 6 -139 34 -10
3 2 -6 27 -20 25 -13 62 -28 83 -31 20 -4 37 -11 37 -16 0 -12 -14 -11 -85 5
-33 8 -62 13 -64 10 -8 -8 84 -42 132 -49 26 -4 50 -12 54 -18 4 -6 -3 -8 -18
-5 -13 3 -58 14 -101 23 -64 15 -81 16 -105 5 -28 -13 -29 -15 -16 -41 8 -17
25 -30 42 -34 16 -3 46 -15 67 -26 21 -10 44 -19 51 -19 6 0 14 -4 17 -9 3 -4
-13 -5 -37 0 -23 5 -60 11 -82 14 l-40 5 40 -19 40 -19 -45 -3 -45 -4 60 -19
c116 -38 89 -50 -36 -16 -41 10 -92 26 -114 33 -22 8 -59 18 -83 22 -36 6 -41
4 -36 -9 5 -13 -2 -16 -41 -16 -46 0 -48 1 -31 19 15 17 15 19 1 25 -9 3 -28
6 -41 6 -14 0 -22 4 -19 10 3 6 17 10 31 10 34 0 30 17 -7 25 -37 8 -21 25 24
25 16 0 26 4 22 10 -3 6 -17 10 -31 10 -14 0 -22 4 -19 10 3 6 22 10 41 10 38
0 39 20 1 21 l-22 0 23 11 c12 6 22 17 22 25 0 11 -4 11 -20 1 -26 -16 -40 0
-16 18 12 8 43 14 75 14 42 0 52 3 43 12 -6 6 -36 11 -69 10 -40 -1 -53 2 -43
8 8 5 53 10 100 11 98 1 75 16 -27 18 -40 1 -63 5 -63 12 0 16 178 6 250 -14z
m3927 -9 c-3 -7 -5 -2 -5 12 0 14 2 19 5 13 2 -7 2 -19 0 -25z m3510 -15 c-3
-10 -5 -2 -5 17 0 19 2 27 5 18 2 -10 2 -26 0 -35z m193 17 c0 -10 -4 -22 -10
-25 -6 -4 -10 7 -10 25 0 18 4 29 10 25 6 -3 10 -15 10 -25z m1980 9 c0 -11
-4 -17 -10 -14 -5 3 -10 13 -10 21 0 8 5 14 10 14 6 0 10 -9 10 -21z m-6854
-26 c-11 -11 -19 6 -11 24 8 17 8 17 12 0 3 -10 2 -21 -1 -24z m1256 -15 c-10
-22 -11 -21 -11 12 -1 26 2 31 11 22 8 -8 8 -17 0 -34z m328 15 c0 -20 -3 -24
-11 -16 -7 7 -9 19 -6 27 10 24 17 19 17 -11z m1957 -28 c2 -46 1 -48 -8 -18
-5 18 -14 35 -19 38 -17 11 -11 37 8 33 13 -2 17 -14 19 -53z m232 -47 c1 -39
-3 -68 -9 -68 -6 0 -10 35 -9 88 1 103 17 85 18 -20z m-3692 70 c-3 -8 -6 -5
-6 6 -1 11 2 17 5 13 3 -3 4 -12 1 -19z m80 -15 c-3 -10 -5 -4 -5 12 0 17 2
24 5 18 2 -7 2 -21 0 -30z m46 12 c-7 -21 -13 -19 -13 6 0 11 4 18 10 14 5 -3
7 -12 3 -20z m1256 -42 c1 -13 -3 -23 -9 -23 -5 0 -10 21 -9 48 1 38 2 42 9
22 4 -14 8 -35 9 -47z m41 30 c0 -28 -3 -34 -10 -23 -13 20 -13 60 0 60 6 0
10 -17 10 -37z m41 0 c-9 -16 -10 -14 -11 12 0 21 3 26 11 18 8 -8 8 -16 0
-30z m2149 27 c0 -5 -4 -10 -10 -10 -5 0 -10 5 -10 10 0 6 5 10 10 10 6 0 10
-4 10 -10z m147 -52 c-2 -13 -4 -3 -4 22 0 25 2 35 4 23 2 -13 2 -33 0 -45z
m1743 58 c0 -3 -4 -8 -10 -11 -5 -3 -10 -1 -10 4 0 6 5 11 10 11 6 0 10 -2 10
-4z m-8810 -21 c0 -8 -4 -15 -9 -15 -13 0 -22 16 -14 24 11 11 23 6 23 -9z
m793 -15 c33 -19 45 -30 32 -30 -11 0 -27 4 -35 9 -25 16 -31 0 -8 -19 22 -18
22 -19 3 -19 -31 0 -50 21 -52 57 -1 17 0 32 3 32 2 0 28 -13 57 -30z m3763 3
c-10 -10 -19 5 -10 18 6 11 8 11 12 0 2 -7 1 -15 -2 -18z m81 -20 c-3 -10 -5
-2 -5 17 0 19 2 27 5 18 2 -10 2 -26 0 -35z m860 25 c-3 -8 -6 -5 -6 6 -1 11
2 17 5 13 3 -3 4 -12 1 -19z m1450 -45 c-2 -16 -4 -5 -4 22 0 28 2 40 4 28 2
-13 2 -35 0 -50z m242 9 c-1 -26 -4 -60 -8 -77 -11 -50 -20 -6 -14 68 6 75 24
82 22 9z m358 52 c-3 -3 -12 -4 -19 -1 -8 3 -5 6 6 6 11 1 17 -2 13 -5z m1160
-31 c-3 -10 -5 -4 -5 12 0 17 2 24 5 18 2 -7 2 -21 0 -30z m-5570 -5 c-3 -7
-5 -2 -5 12 0 14 2 19 5 13 2 -7 2 -19 0 -25z m210 -45 c-2 -16 -4 -5 -4 22 0
28 2 40 4 28 2 -13 2 -35 0 -50z m1023 41 c0 -8 -4 -14 -9 -14 -11 0 -22 26
-14 34 9 9 23 -3 23 -20z m37 -21 c-3 -10 -5 -2 -5 17 0 19 2 27 5 18 2 -10 2
-26 0 -35z m1063 38 c0 -6 -4 -13 -10 -16 -5 -3 -10 1 -10 9 0 9 5 16 10 16 6
0 10 -4 10 -9z m500 0 c0 -6 -4 -13 -10 -16 -5 -3 -10 1 -10 9 0 9 5 16 10 16
6 0 10 -4 10 -9z m4929 -7 c41 -16 51 -34 51 -91 0 -17 5 -35 10 -38 6 -4 10
10 10 34 0 33 4 41 18 41 28 0 33 -10 17 -34 -7 -11 -17 -38 -20 -58 l-7 -38
-84 0 c-45 0 -85 4 -88 9 -3 5 -15 7 -26 4 -12 -3 -20 0 -20 7 0 7 7 10 15 6
23 -9 18 8 -12 35 -20 18 -25 20 -20 7 8 -24 -6 -23 -28 2 -17 19 -17 20 5 28
16 6 20 11 11 16 -6 4 -19 5 -28 2 -8 -4 -22 -1 -29 5 -23 19 -16 -4 16 -54
36 -57 29 -60 -22 -10 -28 27 -38 33 -38 20 0 -24 -17 -21 -25 3 -26 80 176
152 294 104z m-5239 -39 c0 -17 -2 -17 -10 -5 -5 8 -10 24 -10 35 0 17 2 17
10 5 5 -8 10 -24 10 -35z m67 23 c-3 -8 -6 -5 -6 6 -1 11 2 17 5 13 3 -3 4
-12 1 -19z m-40 -10 c-3 -8 -6 -5 -6 6 -1 11 2 17 5 13 3 -3 4 -12 1 -19z m98
2 c-3 -5 -10 -10 -16 -10 -5 0 -9 5 -9 10 0 6 7 10 16 10 8 0 12 -4 9 -10z
m-2350 -10 c3 -5 1 -10 -4 -10 -6 0 -11 5 -11 10 0 6 2 10 4 10 3 0 8 -4 11
-10z m3484 3 c0 -5 -4 -17 -9 -28 -8 -18 -9 -17 -9 8 -1 15 4 27 9 27 6 0 10
-3 9 -7z m178 -85 c-2 -18 -4 -4 -4 32 0 36 2 50 4 33 2 -18 2 -48 0 -65z
m2853 46 c0 -17 -5 -20 -25 -16 -29 5 -32 18 -8 44 19 21 33 9 33 -28z m-4365
26 c3 -5 1 -10 -4 -10 -6 0 -11 5 -11 10 0 6 2 10 4 10 3 0 8 -4 11 -10z
m-2355 -10 c0 -5 -7 -10 -15 -10 -8 0 -15 5 -15 10 0 6 7 10 15 10 8 0 15 -4
15 -10z m3499 -17 c1 -1 0 -6 -3 -12 -10 -16 -36 -1 -36 21 0 18 2 19 18 7 9
-7 19 -14 21 -16z m-2215 1 c12 -4 16 -19 16 -53 -1 -66 -23 -176 -35 -171 -6
3 -10 45 -10 97 0 50 -3 94 -6 97 -3 4 -9 -35 -12 -85 -3 -50 -8 -94 -11 -97
-12 -11 -18 8 -23 68 -7 70 -22 63 -23 -10 -1 -64 -16 -30 -23 52 -7 72 -4 78
48 96 36 12 58 14 79 6z m2556 -26 c0 -18 -2 -20 -9 -8 -6 8 -7 18 -5 22 9 14
14 9 14 -14z m185 12 c3 -5 1 -10 -4 -10 -6 0 -11 5 -11 10 0 6 2 10 4 10 3 0
8 -4 11 -10z m-2980 -135 c5 -27 4 -37 -3 -30 -14 14 -34 143 -25 158 5 7 10
-9 14 -38 4 -27 10 -68 14 -90z m43 53 c6 -46 9 -84 7 -86 -9 -9 -23 40 -29
101 -9 96 9 84 22 -15z m46 60 c9 -34 7 -121 -3 -136 -12 -20 -21 19 -21 96 0
62 12 82 24 40z m215 -9 c5 -36 -18 -155 -35 -176 -14 -16 -14 -15 -10 22 3
22 8 73 12 113 4 48 10 72 18 69 6 -2 13 -14 15 -28z m2381 21 c0 -5 -2 -10
-4 -10 -3 0 -8 5 -11 10 -3 6 -1 10 4 10 6 0 11 -4 11 -10z m67 -32 c-3 -7 -5
-2 -5 12 0 14 2 19 5 13 2 -7 2 -19 0 -25z m-2807 0 c0 -23 -13 -23 -34 1 -17
18 -16 19 8 17 18 -1 26 -7 26 -18z m-1024 -58 l7 -45 11 50 c8 34 17 51 29
53 16 3 17 -2 11 -49 -5 -38 -4 -50 5 -45 6 4 11 14 11 22 0 33 30 74 55 74
23 0 25 -4 25 -44 0 -53 -14 -94 -38 -112 -15 -12 -10 -13 36 -14 32 0 52 -4
52 -12 0 -8 -31 -9 -115 -5 -136 7 -169 20 -70 27 l70 5 -80 15 c-46 9 -78 19
-75 25 3 6 13 9 23 8 15 -2 17 6 17 60 0 70 15 63 26 -13z m1428 18 c-4 -29
-12 -66 -20 -83 l-12 -30 -1 32 c-1 45 19 133 30 133 6 0 7 -21 3 -52z m-3910
21 c15 -7 3 -8 -41 -5 -33 2 -69 9 -80 15 -14 10 -6 11 41 6 33 -4 69 -11 80
-16z m2436 -15 c0 -24 -14 -32 -25 -14 -9 14 4 52 16 45 5 -4 9 -17 9 -31z
m2661 26 c15 -8 19 -22 19 -61 0 -36 -4 -49 -12 -46 -7 2 -12 12 -10 22 2 10
0 29 -3 44 -7 24 -8 25 -15 6 -5 -11 -9 -32 -9 -47 -1 -29 -31 -41 -31 -13 0
8 -4 15 -10 15 -5 0 -10 -7 -10 -16 0 -14 -17 -15 -130 -12 -115 3 -131 5
-144 23 -14 19 -15 19 -16 2 0 -10 -6 -17 -12 -15 -16 6 -23 57 -9 71 27 27
350 49 392 27z m99 -9 c17 -33 12 -46 -10 -26 -20 18 -20 17 -20 -24 0 -26 -4
-40 -10 -36 -11 7 -14 88 -3 98 12 13 32 7 43 -12z m5160 10 c0 -5 -7 -14 -15
-21 -13 -10 -15 -9 -15 9 0 12 6 21 15 21 8 0 15 -4 15 -9z m-7961 -86 c0 -29
0 -29 -14 -11 -8 11 -15 38 -14 60 l1 41 13 -30 c8 -16 14 -43 14 -60z m281
51 c0 -39 -9 -68 -19 -62 -10 6 0 96 10 96 5 0 9 -15 9 -34z m8940 -16 c-12
-23 -24 -40 -26 -37 -3 3 4 24 16 47 12 23 24 40 26 37 3 -3 -4 -24 -16 -47z
m-7664 -2 c-10 -59 -25 -83 -26 -38 0 45 10 80 22 80 7 0 8 -16 4 -42z m42
-13 l-12 -40 -4 33 c-4 41 5 69 18 56 6 -6 5 -24 -2 -49z m6322 35 c0 -11 -4
-20 -10 -20 -5 0 -10 9 -10 20 0 11 5 20 10 20 6 0 10 -9 10 -20z m346 -4 c7
-28 -19 -75 -31 -56 -4 6 -1 18 6 26 6 8 9 18 5 21 -4 4 -11 1 -16 -7 -8 -12
-10 -11 -10 6 0 41 36 48 46 10z m-8376 -8 c0 -19 -2 -20 -10 -8 -13 19 -13
30 0 30 6 0 10 -10 10 -22z m430 -5 l1 -28 15 28 c19 35 24 34 24 -4 0 -21 -9
-39 -32 -60 -41 -37 -52 -37 -44 1 3 17 9 44 12 60 8 38 24 39 24 3z m1961 15
c2 -22 -2 -43 -12 -52 -5 -6 -9 4 -9 27 0 33 18 55 21 25z m-4731 -9 c27 -6
50 -15 50 -21 0 -5 -8 -7 -17 -4 -10 2 -37 8 -60 11 -24 4 -45 11 -49 16 -7
12 14 11 76 -2z m2387 -21 c-3 -7 -5 -2 -5 12 0 14 2 19 5 13 2 -7 2 -19 0
-25z m454 -28 l-10 -25 0 27 c-1 14 2 35 6 45 7 17 8 17 11 -2 1 -12 -2 -32
-7 -45z m1848 18 c0 -28 -2 -30 -9 -13 -12 28 -12 45 0 45 6 0 10 -15 9 -32z
m1689 -10 c35 -17 48 -29 50 -49 3 -30 -35 -139 -49 -139 -11 0 -12 -3 6 45
16 46 19 75 6 75 -4 0 -14 -20 -21 -45 -7 -25 -16 -45 -20 -45 -4 0 -5 20 -2
45 6 57 -14 61 -23 5 -10 -62 -27 -60 -20 2 l6 53 -21 -53 c-12 -28 -31 -57
-42 -63 -31 -17 -181 -6 -213 15 -21 14 -23 20 -15 36 5 10 10 36 9 57 0 21
-3 32 -6 26 -9 -24 -23 -13 -23 17 0 25 4 30 25 30 20 0 25 -5 25 -25 0 -14 4
-25 8 -25 5 0 14 11 20 25 10 22 18 25 69 26 32 1 69 5 83 9 37 13 95 5 148
-22z m-415 5 c3 -5 7 -24 11 -43 5 -31 5 -32 -6 -12 -6 12 -15 22 -20 22 -12
0 2 -52 21 -74 13 -16 14 -18 1 -14 -35 11 -58 128 -26 128 8 0 17 -3 19 -7z
m-2383 -24 c0 -5 -4 -9 -10 -9 -5 0 -10 7 -10 16 0 8 5 12 10 9 6 -3 10 -10
10 -16z m6684 -1 c19 -31 29 -83 21 -108 -5 -16 -14 -20 -33 -18 -20 2 -33 17
-59 65 -19 34 -32 67 -28 73 3 5 24 10 45 10 30 0 43 -5 54 -22z m-108 -43
c18 -43 18 -51 0 -36 -8 7 -19 25 -25 42 -15 42 6 37 25 -6z m154 25 c0 -5 -4
-10 -10 -10 -5 0 -10 5 -10 10 0 6 5 10 10 10 6 0 10 -4 10 -10z m-3821 -30
c3 -25 3 -25 -18 -6 -26 23 -27 39 -3 34 9 -2 19 -14 21 -28z m-6466 13 c-7
-2 -21 -2 -30 0 -10 3 -4 5 12 5 17 0 24 -2 18 -5z m2687 3 c0 -3 -4 -8 -10
-11 -5 -3 -10 -1 -10 4 0 6 5 11 10 11 6 0 10 -2 10 -4z m2295 -14 c41 -8 43
-12 33 -64 -6 -31 16 -23 24 9 5 18 12 35 17 38 19 11 19 -12 1 -53 -23 -51
-28 -51 -170 -16 -58 15 -116 27 -129 28 -13 0 -26 8 -28 16 -12 42 -13 43
-28 30 -18 -15 -20 1 -2 19 9 10 38 12 127 7 63 -4 133 -10 155 -14z m5890
-26 c9 -14 15 -37 13 -53 -2 -23 -8 -29 -34 -31 -27 -3 -33 1 -38 22 -4 17
-13 26 -26 26 -18 0 -40 27 -40 49 0 7 23 11 55 11 47 0 57 -3 70 -24z m-6208
-20 c-4 -9 -13 -16 -21 -16 -11 0 -12 5 -3 24 13 27 34 19 24 -8z m442 -38
c-18 -33 -23 -6 -7 39 12 36 13 37 16 11 2 -15 -2 -37 -9 -50z m-1485 15 c18
-52 21 -87 7 -78 -6 3 -13 26 -17 51 -3 25 -13 48 -20 51 -8 3 -11 9 -8 14 11
19 23 7 38 -38z m-1212 -5 c-9 -9 -12 -7 -12 12 0 19 3 21 12 12 9 -9 9 -15 0
-24z m48 13 c0 -11 -4 -22 -9 -25 -11 -7 -20 14 -13 32 7 19 22 14 22 -7z m88
9 c14 0 17 -36 3 -44 -5 -3 -12 1 -15 10 -6 15 -8 15 -26 -1 -20 -18 -20 -17
-20 15 0 29 3 32 23 26 12 -3 28 -6 35 -6z m8864 0 c54 -15 55 -28 6 -50 -48
-22 -103 -26 -114 -8 -5 8 0 9 14 6 12 -4 22 -3 22 1 0 16 -26 31 -54 31 -29
1 -30 1 -12 15 23 17 85 19 138 5z m-7742 -47 c0 -45 -5 -40 -13 10 -3 22 -2
35 4 32 5 -4 9 -22 9 -42z m-1062 25 c-2 -6 -10 -14 -16 -16 -7 -2 -10 2 -6
12 7 18 28 22 22 4z m42 3 c0 -6 -4 -13 -10 -16 -5 -3 -10 1 -10 9 0 9 5 16
10 16 6 0 10 -4 10 -9z m67 -16 c-4 -8 -11 -15 -17 -15 -7 0 -7 6 0 21 13 23
26 19 17 -6z m993 -18 c0 -10 -4 -15 -10 -12 -5 3 -10 18 -10 33 0 21 2 24 10
12 5 -8 10 -23 10 -33z m31 -30 c-8 -8 -11 -1 -11 24 0 46 14 60 18 19 2 -18
-1 -37 -7 -43z m49 23 c0 -22 -4 -40 -10 -40 -5 0 -10 11 -10 24 0 13 -3 31
-6 40 -4 11 -1 16 10 16 12 0 16 -10 16 -40z m7495 20 c3 -5 1 -10 -4 -10 -6
0 -11 5 -11 10 0 6 2 10 4 10 3 0 8 -4 11 -10z m-7415 -46 c0 -19 -4 -34 -10
-34 -5 0 -10 18 -10 41 0 24 4 38 10 34 6 -3 10 -22 10 -41z m-305 26 c3 -5 1
-10 -4 -10 -6 0 -11 5 -11 10 0 6 2 10 4 10 3 0 8 -4 11 -10z m265 -19 c0 -17
-4 -33 -10 -36 -6 -4 -10 8 -10 29 0 20 5 36 10 36 6 0 10 -13 10 -29z m90 -5
c0 -19 -4 -38 -10 -41 -6 -4 -10 10 -10 34 0 23 5 41 10 41 6 0 10 -15 10 -34z
m1025 12 c31 -8 51 -19 53 -29 2 -13 -3 -15 -22 -12 -21 4 -26 0 -32 -21 -3
-15 -4 -36 -1 -47 6 -20 3 -21 -61 -14 -78 8 -92 17 -92 56 0 16 -4 29 -10 29
-5 0 -10 -16 -10 -35 0 -36 -13 -47 -24 -19 -3 9 -6 38 -6 66 l0 51 78 -6 c42
-4 99 -12 127 -19z m-998 -10 c-3 -8 -6 -5 -6 6 -1 11 2 17 5 13 3 -3 4 -12 1
-19z m2010 -25 c-3 -10 -5 -4 -5 12 0 17 2 24 5 18 2 -7 2 -21 0 -30z m181 21
c45 -4 82 -10 82 -14 0 -4 -11 -12 -25 -18 -24 -11 -36 -52 -15 -52 6 0 10 7
10 15 0 8 5 15 10 15 16 0 12 -36 -5 -50 -20 -17 -172 -7 -190 12 -14 15 -27
93 -17 103 4 4 20 4 37 1 16 -3 67 -9 113 -12z m4114 -8 c11 -27 5 -56 -12
-56 -6 0 -13 8 -17 18 -3 9 -15 27 -26 40 l-20 22 31 0 c25 0 35 -6 44 -24z
m-5571 -33 c-9 -16 -10 -15 -11 8 0 14 3 29 8 33 12 12 14 -22 3 -41z m1569
-18 c0 -39 -4 -55 -13 -55 -13 0 -13 28 -1 88 8 38 14 24 14 -33z m4647 47
c12 -8 43 -73 43 -92 0 -19 -47 -11 -53 10 -3 11 -21 29 -41 41 -20 11 -36 25
-36 29 0 16 66 25 87 12z m-6170 -39 c-3 -10 -5 -4 -5 12 0 17 2 24 5 18 2 -7
2 -21 0 -30z m6691 11 c5 -32 -38 -40 -61 -12 -14 17 -15 23 -5 30 24 15 63 5
66 -18z m-7748 -44 c0 -11 -7 -20 -15 -20 -13 0 -13 3 -3 20 7 11 14 20 15 20
2 0 3 -9 3 -20z m41 -17 c-9 -16 -10 -14 -11 12 0 21 3 26 11 18 8 -8 8 -16 0
-30z m49 7 c0 -11 -4 -20 -10 -20 -5 0 -10 2 -10 4 0 2 -3 11 -6 20 -4 11 -1
16 10 16 9 0 16 -8 16 -20z m40 1 c0 -6 -4 -13 -10 -16 -5 -3 -10 1 -10 9 0 9
5 16 10 16 6 0 10 -4 10 -9z m125 -21 c3 -5 1 -10 -4 -10 -6 0 -11 5 -11 10 0
6 2 10 4 10 3 0 8 -4 11 -10z m7539 -21 c14 -23 15 -34 7 -42 -9 -9 -17 -6
-31 13 -22 29 -26 60 -7 60 7 0 21 -14 31 -31z m-6540 -7 c82 -14 47 -42 -53
-42 -62 0 -211 37 -211 53 0 10 184 3 264 -11z m1215 -8 c121 -14 161 -25 161
-44 0 -15 -70 -12 -235 10 -179 25 -181 25 -165 45 12 15 16 15 239 -11z
m-2652 -6 c-3 -8 -6 -5 -6 6 -1 11 2 17 5 13 3 -3 4 -12 1 -19z m67 -7 c3 -4
-3 -16 -14 -26 -20 -18 -25 -11 -14 19 7 18 20 21 28 7z m7416 -6 c7 -9 10
-18 7 -21 -10 -11 -37 5 -37 21 0 19 14 19 30 0z m-7368 -20 c0 -5 -5 -11 -11
-13 -6 -2 -11 4 -11 13 0 9 5 15 11 13 6 -2 11 -8 11 -13z m51 -11 c8 -8 -3
-34 -14 -34 -5 0 -9 9 -9 20 0 19 11 26 23 14z m164 -46 c-3 -7 -5 -2 -5 12 0
14 2 19 5 13 2 -7 2 -19 0 -25z m2260 26 c-3 -3 -12 -4 -19 -1 -8 3 -5 6 6 6
11 1 17 -2 13 -5z m-1387 -58 c0 -3 -4 -8 -10 -11 -5 -3 -10 -1 -10 4 0 6 5
11 10 11 6 0 10 -2 10 -4z m1481 -79 c-13 -13 -15 1 -4 30 7 17 8 17 11 -1 2
-10 -1 -23 -7 -29z m46 -9 c-3 -7 -5 -2 -5 12 0 14 2 19 5 13 2 -7 2 -19 0
-25z m53 2 c0 -5 -5 -10 -11 -10 -5 0 -7 5 -4 10 3 6 8 10 11 10 2 0 4 -4 4
-10z"/>
<path d="M10755 4150 c3 -5 42 -10 86 -10 51 0 78 4 74 10 -3 6 -42 10 -86 10
-51 0 -78 -4 -74 -10z"/>
<path d="M10755 4084 c-46 -50 -37 -102 32 -186 43 -53 70 -75 125 -103 62
-31 80 -35 146 -35 82 0 140 20 181 64 31 32 38 89 16 122 -21 33 -30 24 -49
-50 -16 -59 -45 -110 -33 -56 3 14 9 45 12 70 4 35 3 40 -4 23 -6 -13 -13 -45
-17 -73 -5 -34 -11 -50 -21 -50 -8 0 -13 6 -10 13 2 7 10 39 17 72 6 33 18 70
26 82 16 25 4 33 -53 33 -53 0 -143 26 -225 65 -87 42 -111 43 -143 9z m36
-84 c5 0 9 10 9 23 0 12 5 29 11 37 13 19 1 -66 -13 -94 -9 -17 -11 -16 -24 9
-16 31 -18 55 -6 82 5 13 8 8 10 -19 2 -21 7 -38 13 -38z m53 -7 c-5 -43 -34
-97 -34 -66 0 7 5 15 10 18 6 3 10 19 10 35 0 29 9 60 17 60 2 0 1 -21 -3 -47z
m66 -75 c-24 -78 -39 -86 -21 -11 27 109 35 129 39 105 2 -13 -6 -55 -18 -94z
m-26 60 c-9 -53 -23 -93 -31 -85 -8 9 19 127 29 127 5 0 5 -19 2 -42z m83 -5
c-10 -59 -37 -143 -46 -143 -9 0 13 112 30 158 13 35 22 26 16 -15z m34 -55
c-18 -74 -40 -128 -41 -97 0 23 20 128 31 156 19 51 26 10 10 -59z m39 -22
c-12 -61 -28 -102 -36 -93 -5 5 25 168 34 182 13 20 14 -29 2 -89z m56 47
c-13 -72 -39 -149 -44 -128 -4 16 9 92 24 148 10 34 26 18 20 -20z m27 -50
c-16 -85 -32 -126 -32 -83 -1 22 5 53 24 138 3 12 9 22 14 22 5 0 2 -35 -6
-77z m130 7 c-8 -31 -23 -34 -23 -6 0 16 6 26 14 26 9 0 12 -7 9 -20z"/>
<path d="M10494 3063 c-4 -16 -12 -37 -19 -48 -15 -26 -58 -155 -53 -160 2 -3
24 46 49 108 24 61 45 115 47 120 2 4 -1 7 -7 7 -6 0 -13 -12 -17 -27z"/>
<path d="M11050 2941 c0 -12 5 -21 10 -21 6 0 10 6 10 14 0 8 -4 18 -10 21 -5
3 -10 -3 -10 -14z"/>
<path d="M11578 3698 c-4 -41 -20 -97 -38 -139 -36 -81 -34 -102 3 -37 36 61
49 114 45 183 l-3 60 -7 -67z"/>
<path d="M11460 3415 c-8 -9 -8 -15 -2 -15 12 0 26 19 19 26 -2 2 -10 -2 -17
-11z"/>
<path d="M11412 3335 c-6 -14 -8 -25 -3 -25 4 0 13 11 19 25 6 14 8 25 3 25
-4 0 -13 -11 -19 -25z"/>
<path d="M11327 3157 c-11 -29 -9 -43 4 -30 6 6 9 19 7 29 -3 18 -4 18 -11 1z"/>
<path d="M12386 3081 c-57 -46 -71 -69 -101 -166 -15 -49 -34 -102 -41 -117
-12 -23 -12 -28 -1 -28 7 0 18 5 25 12 9 9 12 6 12 -14 0 -19 -7 -29 -27 -36
-34 -12 -80 -48 -72 -56 3 -4 17 3 32 14 14 11 37 20 51 20 16 0 31 9 40 23
23 36 65 179 63 214 -2 33 -12 43 -20 21 -2 -7 -8 -10 -12 -5 -15 14 24 76 65
103 37 25 51 44 31 44 -4 0 -25 -13 -45 -29z"/>
<path d="M12066 2829 c-32 -37 -33 -53 -4 -73 31 -22 54 -20 72 6 21 30 20 54
-4 78 -27 27 -34 25 -64 -11z"/>
<path d="M11941 2723 c0 -6 -4 -20 -7 -30 -5 -14 -4 -15 5 -7 7 7 11 20 8 30
-3 11 -5 14 -6 7z"/>
<path d="M12038 2703 c-10 -2 -18 -9 -18 -14 0 -13 13 -11 36 6 19 14 14 17
-18 8z"/>
<path d="M11968 2617 c-5 -10 -8 -40 -7 -65 l1 -47 9 40 c12 48 9 101 -3 72z"/>
<path d="M12056 2608 c-22 -30 -20 -56 7 -103 21 -37 26 -40 69 -43 37 -2 51
1 67 17 40 40 17 112 -42 130 -74 22 -85 22 -101 -1z"/>
<path d="M785 3920 c3 -5 11 -10 16 -10 6 0 7 5 4 10 -3 6 -11 10 -16 10 -6 0
-7 -4 -4 -10z"/>
<path d="M894 3866 c-7 -20 2 -46 16 -46 13 0 13 47 0 55 -6 3 -13 -1 -16 -9z"/>
<path d="M750 3811 c0 -6 5 -13 10 -16 6 -3 10 1 10 9 0 9 -4 16 -10 16 -5 0
-10 -4 -10 -9z"/>
<path d="M1207 3252 c-46 -50 13 -114 74 -82 25 14 24 50 -1 78 -25 27 -51 28
-73 4z m52 -21 c21 -14 5 -43 -21 -39 -29 4 -39 48 -11 48 10 0 24 -4 32 -9z"/>
<path d="M1270 3071 c0 -6 5 -13 10 -16 6 -3 10 1 10 9 0 9 -4 16 -10 16 -5 0
-10 -4 -10 -9z"/>
<path d="M3290 4107 c0 -23 4 -36 10 -32 13 8 13 35 0 55 -7 11 -10 5 -10 -23z"/>
<path d="M3002 3585 c0 -16 2 -22 5 -12 2 9 2 23 0 30 -3 6 -5 -1 -5 -18z"/>
<path d="M3845 3199 c-4 -12 -2 -26 4 -32 8 -8 11 -2 11 21 0 37 -6 41 -15 11z"/>
<path d="M3521 3203 c0 -4 4 -17 9 -28 8 -19 9 -19 9 2 1 12 -3 25 -9 28 -5 3
-10 3 -9 -2z"/>
<path d="M3331 3156 l-23 -25 19 -33 c23 -40 47 -45 91 -18 39 24 39 30 6 69
-31 37 -62 40 -93 7z m68 -25 c12 -8 12 -12 2 -25 -15 -18 -37 -21 -46 -6 -7
11 11 40 24 40 3 0 12 -4 20 -9z"/>
<path d="M3542 3092 c-1 -12 -11 -47 -21 -77 -11 -30 -15 -55 -10 -55 18 0 40
71 36 113 -2 23 -4 32 -5 19z"/>
<path d="M3839 3080 c-7 -35 -4 -48 7 -38 3 4 4 21 2 40 l-3 33 -6 -35z"/>
<path d="M2983 3005 c0 -22 2 -30 4 -17 2 12 2 30 0 40 -3 9 -5 -1 -4 -23z"/>
<path d="M4880 4120 c-6 -12 -9 -24 -7 -27 3 -2 11 5 17 17 6 12 9 24 7 27 -3
2 -11 -5 -17 -17z"/>
<path d="M4942 3880 c0 -14 2 -19 5 -12 2 6 2 18 0 25 -3 6 -5 1 -5 -13z"/>
<path d="M4158 3635 c-12 -108 -10 -351 2 -339 7 7 9 84 8 210 -2 155 -5 183
-10 129z"/>
<path d="M4186 3215 c-4 -80 -3 -153 2 -161 6 -10 11 30 15 112 4 70 11 132
16 137 8 8 -8 57 -20 57 -3 0 -9 -65 -13 -145z"/>
<path d="M4953 3120 c0 -30 2 -43 4 -27 2 15 2 39 0 55 -2 15 -4 2 -4 -28z"/>
<path d="M4577 3122 c-21 -23 -21 -41 -1 -70 18 -27 55 -29 77 -4 21 23 21 41
1 70 -18 27 -55 29 -77 4z m47 -18 c21 -8 21 -30 0 -38 -21 -8 -34 1 -34 25 0
20 8 23 34 13z"/>
<path d="M4333 3025 c0 -33 2 -45 4 -27 2 18 2 45 0 60 -2 15 -4 0 -4 -33z"/>
<path d="M4460 3056 c0 -18 42 -78 58 -84 8 -2 3 16 -13 47 -26 49 -45 65 -45
37z"/>
<path d="M4718 3030 c-9 -22 -15 -40 -12 -40 6 0 44 63 44 73 0 20 -17 2 -32
-33z"/>
<path d="M4500 2952 c0 -12 19 -26 26 -19 2 2 -2 10 -11 17 -9 8 -15 8 -15 2z"/>
<path d="M2366 3719 c-9 -48 -7 -125 3 -113 11 11 19 129 10 139 -4 3 -9 -9
-13 -26z"/>
<path d="M2350 3457 c-14 -29 -7 -48 11 -30 6 6 9 21 7 34 l-4 24 -14 -28z"/>
<path d="M2160 3321 c-17 -32 -12 -79 9 -91 33 -17 89 -12 101 9 16 30 12 50
-15 76 -30 31 -80 34 -95 6z m77 -37 c3 -8 1 -20 -6 -27 -14 -14 -47 15 -37
32 10 16 36 13 43 -5z"/>
<path d="M1858 3280 c-7 -24 -3 -38 8 -28 3 4 4 17 2 30 l-3 23 -7 -25z"/>
<path d="M2646 3257 c-5 -26 -6 -51 -2 -54 12 -13 17 6 14 53 l-3 49 -9 -48z"/>
<path d="M2076 3196 c3 -8 18 -22 32 -32 27 -17 27 -17 -2 15 -33 35 -38 37
-30 17z"/>
<path d="M1790 3165 c1 -26 2 -28 11 -12 8 14 8 22 0 30 -8 8 -11 3 -11 -18z"/>
<path d="M2080 3151 c0 -6 5 -13 10 -16 6 -3 10 1 10 9 0 9 -4 16 -10 16 -5 0
-10 -4 -10 -9z"/>
<path d="M2230 3140 c-12 -8 -9 -10 13 -10 16 0 26 4 22 10 -8 12 -16 12 -35
0z"/>
<path d="M2188 3103 c12 -2 30 -2 40 0 9 3 -1 5 -23 4 -22 0 -30 -2 -17 -4z"/>
<path d="M2060 2991 c0 -28 5 -51 10 -51 6 0 10 20 10 44 0 25 -4 48 -10 51
-6 4 -10 -13 -10 -44z"/>
<path d="M5444 4138 c-9 -13 -19 -165 -11 -158 10 9 34 170 26 170 -4 0 -11
-5 -15 -12z"/>
<path d="M5470 4005 c0 -14 5 -25 10 -25 6 0 10 11 10 25 0 14 -4 25 -10 25
-5 0 -10 -11 -10 -25z"/>
<path d="M5376 3260 c-10 -50 -7 -168 3 -151 14 22 24 147 13 166 -7 14 -10
12 -16 -15z"/>
<path d="M5695 3005 c-14 -13 -25 -29 -25 -35 0 -13 45 -60 57 -60 4 0 23 9
41 20 54 33 41 100 -20 100 -17 0 -39 -10 -53 -25z m64 -24 c16 -10 6 -31 -14
-31 -17 0 -28 17 -20 30 8 12 16 12 34 1z"/>
<path d="M6938 2993 c-23 -27 -31 -60 -18 -83 9 -17 19 -20 48 -18 29 2 40 9
51 32 12 26 12 33 0 55 -18 32 -59 39 -81 14z m49 -57 c-9 -23 -37 -20 -37 3
0 21 20 33 34 20 5 -4 6 -15 3 -23z"/>
<path d="M8122 3768 c-1 -14 -5 -35 -8 -45 -5 -14 -4 -15 5 -7 7 7 11 26 8 45
-3 28 -4 29 -5 7z"/>
<path d="M8107 3646 c-3 -8 -9 -43 -13 -78 -10 -91 -23 -106 -25 -28 -1 61 -2
63 -10 25 -4 -22 -7 -92 -7 -155 1 -107 1 -110 8 -43 8 97 20 104 20 13 0
-126 14 -66 26 108 6 92 10 168 9 170 -1 2 -5 -4 -8 -12z"/>
<path d="M8170 3023 c-22 -9 -30 -24 -30 -60 0 -24 7 -37 26 -49 24 -16 27
-16 52 3 30 23 39 60 20 84 -15 20 -47 30 -68 22z m43 -58 c1 -5 -6 -11 -15
-13 -11 -2 -18 3 -18 13 0 17 30 18 33 0z"/>
<path d="M7528 2774 c-5 -4 -8 -19 -8 -33 1 -23 2 -24 11 -8 11 19 9 53 -3 41z"/>
<path d="M7752 3973 c-6 -11 -7 -25 -3 -32 6 -9 10 -5 15 14 9 33 1 44 -12 18z"/>
<path d="M7663 3675 c0 -22 2 -30 4 -17 2 12 2 30 0 40 -3 9 -5 -1 -4 -23z"/>
<path d="M7716 3582 c-4 -18 -5 -36 -2 -39 11 -12 17 5 14 39 l-3 33 -9 -33z"/>
<path d="M7670 3485 c0 -8 5 -15 10 -15 6 0 10 7 10 15 0 8 -4 15 -10 15 -5 0
-10 -7 -10 -15z"/>
<path d="M7610 3311 c0 -6 5 -13 10 -16 6 -3 10 1 10 9 0 9 -4 16 -10 16 -5 0
-10 -4 -10 -9z"/>
<path d="M7687 3243 c-11 -10 -8 -63 3 -63 6 0 10 16 10 35 0 36 -2 40 -13 28z"/>
<path d="M7607 3173 c-11 -10 -8 -43 3 -43 6 0 10 11 10 25 0 26 -2 29 -13 18z"/>
<path d="M7763 3045 c0 -27 2 -38 4 -22 2 15 2 37 0 50 -2 12 -4 0 -4 -28z"/>
<path d="M8938 3744 c-5 -4 -8 -19 -8 -33 0 -18 3 -22 11 -14 6 6 9 21 7 33
-1 12 -6 18 -10 14z"/>
<path d="M9018 3147 c-5 -10 -8 -55 -7 -100 0 -64 2 -77 10 -58 5 14 8 59 7
100 -2 46 -6 69 -10 58z"/>
<path d="M9056 3101 c-4 -7 -5 -15 -2 -18 9 -9 19 4 14 18 -4 11 -6 11 -12 0z"/>
<path d="M926 3228 c40 -50 99 -108 107 -108 4 0 -18 29 -49 65 -32 36 -62 65
-67 65 -6 0 -2 -10 9 -22z"/>
<path d="M9321 3009 c-14 -39 -15 -67 -2 -53 11 10 26 84 18 84 -3 0 -10 -14
-16 -31z"/>
<path d="M9483 2985 c-24 -10 -33 -21 -33 -38 0 -56 73 -76 109 -31 26 33 26
39 1 64 -23 23 -34 24 -77 5z m47 -50 c0 -8 -7 -15 -15 -15 -8 0 -15 7 -15 15
0 8 7 15 15 15 8 0 15 -7 15 -15z"/>
<path d="M9260 2958 c0 -43 8 -68 22 -68 7 0 8 16 4 43 -9 56 -26 72 -26 25z"/>
<path d="M9344 2876 c-10 -25 32 -62 87 -76 68 -18 69 4 2 26 -41 13 -61 26
-70 44 -11 22 -13 23 -19 6z"/>
<path d="M9778 2813 c5 -60 8 -71 18 -61 8 8 -6 118 -15 118 -4 0 -6 -26 -3
-57z"/>
<path d="M500 3170 c0 -5 5 -10 11 -10 5 0 7 5 4 10 -3 6 -8 10 -11 10 -2 0
-4 -4 -4 -10z"/>
<path d="M395 3010 c3 -5 8 -10 11 -10 2 0 4 5 4 10 0 6 -5 10 -11 10 -5 0 -7
-4 -4 -10z"/>
<path d="M476 2821 c-6 -8 51 -21 89 -20 16 0 13 4 -10 14 -35 16 -71 19 -79
6z"/>
<path d="M3536 2644 c-9 -22 -8 -24 9 -24 8 0 15 9 15 20 0 24 -15 27 -24 4z"/>
<path d="M3366 2454 c-7 -18 -8 -80 -2 -73 10 9 24 89 16 89 -4 0 -11 -7 -14
-16z"/>
<path d="M7271 4010 l1 -55 10 44 c7 30 6 47 -1 54 -8 8 -11 -4 -10 -43z"/>
</g>
</svg>
