<?xml version="1.0" encoding="UTF-8" standalone="no"?>
<!DOCTYPE svg PUBLIC "-//W3C//DTD SVG 1.1//EN" "http://www.w3.org/Graphics/SVG/1.1/DTD/svg11.dtd">
<svg xmlns="http://www.w3.org/2000/svg" xmlns:xl="http://www.w3.org/1999/xlink" xmlns:dc="http://purl.org/dc/elements/1.1/" version="1.1" viewBox="33.75 60.75 297 297" width="297" height="297">
  <defs>
    <clipPath id="artboard_clip_path">
      <path d="M 33.75 60.75 L 330.75 60.75 L 330.75 346.5 L 313.875 357.75 L 33.75 357.75 Z"/>
    </clipPath>
  </defs>
  <g id="Moon,_Increscent_(8)" fill-opacity="1" stroke-opacity="1" stroke="none" fill="none" stroke-dasharray="none">
    <title>Moon, Increscent (8)</title>
    <g id="Moon,_Increscent_(8)_Art" clip-path="url(#artboard_clip_path)">
      <title>Art</title>
      <g id="Group_132">
        <g id="Graphic_131">
          <path d="M 155.66425 62.77895 C 155.56886 62.858994 151.51096 62.76913 146.6713 62.52249 C 141.83163 62.275846 137.3198 62.32304 136.76282 62.62786 C 136.20584 62.93267 133.62374 63.1487 131.06466 63.10158 C 126.38508 63.045716 122.69668 63.78366 107.86636 67.61257 C 103.61331 68.74304 99.65409 69.54568 98.9447 69.572 C 97.89212 69.47991 90.27084 71.72988 84.79308 73.72545 C 79.95234 75.5116 69.63277 81.3261 66.85114 83.82271 C 65.6988 84.87092 64.35131 87.13945 63.84697 88.86305 C 63.155154 91.71927 63.29221 92.17319 65.50373 93.16215 C 67.70758 94.23882 68.15382 94.18948 70.01226 92.14242 C 71.569174 90.51091 72.66012 90.16442 74.03286 90.63806 C 75.23785 91.00865 77.46909 90.76192 79.4909 89.87817 C 81.40965 89.16218 84.28559 88.61832 85.95217 88.76413 C 87.53104 88.90226 89.22832 88.69721 89.80065 88.21696 C 90.2776 87.81676 93.66448 87.49437 97.29148 87.45814 C 100.91081 87.50964 104.54549 87.3857 105.27023 87.18395 C 106.5366 86.85281 108.57707 86.76617 115.91111 86.78911 C 117.59304 86.75949 119.56114 86.48974 120.21351 86.10489 C 120.9536 85.72771 121.82307 85.89216 122.30332 86.46449 C 122.78356 87.03683 123.73308 87.29667 124.45782 87.09492 C 126.45661 86.47432 136.14584 89.88521 136.54934 91.33469 C 136.7511 92.05943 138.32121 94.31807 140.00207 96.32124 C 143.52386 100.51835 145.1576 105.08059 145.24977 111.09891 C 145.29804 113.57795 145.80353 116.89246 146.36712 118.53272 C 148.08857 123.10264 147.37595 129.22733 144.62725 134.3784 C 143.26441 136.82237 141.79744 141.46688 141.16264 144.68163 C 140.61555 147.90406 139.73296 150.92036 139.24067 151.496 C 137.58836 153.20754 138.72543 159.40567 141.32073 163.0798 C 145.73395 169.211 148.58142 172.02332 150.59886 172.19983 C 153.31802 172.43772 153.0505 173.47495 149.57483 175.82246 C 146.93464 177.71274 145.5718 180.1567 140.32549 191.62985 C 139.77948 192.81948 138.36292 195.87745 137.08012 198.4168 C 133.86545 204.85291 133.36878 206.4888 134.33257 208.606 C 134.99155 210.16622 134.72403 211.20345 132.70114 214.11999 C 129.75836 218.4586 128.85497 224.74338 130.94808 226.07552 C 132.71335 227.11382 139.1549 227.23546 148.59848 226.38232 C 152.34389 226.00292 153.65524 227.17828 150.97338 228.5346 C 149.58091 229.29663 147.71043 232.49166 146.61404 235.9312 C 146.1404 237.30393 145.0407 239.77092 144.20085 241.2884 C 142.7503 243.72469 142.70425 244.25097 143.7031 244.95707 C 144.35878 245.54475 144.58686 246.97888 144.32264 248.98865 C 144.0014 250.63988 144.05405 252.05867 144.49262 252.09704 C 144.84348 252.12773 145.68993 252.55533 146.35328 253.0553 C 147.1767 253.74604 146.63837 254.84796 143.86772 258.2294 C 140.11249 262.7621 139.44369 265.35517 141.98742 265.57772 C 143.654 265.72353 150.23599 274.34252 149.44218 275.3337 C 149.23606 275.6692 149.16262 277.5189 149.44004 279.39928 C 149.74378 281.98905 149.5563 283.12167 148.3009 284.33763 C 147.43472 285.1457 146.31308 285.84306 145.78679 285.797 C 144.90964 285.72027 143.69591 287.4702 138.72587 295.7856 C 136.5462 299.4839 135.93112 301.46297 135.7075 306.0395 C 135.3611 312.01944 136.02774 313.49195 140.81591 317.35792 C 142.3904 318.5563 142.61518 319.0179 141.5319 319.27667 C 134.58602 320.87864 129.03259 321.71857 125.15011 321.64406 C 108.72773 321.4447 97.87081 319.25743 84.59403 313.4114 C 77.52857 310.31843 65.59491 303.2641 64.84822 301.6962 C 64.173895 300.31143 61.72448 302.04163 61.54798 304.05907 C 61.47124 304.9362 63.041356 307.19485 65.080745 309.141 C 67.11246 311.17486 68.69793 313.25807 68.65188 313.78436 C 68.49403 316.5989 87.47128 332.04745 97.86882 337.4648 C 101.16692 339.16753 105.05599 341.18712 106.39803 342.01162 C 107.83547 342.7561 110.1347 343.7527 111.50744 344.22636 C 112.9679 344.7077 114.85158 345.4028 115.77807 345.9258 C 116.71224 346.36106 118.5729 347.31932 119.84257 347.96072 C 121.11225 348.60212 123.79304 349.2786 125.72277 349.44742 C 127.65249 349.61625 130.39797 350.56354 131.90777 351.4911 C 133.9932 352.91096 137.30335 353.46572 147.72606 354.55436 C 154.99871 355.27902 161.24181 355.64845 161.79112 355.43135 C 162.25272 355.20658 163.24828 354.94013 164.04539 354.9215 C 164.75478 354.89516 167.6077 354.61444 170.28518 354.31838 C 172.96267 354.0223 175.9987 353.66922 176.9789 353.5782 C 177.95912 353.4872 178.947 353.30846 179.21782 353.24377 C 179.48864 353.17908 180.46118 353.17578 181.50608 353.3556 C 182.46327 353.5277 184.43136 353.25797 185.96856 352.86214 C 187.42571 352.3709 188.78748 351.95974 189.0583 351.89505 C 189.32912 351.83035 190.14157 351.63628 190.87399 351.3468 C 191.59873 351.14506 195.661 350.17467 199.8987 349.21963 C 204.13642 348.2646 210.47598 346.5212 213.94727 345.23393 C 217.50628 343.95435 221.32844 342.6978 222.58714 342.45437 C 223.84585 342.21095 227.95417 340.71427 231.89473 339.11453 C 236.93392 337.0806 239.64648 335.3734 241.631 332.89545 C 243.20326 331.0885 245.38953 329.3353 246.48048 328.9888 C 247.65914 328.65 248.88385 327.7849 249.31145 326.93844 C 250.38045 324.8223 253.74208 321.75774 254.88237 321.8575 C 255.49638 321.9112 256.45794 321.0231 257.09166 319.84113 C 257.7254 318.65917 258.68695 317.77105 259.21324 317.8171 C 259.6518 317.85546 260.13643 317.36754 260.19015 316.75354 C 260.25154 316.05182 261.1484 314.89288 262.19002 314.10015 C 263.23162 313.3074 264.1285 312.14847 264.17453 311.6222 C 264.22825 311.00818 264.81593 310.3525 265.45296 310.14308 C 266.71934 309.81194 278.9301 290.46304 278.68668 289.20433 C 278.62966 288.8458 280.19863 286.06632 282.14915 282.96668 C 284.092 279.95475 285.77937 276.8321 285.8561 275.95494 C 285.92518 275.1655 286.36045 274.23134 286.84507 273.74343 C 287.9974 272.69522 291.24715 264.848 290.87765 264.0202 C 290.6452 263.64632 291.44338 261.5949 292.6001 259.48643 C 296.4825 252.49004 301.49082 236.66515 302.94897 227.07024 C 303.76794 221.75034 304.26016 214.1038 304.11427 208.69948 C 303.9311 201.70095 304.1383 199.33265 304.9661 198.96314 C 306.0724 198.44122 305.87063 197.71648 303.0527 189.5152 C 301.4343 184.77752 298.55054 171.26729 298.7424 169.07442 C 298.8575 167.7587 298.6064 166.5877 298.08012 166.54166 C 297.64155 166.5033 297.11963 165.397 296.89156 163.96287 C 296.74352 162.62412 295.61635 159.3436 294.4278 156.7648 C 293.2469 154.09829 292.33683 151.36708 292.39822 150.66537 C 292.4596 149.96365 292.0331 148.77731 291.56052 148.11726 C 291.0079 147.36183 289.57155 144.58457 288.39833 141.83035 C 287.2251 139.07612 285.62868 136.10809 284.90063 135.3373 C 284.08488 134.55884 282.4654 131.85396 281.2615 129.45059 C 279.97755 126.95183 278.09494 124.22393 276.936 123.32706 C 274.378 121.24715 268.95388 115.55781 268.99992 115.03153 C 269.02294 114.76838 266.38927 111.53283 263.26768 107.81267 C 256.84908 100.35699 248.2683 92.3586 246.6017 92.2128 C 246.07542 92.16675 245.1566 91.55605 244.6917 90.80828 C 244.21914 90.14824 242.27076 89.1823 240.37173 88.66261 C 238.46503 88.23064 236.94756 87.39079 236.9936 86.8645 C 237.03197 86.42592 236.70413 86.13208 236.14715 86.4369 C 235.22396 86.88645 235.13624 86.87877 226.17283 81.23334 C 221.6511 78.36292 218.24228 76.91567 213.38397 75.87192 C 209.82603 75.11871 206.45887 74.20542 205.96328 73.80851 C 205.46 73.49932 204.33507 73.22413 203.53796 73.24278 C 202.73318 73.34914 200.06006 72.58496 197.49001 71.65302 C 195.00768 70.72875 192.00672 69.67073 190.80174 69.30015 C 180.86802 66.663335 177.2147 65.990166 170.1098 65.36857 C 165.73173 64.89715 161.63215 64.273326 161.04885 63.86875 C 160.04999 63.162656 156.2289 62.38642 155.66425 62.77895 Z" fill="black"/>
        </g>
        <g id="Graphic_130">
          <path d="M 181.3264 72.53693 L 181.3264 72.53693 C 180.2475 71.735445 143.34258 68.241526 142.57947 68.88185 C 142.38102 69.12965 141.2177 69.29303 140.16513 69.20094 C 139.10488 69.19657 136.64119 69.06941 134.61608 68.98062 C 132.50325 68.88416 130.24131 69.48174 129.10432 70.35451 C 127.96733 71.22729 126.94874 71.75688 126.79634 71.478385 C 126.31609 70.90605 115.30462 72.50587 111.94407 73.537655 C 110.57463 74.03655 108.4651 74.91262 107.16035 75.68233 C 105.0278 76.82155 102.32729 77.38076 97.60934 77.76347 C 96.6368 77.76677 94.37486 78.36435 92.72693 79.015655 C 91.07132 79.75467 89.26331 80.21519 88.64931 80.16147 C 88.0353 80.10776 86.82594 80.79743 85.86438 81.68555 C 84.22742 83.22167 84.21975 83.30939 85.79094 83.53523 C 86.66041 83.69969 87.80838 83.71174 88.34234 83.67007 C 88.78859 83.62072 90.02427 83.64044 90.99681 83.63714 C 91.96167 83.72156 93.22038 83.47814 93.68197 83.25336 C 95.44832 82.25888 99.99851 81.7731 105.723 82.00877 C 122.29012 82.57435 137.39241 83.71885 137.7696 84.45894 C 138.00204 84.83282 140.57977 85.67705 143.53137 86.28883 C 146.5707 86.90828 151.53537 88.75681 154.578 90.3488 C 157.62061 91.94078 161.445 93.68955 162.99317 94.17855 C 164.62905 94.67521 167.7287 96.62573 169.95886 98.4118 C 172.1013 100.19019 175.29634 102.06067 176.93222 102.55734 C 178.65582 103.06168 180.73358 104.56925 182.15897 106.46168 C 183.42427 108.16333 185.21587 109.91103 186.1577 110.25858 C 187.09187 110.69386 189.0589 112.4569 190.49195 114.26162 C 192.01273 116.074 193.64424 117.63092 194.08281 117.66929 C 195.48625 117.79208 203.04408 127.3803 204.34668 130.67617 C 204.99798 132.3241 206.94528 135.32283 208.72152 137.24596 C 210.4901 139.2568 212.0372 141.77858 212.20825 142.85418 C 212.35958 145.16546 213.45275 147.8243 216.20376 152.74945 C 217.35066 154.79428 218.42848 157.62855 218.64888 159.1504 C 219.04034 161.74785 222.26722 168.30558 224.04346 170.2287 C 224.93926 171.10256 225.4941 174.86332 225.6663 180.97703 C 225.80666 182.4035 226.19705 187.03373 226.6258 191.2254 C 227.13022 196.5727 226.8891 205.39022 225.78627 221.02647 L 224.1956 243.249 L 220.5402 253.71232 C 216.38047 265.89923 214.39487 270.41 208.59266 280.15515 C 206.30225 284.10892 204.3934 287.74252 204.34735 288.2688 C 204.2169 289.75997 196.69545 297.94054 193.99824 299.4723 C 192.6935 300.242 190.89645 301.58735 190.0226 302.48314 C 186.3441 306.1387 177.16046 313.1132 174.86783 314.06166 C 173.49071 314.64826 171.99519 315.57806 171.41518 316.146 C 169.6598 318.02532 150.82093 322.21062 138.05516 323.65696 C 128.59624 324.68553 123.02416 324.72835 115.04212 324.03 C 104.69177 323.12447 87.07752 319.37377 84.14563 317.5263 C 82.22795 316.2095 77.31593 315.77977 77.22384 316.83235 C 77.18547 317.27092 79.63273 319.6063 82.68633 322.0831 C 89.6323 327.55204 91.72541 328.8842 92.4008 328.2362 C 92.68697 327.99606 94.54763 328.95433 96.54535 330.3665 C 100.04519 332.79398 112.7003 338.674 118.29432 340.40083 C 119.76245 340.79443 121.02446 341.52355 121.00144 341.7867 C 120.88632 343.1024 127.36847 345.7908 130.03061 345.67016 C 131.80793 345.5605 133.61925 346.0725 135.02598 347.16783 C 136.76056 348.557 138.41179 348.87823 144.86101 348.91215 C 149.09435 349.01736 155.6543 348.7958 159.312 348.40872 C 162.9697 348.02164 169.69742 347.90315 174.1939 348.0314 C 178.69038 348.1596 183.47302 348.04772 184.81177 347.8997 C 187.58464 347.5236 198.52812 344.6804 202.6211 343.35916 C 204.16596 342.8756 206.611 342.20566 208.04513 341.9776 C 209.56698 341.7572 211.1919 341.36903 211.66116 341.05654 C 212.21815 340.75173 215.2125 339.86468 218.46232 339.08837 C 222.6123 338.12565 225.19878 336.84937 227.22497 334.90537 C 229.16345 332.9537 231.09755 332.06228 233.0503 331.96796 C 236.151 331.8857 237.27265 331.18835 247.0023 323.0242 C 252.8287 318.054 256.31313 313.586 257.17707 309.77258 C 257.21544 309.334 258.4862 307.9426 260.0201 306.57425 C 261.4586 305.28592 264.1492 301.8091 265.99666 298.8772 C 275.20326 284.56865 278.72275 278.68953 279.05166 276.95058 C 279.32685 275.82564 280.02964 273.85424 280.75875 272.59224 C 281.40783 271.23485 281.9999 269.51892 282.06895 268.7295 C 282.138 267.94005 282.8101 266.31952 283.53155 265.14523 C 286.90193 259.96015 292.90582 243.86882 294.4506 236.31437 C 295.0854 233.09962 296.03592 224.25578 296.6882 216.80002 C 297.8404 201.61 296.7482 189.84748 292.6079 172.5151 C 291.37105 167.45726 290.4467 162.8687 290.49275 162.3424 C 290.54647 161.7284 289.87982 160.2559 289.0224 158.94348 C 288.16497 157.63106 287.51367 155.98312 287.5674 155.36912 C 287.62878 154.6674 286.52026 152.184 285.0532 149.7576 C 283.68153 147.25117 281.9557 143.7415 281.2397 141.82275 C 280.60376 139.99939 279.3308 138.38545 278.54135 138.31639 C 277.05787 138.09821 271.00217 129.52526 270.29055 126.54626 C 270.0241 125.5507 267.87836 122.79977 265.43876 120.37668 C 263.0869 117.96126 261.08587 115.57654 261.1319 115.05025 C 261.1363 113.99 256.722 109.89158 255.31856 109.7688 C 254.79227 109.72275 254.08725 108.68882 253.7561 107.42245 C 253.42498 106.15607 252.39212 104.8283 251.63338 104.40837 C 250.77926 104.06849 249.0677 102.41618 247.707 100.79457 C 244.35298 96.70052 238.2184 93.0703 233.24167 92.36974 C 231.67047 92.14389 228.7649 91.00582 226.83189 89.86446 C 219.09978 85.29899 210.85236 81.57231 205.31536 80.20402 C 198.6534 78.56054 193.68106 76.79972 193.74245 76.098 C 193.77315 75.747145 191.18775 74.990635 187.973 74.35584 C 184.84596 73.72871 181.82199 72.93383 181.3264 72.53693 Z" fill="#FFFFFF"/>
        </g>
        <g id="Graphic_129">
          <path d="M 149.20222 94.2094 L 149.20222 94.2094 C 148.6803 93.1031 147.18148 93.06036 147.08939 94.11294 C 147.04335 94.63923 147.72534 95.9363 148.59812 97.07329 C 150.82391 99.91961 152.22305 108.17355 151.4611 113.85199 C 151.03242 116.73123 151.13004 119.65651 151.72432 120.94591 C 152.9052 123.61243 152.47001 131.6175 151.08523 132.29182 C 150.61596 132.60431 149.72239 134.73579 149.25204 137.08106 C 148.69398 139.41867 147.87278 141.73325 147.29277 142.3012 C 146.13276 143.43713 144.72833 152.41803 144.98165 156.59435 C 145.12531 158.99334 146.60004 161.33202 151.17771 166.59375 C 154.53942 170.60009 156.81456 173.89265 156.41766 174.38824 C 156.1008 174.97922 155.50107 176.78287 155.17215 178.52181 C 154.84324 180.26076 154.17115 181.8813 153.70955 182.10607 C 152.0386 183.02052 149.38528 188.09155 149.76577 189.80418 C 150.03221 190.79974 149.78771 191.57382 149.34914 191.53545 C 148.91057 191.49708 147.17822 193.11325 145.50289 195.08794 C 143.33527 197.63827 142.27394 199.66669 142.18516 201.6918 C 141.97688 206.0929 140.23364 213.89513 139.16902 214.951 C 138.6844 215.43893 138.39386 216.7393 138.65263 217.82258 C 138.80066 219.16132 138.46845 219.92773 137.47289 220.19418 C 135.48177 220.72707 135.45768 223.023 137.3874 223.19183 C 138.26455 223.26857 141.7545 222.77842 145.09203 222.00979 C 151.67171 220.55255 156.20986 221.21475 158.53104 223.98102 C 160.2119 225.9842 169.3189 226.95772 172.6301 225.4797 C 174.19032 224.82071 174.98743 224.80207 175.62776 225.56518 C 176.26808 226.3283 175.64203 227.42254 173.06653 229.58364 C 169.7356 232.29735 169.46478 232.36204 167.01314 231.08692 C 165.5757 230.34245 163.58128 229.9028 162.5934 230.08153 C 161.60551 230.26026 160.82376 230.10348 160.86213 229.6649 C 161.00793 227.99833 157.484 227.8668 155.83169 229.57835 C 152.84394 232.41047 150.54586 236.45195 150.94936 237.90143 C 151.15111 238.62617 150.89894 239.48797 150.34196 239.7928 C 148.77406 240.53948 148.81029 244.16648 150.40343 246.16197 C 152.1413 248.52367 159.8361 251.49492 165.44218 252.07377 C 167.72277 252.2733 170.22045 253.02214 170.95617 253.7052 C 171.932 254.67444 172.28286 254.70514 172.62275 253.851 C 173.4933 251.98268 176.66308 251.11098 177.95908 252.46177 C 178.93491 253.431 178.80115 253.94962 176.99207 256.44293 C 175.30139 258.59306 174.90779 260.0612 175.10846 262.81872 C 175.36946 266.90732 174.18973 269.27892 171.49689 269.7504 C 169.34569 270.09253 166.8381 266.42608 167.81939 264.30228 C 168.98378 262.1061 167.25465 257.6239 165.2372 257.4474 C 164.18463 257.3553 162.38867 256.66787 161.21438 255.94643 C 158.10706 254.08362 154.07548 254.70315 149.64592 257.85106 C 145.31176 260.91893 145.0826 261.5176 146.98824 263.98235 C 147.70093 264.92857 148.61537 266.59952 149.05725 267.61043 C 149.49145 268.70905 151.4508 270.5598 153.28843 271.7812 C 156.55583 273.8348 156.70824 274.1133 156.09646 277.0649 C 155.67216 278.8839 155.70946 280.4781 156.29277 280.88268 C 157.20391 281.5811 151.81502 288.62246 147.9271 291.64098 C 145.17617 293.78673 142.37375 299.5518 141.99004 303.93756 C 141.5296 309.20044 143.27078 312.53468 147.76618 314.6957 C 151.41513 316.42912 151.8537 316.4675 155.56512 315.4664 C 157.74702 314.77343 160.04732 313.73728 160.635 313.0816 C 161.30273 312.52132 162.58445 312.01475 163.54932 312.09917 C 165.65447 312.28334 175.87098 306.6366 177.29851 304.46345 C 177.90922 303.54463 180.12618 301.44055 182.20939 299.85508 C 198.1503 287.3731 206.79776 277.43492 212.8609 264.70745 C 218.39337 252.99418 220.3307 246.0044 222.07056 230.1587 C 223.9672 213.53127 224.15567 203.29496 222.72575 188.32098 C 221.7816 177.8972 220.57877 173.46103 217.4155 169.2069 C 215.04498 165.99438 213.90246 162.8893 213.54608 158.88074 C 213.3487 157.09574 212.86515 155.55087 212.42658 155.5125 C 211.9003 155.46646 211.59548 154.90947 211.6492 154.29547 C 211.71059 153.59375 211.0286 152.29668 210.06043 151.23973 C 209.1723 150.27816 207.95304 148.05022 207.39713 146.32225 C 206.8489 144.50656 206.10988 142.85096 205.69433 142.54944 C 205.3665 142.2556 204.51674 140.85546 203.9378 139.39063 C 202.77994 136.46098 192.28033 122.10768 191.23542 121.92787 C 190.19052 121.74807 177.9805 110.78058 177.30619 109.39579 C 177.00904 108.75109 176.17794 108.14806 175.47622 108.08667 C 174.07279 107.96388 168.08293 104.69987 167.45795 103.76133 C 167.2255 103.38745 165.44489 102.52457 163.5612 101.82946 C 161.5898 101.12666 159.15352 99.67611 158.00225 98.69152 C 156.94637 97.6269 154.57477 96.44716 152.85117 95.94282 C 151.03986 95.43081 149.427 94.671 149.20222 94.2094 Z" fill="#FFFFFF"/>
        </g>
        <g id="Graphic_128">
          <path d="M 181.83061 157.69694 C 176.9482 158.94913 173.5756 161.12887 173.01754 163.46648 C 172.58557 165.37318 173.84757 166.1023 174.95057 164.60784 C 176.35508 162.69784 181.5423 162.00264 187.92246 162.826 C 194.65348 163.68004 198.86049 163.07586 199.92949 160.95973 C 200.57089 159.69005 200.40313 159.58699 194.02297 158.76364 C 191.57463 158.46105 188.61535 157.93699 187.50575 157.48636 C 186.30077 157.11578 183.72634 157.2441 181.83061 157.69694 Z" fill="black"/>
        </g>
        <g id="Graphic_127">
          <path d="M 187.82616 179.08063 C 185.11797 179.72755 176.47918 180.47432 172.2305 180.54454 C 170.73167 180.5018 169.88085 181.13445 169.5903 182.43482 C 169.03225 184.77243 171.24376 185.76139 176.89588 185.81395 L 181.0415 185.91149 L 181.28385 189.20298 C 181.54485 193.29158 183.82766 196.49643 186.22665 196.35277 C 187.73315 196.3078 188.1454 195.63678 188.36028 193.18076 C 188.85472 188.53955 190.79756 185.52763 193.65048 185.2469 C 198.03292 184.65807 200.87487 183.49253 199.42976 182.83578 C 198.75106 182.51125 197.92763 181.8205 197.61514 181.35123 C 197.318 180.70653 196.6086 180.73285 195.57468 181.43787 C 194.1592 182.46305 193.7283 182.33697 192.56606 180.46756 C 191.781 179.33824 190.9806 178.38436 190.79749 178.45672 C 190.70977 178.44905 189.35568 178.77251 187.82616 179.08063 Z" fill="black"/>
        </g>
      </g>
    </g>
  </g>
</svg>
