<?xml version="1.0" standalone="no"?>
<!DOCTYPE svg PUBLIC "-//W3C//DTD SVG 20010904//EN"
 "http://www.w3.org/TR/2001/REC-SVG-20010904/DTD/svg10.dtd">
<svg version="1.0" xmlns="http://www.w3.org/2000/svg"
 width="1147.000000pt" height="1280.000000pt" viewBox="0 0 1147.000000 1280.000000"
 preserveAspectRatio="xMidYMid meet">
<metadata>
Created by potrace 1.15, written by Peter Selinger 2001-2017
</metadata>
<g transform="translate(0.000000,1280.000000) scale(0.100000,-0.100000)"
fill="#000000" stroke="none">
<path d="M5145 12789 c-187 -10 -257 -17 -580 -58 -303 -39 -331 -44 -416 -81
-38 -17 -129 -44 -202 -60 -163 -36 -228 -55 -292 -84 -27 -13 -75 -32 -105
-43 -30 -11 -98 -36 -150 -56 -52 -20 -142 -50 -200 -68 -118 -36 -401 -147
-530 -207 -47 -21 -114 -49 -150 -62 -73 -25 -338 -160 -445 -226 -38 -24
-139 -86 -224 -137 -84 -50 -183 -118 -220 -149 -36 -32 -91 -76 -121 -99 -74
-56 -226 -206 -309 -304 -37 -44 -132 -147 -211 -230 -153 -159 -243 -264
-363 -422 -41 -54 -97 -123 -124 -155 -26 -31 -79 -114 -117 -185 -38 -70 -98
-177 -132 -238 -81 -143 -206 -411 -233 -499 -35 -114 -25 -168 42 -240 l36
-38 73 7 c240 23 305 45 496 170 162 106 243 153 471 273 119 62 162 80 436
177 66 23 172 63 236 87 119 46 164 59 279 77 36 6 90 17 119 26 30 8 138 20
240 25 242 14 290 22 375 64 113 55 258 147 325 203 34 29 74 55 89 58 15 3
45 10 67 16 134 35 148 35 328 -12 l89 -23 106 18 c59 10 148 32 197 49 84 29
99 31 240 31 83 1 218 -3 300 -8 110 -7 174 -6 235 4 197 29 237 3 185 -119
-29 -69 -59 -188 -75 -301 -7 -41 -18 -97 -26 -125 -32 -109 -35 -570 -5 -724
9 -45 8 -68 -10 -140 -11 -47 -29 -128 -40 -180 -11 -52 -30 -130 -44 -173
-13 -42 -34 -142 -47 -220 -19 -124 -22 -183 -22 -448 -1 -256 2 -319 17 -394
20 -100 36 -144 67 -184 28 -37 109 -161 126 -195 8 -15 26 -32 40 -37 30 -12
23 -30 -10 -30 -30 0 -39 -12 -63 -85 -80 -240 -127 -372 -161 -450 -22 -49
-58 -151 -81 -225 -83 -268 -164 -496 -203 -570 -36 -69 -66 -186 -56 -222 2
-7 36 -44 77 -82 l73 -69 202 6 c122 4 226 12 266 22 158 36 252 -3 267 -111
12 -90 -61 -270 -188 -464 -38 -59 -74 -122 -79 -140 -10 -34 18 -198 41 -243
19 -36 61 -77 81 -77 9 0 22 -9 28 -20 16 -31 -20 -104 -116 -233 -132 -177
-134 -186 -58 -278 25 -30 65 -86 89 -126 24 -40 52 -80 63 -91 10 -10 38 -53
60 -94 l42 -75 -20 -58 c-11 -32 -20 -66 -20 -75 0 -10 -16 -40 -35 -66 -19
-27 -44 -65 -54 -84 -11 -19 -55 -71 -98 -115 -43 -45 -92 -107 -109 -140 -69
-131 -90 -419 -45 -620 43 -194 47 -224 30 -240 -8 -8 -52 -22 -97 -30 -45 -7
-112 -23 -149 -34 -156 -46 -356 -68 -708 -77 -257 -7 -528 6 -650 32 -38 7
-98 18 -132 24 -34 5 -99 24 -145 41 -71 26 -104 32 -225 40 -81 5 -158 15
-180 24 -21 8 -119 37 -218 66 -99 28 -220 68 -270 89 -128 54 -280 106 -427
145 -123 32 -194 64 -283 125 -24 17 -48 30 -54 30 -5 0 -22 11 -38 23 -31 26
-152 96 -283 165 -47 25 -103 61 -125 82 -22 21 -62 50 -90 66 -27 16 -65 39
-84 51 -36 25 -167 68 -238 79 -39 6 -43 4 -54 -20 -15 -31 0 -77 95 -301 35
-82 114 -225 174 -313 32 -45 84 -125 117 -177 113 -177 224 -305 555 -636
321 -322 327 -327 530 -471 261 -186 337 -232 655 -396 143 -74 280 -145 305
-158 25 -13 79 -33 120 -45 41 -11 140 -51 220 -89 310 -146 674 -259 764
-236 29 7 56 32 56 52 0 23 -35 33 -188 54 -113 15 -162 27 -230 56 -193 81
-515 210 -647 259 -311 117 -583 258 -747 388 -58 46 -135 101 -170 122 -112
68 -325 233 -501 389 -96 86 -469 477 -536 562 -31 40 -96 138 -146 218 -49
80 -105 170 -122 198 -23 36 -33 65 -33 91 l0 39 40 -34 c22 -18 55 -43 72
-56 17 -12 39 -35 48 -50 9 -15 80 -82 157 -150 133 -116 173 -158 173 -182 0
-23 -32 -7 -87 43 -65 61 -99 82 -108 68 -3 -5 32 -42 77 -83 45 -40 114 -103
153 -139 144 -134 231 -198 395 -289 52 -29 120 -69 150 -90 30 -20 103 -62
162 -93 59 -31 147 -83 195 -114 104 -68 436 -238 543 -278 41 -15 109 -42
150 -60 79 -35 229 -84 319 -105 l55 -13 30 37 c35 41 70 47 104 17 16 -13 46
-20 109 -25 116 -9 270 -34 296 -47 12 -6 37 -25 55 -43 27 -25 44 -32 90 -36
47 -4 57 -8 57 -23 0 -27 17 -33 171 -62 238 -44 435 -65 712 -75 147 -5 314
-12 372 -15 80 -5 115 -3 147 9 53 19 178 33 463 51 350 23 519 57 792 163 56
22 124 43 149 46 26 4 75 24 115 47 104 62 175 96 224 109 62 17 148 62 199
104 48 41 54 42 71 21 10 -13 6 -21 -26 -51 -61 -56 -361 -254 -443 -291 -83
-38 -151 -87 -151 -109 0 -31 66 -8 159 55 33 23 116 71 183 108 185 99 323
197 350 246 8 17 6 23 -13 39 l-24 18 35 30 c40 35 65 38 81 9 25 -48 141 1
195 82 20 29 39 45 62 51 25 7 32 14 32 32 0 38 10 56 41 71 42 22 44 18 10
-20 -17 -20 -31 -40 -31 -45 0 -16 39 -12 71 7 36 22 46 49 25 72 -22 24 -11
31 43 31 43 0 53 5 136 75 49 41 94 75 101 75 7 0 41 22 75 50 34 27 72 50 85
50 33 0 54 10 54 26 0 8 17 25 38 38 20 13 60 51 87 85 28 33 82 84 120 113
39 29 142 125 230 213 88 89 181 176 207 193 26 18 57 47 69 65 12 17 33 41
46 53 14 12 30 43 38 74 17 65 32 81 82 89 37 6 38 8 35 44 -4 47 9 64 56 72
21 3 44 10 52 16 13 9 12 12 -4 22 -37 23 -56 47 -56 71 0 27 43 112 71 141
19 19 19 19 19 -38 0 -31 4 -57 8 -57 36 0 140 180 217 377 33 81 84 204 115
273 77 169 94 218 204 565 146 465 161 523 191 752 8 63 22 128 31 144 24 48
42 161 54 349 6 96 17 274 25 395 23 343 16 768 -14 823 -6 12 -3 24 10 41 27
33 26 119 -2 173 -15 30 -23 66 -26 127 -2 47 -8 124 -13 171 -11 95 -13 196
-4 187 3 -3 23 -90 44 -194 51 -254 69 -293 114 -247 22 21 20 63 -4 125 -19
47 -70 284 -84 389 -8 58 -40 113 -64 108 -14 -3 -18 -18 -22 -78 l-5 -75 -13
40 c-7 22 -30 128 -52 235 -21 107 -55 248 -74 313 -20 64 -36 119 -36 122 0
3 -17 5 -37 3 -33 -3 -38 0 -41 20 -2 13 4 33 14 43 26 29 21 72 -27 244 -54
192 -55 200 -39 190 17 -10 71 -131 105 -235 15 -47 40 -116 56 -155 37 -93
51 -146 98 -360 46 -213 61 -255 92 -255 21 0 21 2 15 79 -7 73 -6 80 14 94
l21 14 -23 15 c-23 15 -63 86 -70 122 -3 19 9 30 55 46 28 10 36 37 15 58 -8
8 -17 6 -35 -8 -43 -33 -43 -33 -132 225 -36 101 -98 263 -139 360 -22 53 -76
112 -124 136 -45 23 -94 94 -104 148 -4 20 -21 71 -40 113 -38 88 -245 452
-277 486 -23 25 -47 29 -47 8 0 -23 74 -156 172 -312 55 -85 81 -142 72 -156
-10 -16 -55 34 -79 88 -13 29 -46 86 -74 128 -28 41 -56 87 -61 102 -6 14 -35
51 -65 82 -31 32 -73 75 -94 97 -70 72 -86 110 -84 194 1 41 -2 82 -7 92 -6
10 -50 61 -99 113 -69 75 -90 104 -94 133 -8 50 -51 111 -82 119 -14 3 -39 1
-55 -6 -41 -17 -63 0 -49 38 14 37 -13 57 -86 67 -98 12 -225 66 -225 96 0 12
87 11 174 -1 75 -11 99 -3 76 25 -8 10 -27 15 -54 13 -23 0 -57 4 -76 10 -19
6 -97 25 -173 42 -155 34 -279 91 -253 117 3 3 63 -8 133 -25 71 -17 164 -36
208 -42 44 -7 88 -16 98 -21 10 -6 17 -6 17 0 0 13 -99 131 -110 131 -5 0 -10
-15 -12 -32 -4 -46 -30 -46 -167 -3 -116 36 -170 42 -217 25 -23 -9 -42 -3
-138 41 -61 28 -161 84 -221 124 -61 41 -180 110 -265 155 -85 45 -175 96
-200 113 -67 45 -258 142 -363 183 -50 20 -117 49 -148 65 -30 15 -120 53
-199 84 -115 45 -162 58 -233 66 -104 11 -109 12 -252 54 -60 18 -162 43 -225
55 -63 11 -138 32 -167 46 -77 36 -160 44 -273 28 -128 -19 -460 -31 -460 -16
0 15 29 42 59 54 14 5 66 16 115 25 50 8 93 16 97 19 15 9 -3 33 -30 39 -29 6
-40 4 -206 -38 -55 -14 -166 -35 -247 -47 -82 -11 -207 -34 -278 -50 -130 -30
-889 -221 -1030 -260 -41 -11 -118 -28 -170 -36 -56 -10 -166 -42 -270 -79
-96 -34 -186 -66 -200 -70 -14 -4 -90 -38 -170 -75 -80 -37 -170 -75 -200 -85
-77 -24 -170 -66 -170 -76 0 -17 66 -8 164 21 105 32 181 39 174 18 -7 -21
-52 -38 -171 -64 -155 -35 -283 -84 -334 -129 -27 -22 -71 -46 -118 -62 -41
-13 -111 -49 -154 -78 -44 -29 -99 -57 -123 -63 -24 -6 -79 -36 -121 -67 -136
-97 -287 -182 -457 -255 -91 -40 -200 -90 -242 -112 -76 -39 -148 -104 -148
-132 0 -8 -49 -64 -109 -125 -60 -60 -130 -143 -156 -183 -26 -40 -59 -90 -72
-110 -14 -20 -40 -47 -59 -60 -20 -13 -45 -39 -57 -59 -32 -53 -214 -221 -235
-217 -13 2 -18 16 -20 57 -4 69 26 169 73 241 20 30 50 82 67 115 17 33 54
103 84 155 29 52 59 111 65 130 35 102 305 442 662 835 121 132 233 260 250
285 17 25 40 52 51 59 12 8 48 40 81 71 33 31 90 80 128 109 37 29 74 62 82
74 22 32 166 148 232 187 32 19 83 53 113 76 104 78 268 164 430 224 161 59
411 163 531 220 90 44 160 69 250 90 68 17 158 39 199 50 41 10 92 21 114 24
27 4 55 19 95 54 31 27 70 56 86 64 50 26 393 118 495 133 25 4 70 13 101 21
31 7 112 23 180 34 68 12 147 28 174 35 81 24 249 35 620 41 240 4 375 3 430
-5 44 -7 131 -18 193 -26 62 -8 117 -17 122 -20 5 -3 116 -10 247 -15 190 -7
273 -15 413 -39 184 -32 225 -44 234 -67 10 -25 -19 -26 -90 -4 -100 31 -206
38 -240 16 -17 -12 -23 -21 -16 -28 5 -5 70 -18 143 -28 74 -10 188 -31 254
-45 66 -15 177 -33 247 -41 93 -10 146 -22 201 -44 42 -16 79 -30 84 -30 5 0
37 -11 70 -24 33 -14 87 -27 120 -30 63 -4 95 -17 152 -60 19 -14 45 -26 57
-26 43 0 132 -42 203 -96 39 -30 122 -89 184 -131 62 -42 130 -90 152 -107 89
-70 339 -240 430 -291 53 -30 122 -75 153 -100 31 -25 107 -83 167 -129 61
-46 172 -143 248 -215 76 -72 176 -157 222 -188 185 -128 429 -372 600 -598
114 -151 156 -230 160 -301 3 -42 10 -63 30 -87 91 -111 153 -203 195 -291 47
-97 151 -380 212 -576 16 -52 56 -178 88 -280 33 -102 65 -205 71 -230 6 -25
31 -95 55 -157 29 -72 44 -127 44 -156 0 -24 7 -57 15 -73 8 -16 19 -77 24
-134 6 -58 15 -121 21 -140 5 -19 7 -68 4 -110 -5 -66 -1 -93 34 -230 48 -187
59 -251 72 -398 6 -62 17 -141 25 -175 8 -34 15 -105 15 -157 0 -52 7 -122 16
-155 36 -144 28 -676 -17 -1059 -11 -94 -26 -245 -34 -336 -7 -91 -23 -226
-34 -300 -11 -74 -30 -202 -41 -285 -17 -124 -32 -184 -86 -344 -35 -107 -91
-296 -124 -420 -85 -324 -131 -444 -273 -701 -173 -316 -220 -392 -401 -654
-419 -604 -443 -633 -817 -1001 -176 -174 -247 -236 -331 -292 -132 -88 -198
-111 -198 -67 0 22 -23 17 -68 -16 -59 -43 -53 -70 8 -35 57 33 67 10 16 -41
-36 -36 -70 -44 -80 -19 -7 19 -28 11 -86 -31 -25 -18 -82 -44 -126 -58 -53
-17 -95 -39 -120 -61 -47 -41 -37 -43 44 -10 64 26 107 32 116 16 8 -12 -55
-66 -107 -92 -23 -12 -121 -65 -217 -119 -382 -212 -618 -324 -765 -362 -44
-11 -120 -37 -170 -58 -49 -21 -130 -46 -178 -55 -48 -8 -140 -34 -205 -56
-105 -36 -121 -39 -157 -29 -35 10 -51 7 -132 -20 -51 -16 -97 -30 -103 -30
-6 0 -30 -10 -53 -21 -38 -20 -56 -22 -203 -20 -121 2 -177 -1 -226 -14 -58
-14 -67 -14 -94 0 -45 23 -117 19 -180 -11 -35 -17 -61 -23 -76 -18 -21 6 -21
7 5 21 35 18 34 29 -4 42 -43 15 -109 -3 -116 -30 -3 -11 -20 -27 -37 -37 -28
-15 -72 -17 -418 -17 -251 0 -388 -4 -389 -10 -1 -5 11 -16 27 -24 22 -11 96
-17 294 -22 295 -9 442 -5 605 16 61 8 232 19 380 25 149 6 313 17 365 24 52
8 141 17 198 21 57 4 117 11 135 16 18 6 71 16 119 24 47 8 131 31 185 50 54
19 125 42 158 50 33 9 105 32 160 52 108 40 766 363 948 467 62 35 135 75 163
89 28 14 74 45 102 70 28 24 82 61 119 83 37 21 79 50 93 63 39 37 137 103
235 161 50 29 124 83 165 120 41 37 97 84 125 105 27 20 59 52 70 71 20 33
117 122 230 212 97 76 145 130 238 262 100 142 151 209 291 388 153 195 371
542 500 792 137 268 164 325 181 381 9 30 50 151 90 269 41 118 86 258 100
309 15 52 30 102 35 112 5 9 21 83 36 165 16 89 40 184 61 237 26 68 37 117
49 225 59 539 88 773 110 882 21 113 24 150 24 381 0 207 3 266 16 310 32 106
2 401 -57 569 -27 75 -32 104 -39 251 -6 114 -14 179 -26 207 -11 28 -14 54
-10 77 9 45 -14 95 -53 118 l-29 17 -4 192 c-4 182 -6 197 -31 258 -15 36 -31
90 -37 119 -5 29 -17 76 -25 105 -9 28 -20 80 -26 116 -5 36 -36 146 -68 245
-33 99 -69 225 -80 280 -12 55 -29 129 -37 165 -8 35 -44 127 -80 205 -36 77
-73 158 -82 180 -9 22 -28 59 -43 83 -15 24 -33 66 -40 94 -29 123 -214 449
-399 703 -48 66 -99 138 -113 160 -15 22 -147 154 -295 293 -293 279 -364 342
-380 342 -18 0 -213 134 -292 202 -116 99 -226 180 -330 243 -85 51 -289 189
-618 417 -63 43 -128 86 -145 94 -18 9 -54 33 -82 54 -54 42 -238 125 -350
160 -38 11 -119 39 -180 61 -60 21 -157 51 -215 65 -58 14 -130 36 -160 49
-75 32 -321 100 -455 124 -149 28 -428 58 -665 71 -107 6 -231 16 -275 22
-110 14 -398 18 -590 7z m-165 -1098 c0 -21 -54 -50 -103 -55 -425 -45 -478
-53 -595 -100 -82 -33 -159 -54 -332 -90 -41 -9 -100 -23 -130 -31 -64 -18
-336 -65 -371 -65 l-24 1 25 14 c14 8 61 29 105 46 66 27 100 34 195 39 79 5
134 15 175 30 33 12 87 29 120 37 33 8 130 35 215 59 231 66 453 108 620 117
30 2 65 4 78 5 12 1 22 -2 22 -7z m858 -85 c27 -16 -3 -26 -81 -26 -88 0 -124
12 -97 31 16 11 158 7 178 -5z m-479 -121 c-47 -34 -99 -57 -115 -51 -24 9
-15 33 19 49 50 23 59 25 96 26 l34 1 -34 -25z m-495 6 c13 -20 -9 -42 -57
-56 -70 -21 -170 -37 -198 -33 -20 3 -14 7 26 22 28 11 79 32 115 47 67 29
105 36 114 20z m711 -40 c22 -11 55 -25 73 -32 17 -6 32 -15 32 -20 0 -15 -42
-10 -85 10 -30 13 -47 16 -65 9 -32 -12 -121 -14 -138 -4 -18 11 2 34 42 45
51 15 99 12 141 -8z m990 -25 c11 -7 44 -21 72 -30 56 -18 110 -55 83 -56 -8
0 -42 11 -75 24 -33 13 -86 31 -117 40 -32 10 -58 21 -58 27 0 14 73 11 95 -5z
m-1358 -26 c153 -32 183 -42 183 -64 0 -30 -65 -34 -136 -10 -41 14 -56 14
-108 4 -34 -7 -65 -17 -70 -21 -18 -16 59 -37 198 -53 140 -17 176 -27 176
-49 -1 -36 -18 -42 -154 -47 -74 -3 -138 -9 -142 -13 -23 -23 76 -42 273 -53
105 -6 126 -5 148 10 33 22 24 36 -25 36 -52 0 -70 8 -70 32 0 12 12 24 36 34
45 19 66 15 79 -14 8 -20 15 -22 40 -16 17 4 44 7 60 7 61 -1 228 -34 291 -58
58 -22 70 -23 113 -13 42 9 54 8 87 -8 32 -16 39 -24 39 -49 l0 -30 -58 3
c-33 2 -93 12 -135 24 -127 33 -167 39 -264 36 l-93 -3 157 -38 c105 -26 168
-46 190 -62 18 -14 48 -32 66 -42 33 -17 34 -17 50 4 15 20 27 23 122 25 104
3 106 5 38 30 -36 13 -39 54 -5 69 42 19 102 -6 161 -65 63 -64 96 -74 166
-51 47 15 51 15 92 -3 24 -10 74 -37 112 -60 74 -46 103 -53 91 -24 -4 9 -8
26 -9 37 -1 28 42 31 99 6 50 -22 58 -46 25 -76 -11 -10 -20 -30 -20 -45 0
-33 -23 -66 -39 -56 -7 5 -16 19 -21 32 -6 14 -18 27 -27 31 -10 3 -64 33
-120 65 -56 32 -112 58 -124 58 -13 0 -33 -10 -46 -22 -22 -20 -33 -22 -119
-20 -58 2 -94 -1 -94 -7 0 -16 105 -125 150 -156 29 -20 44 -25 52 -17 16 16
3 40 -37 63 -38 22 -45 39 -18 39 36 0 199 -23 212 -30 8 -4 19 -22 25 -41 15
-44 32 -47 53 -10 22 38 40 39 53 5 14 -36 70 -102 91 -109 11 -4 22 -18 25
-31 8 -31 39 -44 105 -44 51 0 60 8 33 31 -9 7 -25 32 -36 55 -15 33 -17 47
-9 63 17 30 13 41 -15 51 -20 8 -25 16 -22 38 2 21 9 28 30 30 20 2 28 10 33
33 12 55 35 28 35 -42 0 -25 -8 -51 -22 -69 -29 -39 -17 -83 24 -88 24 -3 27
0 30 34 4 44 29 66 56 46 9 -7 29 -18 45 -25 31 -13 34 -29 10 -55 -10 -11
-26 -33 -35 -50 -10 -19 -25 -32 -36 -32 -26 0 -45 -25 -37 -49 8 -27 62 -71
85 -71 29 0 34 19 11 44 -26 28 -17 38 47 55 25 7 48 22 58 36 15 22 14 29 -1
75 -21 64 -14 100 20 100 22 0 25 -4 25 -35 0 -35 17 -83 42 -117 9 -13 8 -24
-6 -57 l-19 -40 27 -32 c15 -17 26 -39 24 -48 -4 -22 -41 -25 -77 -7 -33 18
-71 21 -71 7 0 -13 50 -51 67 -51 8 0 28 -10 45 -21 l30 -22 24 27 c29 31 33
31 105 10 91 -27 162 -69 293 -174 70 -55 195 -150 279 -211 161 -118 249
-187 342 -268 63 -55 75 -59 99 -35 22 21 14 30 -36 42 -45 11 -83 41 -243
187 -117 107 -230 193 -281 215 -79 34 -195 208 -175 261 8 22 10 20 21 -24 9
-35 23 -57 54 -83 50 -44 177 -104 219 -104 31 0 48 -16 157 -141 71 -82 276
-248 346 -281 100 -47 128 -29 69 42 -36 43 -42 75 -15 75 22 0 113 -127 132
-182 8 -26 41 -104 72 -172 31 -68 71 -164 88 -215 17 -50 42 -107 54 -127 54
-88 117 -228 139 -312 46 -173 224 -627 246 -627 16 0 10 30 -22 108 -61 150
-156 408 -183 497 -16 49 -34 99 -42 110 -8 10 -14 26 -14 33 0 8 -18 54 -40
103 -38 85 -94 258 -87 266 13 13 40 -18 71 -83 40 -82 59 -98 82 -65 9 12 20
19 25 15 5 -3 23 -35 39 -72 36 -77 75 -132 96 -132 21 0 107 -83 127 -122 29
-59 106 -281 142 -410 40 -145 86 -256 92 -221 2 11 -3 47 -12 80 -30 106 -30
110 -12 94 35 -29 72 -200 47 -216 -18 -11 -11 -53 14 -82 13 -16 26 -49 31
-77 4 -28 24 -111 46 -185 38 -131 59 -241 46 -241 -4 0 -16 18 -27 40 -11 22
-25 40 -31 40 -18 0 0 -77 43 -185 42 -103 47 -142 33 -240 -5 -38 -3 -55 9
-70 15 -19 15 -19 16 8 0 35 11 34 48 -3 l30 -30 -5 -172 c-6 -193 6 -274 51
-371 14 -29 26 -59 26 -66 0 -6 -12 -39 -26 -73 -21 -49 -27 -86 -34 -202 -5
-77 -10 -149 -10 -158 0 -12 8 -16 27 -15 40 3 43 -28 4 -41 -23 -8 -31 -18
-37 -47 -9 -51 12 -71 28 -27 7 18 16 32 20 32 11 0 10 -243 -2 -385 -14 -158
-35 -272 -63 -332 -19 -42 -22 -65 -23 -182 0 -108 -3 -136 -15 -139 -32 -10
-49 -36 -49 -75 0 -44 22 -77 52 -77 10 0 18 -7 18 -16 0 -25 -65 -84 -92 -84
-14 0 -33 -8 -42 -19 -23 -25 -56 -114 -56 -150 0 -15 -14 -55 -30 -87 -39
-77 -87 -261 -73 -275 18 -18 32 -1 49 59 19 68 40 95 54 72 17 -26 11 -100
-9 -128 -10 -15 -30 -60 -45 -100 -31 -87 -53 -132 -65 -132 -17 0 -19 26 -4
65 26 73 27 77 8 91 -29 22 -55 1 -55 -44 0 -25 -9 -50 -26 -73 -14 -19 -50
-82 -80 -141 -49 -97 -74 -135 -74 -109 0 15 36 122 64 186 29 68 32 85 12 85
-15 0 -99 -164 -115 -225 -17 -63 -66 -133 -98 -141 -15 -3 -33 -7 -40 -9 -6
-2 -35 -38 -63 -79 -62 -93 -160 -211 -311 -377 -63 -69 -147 -164 -187 -212
-99 -118 -177 -202 -456 -491 -278 -288 -421 -420 -561 -519 -109 -77 -145
-106 -145 -118 0 -5 27 -9 60 -11 33 -2 61 -7 62 -13 2 -17 -58 -45 -112 -52
-46 -5 -54 -10 -76 -44 -31 -49 -76 -73 -118 -64 -17 4 -58 8 -91 9 -45 1 -60
5 -60 15 0 17 114 81 198 112 57 22 75 35 63 46 -10 10 -110 -25 -180 -62 -35
-18 -82 -39 -105 -46 -51 -15 -66 -33 -66 -77 0 -32 -4 -37 -60 -66 -37 -19
-65 -41 -73 -58 -7 -16 -19 -28 -26 -28 -8 0 -33 -11 -57 -24 -24 -14 -69 -34
-99 -46 -30 -12 -82 -38 -115 -59 -163 -102 -175 -108 -375 -182 -57 -22 -118
-48 -136 -58 l-31 -19 1 37 1 36 -55 -1 c-31 0 -93 -12 -142 -28 -87 -27 -88
-27 -205 -15 -113 11 -468 8 -481 -5 -11 -12 6 -15 163 -26 172 -12 216 -20
217 -35 1 -23 -110 -26 -432 -10 -516 24 -1085 76 -1219 109 -31 8 -114 24
-184 36 -230 38 -321 70 -289 102 10 10 53 6 210 -20 108 -19 222 -40 252 -47
30 -8 109 -19 175 -25 66 -6 190 -19 275 -30 163 -20 521 -50 603 -50 67 0 59
16 -12 23 -68 6 -112 24 -90 38 19 12 104 11 159 -2 51 -12 379 -2 401 12 33
20 -19 28 -234 38 -227 11 -356 25 -390 42 -9 6 -17 18 -17 28 0 25 -81 59
-180 77 -41 7 -210 25 -375 39 -304 27 -439 43 -576 70 -41 9 -110 19 -152 24
-85 10 -107 21 -107 57 0 23 4 24 58 24 32 0 143 -9 247 -19 357 -37 560 -52
720 -54 154 -2 206 5 173 24 -14 8 -76 13 -433 39 -82 6 -197 17 -255 25 -181
24 -342 36 -476 34 -141 -3 -209 11 -451 87 -121 38 -148 56 -115 73 21 11 55
4 245 -53 61 -18 140 -30 260 -41 95 -8 219 -21 277 -30 251 -35 997 -65 1054
-42 50 20 -18 29 -330 42 -466 20 -670 35 -698 53 -25 15 69 20 441 21 227 1
402 5 417 11 16 6 26 17 26 30 0 27 -27 37 -54 20 -27 -18 -95 -30 -123 -23
-25 6 -32 23 -10 23 8 0 24 11 36 24 15 15 39 26 69 31 99 14 401 96 482 130
168 72 252 78 359 29 31 -14 84 -30 119 -35 35 -5 77 -16 95 -25 28 -15 42
-15 124 -5 74 10 100 10 128 0 29 -11 41 -11 68 0 75 30 174 52 217 48 59 -7
128 20 226 86 169 115 151 107 265 117 91 7 106 11 119 31 43 63 85 95 143
108 38 8 79 28 120 56 148 104 274 165 340 165 14 0 30 6 36 14 10 12 7 18
-13 31 -43 28 -33 50 44 95 41 24 76 52 84 69 17 32 77 87 112 103 19 9 28 8
42 -5 10 -10 24 -17 30 -17 23 0 12 -29 -18 -50 -17 -12 -39 -38 -49 -58 -11
-21 -49 -66 -85 -102 -36 -35 -66 -71 -66 -78 0 -8 14 -19 30 -25 37 -14 37
-18 2 -39 -35 -21 -67 -56 -59 -65 4 -3 20 -6 36 -6 40 0 103 49 292 229 87
82 206 194 265 249 281 261 614 684 614 781 0 32 -25 6 -134 -139 -62 -83
-178 -224 -257 -312 -79 -88 -163 -183 -187 -210 -43 -49 -151 -148 -204 -187
-55 -39 -28 8 65 113 136 155 280 344 397 519 56 85 108 162 116 171 7 8 24
34 36 56 39 70 115 175 177 247 81 92 105 143 109 232 4 74 -7 114 -33 114
-16 0 -41 -79 -60 -189 -12 -66 -25 -90 -47 -91 -26 0 -84 -74 -126 -159 -63
-128 -259 -423 -373 -563 -159 -195 -282 -337 -297 -343 -46 -17 -20 49 42
109 29 28 70 78 92 111 21 33 63 94 94 136 31 41 76 115 100 163 35 68 64 107
130 175 99 100 186 221 176 246 -10 28 -28 12 -93 -81 -94 -134 -108 -122 -39
36 18 41 50 126 70 188 21 61 42 112 46 112 13 0 30 -68 30 -117 0 -93 40 -61
114 91 55 113 106 257 106 301 0 29 -19 43 -31 24 -5 -8 -16 -39 -25 -69 -8
-30 -22 -73 -30 -95 -15 -42 -51 -91 -59 -83 -10 10 46 202 79 271 27 56 41
75 64 83 38 15 53 44 136 265 35 96 94 239 131 318 82 182 93 218 101 366 3
66 19 198 35 294 24 148 33 179 56 209 14 19 39 66 55 105 15 38 44 94 63 126
47 75 105 210 105 241 l-1 25 -23 -27 c-13 -14 -52 -77 -86 -140 -69 -125 -82
-144 -100 -133 -9 5 -11 26 -7 68 4 49 13 71 45 116 21 31 76 127 120 213 45
87 95 178 112 202 31 46 37 66 20 66 -14 0 -103 -129 -166 -242 -54 -96 -70
-116 -81 -104 -11 10 25 122 73 229 26 56 55 122 65 147 l19 45 -66 -70 c-36
-38 -76 -90 -89 -115 -35 -70 -86 -294 -105 -461 -10 -89 -42 -306 -76 -519
-8 -52 -20 -99 -26 -105 -16 -15 -3 223 21 385 11 74 27 189 36 255 22 169 92
566 116 654 23 92 25 149 4 158 -9 3 -18 3 -21 0 -6 -6 -83 -380 -109 -527 -8
-47 -31 -195 -50 -330 -20 -135 -45 -294 -57 -355 -11 -60 -23 -143 -27 -184
-4 -50 -11 -76 -20 -79 -11 -4 -13 6 -7 54 3 33 13 131 21 219 34 370 46 479
70 645 33 228 79 461 115 580 46 153 68 306 46 327 -13 13 -35 -27 -45 -81 -5
-28 -19 -103 -30 -166 -12 -63 -44 -207 -71 -320 -40 -169 -72 -354 -126 -726
-2 -17 -11 -39 -19 -50 -13 -17 -14 -12 -15 51 0 155 61 560 140 920 54 245
90 441 90 486 0 19 -6 44 -14 54 -13 18 -14 18 -24 -1 -13 -24 -52 -224 -92
-464 -50 -303 -93 -458 -123 -447 -7 2 -11 19 -10 38 6 74 128 719 170 897 25
105 26 113 10 129 -15 15 -17 15 -26 -9 -5 -13 -16 -74 -25 -134 -9 -60 -25
-147 -35 -194 -30 -130 -71 -352 -71 -382 0 -32 -17 -46 -27 -22 -6 17 22 280
52 489 8 55 19 143 26 195 6 52 22 130 37 174 l25 78 -24 19 c-44 34 -53 26
-64 -57 -9 -63 -24 -114 -35 -114 -5 0 -8 77 -7 172 1 119 -1 172 -9 175 -20
7 -25 -37 -31 -249 -6 -213 -3 -231 31 -185 16 21 17 18 11 -64 -6 -96 -52
-450 -60 -457 -10 -10 -5 215 7 315 l12 102 -27 25 -27 25 6 133 c8 157 -3
220 -47 285 -20 29 -29 52 -26 66 20 80 27 100 41 116 15 16 15 19 -3 35 -19
17 -20 17 -31 -4 l-12 -22 -25 24 c-14 12 -58 60 -98 106 -59 66 -75 92 -85
135 -19 80 -50 157 -140 347 -46 96 -93 200 -106 230 -30 73 -147 206 -252
287 -47 35 -92 67 -101 71 -21 7 -173 112 -186 127 -15 18 -111 65 -132 65
-10 0 -29 7 -41 16 -13 9 -25 14 -28 12 -9 -9 52 -61 91 -78 22 -9 78 -44 124
-78 46 -33 119 -78 160 -100 42 -23 90 -56 107 -74 17 -18 49 -50 71 -70 21
-21 61 -75 88 -120 63 -106 225 -425 225 -444 0 -30 -48 16 -77 74 -42 84
-311 345 -699 677 -37 31 -56 57 -65 87 -13 40 -16 43 -51 43 -30 1 -46 9 -80
41 -24 23 -69 53 -101 68 -60 29 -198 127 -231 164 l-19 22 35 0 c24 0 69 -18
134 -52 111 -58 180 -82 190 -67 10 17 -15 37 -65 54 -27 9 -86 40 -132 69
-89 56 -136 76 -178 76 -15 0 -37 8 -50 17 l-24 16 6 -34 c4 -19 10 -46 13
-61 10 -44 -22 -36 -105 27 -45 34 -85 56 -109 60 -105 16 -201 62 -247 117
-20 23 -29 28 -38 19 -19 -19 -65 -12 -150 23 -45 18 -199 68 -342 111 -143
42 -303 93 -355 112 -107 41 -174 50 -240 33 -25 -7 -72 -16 -105 -21 -33 -5
-98 -17 -145 -26 -125 -24 -338 -28 -525 -9 -88 8 -179 13 -202 9 -28 -4 -43
-2 -43 5 0 20 63 60 134 85 79 29 98 43 71 53 -25 10 -150 -22 -221 -55 -32
-15 -87 -38 -122 -50 -35 -12 -90 -35 -122 -51 -97 -49 -201 -73 -320 -74
-102 -1 -108 0 -183 36 l-78 38 -107 -7 c-66 -4 -137 -15 -186 -29 -44 -13
-97 -24 -118 -24 l-39 0 7 -45 c6 -41 5 -45 -15 -45 -13 0 -25 -9 -30 -22 -5
-13 -17 -31 -28 -40 -29 -26 -105 -58 -139 -58 -20 0 -52 -14 -84 -36 -87 -60
-135 -77 -236 -82 -123 -6 -130 8 -27 54 43 19 96 43 118 54 38 18 38 19 13
19 -29 1 -101 -25 -254 -90 -50 -21 -101 -39 -112 -39 -12 0 -43 -9 -69 -19
-49 -19 -248 -54 -378 -66 -38 -4 -97 -18 -131 -31 -33 -13 -68 -24 -78 -24
-34 0 -11 35 44 67 70 40 120 81 120 98 0 30 -23 24 -71 -19 -27 -25 -105 -73
-172 -107 -67 -34 -162 -90 -212 -124 -49 -34 -104 -69 -121 -78 -17 -9 -67
-43 -111 -75 -69 -52 -224 -132 -253 -132 -14 0 -12 17 2 29 7 6 38 32 69 58
31 27 120 89 198 138 77 50 210 135 295 190 85 55 192 120 237 145 100 54 169
106 169 125 0 24 -31 17 -80 -15 -25 -17 -92 -56 -150 -87 -57 -31 -121 -72
-141 -90 -45 -41 -268 -179 -404 -250 -55 -29 -134 -78 -175 -110 -41 -31 -95
-69 -119 -85 -44 -27 -91 -37 -91 -19 0 17 68 68 112 85 32 13 51 29 72 62 16
25 55 68 88 95 93 77 403 279 452 293 25 8 80 38 123 68 43 31 130 83 193 118
63 34 140 81 170 103 30 23 74 49 96 58 23 9 81 43 129 75 163 109 190 124
315 173 159 62 222 80 302 85 73 5 101 17 208 91 102 72 190 106 190 75 0 -6
11 -16 25 -22 48 -22 33 -48 -60 -103 -29 -18 -35 -24 -20 -25 37 0 123 48
182 102 50 46 70 57 129 72 164 41 347 146 360 206 3 14 7 31 10 38 7 23 35
25 64 3 55 -40 171 -23 228 34 30 30 55 32 82 5 16 -16 33 -20 93 -20 79 0
103 9 94 35 -6 13 -16 15 -66 9 -37 -4 -61 -2 -65 4 -9 15 8 23 78 38 97 21
121 18 150 -17 42 -50 35 -66 -31 -74 -31 -4 -131 -22 -222 -41 -91 -19 -183
-34 -205 -34 -76 0 -163 -61 -154 -107 5 -25 37 -22 138 15 130 47 214 69 347
92 68 12 180 36 250 53 116 29 128 34 131 55 4 28 72 62 163 82 85 19 92 7 19
-31 -52 -27 -61 -34 -42 -37 22 -3 219 50 257 71 19 10 19 10 -3 18 -26 10
-30 29 -6 29 9 0 81 -14 161 -30z m-1243 -69 c10 -16 -23 -33 -72 -38 -51 -6
-50 4 3 31 34 18 61 20 69 7z m1625 -7 c35 -12 54 -13 93 -4 68 14 73 13 86
-14 10 -22 18 -24 119 -30 152 -10 227 -23 308 -53 90 -33 115 -49 115 -73 0
-25 -6 -25 -61 -1 -24 10 -105 26 -179 35 -74 9 -160 23 -190 31 -30 7 -98 19
-150 25 -52 6 -138 20 -192 30 -53 11 -99 20 -102 20 -19 0 0 20 32 33 47 20
67 20 121 1z m706 -14 c3 -5 -3 -18 -14 -29 -20 -20 -52 -19 -79 2 -11 9 -11
13 4 24 21 15 80 17 89 3z m-3041 -16 c50 -19 -36 -54 -180 -74 -38 -5 -87
-16 -107 -25 -42 -18 -67 -19 -67 -4 0 23 215 95 327 108 6 0 18 -2 27 -5z
m3248 -74 c-12 -12 -22 -32 -22 -45 0 -29 -16 -32 -42 -8 -26 24 -23 32 25 53
54 25 66 25 39 0z m-2988 -101 c-16 -26 -328 -133 -350 -121 -28 15 29 49 145
86 128 41 137 43 179 45 22 1 31 -3 26 -10z m3184 -55 c116 -49 152 -69 152
-84 0 -21 -48 -8 -134 35 -48 25 -94 45 -101 45 -16 0 -47 35 -38 43 9 10 4
11 121 -39z m-123 -36 c28 -13 32 -26 11 -34 -19 -7 -56 13 -56 31 0 18 11 19
45 3z m959 -59 c77 -40 177 -95 221 -124 44 -29 170 -100 280 -157 353 -185
432 -230 524 -303 50 -39 138 -99 196 -133 60 -36 116 -78 131 -98 15 -19 40
-42 56 -50 15 -8 40 -32 54 -54 15 -22 33 -40 41 -40 33 0 186 -170 169 -187
-10 -11 -84 17 -115 43 -17 14 -46 52 -66 84 -26 43 -49 66 -88 88 -28 17 -79
53 -112 81 -82 69 -133 109 -250 194 -171 125 -214 151 -420 258 -110 57 -243
132 -295 167 -52 36 -131 82 -175 102 -129 60 -343 199 -306 200 7 0 77 -32
155 -71z m67 -190 c17 -32 -3 -43 -34 -18 -15 11 -25 25 -22 30 11 17 44 9 56
-12z m-5626 -165 c-46 -37 -132 -59 -123 -32 5 13 90 45 123 46 l20 1 -20 -15z
m5693 -16 c18 -18 15 -38 -6 -38 -26 0 -42 -20 -42 -51 0 -15 -6 -32 -14 -38
-11 -9 -18 -6 -35 15 -29 37 -27 60 8 72 16 6 34 20 41 31 12 24 30 27 48 9z
m122 -78 c21 -21 19 -40 -5 -40 -18 0 -45 28 -45 46 0 20 27 17 50 -6z m309
-53 c55 -32 68 -54 28 -49 -36 4 -117 62 -117 83 0 16 3 18 18 9 9 -6 41 -25
71 -43z m-6376 4 c-4 -14 1 -20 18 -23 40 -6 31 -24 -31 -59 -34 -19 -89 -52
-122 -74 -111 -73 -132 -85 -210 -115 -81 -32 -108 -37 -108 -20 0 6 5 10 11
10 6 0 68 44 137 98 182 139 198 151 245 178 51 29 67 30 60 5z m3820 -3 c10
-5 22 -20 27 -33 10 -26 12 -26 185 -64 227 -48 676 -208 763 -271 43 -31 172
-90 252 -115 84 -26 270 -121 322 -164 26 -21 77 -51 113 -66 62 -27 69 -33
96 -87 26 -51 33 -58 59 -58 17 0 30 -4 30 -10 0 -5 -7 -10 -15 -10 -8 0 -15
-6 -15 -14 0 -19 95 -103 144 -128 23 -11 68 -46 101 -78 33 -33 86 -74 117
-93 33 -20 72 -54 90 -80 18 -25 45 -60 59 -79 57 -71 40 -108 -21 -48 -37 36
-87 63 -94 51 -4 -5 32 -55 79 -110 47 -56 85 -106 85 -111 0 -16 -14 -12 -50
15 -19 14 -42 23 -51 20 -12 -4 -18 2 -22 22 -4 16 -36 61 -72 101 -36 40 -65
78 -65 83 0 6 12 8 29 4 74 -16 33 41 -105 147 -53 40 -110 82 -129 93 -87 53
-120 81 -125 110 -7 39 -25 42 -40 6 -11 -27 -9 -35 10 -66 30 -48 15 -67 -29
-36 -45 32 -74 73 -60 82 21 12 -18 59 -67 80 -24 11 -72 25 -107 31 -34 6
-73 16 -87 23 -44 22 -632 194 -700 205 -36 5 -123 12 -195 16 -116 5 -144 3
-258 -20 -150 -31 -304 -84 -352 -120 -19 -14 -40 -26 -48 -26 -42 0 -304
-150 -385 -221 -36 -32 -76 -38 -86 -13 -9 25 -7 133 4 153 9 18 158 121 175
121 16 0 75 51 75 66 0 21 -13 17 -71 -22 -60 -40 -93 -58 -126 -68 -19 -6
-23 -4 -23 14 0 39 20 60 88 94 119 60 124 92 10 57 -61 -18 -74 -19 -86 -7
-11 11 -11 21 -3 52 6 22 16 82 22 134 13 121 33 199 70 277 34 72 75 110 127
118 20 4 57 15 82 26 82 36 220 45 273 17z m2572 -138 c8 -24 -4 -50 -23 -50
-19 0 -52 29 -52 46 0 33 64 37 75 4z m150 11 c3 -5 0 -13 -6 -17 -6 -3 -20
-27 -31 -51 -21 -48 -41 -52 -46 -9 -5 44 63 108 83 77z m-7240 -166 c-72 -64
-139 -87 -109 -37 15 24 114 82 139 82 16 -1 10 -10 -30 -45z m7367 8 c31 -33
59 -83 52 -94 -11 -18 -78 27 -108 73 -33 51 12 67 56 21z m113 -22 c8 -26 -5
-53 -24 -49 -29 6 -27 68 3 68 8 0 17 -8 21 -19z m135 -146 c15 -18 6 -45 -13
-45 -20 0 -40 27 -33 45 7 19 30 19 46 0z m-7090 -112 c0 -10 -52 -63 -62 -63
-20 0 -5 41 20 54 30 17 42 19 42 9z m4483 -147 c37 -7 70 -16 73 -19 11 -11
-7 -27 -30 -27 -13 0 -37 -7 -52 -15 -16 -8 -51 -15 -79 -15 l-50 1 29 23 29
24 -52 7 c-49 7 -59 13 -44 28 10 11 103 7 176 -7z m267 -26 c22 -12 22 -13 5
-22 -23 -13 -131 -4 -151 13 -12 10 -12 14 -2 21 17 12 119 3 148 -12z m-5592
-12 c-6 -16 -76 -64 -107 -73 -38 -11 -21 16 33 53 50 33 81 41 74 20z m5102
-3 c6 -8 9 -19 5 -24 -10 -17 -81 -34 -109 -27 -38 9 -32 25 14 32 22 4 45 13
51 20 15 18 24 18 39 -1z m3228 -60 c33 -28 72 -99 72 -132 0 -11 -9 -28 -21
-39 -20 -18 -21 -18 -35 1 -8 10 -14 23 -14 28 0 4 -11 23 -25 41 -27 35 -41
86 -32 111 9 21 21 19 55 -10z m-3404 -4 c10 -15 -73 -39 -158 -46 -61 -5 -77
-3 -74 7 11 32 215 67 232 39z m401 -28 c-18 -45 -18 -53 4 -53 12 0 35 7 51
15 74 38 77 38 111 -10 36 -50 44 -53 87 -28 25 14 36 15 68 5 22 -6 66 -14
99 -17 33 -4 91 -15 130 -26 94 -26 215 -35 244 -19 22 11 27 8 68 -39 50 -57
140 -106 297 -161 57 -19 113 -48 155 -79 36 -26 91 -64 121 -83 30 -19 70
-50 88 -68 31 -32 42 -60 23 -60 -8 0 -105 63 -206 135 -41 29 -51 32 -53 19
-5 -21 63 -92 105 -110 17 -8 67 -43 110 -79 101 -86 155 -117 206 -121 35 -2
50 -12 114 -76 82 -80 120 -135 107 -148 -12 -12 -24 -3 -58 43 -32 42 -46 47
-46 15 0 -29 32 -79 63 -98 13 -8 36 -23 50 -33 35 -25 47 -15 47 39 0 32 4
44 15 44 25 0 55 -42 112 -155 30 -60 57 -112 59 -115 3 -2 14 1 25 8 27 17
35 10 48 -42 8 -33 18 -48 38 -58 38 -18 41 -47 9 -73 -26 -20 -26 -24 -16
-69 13 -59 0 -176 -30 -258 -24 -68 -25 -91 -6 -107 11 -9 15 -8 20 5 3 8 6
22 6 30 0 7 12 39 26 71 15 32 31 92 36 133 16 121 36 221 49 236 27 33 32 13
26 -99 -3 -63 -1 -120 3 -128 6 -9 3 -21 -10 -34 -44 -47 -56 -159 -20 -195
11 -11 24 -20 29 -20 18 0 19 -30 1 -52 -10 -13 -24 -53 -30 -89 -25 -139
-154 -558 -215 -699 -98 -225 -161 -397 -151 -408 9 -9 27 11 50 56 32 63 125
300 174 443 22 64 56 154 75 200 20 46 56 145 82 220 44 131 86 205 93 167 4
-21 -30 -154 -83 -318 -48 -150 -64 -221 -46 -205 15 15 125 268 160 371 33
96 47 117 57 90 12 -31 -11 -104 -139 -437 -132 -343 -150 -396 -138 -404 17
-10 65 69 91 150 7 22 34 92 61 155 26 63 60 149 75 190 27 77 40 100 55 100
27 0 3 -93 -83 -325 -32 -88 -63 -179 -69 -203 -5 -24 -36 -100 -68 -170 -33
-70 -76 -172 -97 -227 -20 -55 -50 -127 -67 -160 -31 -62 -77 -178 -77 -195 0
-24 20 -7 38 33 11 23 48 101 82 172 34 72 93 209 130 305 38 96 97 243 133
325 35 83 72 171 81 198 18 47 41 61 53 32 3 -9 -9 -53 -27 -98 -18 -45 -61
-166 -96 -269 -35 -103 -80 -227 -100 -275 -20 -48 -69 -176 -109 -283 -87
-233 -109 -284 -135 -317 -14 -19 -20 -41 -20 -79 0 -30 4 -54 9 -54 11 0 55
90 81 164 10 28 36 93 59 144 23 51 70 177 105 280 55 160 99 271 149 370 17
36 46 47 66 28 15 -16 14 -20 -6 -55 -14 -24 -21 -53 -20 -79 1 -29 -7 -51
-27 -82 -16 -25 -31 -64 -35 -94 -4 -28 -14 -62 -23 -76 -9 -14 -30 -68 -46
-120 -35 -114 -87 -240 -147 -360 -25 -49 -45 -100 -45 -112 0 -20 2 -20 35
12 19 19 35 38 35 43 0 5 18 39 40 75 22 37 43 83 46 102 4 19 13 44 19 55 7
11 20 43 29 72 19 58 50 103 72 103 8 0 14 -2 14 -5 0 -2 -35 -105 -79 -227
-43 -123 -84 -241 -91 -263 -7 -22 -32 -82 -56 -134 -24 -52 -44 -103 -44
-113 0 -42 27 -8 82 102 44 86 63 116 79 118 19 3 21 0 17 -25 -14 -80 -54
-198 -94 -280 -26 -50 -43 -96 -39 -103 4 -7 21 1 50 25 24 19 45 35 48 35 6
0 -16 -49 -107 -232 -53 -107 -75 -163 -68 -170 6 -6 18 2 36 25 30 38 143
258 169 325 10 27 20 41 27 37 17 -10 6 -45 -57 -180 -30 -65 -68 -152 -84
-192 -16 -40 -40 -91 -53 -112 -45 -71 -84 -175 -63 -169 7 2 38 56 69 121 31
64 61 117 66 117 17 0 22 -30 12 -76 -23 -101 -189 -456 -296 -634 -35 -58
-72 -130 -83 -160 -47 -133 -211 -431 -288 -524 -40 -48 -14 -44 29 4 69 79
85 102 173 260 48 85 101 174 117 197 16 24 38 69 49 100 10 31 32 77 48 102
16 25 42 72 58 104 24 50 31 58 51 54 18 -3 29 4 49 32 43 58 44 58 27 1 -19
-65 -52 -126 -88 -159 -14 -14 -31 -43 -37 -65 -6 -23 -18 -49 -26 -58 -9 -10
-43 -66 -76 -125 -41 -75 -59 -119 -59 -143 0 -59 -66 -166 -128 -205 -24 -15
-59 -57 -95 -111 -31 -47 -79 -110 -105 -139 -63 -70 -75 -92 -60 -111 16 -18
6 -44 -17 -44 -10 0 -33 -9 -51 -20 -30 -18 -33 -19 -39 -4 -3 9 1 36 10 60
18 50 9 64 -20 31 -22 -24 -130 -189 -182 -277 -46 -78 -152 -190 -180 -190
-19 0 -21 4 -15 23 13 42 53 114 90 163 21 27 50 71 65 99 15 27 55 85 88 130
166 219 456 693 436 713 -10 11 -49 -42 -106 -148 -29 -52 -78 -133 -108 -179
-31 -46 -70 -106 -88 -135 -17 -28 -42 -64 -56 -81 -13 -16 -63 -88 -110 -160
-48 -71 -116 -168 -153 -215 -36 -47 -102 -136 -146 -198 -62 -86 -91 -119
-127 -139 -25 -14 -63 -44 -83 -65 -32 -34 -40 -38 -57 -28 -12 6 -21 21 -21
35 0 13 -4 26 -9 30 -6 3 -13 26 -17 51 -5 38 -12 49 -37 63 -17 9 -42 27 -56
40 l-24 23 -54 -26 c-35 -17 -61 -38 -74 -61 -16 -27 -28 -35 -49 -35 -34 0
-54 22 -46 53 3 13 28 53 55 89 60 79 151 217 151 229 0 24 -23 2 -74 -69 -69
-94 -151 -197 -211 -264 -25 -28 -45 -54 -45 -59 0 -4 9 -13 20 -19 11 -6 20
-18 20 -27 0 -14 -42 -148 -71 -230 -14 -37 -55 -56 -142 -64 -45 -4 -120 -13
-167 -19 -61 -9 -180 -10 -415 -6 l-331 7 -58 -27 c-87 -40 -173 -44 -148 -8
4 5 31 25 61 44 47 30 63 34 137 38 56 3 114 -1 175 -13 212 -41 809 12 809
72 0 13 -9 15 -57 9 -200 -23 -359 -31 -688 -31 -203 0 -382 4 -397 8 -16 4
-28 13 -28 21 0 7 -13 30 -29 50 -45 56 -56 99 -55 211 2 148 21 194 180 435
34 52 73 117 86 143 22 47 24 49 58 43 81 -13 260 -19 260 -9 0 12 -10 15
-135 44 -122 27 -126 31 -122 140 1 60 -2 92 -10 100 -18 18 -16 46 4 53 26
10 227 20 258 12 40 -10 24 -19 -78 -41 -66 -14 -92 -24 -92 -35 0 -20 67 -25
109 -9 17 7 60 32 95 56 35 24 96 53 135 66 71 22 71 22 31 25 -22 2 -90 -1
-151 -7 -60 -6 -158 -11 -217 -11 l-107 0 -41 40 c-23 22 -39 43 -36 46 7 8
127 20 328 34 218 15 439 51 439 71 0 10 -8 13 -54 24 -36 8 -23 20 42 36 81
22 38 59 -46 40 -26 -6 -83 -17 -127 -25 -44 -8 -96 -21 -115 -29 l-35 -15 73
-1 c78 -1 94 -14 35 -30 -85 -22 -271 -51 -328 -51 -62 0 -215 16 -248 26 -17
5 -17 7 -3 23 9 10 16 22 16 28 0 5 9 18 20 28 26 23 17 35 -28 36 -20 0 -46
4 -56 8 -46 18 18 26 219 29 145 2 205 0 195 -7 -8 -6 -33 -11 -55 -11 -22 0
-47 -4 -55 -10 -26 -16 15 -23 98 -17 95 8 402 63 436 78 31 14 25 29 -12 29
-50 0 -54 11 -21 68 40 71 95 122 176 165 72 38 102 65 176 162 25 33 85 103
133 155 89 97 144 166 144 182 0 4 -6 8 -13 8 -14 0 -169 -156 -241 -242 -26
-32 -52 -58 -57 -58 -19 0 -8 30 26 72 43 53 68 98 61 106 -3 3 -42 -29 -85
-71 -43 -42 -84 -77 -92 -77 -7 0 -20 7 -29 15 -9 8 -38 19 -63 24 -26 4 -54
14 -62 21 -62 52 -292 130 -381 130 -20 0 -51 -9 -69 -20 -18 -11 -54 -23 -81
-26 -27 -4 -91 -17 -143 -30 -106 -27 -149 -30 -175 -11 -23 17 -15 66 16 93
26 24 42 56 74 146 37 103 74 173 150 284 36 53 72 113 78 133 10 28 24 42 62
61 42 21 50 30 54 60 5 34 7 35 58 42 72 11 85 19 130 86 52 76 74 120 110
224 l31 87 -19 101 c-19 94 -19 103 -4 138 30 70 29 310 -2 279 -11 -11 -23
-95 -23 -169 -1 -37 -6 -70 -11 -73 -20 -12 -30 49 -30 180 0 141 -4 165 -26
165 -23 0 -27 -45 -22 -276 l5 -224 -29 -63 c-43 -92 -87 -156 -117 -171 -14
-8 -58 -21 -98 -30 -94 -21 -129 -35 -117 -46 13 -12 157 14 243 45 40 15 82
25 94 23 22 -3 22 -4 -5 -29 -40 -38 -139 -63 -423 -109 -285 -46 -536 -64
-501 -36 11 9 23 16 28 16 4 0 8 5 8 11 0 21 -70 1 -95 -26 -45 -48 -146 -25
-193 45 -37 54 -28 144 28 280 23 58 62 158 86 223 23 65 63 152 88 195 73
125 89 168 83 223 l-6 47 41 14 c56 18 75 49 87 141 10 72 47 167 71 182 6 4
10 -13 10 -46 l0 -52 21 19 c19 17 21 18 30 1 14 -23 39 -21 39 3 0 73 64 123
77 60 8 -43 21 -37 48 24 l24 54 53 -12 c29 -8 66 -20 81 -28 18 -10 43 -14
71 -11 39 5 45 2 72 -30 39 -46 56 -53 142 -62 61 -6 72 -5 72 8 0 9 -4 19
-10 22 -5 3 -10 12 -10 19 0 10 30 12 133 8 186 -6 302 21 268 62 -17 20 -41
21 -41 1 0 -8 -9 -15 -20 -15 -13 0 -20 7 -20 20 0 75 -105 133 -125 70 -9
-27 -45 -37 -61 -15 -7 9 -30 23 -51 30 -36 12 -36 14 -13 18 52 11 158 16
233 10 75 -6 78 -7 73 -28 -5 -20 1 -25 60 -45 58 -19 71 -20 114 -10 52 12
119 5 103 -11 -6 -6 -51 -18 -102 -28 -51 -10 -95 -22 -99 -26 -9 -10 192 2
233 13 18 5 35 19 44 36 8 17 30 36 56 47 56 25 175 49 233 48 44 -1 46 -2 20
-12 -49 -19 -30 -28 45 -21 l73 6 -4 -61 c-6 -80 9 -79 49 2 39 77 66 107 96
107 34 0 34 -36 1 -82 -11 -16 -18 -36 -16 -46 3 -11 13 0 31 36 33 63 96 129
133 138 14 4 36 1 49 -6 21 -11 28 -10 51 6 14 10 45 31 68 45 77 48 33 61
-94 29 -45 -12 -84 -19 -86 -17 -2 2 67 37 154 79 133 64 172 89 255 159 124
105 161 132 165 119 2 -5 -53 -65 -122 -132 -84 -83 -126 -130 -126 -145 0
-25 -18 -34 -43 -21 -28 14 -33 1 -14 -31 9 -16 17 -38 17 -49 0 -55 45 -10
84 82 26 63 56 95 109 122 33 17 83 58 134 113 66 68 82 82 83 64 0 -12 -4
-25 -10 -28 -5 -3 -10 -15 -10 -26 0 -35 -33 -71 -86 -95 -78 -34 -84 -89 -11
-96 28 -3 32 -7 35 -34 2 -17 -6 -56 -17 -85 -10 -30 -49 -137 -86 -239 -37
-102 -76 -202 -87 -224 -13 -26 -15 -37 -6 -34 48 16 287 592 288 695 1 21 9
63 20 93 23 66 25 113 5 130 -23 19 -19 28 35 87 28 30 50 61 50 68 0 33 -24
22 -89 -39 -52 -49 -78 -66 -98 -66 -40 0 -85 -31 -123 -83 -33 -47 -132 -127
-156 -127 -30 0 -12 32 32 58 126 74 109 92 -25 28 -55 -26 -140 -56 -188 -68
-117 -28 -139 -36 -126 -49 8 -8 26 -8 59 -1 54 12 64 6 64 -38 0 -24 -2 -25
-67 -25 -57 0 -78 -6 -131 -33 -34 -17 -69 -32 -78 -32 -8 0 -85 -20 -172 -45
-326 -92 -504 -115 -892 -114 -151 0 -324 4 -384 8 -133 11 -177 1 -101 -21
28 -8 89 -23 138 -34 48 -10 87 -22 87 -26 0 -18 -198 11 -300 44 -55 18 -61
22 -42 29 13 5 22 17 22 29 0 29 -46 28 -55 -1 -6 -18 -13 -20 -42 -16 -34 6
-63 23 -63 37 0 4 11 5 24 3 28 -6 69 39 64 71 -6 43 -108 63 -108 21 0 -25
-15 -25 -94 1 -43 13 -87 22 -97 19 -16 -5 -19 -1 -19 23 0 31 -20 62 -81 127
-21 22 -45 57 -54 77 -17 42 -20 94 -6 103 10 6 47 -36 56 -64 8 -26 234 -233
246 -225 6 3 -23 40 -64 83 -116 119 -165 203 -182 314 -8 51 -34 46 -55 -11
l-16 -43 -25 27 c-22 24 -24 33 -24 137 0 130 24 223 77 303 28 41 40 50 82
60 56 14 63 23 72 81 l6 41 89 4 c75 2 92 6 111 25 21 22 21 24 6 57 -16 32
-94 96 -117 96 -18 0 -12 30 7 36 9 3 33 14 52 25 19 11 73 38 119 60 46 22
99 55 117 74 32 34 32 36 28 112 -3 43 -7 88 -10 99 -10 54 -79 31 -146 -47
-57 -68 -64 -82 -72 -147 -4 -29 -9 -59 -13 -68 -8 -20 -105 -66 -116 -55 -4
4 6 42 23 84 31 79 35 103 21 126 -13 20 -55 6 -99 -32 -55 -50 -84 -67 -109
-67 -53 0 -20 38 104 120 29 19 53 38 53 43 0 9 2 10 -59 -9 -70 -20 -98 -14
-53 12 66 37 215 134 234 150 18 17 25 44 10 44 -4 0 -52 -27 -105 -60 -95
-58 -171 -100 -182 -100 -19 0 4 37 63 95 69 70 72 95 5 55 -26 -15 -39 -18
-47 -10 -7 7 6 26 48 64 53 50 70 87 35 77 -37 -10 -96 -11 -109 -2 -23 16 -2
41 56 71 27 14 60 33 74 43 13 9 37 17 52 17 15 0 39 5 53 12 24 11 30 22 37
73 2 11 11 21 21 23 13 3 17 -2 15 -15 -5 -28 41 -28 107 1 59 27 105 34 105
16 0 -11 -121 -73 -211 -109 -31 -12 -67 -33 -80 -47 -35 -37 -5 -30 97 22 49
25 114 52 144 60 30 8 105 34 165 58 87 35 127 45 191 49 129 8 194 45 194
111 0 23 -4 26 -35 26 -28 0 -37 -5 -44 -24 -11 -26 -33 -38 -56 -30 -21 8
-19 21 4 34 11 5 21 20 23 32 4 32 43 48 117 48 56 0 62 -2 56 -17z m-276 -59
c16 -44 1 -65 -58 -82 -83 -25 -118 -8 -45 23 19 8 37 22 40 32 23 74 43 82
63 27z m3493 -71 c41 -44 185 -268 198 -308 30 -91 -44 -46 -97 59 -14 28 -41
72 -59 97 -35 48 -84 145 -84 167 0 19 14 14 42 -15z m-8692 -18 c0 -8 -12
-21 -28 -29 -15 -8 -36 -24 -47 -36 -17 -18 -17 -24 -6 -43 l14 -22 -25 23
c-29 26 -60 28 -83 6 -9 -9 -19 -13 -22 -10 -12 12 50 64 117 99 66 35 80 37
80 12z m4600 -15 c0 -28 -143 -154 -184 -161 -58 -11 14 80 108 136 63 37 76
41 76 25z m-4490 -10 c0 -14 -60 -50 -83 -50 -28 0 -10 20 37 41 49 22 46 22
46 9z m6780 -115 c49 -25 67 -41 56 -52 -6 -7 -88 40 -106 61 -17 22 -7 20 50
-9z m-7137 1 c39 -4 44 -14 11 -21 -16 -4 -45 -11 -64 -16 -47 -12 -50 -12
-50 9 0 28 22 44 50 37 14 -4 37 -8 53 -9z m7696 -394 c69 -71 191 -239 191
-264 0 -49 -64 12 -136 129 -26 43 -62 94 -80 113 -17 19 -37 45 -43 58 -21
40 8 25 68 -36z m-3039 -364 c0 -56 -13 -77 -37 -62 -26 16 -27 46 -3 77 30
38 40 34 40 -15z m3339 -102 c17 -35 35 -67 41 -71 10 -6 15 -45 6 -45 -3 0
-28 22 -55 49 -42 40 -51 54 -51 83 0 34 6 48 21 48 4 0 21 -29 38 -64z
m-3229 -61 c0 -13 -86 -65 -107 -65 -32 0 -26 19 17 48 29 19 90 31 90 17z
m-191 -197 c10 -27 -3 -48 -30 -48 -10 0 -28 -10 -39 -22 -21 -22 -22 -23 -36
-4 -15 21 -3 46 22 46 7 0 26 11 41 25 34 30 32 30 42 3z m3703 -323 c-6 -14
-16 -25 -22 -25 -18 0 -23 30 -11 57 11 24 13 25 28 10 14 -13 14 -21 5 -42z
m1454 -326 l5 -44 -20 24 c-21 23 -28 61 -14 74 12 13 24 -10 29 -54z m-3036
-384 c0 -18 -195 -80 -205 -65 -6 10 35 27 122 50 78 21 83 22 83 15z m-1799
-84 c135 -64 230 -94 414 -132 83 -17 154 -35 159 -40 19 -17 -120 -9 -195 11
-41 11 -123 32 -184 46 -132 31 -315 122 -315 156 0 14 15 9 121 -41z m1440
-6 c0 -17 -141 -44 -271 -51 -164 -8 -150 7 30 35 199 31 241 33 241 16z
m3607 -697 c-9 -43 -23 -66 -33 -57 -8 9 25 110 34 104 5 -3 5 -24 -1 -47z
m-112 -124 c8 -32 -5 -76 -25 -82 -10 -3 -12 0 -8 12 4 10 7 35 7 57 0 44 16
52 26 13z m-4368 -437 c3 -28 -40 -83 -57 -72 -19 11 23 108 44 102 5 -2 11
-15 13 -30z m2832 28 c0 -3 -10 -25 -22 -48 -22 -41 -23 -41 -26 -15 -4 33 13
68 33 68 8 0 15 -2 15 -5z m-3105 -356 c4 -6 5 -13 2 -16 -9 -8 -87 8 -87 18
0 13 77 11 85 -2z m3465 -129 c0 -16 -28 -42 -39 -36 -10 7 -6 47 7 70 5 8 32
-20 32 -34z m-30 -119 c0 -54 -78 -275 -152 -433 -99 -210 -61 -8 48 259 30
73 54 141 54 151 0 21 18 42 37 42 7 0 13 -8 13 -19z m-210 -270 c-6 -12 -17
-21 -25 -21 -12 0 -12 5 -4 27 6 15 16 34 22 42 10 12 12 11 15 -7 2 -11 -2
-30 -8 -41z m1364 -259 c19 -32 -130 -497 -213 -660 -18 -35 -46 -103 -63
-150 -30 -88 -66 -162 -78 -162 -10 0 103 381 136 460 15 36 28 87 29 113 2
35 10 55 26 70 27 26 69 116 103 227 15 47 29 91 31 98 5 13 21 16 29 4z
m-1444 -71 c0 -43 -96 -309 -107 -297 -5 5 64 282 77 306 16 29 30 25 30 -9z
m1326 -15 c8 -21 -14 -56 -35 -56 -28 0 -33 28 -11 50 24 24 39 25 46 6z
m-1524 -57 c-4 -24 -65 -145 -84 -164 -19 -20 24 135 48 173 19 29 40 23 36
-9z m-2817 -21 l70 -33 -51 -3 c-33 -2 -74 5 -113 18 -33 11 -63 20 -67 20 -3
0 -4 -16 -2 -35 5 -40 -4 -45 -26 -13 -21 30 -20 64 2 78 29 18 113 4 187 -32z
m-338 -48 c23 -21 44 -30 68 -30 44 0 48 -26 5 -35 -37 -8 -67 1 -103 31 -16
13 -37 24 -47 24 -25 0 -36 20 -19 31 26 17 62 9 96 -21z m598 -111 c54 -20
85 -42 85 -60 0 -26 -42 -49 -89 -49 -41 0 -51 -3 -56 -21 -4 -11 -22 -27 -40
-36 -30 -14 -35 -22 -40 -62 -4 -25 -7 -53 -8 -61 -4 -30 -55 -40 -249 -50
-237 -12 -389 -12 -406 -1 -10 6 -1 26 38 85 65 95 73 101 65 42 -12 -75 17
-59 79 43 62 102 181 162 356 180 147 15 205 13 265 -10z m-95 -368 c0 -13
-27 -21 -68 -21 l-37 1 30 14 c35 16 75 19 75 6z m2367 -162 c-15 -37 -44 -66
-54 -55 -7 6 9 46 34 85 22 35 38 12 20 -30z m1443 -104 c-20 -42 -40 -59 -40
-35 0 16 29 81 43 98 22 28 20 -15 -3 -63z m95 -117 c-16 -97 -109 -337 -162
-417 -21 -32 -33 -12 -33 54 0 43 6 58 39 103 22 28 45 69 51 89 21 63 92 213
102 213 6 0 7 -18 3 -42z m-345 -107 c-11 -23 -36 -59 -54 -79 -18 -20 -54
-66 -81 -102 -67 -88 -328 -393 -390 -455 -27 -28 -111 -118 -185 -200 -170
-190 -354 -374 -449 -449 -40 -32 -107 -89 -149 -127 -42 -37 -78 -67 -80 -64
-10 10 35 58 258 280 251 248 462 469 565 590 33 39 114 131 180 205 66 74
154 176 195 225 85 103 201 227 207 221 3 -2 -5 -23 -17 -45z m-1558 -458
c-29 -41 -82 -89 -82 -75 0 15 79 102 92 102 5 0 0 -12 -10 -27z m1184 -272
c-20 -38 -94 -116 -102 -108 -8 8 81 134 98 140 20 7 21 1 4 -32z m-1236 -59
c0 -8 -38 -45 -88 -86 -12 -11 -25 -17 -28 -13 -6 6 96 106 109 107 4 0 7 -4
7 -8z m1405 -30 c-10 -41 -59 -104 -146 -188 -45 -43 -105 -103 -133 -132 -56
-60 -144 -127 -153 -119 -3 4 6 25 20 49 28 49 398 426 410 420 5 -2 6 -16 2
-30z m-2525 -47 c0 -20 -45 -65 -65 -65 -21 0 -19 16 6 51 22 31 59 39 59 14z
m-129 -135 c-13 -43 -65 -110 -76 -98 -12 11 4 61 36 112 22 35 34 45 41 38 8
-8 8 -23 -1 -52z m196 3 c-9 -15 -18 -41 -22 -56 -7 -35 -44 -54 -74 -37 -12
6 -31 8 -42 5 -17 -6 -20 -3 -17 17 2 17 10 24 33 26 62 5 75 12 96 53 14 28
24 38 31 31 7 -7 5 -19 -5 -39z m-309 -155 c20 -20 14 -48 -15 -59 -51 -19
-84 20 -44 53 27 21 42 23 59 6z m2049 -175 c-60 -54 -81 -41 -23 14 34 33 51
43 54 33 3 -7 -11 -28 -31 -47z m-2664 12 c158 0 287 -3 287 -8 0 -22 -72 -29
-310 -30 -232 -1 -300 4 -423 29 -15 3 -24 10 -21 15 3 6 39 7 92 2 48 -4 216
-8 375 -8z m517 6 c0 -8 -47 -21 -76 -21 -8 0 -14 7 -14 15 0 11 12 15 45 15
25 0 45 -4 45 -9z m1968 -49 c-1 -5 -70 -74 -153 -153 -82 -79 -163 -160 -180
-181 -16 -20 -46 -49 -65 -63 -51 -38 -221 -128 -228 -121 -9 10 57 74 121
118 32 22 95 73 140 115 45 41 109 95 142 121 33 25 90 74 128 109 37 35 74
63 83 63 9 0 14 -4 12 -8z m-6953 -102 c54 -37 155 -129 155 -141 0 -39 -138
48 -198 125 -42 54 -23 61 43 16z m641 -52 c6 -10 -20 -38 -36 -38 -3 0 -14 6
-25 13 -24 18 -11 37 25 37 16 0 32 -5 36 -12z m6474 3 c0 -17 -313 -255 -359
-272 -58 -23 -30 11 103 121 151 126 256 187 256 151z m-570 -55 c0 -18 -68
-72 -77 -62 -7 7 56 76 69 76 4 0 8 -7 8 -14z m-5745 -38 c30 -14 33 -43 4
-58 -16 -9 -26 -8 -44 4 -27 18 -48 50 -38 60 10 10 50 7 78 -6z m771 -30 c4
-6 -1 -17 -11 -24 -21 -15 -55 -2 -55 21 0 18 55 21 66 3z m-445 -18 c31 -17
24 -40 -14 -40 -34 0 -57 15 -57 37 0 16 43 17 71 3z m299 -30 c43 -22 52 -40
20 -40 -34 0 -90 28 -90 44 0 22 23 20 70 -4z m-1104 -32 c66 -45 76 -58 45
-58 -21 0 -141 77 -141 91 0 20 36 7 96 -33z m653 16 c40 -8 57 -36 36 -58
-19 -18 -63 -6 -91 25 -16 17 -16 22 -4 29 18 12 19 12 59 4z m310 -38 c38
-20 57 -44 44 -57 -14 -14 -58 -1 -88 27 -42 39 -13 59 44 30z m379 -42 c33
-22 28 -44 -10 -44 -37 0 -118 34 -118 49 0 25 87 22 128 -5z m-781 -5 c54
-26 55 -39 3 -39 -41 0 -87 31 -75 50 9 15 24 12 72 -11z m-323 -54 c19 -21
52 -43 82 -54 29 -10 73 -33 98 -50 81 -56 132 -74 188 -67 48 7 49 6 63 -26
22 -53 114 -130 171 -143 16 -4 58 -25 94 -46 74 -44 107 -56 389 -145 208
-66 231 -76 231 -100 0 -19 -56 -18 -131 1 -100 26 -356 129 -499 200 -74 37
-166 82 -205 100 -38 18 -109 57 -156 86 -47 30 -150 88 -228 129 -148 77
-184 108 -161 135 18 22 30 19 64 -20z m631 23 c27 -12 32 -36 14 -69 -10 -19
-11 -19 -37 8 -15 15 -36 33 -47 39 -45 25 18 46 70 22z m321 -47 c48 -22 60
-36 39 -45 -27 -10 -105 31 -105 56 0 13 21 9 66 -11z m407 3 c33 -8 88 -28
121 -43 118 -53 107 -87 -18 -57 -106 25 -216 80 -216 108 0 13 46 10 113 -8z
m-855 -34 c27 -17 43 -40 27 -40 -13 0 -95 45 -95 52 0 14 34 8 68 -12z m309
-17 c38 -18 49 -40 23 -48 -37 -12 -121 40 -105 65 7 12 31 7 82 -17z m352
-39 c8 -7 -12 -24 -29 -24 -43 0 -67 24 -32 33 15 4 52 -1 61 -9z m4502 -18
c-24 -25 -130 -81 -138 -72 -14 14 12 37 78 70 40 20 74 34 77 31 3 -3 -5 -16
-17 -29z m-4915 -41 c18 -13 17 -14 -17 -15 -19 0 -44 7 -55 15 -18 13 -17 14
17 15 19 0 44 -7 55 -15z m689 -29 c99 -27 135 -42 153 -62 12 -14 22 -29 22
-35 0 -19 -74 -8 -158 25 -49 19 -101 38 -118 42 -39 9 -84 42 -84 61 0 19 15
17 185 -31z m-574 -22 c39 -20 36 -50 -6 -47 -32 3 -71 35 -61 52 10 15 32 14
67 -5z m1003 -3 c46 -11 141 -22 221 -25 77 -3 208 -15 290 -26 83 -11 191
-25 240 -30 218 -24 332 -43 347 -58 8 -8 8 -15 -1 -26 -18 -21 -7 -34 39 -46
22 -6 40 -16 40 -22 0 -31 -618 43 -965 116 -93 20 -181 36 -195 36 -31 0
-171 35 -227 56 -24 9 -43 22 -43 30 0 21 153 18 254 -5z m-601 -52 c50 -22
115 -50 144 -61 51 -19 70 -38 37 -38 -27 0 -258 80 -292 101 -18 10 -32 23
-32 29 0 21 55 9 143 -31z m3857 7 c0 -2 -35 -24 -78 -49 -83 -48 -172 -126
-172 -152 0 -20 31 -19 109 5 41 13 68 17 74 11 18 -18 -1 -38 -48 -50 -26 -7
-65 -21 -86 -31 -52 -27 -100 -25 -145 5 -20 14 -43 25 -50 25 -8 0 -14 9 -14
20 0 15 14 23 69 40 59 17 72 26 95 60 14 22 37 47 51 56 51 33 195 78 195 60z
m354 -96 c-110 -56 -367 -170 -384 -170 -14 0 -13 25 3 38 66 52 380 180 446
181 30 1 23 -5 -65 -49z m-3794 -53 c19 -12 80 -33 134 -48 119 -30 143 -55
46 -46 -43 4 -83 16 -123 36 -33 17 -71 31 -84 31 -29 0 -93 26 -93 38 0 30
63 24 120 -11z m-82 -68 c12 -5 22 -13 22 -18 0 -22 -120 -15 -143 8 -29 29
52 36 121 10z m524 -49 c119 -28 173 -35 563 -77 343 -36 358 -37 745 -37 424
0 544 10 630 54 21 11 78 26 126 35 102 18 94 17 94 6 0 -12 -105 -53 -200
-79 -112 -31 -182 -43 -310 -52 -63 -5 -142 -13 -175 -19 -123 -19 -316 -13
-920 29 -389 28 -690 82 -719 129 -23 36 43 40 166 11z m2505 -10 c14 -11 34
-20 45 -20 31 0 16 -23 -32 -47 -27 -14 -62 -23 -90 -23 l-45 1 28 22 c15 13
27 26 27 29 0 19 21 58 31 58 6 0 22 -9 36 -20z m-2846 -31 c80 -27 101 -44
42 -35 -51 7 -158 54 -127 55 11 1 49 -9 85 -20z m3169 -43 c10 -13 2 -18 -47
-31 -32 -9 -99 -30 -148 -46 -50 -16 -99 -29 -109 -29 -20 0 -20 0 0 15 10 8
37 20 59 26 22 6 48 18 57 26 22 20 114 52 149 53 15 0 32 -7 39 -14z m-355
-135 c-31 -28 -250 -82 -324 -80 -30 1 72 39 184 69 74 20 156 26 140 11z
m-2225 -91 c97 -21 199 -26 933 -46 169 -4 247 -10 244 -17 -8 -25 -75 -31
-377 -30 -323 0 -367 3 -795 63 -99 14 -181 40 -164 51 8 5 25 7 39 5 14 -3
68 -15 120 -26z"/>
<path d="M4790 11243 c-14 -3 -31 -10 -38 -16 -11 -9 -11 -13 4 -24 25 -18
288 -19 282 0 -9 25 -63 41 -143 43 -44 1 -91 0 -105 -3z"/>
<path d="M4615 11081 c31 -12 165 -22 165 -12 0 12 -53 21 -124 20 -40 0 -54
-3 -41 -8z"/>
<path d="M4116 11059 c-57 -9 -106 -28 -106 -40 0 -24 138 -3 168 26 20 18 -2
23 -62 14z"/>
<path d="M5217 11023 c-9 -14 30 -30 105 -43 35 -6 88 -19 118 -30 52 -19 108
-27 405 -64 72 -9 158 -23 192 -31 34 -8 72 -15 85 -15 l23 1 -23 19 c-26 21
-73 36 -157 50 -29 5 -67 18 -86 29 -38 23 -71 26 -118 10 -43 -15 -166 3
-290 43 -98 31 -243 49 -254 31z"/>
<path d="M3070 10709 c-96 -33 -219 -71 -272 -84 -53 -13 -117 -34 -141 -47
-127 -65 -256 -128 -289 -142 -40 -16 -51 -36 -19 -36 10 0 67 24 127 53 141
69 223 102 305 121 63 14 382 132 442 162 15 8 27 19 27 24 0 12 23 19 -180
-51z"/>
<path d="M5860 10736 c30 -18 110 -22 93 -5 -7 7 -36 14 -65 16 -51 4 -52 3
-28 -11z"/>
<path d="M6702 10673 c4 -23 66 -59 79 -46 7 7 0 19 -21 37 -36 30 -63 34 -58
9z"/>
<path d="M2590 10660 c-14 -5 -47 -15 -75 -23 -45 -14 -132 -49 -267 -109 -48
-21 -62 -38 -33 -38 9 0 55 15 103 34 48 18 112 41 142 51 71 23 170 72 170
85 0 11 -5 11 -40 0z"/>
<path d="M6412 10609 c5 -18 295 -168 326 -169 38 0 24 19 -36 49 -32 16 -64
36 -70 44 -17 20 -144 77 -188 84 -29 5 -36 3 -32 -8z"/>
<path d="M6836 10593 c-11 -11 -6 -31 10 -47 17 -17 84 -22 84 -7 0 19 -82 66
-94 54z"/>
<path d="M3098 10545 c-20 -8 -61 -16 -92 -20 -30 -4 -63 -13 -73 -21 -17 -13
-17 -15 0 -28 13 -10 26 -12 45 -6 43 14 156 61 165 70 16 15 -8 17 -45 5z"/>
<path d="M6332 10501 c-23 -14 -9 -43 36 -78 38 -29 92 -45 92 -27 0 16 -44
76 -70 94 -31 22 -39 24 -58 11z"/>
<path d="M7006 10471 c-8 -12 41 -50 104 -81 67 -34 274 -164 360 -226 87 -64
339 -214 357 -214 22 0 14 18 -23 55 -47 47 -110 93 -154 111 -35 15 -133 75
-265 164 -38 25 -97 61 -130 80 -33 18 -87 50 -120 70 -63 40 -119 58 -129 41z"/>
<path d="M2045 10437 c-99 -40 -110 -46 -97 -59 24 -24 160 36 176 77 3 8 4
15 3 14 -1 0 -38 -15 -82 -32z"/>
<path d="M2125 10349 c-38 -10 -84 -22 -102 -25 -18 -4 -40 -15 -49 -25 -16
-18 -16 -19 12 -19 64 0 234 59 234 81 0 12 -15 11 -95 -12z"/>
<path d="M6896 10339 c16 -17 49 -42 74 -55 25 -13 65 -40 90 -59 80 -61 173
-122 270 -175 52 -29 135 -81 184 -117 50 -36 111 -76 136 -90 25 -14 65 -39
90 -56 131 -90 176 -117 197 -117 13 0 23 4 23 8 0 20 -36 45 -395 272 -49 31
-128 84 -175 118 -47 34 -136 87 -199 118 -64 31 -134 74 -160 98 -75 69 -102
86 -134 86 l-31 0 30 -31z"/>
<path d="M7560 10309 c0 -22 22 -49 50 -64 72 -37 83 1 13 45 -50 32 -63 36
-63 19z"/>
<path d="M6620 10291 c0 -21 112 -91 145 -91 30 0 14 21 -47 60 -59 38 -98 51
-98 31z"/>
<path d="M2125 10165 c-22 -8 -86 -28 -142 -45 -108 -33 -125 -49 -74 -70 27
-11 39 -8 130 34 55 25 106 46 114 46 14 0 47 31 47 43 0 10 -30 7 -75 -8z"/>
<path d="M7760 10171 c0 -11 58 -61 71 -61 18 0 8 29 -17 49 -28 22 -54 28
-54 12z"/>
<path d="M7865 9940 c-6 -10 -5 -11 100 -94 38 -30 71 -53 74 -50 7 7 -104
117 -138 137 -18 11 -32 13 -36 7z"/>
<path d="M8276 9746 c8 -14 40 -46 69 -71 80 -68 158 -95 172 -59 8 23 -15 35
-62 32 -37 -2 -41 0 -57 35 -13 26 -32 44 -68 62 -62 31 -75 32 -54 1z"/>
<path d="M8298 9612 c-10 -2 -18 -9 -18 -16 0 -12 110 -126 123 -126 15 0 6
37 -23 86 -28 51 -48 64 -82 56z"/>
<path d="M8047 9584 c-14 -14 16 -44 74 -75 66 -35 108 -82 138 -153 11 -25
40 -74 63 -109 24 -34 104 -183 178 -332 111 -223 139 -271 158 -273 17 -3 22
2 22 18 0 35 -45 133 -85 185 -21 28 -53 84 -72 125 -62 138 -98 203 -140 261
-24 31 -43 61 -43 67 0 5 -8 20 -19 33 -10 13 -22 35 -26 49 -16 53 -37 88
-61 98 -13 7 -54 34 -90 62 -63 48 -83 57 -97 44z"/>
<path d="M8857 9424 c-7 -13 17 -69 157 -364 173 -363 250 -519 254 -516 8 9
-33 138 -65 201 -19 39 -62 135 -95 215 -75 181 -160 362 -188 398 -11 15 -29
38 -39 51 -10 13 -20 20 -24 15z"/>
<path d="M9295 9048 c4 -11 25 -60 47 -107 51 -110 63 -143 99 -271 45 -159
70 -230 80 -230 13 0 4 48 -34 185 -45 165 -163 445 -187 445 -7 0 -9 -8 -5
-22z"/>
<path d="M8890 8932 c0 -34 58 -177 79 -196 36 -33 33 4 -10 97 -47 104 -69
135 -69 99z"/>
<path d="M9440 8914 c0 -18 55 -145 58 -132 3 18 -35 125 -49 133 -5 4 -9 3
-9 -1z"/>
<path d="M9560 8599 c0 -24 79 -232 94 -247 18 -18 13 15 -13 80 -16 40 -34
92 -40 114 -6 22 -17 48 -25 59 -15 19 -15 19 -16 -6z"/>
<path d="M8916 8524 c-3 -9 -6 -38 -6 -65 0 -37 4 -51 16 -56 38 -14 59 71 28
115 -18 26 -30 28 -38 6z"/>
<path d="M9094 8516 c-7 -17 20 -66 36 -66 18 0 11 46 -10 65 -18 16 -20 16
-26 1z"/>
<path d="M9302 8443 c12 -44 67 -157 74 -151 13 13 -57 188 -75 188 -5 0 -5
-16 1 -37z"/>
<path d="M9680 8255 c0 -25 40 -123 60 -147 32 -38 25 2 -14 88 -34 73 -46 88
-46 59z"/>
<path d="M9637 8103 c53 -156 73 -198 73 -156 0 34 -47 187 -77 249 -52 109
-51 65 4 -93z"/>
<path d="M9537 8144 c-10 -11 49 -194 63 -194 16 0 -31 183 -49 195 -5 2 -11
2 -14 -1z"/>
<path d="M9775 7994 c9 -49 57 -153 63 -135 5 16 -46 159 -60 167 -7 5 -8 -6
-3 -32z"/>
<path d="M9640 7842 c0 -12 8 -39 17 -60 14 -32 17 -34 20 -15 2 12 -5 39 -16
60 -17 32 -20 34 -21 15z"/>
<path d="M9770 7758 c0 -10 8 -39 19 -65 32 -83 35 -120 12 -164 -21 -40 -19
-78 4 -59 6 5 29 9 51 7 48 -3 49 -6 -11 148 -45 117 -75 170 -75 133z"/>
<path d="M9441 7580 c0 -58 12 -136 23 -147 3 -4 11 -2 17 4 13 13 -3 117 -26
168 -13 30 -13 29 -14 -25z"/>
<path d="M9285 7560 c7 -70 28 -130 44 -130 17 0 13 40 -10 111 -30 91 -43 98
-34 19z"/>
<path d="M9462 7111 c-41 -63 -48 -86 -17 -61 24 20 67 98 62 112 -2 7 -23
-16 -45 -51z"/>
<path d="M10004 6830 c1 -102 6 -194 11 -204 8 -18 9 -18 22 0 19 26 16 90
-12 249 l-24 140 3 -185z"/>
<path d="M9536 6625 c-9 -25 -7 -258 3 -274 18 -28 25 15 24 142 -1 120 -11
172 -27 132z"/>
<path d="M10026 6524 c-9 -69 -7 -342 3 -348 4 -3 16 73 26 169 15 136 16 180
7 200 -17 37 -29 31 -36 -21z"/>
<path d="M9434 6268 c-39 -42 -72 -90 -104 -152 -14 -27 -32 -52 -40 -56 -47
-22 -56 -31 -67 -70 -26 -91 -43 -265 -42 -431 l1 -168 -90 -183 c-114 -232
-195 -428 -227 -552 -27 -103 -30 -126 -17 -126 15 0 50 74 97 210 61 173 112
294 190 451 67 132 83 153 109 143 20 -8 20 -22 2 -43 -8 -9 -28 -48 -44 -86
-17 -39 -80 -185 -142 -325 -161 -366 -160 -363 -166 -428 -7 -62 5 -102 31
-102 25 0 17 -34 -20 -86 -37 -51 -65 -127 -65 -176 0 -41 13 -34 45 24 15 28
43 67 61 86 34 36 47 66 58 132 3 19 32 85 63 145 31 61 75 148 98 195 24 47
53 94 65 105 22 20 118 157 152 219 22 39 23 89 2 107 -25 21 -63 -7 -102 -76
-83 -147 -262 -495 -282 -547 -20 -55 -40 -76 -40 -42 0 72 182 485 264 599
29 41 36 59 36 98 0 54 24 103 137 281 60 95 73 126 54 126 -9 0 -82 -76 -123
-130 -15 -19 -30 -31 -34 -27 -4 3 -9 28 -11 54 -7 68 30 204 77 283 21 36 69
127 108 202 60 119 71 149 82 223 7 47 10 92 6 100 -11 30 -24 14 -36 -47 -6
-35 -28 -103 -47 -152 -47 -119 -211 -450 -225 -455 -18 -6 -3 163 26 272 32
126 58 180 145 313 39 59 71 111 71 116 0 18 -28 6 -56 -24z"/>
<path d="M9678 6168 c-2 -23 -2 -55 0 -71 7 -45 22 -11 22 50 0 63 -16 79 -22
21z"/>
<path d="M9515 5830 c-14 -22 -18 -127 -6 -135 19 -11 24 1 29 66 4 59 -7 94
-23 69z"/>
<path d="M9608 5429 c-25 -35 -36 -93 -17 -87 20 7 41 54 37 86 l-3 27 -17
-26z"/>
<path d="M9986 5310 c-23 -58 -50 -221 -42 -254 10 -39 23 -24 31 37 4 28 16
94 27 146 22 102 13 143 -16 71z"/>
<path d="M9493 4933 c-19 -46 -23 -134 -6 -140 13 -5 28 45 37 125 6 62 -8 69
-31 15z"/>
<path d="M9785 4768 c-19 -68 -34 -178 -24 -178 27 0 73 148 63 199 -9 45 -21
38 -39 -21z"/>
<path d="M9242 4718 c-6 -8 -30 -59 -52 -113 -23 -54 -57 -129 -76 -167 -87
-172 -116 -348 -59 -348 27 0 46 48 60 148 15 108 68 262 129 377 41 77 40 75
23 99 -11 15 -15 16 -25 4z"/>
<path d="M9233 4118 c-34 -38 -73 -102 -73 -119 0 -25 29 -32 57 -13 30 19 53
71 53 119 0 41 -9 44 -37 13z"/>
<path d="M8768 3789 c-10 -5 -18 -19 -18 -29 0 -28 46 -27 60 0 19 35 -5 51
-42 29z"/>
<path d="M8972 3788 c-22 -22 -14 -48 14 -48 22 0 25 4 22 27 -3 30 -18 39
-36 21z"/>
<path d="M8719 3533 c-31 -32 -136 -148 -235 -258 -207 -232 -300 -326 -589
-599 -198 -187 -325 -319 -325 -338 0 -30 69 25 301 242 263 247 670 658 767
775 84 101 162 210 162 226 0 22 -30 4 -81 -48z"/>
<path d="M8795 3420 c-198 -231 -337 -377 -808 -844 -233 -231 -397 -400 -389
-403 26 -10 96 48 343 283 140 133 277 261 305 286 28 24 89 86 135 138 242
268 378 423 438 499 36 46 83 104 104 128 35 42 49 83 27 83 -5 0 -75 -77
-155 -170z"/>
<path d="M9049 3533 c-14 -16 -41 -48 -61 -73 -20 -25 -78 -92 -129 -150 -52
-58 -109 -125 -128 -148 -19 -24 -86 -96 -150 -160 -64 -64 -212 -217 -328
-338 -190 -199 -329 -332 -567 -547 -70 -63 -93 -97 -65 -97 6 0 20 11 31 25
10 13 37 29 58 35 52 14 86 44 375 329 455 449 867 900 976 1070 45 70 37 107
-12 54z"/>
<path d="M7210 2485 c-69 -36 -173 -108 -184 -127 -8 -13 -7 -21 2 -30 17 -17
59 6 158 86 111 90 123 124 24 71z"/>
<path d="M7405 2369 c-41 -37 -45 -59 -10 -59 32 0 65 33 65 65 0 33 -12 32
-55 -6z"/>
<path d="M7156 2214 c-46 -16 -76 -41 -76 -61 0 -23 29 -26 70 -8 48 22 74 49
67 70 -7 18 -10 18 -61 -1z"/>
<path d="M7152 1894 c-28 -20 -28 -34 1 -34 28 1 61 25 52 39 -9 15 -27 14
-53 -5z"/>
<path d="M4883 1823 c-20 -7 -15 -19 12 -31 31 -14 72 -16 80 -3 10 17 -65 45
-92 34z"/>
<path d="M6986 1699 c-46 -36 -29 -63 30 -48 35 10 69 43 59 58 -11 18 -61 12
-89 -10z"/>
<path d="M6836 1602 c-3 -5 -27 -20 -53 -33 -45 -22 -46 -24 -21 -27 35 -4
121 33 116 50 -6 16 -34 22 -42 10z"/>
<path d="M5005 1595 c-5 -2 -23 -6 -38 -9 -40 -9 -24 -24 34 -32 45 -6 68 -18
57 -30 -3 -2 -29 -8 -59 -14 -106 -20 -107 -66 0 -55 72 7 111 26 111 52 0 9
12 29 26 44 14 15 23 32 20 38 -7 10 -126 15 -151 6z"/>
<path d="M6645 1490 c-4 -6 -19 -9 -34 -5 -30 6 -166 -50 -190 -78 -7 -9 -37
-30 -67 -47 -51 -29 -74 -53 -61 -66 7 -7 179 48 255 82 72 32 122 70 122 94
0 22 -16 35 -25 20z"/>
<path d="M5265 1417 c-97 -28 -98 -57 -2 -56 102 1 161 12 165 30 6 35 -82 49
-163 26z"/>
<path d="M5405 10216 c-106 -44 -306 -143 -325 -162 -27 -26 14 -16 83 21 36
19 121 57 189 85 129 53 191 90 153 90 -11 0 -56 -15 -100 -34z"/>
<path d="M5839 9935 c-3 -2 -62 -16 -131 -30 -69 -13 -159 -36 -199 -51 -87
-31 -244 -117 -349 -189 -41 -29 -99 -64 -128 -79 -49 -25 -72 -49 -59 -62 13
-14 71 11 124 53 67 52 395 218 497 251 135 44 296 65 456 59 155 -6 194 -14
460 -91 171 -49 299 -78 312 -70 15 9 8 21 -19 34 -57 26 -291 98 -368 113
-204 41 -579 79 -596 62z"/>
<path d="M6927 9703 c-11 -11 14 -33 38 -33 29 0 38 10 24 27 -12 14 -51 18
-62 6z"/>
<path d="M7083 9653 c-22 -8 -14 -21 18 -32 34 -12 49 -7 49 13 0 19 -41 30
-67 19z"/>
<path d="M5279 9193 c-78 -41 -105 -71 -52 -60 44 9 183 74 183 86 0 22 -60
10 -131 -26z"/>
<path d="M6413 9059 c-18 -5 -43 -23 -55 -40 -13 -17 -43 -41 -68 -55 -48 -26
-75 -58 -64 -75 3 -6 12 -8 19 -5 7 2 25 -2 41 -11 38 -19 86 -11 136 24 43
29 88 88 88 113 0 42 -45 64 -97 49z"/>
<path d="M6020 9029 c-82 -37 -165 -134 -139 -165 17 -20 78 -17 124 6 22 11
46 20 55 20 21 0 59 35 70 66 10 26 5 50 -18 77 -19 22 -37 21 -92 -4z"/>
<path d="M5684 9030 c-41 -16 -81 -75 -88 -130 -4 -28 -14 -69 -22 -90 -21
-52 -15 -84 14 -88 19 -3 40 14 100 78 125 134 145 180 96 219 -28 22 -64 26
-100 11z"/>
<path d="M6714 9000 c-54 -27 -111 -85 -119 -121 -9 -38 10 -69 41 -69 40 0
183 60 220 92 91 80 -21 157 -142 98z"/>
<path d="M7042 8923 c-41 -20 -92 -77 -92 -103 0 -11 -10 -30 -21 -41 -17 -17
-19 -23 -8 -30 8 -5 21 -9 30 -9 9 0 36 -3 61 -6 42 -6 48 -4 86 30 37 34 82
107 82 133 0 41 -78 56 -138 26z"/>
<path d="M7295 8806 c-58 -22 -97 -79 -82 -120 10 -25 74 -31 115 -12 20 10
68 21 107 25 83 10 115 24 115 52 0 47 -174 85 -255 55z"/>
<path d="M6175 8760 c-49 -54 56 -190 148 -190 77 0 54 116 -38 188 -35 28
-86 29 -110 2z"/>
<path d="M6495 8730 c-9 -14 36 -108 70 -149 33 -38 87 -65 116 -56 27 9 25
64 -6 124 -18 37 -35 54 -68 70 -46 22 -102 28 -112 11z"/>
<path d="M5863 8715 c-8 -23 3 -83 21 -110 26 -39 83 -76 125 -82 36 -5 42 -3
51 19 14 30 -1 97 -28 121 -15 14 -141 67 -158 67 -2 0 -7 -7 -11 -15z"/>
<path d="M6861 8657 c-14 -17 -1 -63 34 -122 31 -54 60 -75 100 -75 39 0 55
16 55 55 0 43 -33 91 -87 125 -51 32 -84 38 -102 17z"/>
<path d="M5650 8651 c-22 -4 -36 -12 -38 -23 -4 -20 70 -103 111 -124 26 -14
31 -14 53 1 14 9 28 23 31 30 6 18 -30 78 -64 105 -27 21 -34 22 -93 11z"/>
<path d="M7590 8636 c-15 -15 -70 -31 -142 -41 -49 -7 -51 -35 -5 -66 17 -12
34 -24 36 -26 3 -2 8 -34 12 -72 9 -82 43 -155 94 -200 42 -36 83 -39 100 -6
22 43 26 47 41 34 8 -6 14 -23 14 -38 0 -36 24 -68 70 -91 59 -30 76 -26 114
28 19 26 44 53 55 60 26 15 27 38 2 52 -16 8 -26 5 -49 -15 -33 -27 -57 -25
-67 6 -5 14 4 31 28 58 42 46 52 73 37 101 -25 47 -96 60 -215 39 -34 -7 -77
-9 -97 -5 -33 6 -78 38 -78 55 0 5 45 10 100 13 86 3 103 7 122 25 19 19 20
24 7 39 -19 23 -108 64 -139 64 -14 0 -32 -7 -40 -14z m226 -271 c16 -13 17
-16 4 -25 -23 -15 -36 -12 -67 15 l-28 24 36 1 c19 0 44 -7 55 -15z"/>
<path d="M7190 8586 c0 -52 58 -175 97 -206 30 -24 66 -26 83 -5 19 23 7 140
-16 167 -18 19 -88 58 -140 78 -23 9 -24 8 -24 -34z"/>
<path d="M5351 8541 c-29 -53 63 -140 134 -127 18 4 38 13 45 21 33 40 -40
113 -124 122 -38 5 -46 2 -55 -16z"/>
<path d="M8066 8455 c-11 -29 -7 -54 19 -115 15 -36 29 -95 34 -147 5 -49 13
-96 16 -106 12 -29 83 -37 92 -10 3 6 -8 13 -24 15 -34 4 -41 25 -42 134 -1
67 -5 89 -27 130 -15 27 -30 62 -33 78 -7 34 -26 44 -35 21z"/>
<path d="M6498 8354 c-10 -3 -21 -16 -24 -29 -9 -37 -64 -46 -64 -11 0 19 -29
25 -155 32 -146 8 -297 -8 -413 -46 -53 -17 -114 -30 -142 -30 -31 0 -66 -8
-89 -20 -21 -10 -62 -28 -90 -39 -68 -25 -342 -178 -386 -214 -19 -16 -35 -33
-35 -38 0 -16 40 0 107 43 59 38 145 77 203 93 20 5 15 -3 -25 -40 -33 -30
-101 -71 -203 -121 -85 -43 -161 -87 -172 -101 -54 -69 4 -103 210 -123 52 -5
129 -16 170 -24 88 -18 603 -22 704 -6 33 5 131 14 218 20 86 6 198 20 250 30
51 11 105 20 120 20 27 0 224 41 386 80 45 11 143 27 218 35 166 19 204 27
319 68 77 27 104 32 185 32 102 0 120 5 120 35 0 24 -18 34 -143 75 -56 18
-135 45 -176 60 -94 33 -286 73 -415 85 -54 5 -103 14 -110 19 -19 16 -152 50
-281 72 l-120 20 -14 -20 c-9 -14 -24 -21 -45 -21 l-31 0 25 20 c17 13 22 22
15 29 -12 12 -92 22 -117 15z m-220 -59 c-2 -3 -65 -14 -139 -25 -119 -18
-136 -23 -155 -46 l-21 -26 -7 27 -7 28 -77 -7 c-67 -5 -75 -4 -59 8 18 14
130 33 232 39 90 6 238 7 233 2z m101 -74 c64 -64 43 -321 -33 -397 -49 -49
-183 -70 -265 -41 -51 18 -58 36 -34 88 12 24 26 71 32 103 14 78 48 128 106
156 54 26 90 21 99 -15 7 -26 40 -50 56 -40 16 10 12 37 -10 70 -24 36 -25 58
-4 79 20 21 30 20 53 -3z m-709 -41 c-20 -13 -173 -60 -178 -55 -5 5 90 53
138 70 38 14 67 2 40 -15z m964 20 c34 -5 112 -14 174 -19 62 -5 119 -14 126
-20 7 -6 19 -51 25 -99 16 -129 15 -149 -11 -166 -33 -21 -160 -37 -203 -25
-29 8 -53 5 -125 -15 -49 -14 -103 -26 -120 -26 l-31 0 7 58 c13 94 8 173 -15
231 -31 78 -24 91 51 91 34 0 89 -4 122 -10z m-714 -69 c0 -5 -7 -25 -15 -44
-19 -47 -19 -185 0 -257 22 -81 20 -98 -12 -107 -51 -14 -254 -7 -302 11 -24
9 -58 16 -76 16 -81 0 -92 27 -64 158 12 53 28 105 36 114 20 22 138 71 233
97 77 20 200 28 200 12z m1150 -33 c6 -18 14 -65 17 -103 5 -59 3 -73 -12 -85
-15 -13 -19 -12 -30 4 -26 35 -47 191 -28 209 17 17 42 5 53 -25z m105 -31 c9
-36 1 -130 -11 -134 -23 -8 -44 99 -28 141 9 24 33 19 39 -7z m104 -24 c12
-33 12 -47 3 -67 -27 -60 -69 -7 -57 72 8 56 34 54 54 -5z m176 -28 c0 -20 -3
-21 -100 -37 -33 -5 -23 25 15 45 45 23 85 19 85 -8z m-2185 -180 c7 -8 28
-17 49 -21 62 -11 67 -21 13 -28 -73 -9 -119 13 -104 52 6 16 27 15 42 -3z"/>
<path d="M6161 8058 c-26 -27 -61 -136 -61 -188 0 -40 13 -59 26 -39 12 19 75
202 77 223 3 28 -18 30 -42 4z"/>
<path d="M4916 8020 c-18 -46 -21 -80 -6 -80 12 0 35 46 43 88 9 47 -17 42
-37 -8z"/>
<path d="M8202 7878 c-11 -18 -30 -64 -42 -103 -13 -38 -24 -72 -26 -74 -2 -2
-13 4 -25 14 -31 29 -47 11 -92 -96 -52 -127 -67 -182 -67 -255 0 -69 -15
-124 -61 -230 -18 -41 -30 -76 -27 -79 13 -14 42 12 69 64 16 31 39 70 50 88
14 22 23 62 30 130 15 154 27 203 60 236 37 37 63 33 67 -11 5 -47 -25 -179
-48 -217 -11 -18 -20 -43 -20 -55 0 -40 -68 -227 -166 -456 -128 -301 -122
-320 19 -54 64 122 100 206 208 493 l79 209 -7 118 c-5 92 -2 137 12 209 10
51 15 94 12 97 -2 3 -14 -10 -25 -28z"/>
<path d="M8276 7668 c-15 -53 -36 -227 -36 -296 0 -33 2 -35 15 -21 48 48 97
316 65 354 -20 25 -29 18 -44 -37z"/>
<path d="M5310 7381 c0 -14 25 -31 58 -37 40 -8 45 17 7 34 -31 14 -65 16 -65
3z"/>
<path d="M7088 7379 c-29 -17 -22 -39 13 -39 45 0 74 18 58 36 -13 16 -46 18
-71 3z"/>
<path d="M6910 7334 c-47 -14 -209 -50 -360 -81 -260 -52 -303 -64 -287 -79
10 -10 339 33 462 61 198 45 316 90 300 115 -8 14 -17 12 -115 -16z"/>
<path d="M6485 7329 c-157 -34 -256 -49 -384 -60 -145 -11 -180 -23 -102 -34
60 -8 150 -2 376 26 217 27 265 41 265 75 0 19 -43 17 -155 -7z"/>
<path d="M5480 7311 c0 -5 24 -19 53 -31 56 -24 187 -40 187 -23 0 14 -39 28
-127 47 -81 18 -113 20 -113 7z"/>
<path d="M8199 7246 c-22 -50 -40 -136 -29 -136 12 0 47 90 54 138 3 23 4 42
1 42 -4 0 -15 -20 -26 -44z"/>
<path d="M7601 7231 c-28 -39 -71 -132 -71 -153 0 -20 15 -24 25 -8 10 15 25
12 25 -6 0 -9 -18 -61 -40 -116 -39 -97 -45 -135 -13 -93 8 11 35 61 60 110
52 105 77 135 110 135 23 0 24 3 21 63 -3 60 -4 62 -31 65 -16 2 -31 10 -34
18 -8 22 -30 16 -52 -15z"/>
<path d="M5910 7179 c-102 -4 -187 -8 -190 -9 -19 -9 100 -19 231 -19 121 -1
159 2 168 13 17 20 -2 22 -209 15z"/>
<path d="M7373 7128 c-4 -7 -40 -71 -80 -143 -49 -89 -69 -133 -62 -140 16
-15 55 37 101 135 22 47 49 93 60 103 20 20 21 48 1 54 -6 2 -15 -2 -20 -9z"/>
<path d="M8138 7060 c-23 -35 -169 -387 -202 -490 -16 -47 -51 -131 -78 -187
-27 -56 -48 -110 -45 -120 3 -12 16 9 41 62 21 44 59 125 86 180 27 55 72 159
99 230 28 72 66 170 86 218 20 48 35 98 33 110 -3 22 -3 22 -20 -3z"/>
<path d="M7195 7033 c-15 -16 -34 -42 -41 -60 -15 -36 -19 -83 -6 -83 25 0
102 117 102 155 0 23 -24 18 -55 -12z"/>
<path d="M7805 6938 c-24 -54 -43 -138 -31 -138 10 0 63 118 71 158 10 51 -13
39 -40 -20z"/>
<path d="M8325 6967 c-21 -32 -57 -136 -52 -151 2 -6 15 12 29 39 46 92 63
173 23 112z"/>
<path d="M6549 6964 c-11 -14 -10 -18 6 -30 10 -8 23 -14 27 -14 21 0 68 32
68 45 0 22 -83 20 -101 -1z"/>
<path d="M6726 6919 c-30 -36 -32 -47 -9 -56 20 -8 63 39 63 68 0 28 -25 23
-54 -12z"/>
<path d="M5328 6854 c-7 -8 -20 -24 -29 -34 -21 -23 -7 -40 33 -40 29 0 68 30
68 53 0 34 -49 49 -72 21z"/>
<path d="M6220 6840 c-30 -5 -94 -8 -142 -9 -72 -1 -88 -4 -88 -16 0 -30 51
-37 245 -33 160 3 195 7 224 22 33 17 34 19 16 32 -21 15 -157 17 -255 4z"/>
<path d="M5437 6746 c-8 -8 -18 -41 -22 -73 -3 -32 -15 -98 -25 -148 -16 -77
-25 -132 -44 -272 -2 -13 1 -23 6 -23 18 0 36 67 62 225 20 123 33 174 57 220
28 56 29 60 13 72 -23 17 -29 16 -47 -1z"/>
<path d="M8218 6710 c-9 -14 -30 -61 -47 -105 -16 -44 -46 -118 -65 -165 -35
-84 -45 -130 -27 -130 17 0 164 372 159 403 -3 22 -3 22 -20 -3z"/>
<path d="M5220 6628 c-6 -24 -22 -82 -36 -129 -26 -93 -64 -295 -64 -344 1
-27 2 -28 12 -10 15 26 104 385 113 456 9 70 -9 89 -25 27z"/>
<path d="M8296 6633 c-21 -32 -135 -292 -178 -406 -11 -28 -5 -57 11 -57 5 0
24 35 41 78 18 42 54 127 80 187 50 113 86 223 77 232 -3 3 -17 -13 -31 -34z"/>
<path d="M5537 6550 c-4 -14 -7 -62 -7 -106 0 -64 -4 -86 -18 -105 -11 -13
-19 -38 -19 -56 0 -43 -16 -60 -71 -76 -47 -14 -53 -21 -68 -71 -10 -32 -34
-47 -34 -22 0 11 -9 16 -30 16 l-29 0 4 103 c4 75 2 92 -5 66 -26 -101 -51
-149 -94 -178 -23 -16 -48 -37 -56 -46 -7 -9 -30 -25 -49 -35 -81 -41 -184
-156 -187 -207 0 -15 -12 -32 -30 -44 -20 -13 -24 -19 -12 -19 27 0 68 22 68
37 0 26 39 54 74 51 25 -1 49 8 88 34 75 50 158 127 158 146 0 30 16 45 39 37
11 -3 21 -12 21 -18 0 -7 -35 -50 -76 -97 -132 -148 -43 -97 131 75 65 65 144
124 223 167 40 21 62 93 62 200 l0 78 34 0 c43 0 52 12 27 35 -29 26 -54 15
-77 -34 -25 -51 -32 -45 -49 38 -9 47 -12 52 -18 31z"/>
<path d="M5669 6413 c-16 -19 -17 -189 -1 -205 11 -11 18 20 27 133 7 80 -1
103 -26 72z"/>
<path d="M5925 6260 c-3 -5 10 -56 30 -113 19 -57 35 -117 35 -133 0 -44 11
-74 26 -74 17 0 17 -10 -2 152 -8 75 -21 143 -30 156 -15 23 -48 30 -59 12z"/>
<path d="M6055 6210 c-3 -5 3 -56 14 -112 11 -57 25 -135 31 -175 11 -69 31
-106 45 -84 3 6 1 56 -5 112 -5 56 -10 125 -10 154 0 43 -5 60 -26 84 -27 33
-39 38 -49 21z"/>
<path d="M6185 6090 c-16 -26 35 -320 56 -320 14 0 11 65 -11 195 -20 118 -31
148 -45 125z"/>
<path d="M8035 6047 c-26 -45 -31 -67 -16 -67 14 0 30 24 45 68 20 55 4 54
-29 -1z"/>
<path d="M5640 5949 c-63 -86 -99 -179 -70 -179 13 0 75 96 101 157 28 65 10
78 -31 22z"/>
<path d="M7628 5900 c-74 -136 -101 -212 -56 -160 30 36 110 207 106 228 -2
10 -21 -15 -50 -68z"/>
<path d="M6283 5924 c-3 -9 -1 -58 5 -108 6 -50 15 -120 18 -156 13 -128 23
-103 18 45 -3 83 -7 169 -10 193 -5 43 -20 55 -31 26z"/>
<path d="M8080 5901 c-13 -26 -13 -44 2 -59 18 -18 38 5 38 44 0 39 -23 47
-40 15z"/>
<path d="M7872 5845 c-12 -25 -22 -55 -22 -66 0 -19 2 -20 17 -8 17 15 52 85
53 107 0 28 -28 9 -48 -33z"/>
<path d="M6385 5786 c-6 -32 9 -255 22 -318 3 -15 10 -28 16 -28 11 0 4 319
-8 358 -10 32 -23 27 -30 -12z"/>
<path d="M8077 5742 c-16 -17 -97 -185 -111 -230 -13 -39 9 -24 41 31 34 55
97 206 90 213 -2 2 -11 -4 -20 -14z"/>
<path d="M7694 5729 c-33 -41 -58 -119 -34 -104 16 10 51 85 48 102 -3 14 -5
14 -14 2z"/>
<path d="M7844 5577 c-16 -26 -48 -78 -71 -115 -42 -67 -52 -92 -33 -92 21 0
144 210 138 238 -3 12 -13 3 -34 -31z"/>
<path d="M6637 5343 c-6 -10 -37 -114 -37 -125 0 -4 4 -8 9 -8 15 0 71 108 65
125 -6 16 -29 21 -37 8z"/>
<path d="M7096 5318 c-9 -12 -16 -34 -16 -48 l1 -25 24 28 c25 28 34 67 16 67
-6 0 -17 -10 -25 -22z"/>
<path d="M6946 5253 c-45 -44 -126 -157 -199 -278 -37 -60 -76 -125 -88 -142
-12 -19 -16 -33 -10 -33 30 0 150 160 226 300 31 58 68 117 82 132 35 37 25
57 -11 21z"/>
<path d="M6704 5259 c-6 -8 -27 -44 -47 -81 -21 -36 -53 -81 -73 -100 -19 -18
-43 -51 -53 -74 -10 -22 -44 -69 -75 -104 -60 -67 -143 -196 -133 -206 21 -21
296 318 328 404 5 15 24 53 40 85 29 57 38 108 13 76z"/>
<path d="M6720 5115 c-64 -129 -71 -167 -19 -105 70 83 128 230 90 230 -5 0
-37 -56 -71 -125z"/>
<path d="M6923 5042 c-17 -26 -46 -67 -62 -91 -34 -48 -41 -84 -15 -79 15 3
106 153 119 196 10 36 -8 25 -42 -26z"/>
<path d="M7051 5024 c-44 -50 -164 -234 -157 -241 3 -3 12 -3 21 0 14 6 36 37
123 179 18 29 40 63 48 76 26 36 -1 25 -35 -14z"/>
<path d="M6597 4908 c-44 -59 -61 -102 -30 -77 21 18 73 89 73 101 0 18 -20 7
-43 -24z"/>
<path d="M6254 4835 c-24 -24 -94 -161 -94 -184 0 -21 25 -11 45 18 11 16 44
57 73 90 28 34 52 71 52 82 0 28 -45 25 -76 -6z"/>
<path d="M7167 4828 c-14 -18 -28 -44 -31 -58 -6 -22 -2 -19 33 17 39 40 53
73 32 73 -6 0 -21 -15 -34 -32z"/>
<path d="M6725 4793 c-52 -65 -80 -113 -66 -113 4 0 14 7 21 15 21 26 30 5 15
-32 -20 -48 -62 -103 -79 -103 -11 0 -11 8 -3 40 26 96 -28 54 -166 -129 -100
-134 -128 -183 -113 -198 10 -11 56 39 88 94 31 55 58 85 58 63 0 -19 -85
-141 -131 -188 -31 -33 -47 -42 -64 -38 -17 4 -29 -5 -60 -47 -56 -75 -115
-193 -115 -230 0 -74 59 -98 139 -57 47 23 77 60 90 106 5 19 26 57 46 85 20
28 40 60 45 72 6 12 17 32 26 45 9 12 12 22 6 22 -6 0 -25 -20 -42 -44 -28
-41 -64 -66 -77 -52 -8 8 55 109 106 169 47 57 79 81 68 54 -3 -9 -9 -33 -13
-54 l-7 -38 56 67 c76 93 97 123 97 142 0 9 -6 16 -14 16 -14 0 -24 -11 -69
-75 -27 -37 -47 -17 -47 46 0 49 13 70 33 50 21 -21 47 -11 71 27 13 20 44 61
69 90 36 40 52 71 71 136 15 46 26 89 26 94 0 30 -24 17 -65 -35z m-471 -712
c8 -13 -11 -61 -24 -61 -11 0 -13 30 -4 54 7 18 20 21 28 7z"/>
<path d="M8205 4830 c-7 -23 12 -63 28 -57 13 4 26 46 19 65 -7 19 -40 14 -47
-8z"/>
<path d="M7262 4733 c-78 -123 -106 -221 -41 -144 38 46 102 168 94 181 -11
18 -23 10 -53 -37z"/>
<path d="M6825 4709 c-14 -18 -35 -48 -46 -68 -10 -20 -25 -44 -31 -53 -20
-27 0 -33 27 -8 35 33 74 92 85 128 11 41 -1 41 -35 1z"/>
<path d="M7083 4697 c-32 -48 -45 -77 -41 -89 5 -14 53 46 67 84 15 39 -1 42
-26 5z"/>
<path d="M7336 4590 c-36 -44 -88 -154 -84 -181 2 -17 16 -1 66 78 59 95 74
133 53 133 -5 0 -21 -14 -35 -30z"/>
<path d="M6843 4558 c-11 -13 -59 -81 -107 -153 -47 -71 -116 -173 -153 -225
-259 -370 -336 -490 -315 -490 16 0 109 107 139 158 32 55 133 210 197 302 25
36 61 90 79 121 19 31 59 87 89 125 58 72 108 153 108 172 0 18 -15 14 -37
-10z"/>
<path d="M6951 4512 c-13 -20 -36 -54 -50 -75 -50 -74 -100 -152 -121 -190
-12 -21 -35 -57 -53 -80 -39 -52 -113 -195 -104 -203 7 -7 129 176 184 275 20
36 55 87 77 112 43 49 100 139 111 177 10 36 -17 27 -44 -16z"/>
<path d="M8057 4394 c-10 -10 -9 -52 1 -58 14 -8 31 9 34 34 3 24 -20 39 -35
24z"/>
<path d="M7451 4269 c-28 -45 -50 -87 -48 -93 5 -14 95 109 103 141 12 46 -3
33 -55 -48z"/>
<path d="M7221 4204 c-22 -29 -27 -54 -11 -54 10 0 50 58 50 73 0 15 -19 6
-39 -19z"/>
<path d="M7848 4203 c-29 -32 -94 -131 -107 -165 -5 -13 -39 -77 -75 -143 -36
-66 -66 -124 -66 -129 0 -36 88 94 180 265 34 62 72 125 85 141 13 16 22 35
19 43 -8 19 -6 20 -36 -12z"/>
<path d="M7569 3973 c-20 -22 -39 -58 -39 -72 0 -23 17 -10 39 29 25 45 25 72
0 43z"/>
<path d="M7344 3877 c-38 -47 -88 -137 -76 -137 26 0 118 137 110 162 -2 6
-17 -5 -34 -25z"/>
<path d="M5280 3894 c-58 -7 -80 -14 -80 -24 0 -6 61 -10 158 -10 145 0 197 8
179 26 -8 8 -203 14 -257 8z"/>
<path d="M6508 3828 c-40 -55 -78 -117 -78 -128 0 -29 40 7 83 75 48 76 44
119 -5 53z"/>
<path d="M5969 3831 c-38 -12 -69 -31 -69 -41 0 -14 74 -12 105 2 15 7 24 18
23 27 -4 19 -23 22 -59 12z"/>
<path d="M5705 3769 c-27 -4 -130 -14 -229 -23 -109 -8 -182 -19 -190 -26 -22
-24 437 7 525 35 10 4 19 11 19 16 0 10 -53 10 -125 -2z"/>
<path d="M5788 3678 c-3 -30 -7 -34 -52 -45 -26 -7 -50 -14 -53 -16 -2 -2 24
-7 57 -11 52 -6 63 -11 72 -32 13 -28 17 -29 42 -11 17 12 17 17 6 49 -16 42
-9 65 20 70 41 6 19 23 -34 26 l-55 3 -3 -33z"/>
<path d="M6130 3670 c-14 -19 -60 -75 -103 -124 -43 -48 -76 -91 -73 -94 23
-22 212 196 204 235 -2 14 -9 10 -28 -17z"/>
<path d="M6820 3594 c-49 -74 -55 -92 -28 -81 12 4 98 138 98 152 0 20 -26 -6
-70 -71z"/>
<path d="M6294 3555 c-133 -131 -223 -255 -186 -255 13 0 65 59 126 143 37 51
70 83 94 95 39 18 76 70 70 99 -2 14 -28 -7 -104 -82z"/>
<path d="M7507 3628 c-42 -56 -114 -172 -121 -195 -14 -46 22 -23 57 35 47 78
99 183 94 189 -3 2 -16 -11 -30 -29z"/>
<path d="M6115 3513 c-89 -110 -113 -148 -102 -159 12 -12 55 25 110 93 68 84
104 150 89 165 -7 7 -37 -24 -97 -99z"/>
<path d="M5932 3562 c-43 -39 -53 -62 -29 -62 15 0 45 31 72 73 25 38 5 34
-43 -11z"/>
<path d="M7308 3573 c-14 -16 -45 -57 -68 -93 -24 -36 -71 -101 -105 -145 -70
-90 -90 -124 -80 -133 13 -13 100 95 162 200 35 58 76 122 93 143 26 33 37 55
27 55 -2 0 -15 -12 -29 -27z"/>
<path d="M6998 3573 c-25 -29 -49 -83 -46 -101 5 -21 68 73 68 100 0 22 -3 22
-22 1z"/>
<path d="M5338 3444 c-10 -3 -18 -9 -18 -13 0 -10 179 -44 209 -40 37 6 36 25
-1 38 -37 13 -164 23 -190 15z"/>
<path d="M6288 3413 c-33 -37 -148 -196 -148 -204 0 -37 85 42 149 138 42 63
41 113 -1 66z"/>
<path d="M7650 3373 c-40 -41 -52 -73 -26 -73 27 0 88 91 72 107 -3 3 -24 -12
-46 -34z"/>
<path d="M6488 3352 c-49 -52 -73 -90 -64 -100 12 -11 126 115 126 140 0 18
-19 6 -62 -40z"/>
<path d="M6664 3360 c-25 -37 -27 -79 -4 -65 12 7 50 79 50 95 0 22 -21 8 -46
-30z"/>
<path d="M7297 3321 c-56 -62 -70 -111 -32 -111 17 0 63 55 71 85 3 13 4 33 2
46 -3 21 -6 19 -41 -20z"/>
<path d="M6297 3258 c-80 -101 -100 -144 -41 -87 40 37 94 107 94 121 0 19
-21 5 -53 -34z"/>
<path d="M5675 3216 c-19 -13 -18 -15 17 -21 38 -7 83 9 73 26 -9 14 -69 11
-90 -5z"/>
<path d="M6457 3190 c-38 -45 -47 -70 -23 -70 18 0 69 75 64 96 -2 14 -11 8
-41 -26z"/>
<path d="M6860 3176 c-31 -46 -37 -66 -20 -66 10 0 51 60 63 93 12 32 -12 17
-43 -27z"/>
<path d="M5251 3194 c-34 -24 -14 -36 71 -42 81 -5 98 -13 98 -48 l0 -24 178
1 c198 2 235 6 240 31 6 29 -44 33 -187 15 l-135 -16 -41 38 c-61 56 -175 79
-224 45z"/>
<path d="M6991 3135 c-28 -33 -44 -84 -21 -70 11 7 70 90 70 99 0 15 -21 3
-49 -29z"/>
<path d="M6556 3128 c-63 -60 -266 -300 -266 -315 0 -22 33 1 77 53 21 25 82
95 136 156 84 95 112 138 92 138 -3 0 -21 -15 -39 -32z"/>
<path d="M7177 3142 c-27 -30 -22 -54 11 -50 22 2 27 8 27 32 0 36 -16 43 -38
18z"/>
<path d="M6272 3094 c-27 -19 -45 -51 -33 -58 12 -8 71 42 71 60 0 18 -10 18
-38 -2z"/>
<path d="M7102 3050 c-34 -47 -44 -83 -17 -60 23 19 57 79 53 92 -2 6 -18 -9
-36 -32z"/>
<path d="M6315 3017 c-53 -55 -69 -87 -42 -87 16 0 45 31 82 88 42 63 22 63
-40 -1z"/>
<path d="M7035 2937 c-9 -14 -18 -42 -21 -63 -3 -30 -2 -34 5 -18 5 12 21 33
36 48 15 15 25 32 23 38 -8 22 -27 19 -43 -5z"/>
<path d="M5327 2873 c-10 -3 -16 -10 -14 -16 5 -16 73 -38 92 -31 16 6 20 30
8 37 -15 9 -68 15 -86 10z"/>
<path d="M6792 2858 c-16 -16 -15 -53 2 -67 12 -10 17 -8 26 9 12 22 6 70 -8
70 -4 0 -13 -5 -20 -12z"/>
<path d="M5445 2840 c-11 -17 20 -23 151 -29 135 -7 162 -15 151 -45 -8 -21
-173 -22 -344 -1 -68 9 -133 13 -144 10 -46 -15 -9 -34 108 -56 121 -23 563 1
563 31 0 4 -22 10 -50 14 -35 5 -50 11 -50 22 0 8 7 17 15 20 15 6 21 33 8 35
-49 7 -404 6 -408 -1z"/>
<path d="M6909 2788 c-48 -67 -72 -118 -55 -118 7 0 19 7 26 16 8 8 28 21 47
29 31 13 33 17 33 64 0 28 -4 51 -10 51 -5 0 -24 -19 -41 -42z"/>
<path d="M5250 2659 c0 -18 81 -31 250 -40 256 -14 540 7 540 40 0 4 -178 7
-395 7 -217 -1 -395 -4 -395 -7z"/>
<path d="M5815 2573 c-62 -11 -139 -13 -350 -9 -266 6 -315 2 -289 -24 29 -29
159 -33 441 -16 320 20 412 31 433 51 13 13 4 15 -70 14 -47 -1 -121 -8 -165
-16z"/>
<path d="M5980 2499 c-41 -4 -230 -15 -420 -23 -190 -9 -359 -20 -375 -25
l-30 -8 30 -9 c17 -5 170 -9 340 -8 405 2 618 25 633 72 4 14 -55 14 -178 1z"/>
<path d="M5565 12521 c-8 -15 29 -31 69 -31 49 0 54 17 9 29 -47 13 -70 14
-78 2z"/>
<path d="M5990 12461 c0 -11 49 -18 225 -31 77 -5 166 -12 198 -15 77 -8 73
10 -5 24 -157 27 -418 41 -418 22z"/>
<path d="M6686 12381 c7 -8 93 -23 373 -68 25 -4 32 -2 29 8 -2 8 -27 18 -54
22 -27 5 -99 17 -160 28 -121 20 -204 25 -188 10z"/>
<path d="M6025 12331 c-10 -17 35 -23 122 -16 53 5 80 11 72 16 -19 12 -186
11 -194 0z"/>
<path d="M6320 12313 c0 -12 108 -28 118 -19 10 11 -3 15 -61 22 -37 4 -57 3
-57 -3z"/>
<path d="M7315 12280 c-7 -11 46 -40 75 -40 31 0 24 20 -15 36 -40 17 -52 17
-60 4z"/>
<path d="M6755 12241 c-8 -14 3 -18 77 -32 64 -12 111 -7 92 10 -9 9 -114 31
-145 31 -10 0 -20 -4 -24 -9z"/>
<path d="M6991 12201 c-11 -7 -10 -11 5 -19 43 -22 154 -23 154 -2 0 4 -28 13
-63 19 -76 13 -78 13 -96 2z"/>
<path d="M6137 12173 c-24 -23 -9 -28 173 -52 188 -25 220 -28 220 -20 0 8
-54 22 -208 54 -124 25 -173 30 -185 18z"/>
<path d="M4487 12139 c-58 -14 -83 -29 -66 -40 25 -16 153 14 146 34 -5 16
-33 18 -80 6z"/>
<path d="M4252 12090 c-40 -9 -49 -17 -35 -31 12 -12 117 13 128 31 7 12 -44
12 -93 0z"/>
<path d="M6960 12002 c0 -14 26 -22 72 -22 27 0 38 4 36 13 -5 14 -108 23
-108 9z"/>
<path d="M6505 11951 c-11 -19 52 -38 200 -60 77 -12 171 -31 209 -42 66 -20
90 -19 70 1 -42 42 -461 130 -479 101z"/>
<path d="M4770 11938 c-19 -5 -39 -14 -45 -20 -7 -8 -4 -9 9 -4 10 3 52 9 92
13 41 3 74 10 74 14 0 12 -86 10 -130 -3z"/>
<path d="M4031 11919 c-98 -17 -120 -24 -110 -33 8 -8 187 23 220 38 45 19 19
18 -110 -5z"/>
<path d="M4905 11873 c-143 -32 -262 -56 -362 -73 -148 -25 -252 -51 -679
-174 -335 -96 -384 -112 -384 -128 0 -14 26 -9 146 27 64 19 180 51 257 71 78
19 194 51 257 70 201 61 469 120 674 149 118 16 182 37 171 55 -6 10 -43 11
-80 3z"/>
<path d="M7080 11809 c0 -12 88 -51 106 -47 24 4 28 24 7 33 -27 12 -113 22
-113 14z"/>
<path d="M3458 11639 c-18 -10 -25 -49 -9 -49 13 0 61 40 61 51 0 12 -30 11
-52 -2z"/>
<path d="M2840 11540 c-58 -21 -98 -50 -69 -50 19 0 140 48 154 61 15 15 -26
10 -85 -11z"/>
<path d="M3225 11523 c-11 -3 -94 -27 -185 -55 -91 -27 -195 -56 -232 -64 -37
-8 -72 -21 -78 -29 -20 -24 7 -26 62 -5 29 11 104 29 166 40 113 21 234 63
282 100 25 20 22 22 -15 13z"/>
<path d="M7377 11404 c-27 -27 19 -49 168 -80 153 -32 220 -36 220 -14 0 32
-362 120 -388 94z"/>
<path d="M8060 11272 c0 -14 72 -78 150 -132 41 -29 107 -78 145 -109 39 -31
77 -60 86 -66 9 -5 38 -27 65 -47 27 -21 53 -38 58 -38 33 -1 -121 131 -397
341 -73 54 -107 71 -107 51z"/>
<path d="M7495 11260 c-5 -8 -2 -18 8 -25 25 -18 432 -117 464 -113 26 4 23 7
-32 32 -169 79 -419 139 -440 106z"/>
<path d="M7820 11036 c0 -23 99 -55 280 -92 91 -19 185 -41 209 -49 57 -19 72
-19 64 0 -8 23 -69 50 -143 64 -36 7 -127 30 -204 52 -148 42 -206 49 -206 25z"/>
<path d="M1985 10876 c-66 -29 -264 -125 -440 -214 -233 -117 -334 -173 -372
-207 -63 -56 -67 -70 -15 -62 24 3 80 33 162 88 118 79 165 105 370 201 47 22
96 47 110 55 82 46 254 129 304 147 33 12 61 27 64 34 9 27 -68 9 -183 -42z"/>
<path d="M8004 10859 c-12 -20 13 -31 89 -39 41 -5 112 -16 157 -24 82 -16
109 -14 80 5 -8 5 -57 23 -108 39 -95 31 -204 41 -218 19z"/>
<path d="M8590 10850 c0 -13 71 -92 77 -86 11 11 -50 96 -69 96 -4 0 -8 -4 -8
-10z"/>
<path d="M8420 10833 c0 -31 43 -75 69 -71 l24 3 -28 33 c-37 44 -65 59 -65
35z"/>
<path d="M8800 10642 c0 -4 38 -51 85 -103 46 -52 104 -123 127 -159 75 -113
120 -175 247 -337 165 -211 201 -248 201 -208 0 8 -28 45 -61 82 -59 65 -97
116 -219 298 -78 114 -282 367 -322 397 -46 34 -58 41 -58 30z"/>
<path d="M9490 10443 c0 -37 32 -123 46 -123 3 0 3 25 -1 57 -11 93 -45 143
-45 66z"/>
<path d="M9330 10398 c0 -31 49 -170 68 -190 21 -24 32 -22 32 5 0 23 -84 207
-95 207 -3 0 -5 -10 -5 -22z"/>
<path d="M9680 10182 c0 -17 63 -170 100 -242 16 -30 37 -86 48 -125 18 -64
62 -197 115 -347 11 -32 24 -58 29 -58 9 0 4 26 -23 119 -23 77 -24 111 -4
111 20 0 19 22 -7 93 -13 35 -36 73 -56 93 -21 20 -55 78 -87 146 -61 131
-115 229 -115 210z"/>
<path d="M9450 10054 c0 -16 17 -67 36 -114 52 -122 92 -223 165 -410 45 -115
65 -157 67 -139 2 14 -8 50 -21 80 -13 30 -45 118 -70 196 -38 116 -154 394
-172 412 -3 2 -5 -9 -5 -25z"/>
<path d="M9710 9782 c0 -28 96 -300 120 -342 20 -33 8 15 -36 142 -25 73 -51
152 -58 175 -15 55 -26 64 -26 25z"/>
<path d="M9369 9770 c-15 -10 41 -70 65 -70 19 0 22 43 4 57 -19 15 -54 21
-69 13z"/>
<path d="M9980 9358 c0 -16 30 -134 72 -286 30 -111 60 -168 80 -156 18 11 0
89 -45 196 -24 57 -55 136 -67 176 -21 67 -40 101 -40 70z"/>
<path d="M9864 9343 c3 -10 8 -31 12 -48 18 -88 109 -379 122 -391 8 -8 19
-13 26 -11 22 7 17 49 -12 95 -17 26 -37 74 -46 107 -14 53 -62 201 -81 248
-4 9 -11 17 -17 17 -5 0 -7 -8 -4 -17z"/>
<path d="M10108 9344 c-19 -11 -25 -20 -21 -35 3 -11 13 -23 22 -26 9 -2 24
-9 34 -14 15 -8 17 -4 17 41 0 54 -6 58 -52 34z"/>
<path d="M9750 9271 c0 -22 5 -52 10 -67 10 -24 13 -26 26 -13 12 13 12 21 -2
62 -21 61 -34 68 -34 18z"/>
<path d="M10158 9213 c-16 -40 -14 -110 5 -173 13 -43 24 -60 51 -77 27 -17
35 -31 41 -65 4 -24 20 -72 35 -108 16 -36 35 -92 44 -124 16 -65 39 -97 56
-80 7 7 2 39 -16 100 -14 49 -30 105 -35 124 -4 19 -36 103 -70 185 -34 83
-68 171 -76 198 -7 26 -16 47 -19 47 -2 0 -9 -12 -16 -27z"/>
<path d="M10420 8674 c0 -15 31 -92 69 -173 39 -84 72 -167 76 -195 9 -62 42
-174 61 -203 17 -28 54 -31 54 -5 0 30 -37 153 -73 242 -46 113 -169 360 -179
360 -4 0 -8 -12 -8 -26z"/>
<path d="M10404 7633 c9 -88 44 -261 59 -292 7 -13 17 -24 22 -25 29 -3 7 139
-51 334 -22 74 -38 65 -30 -17z"/>
<path d="M10474 7255 c-8 -19 3 -63 22 -93 30 -47 60 19 33 71 -20 37 -46 48
-55 22z"/>
<path d="M10452 6938 c-17 -17 -15 -36 12 -94 13 -28 27 -69 31 -92 7 -45 26
-58 58 -40 55 29 62 76 16 109 -17 12 -38 38 -46 58 -15 36 -41 71 -53 71 -3
0 -11 -5 -18 -12z"/>
<path d="M10646 6598 c-3 -13 -9 -72 -15 -133 -6 -60 -18 -177 -27 -258 -12
-105 -14 -151 -6 -159 17 -17 30 -1 36 50 12 91 36 397 36 453 0 59 -16 89
-24 47z"/>
<path d="M10457 6586 c-20 -20 -26 -79 -37 -366 -5 -135 -15 -340 -21 -456
-12 -217 -9 -264 16 -264 21 0 23 28 40 420 8 195 20 393 25 440 12 107 13
227 1 235 -5 3 -16 -1 -24 -9z"/>
<path d="M10572 5755 c-6 -22 -20 -146 -32 -275 -26 -288 -41 -392 -81 -562
-33 -142 -47 -262 -32 -271 32 -20 45 34 88 348 13 99 33 245 44 325 28 205
44 436 32 457 -7 14 -11 10 -19 -22z"/>
<path d="M10376 5258 c-8 -29 -20 -93 -26 -143 -12 -98 -97 -488 -131 -600
-12 -38 -58 -173 -104 -300 -45 -126 -110 -312 -143 -412 -61 -182 -104 -273
-193 -411 -26 -40 -55 -96 -65 -125 -9 -28 -28 -74 -41 -102 -12 -27 -23 -58
-23 -67 0 -38 22 -14 56 59 19 43 61 114 93 158 75 103 89 131 117 236 13 49
34 114 48 146 13 32 45 114 69 183 88 241 167 400 167 334 0 -9 -16 -66 -35
-125 -35 -110 -40 -135 -29 -163 16 -42 39 -3 95 162 21 65 39 125 39 135 0
11 -12 22 -30 29 -18 6 -32 19 -36 32 -6 24 17 130 88 406 52 199 118 527 118
583 0 53 -17 46 -34 -15z"/>
<path d="M10370 4534 c-17 -45 -25 -144 -11 -144 18 0 43 68 45 119 1 51 -19
66 -34 25z"/>
<path d="M10824 3969 c-23 -28 -62 -116 -114 -254 -29 -77 -68 -167 -86 -201
-19 -33 -34 -71 -34 -82 0 -35 26 -25 45 16 9 20 46 96 80 167 72 146 128 303
123 342 -2 22 -5 24 -14 12z"/>
<path d="M10070 3755 c-84 -135 -161 -326 -132 -325 29 2 79 92 153 273 33 83
20 118 -21 52z"/>
<path d="M10175 3678 c-2 -7 -9 -31 -16 -53 -6 -22 -27 -70 -46 -107 -25 -52
-30 -68 -18 -68 18 0 105 178 105 215 0 26 -18 35 -25 13z"/>
<path d="M10021 3362 c-14 -27 -21 -72 -11 -72 13 0 52 68 45 80 -9 15 -23 12
-34 -8z"/>
<path d="M9857 3298 c-58 -78 -86 -168 -52 -168 16 0 55 56 55 79 0 7 14 29
31 48 16 19 29 42 27 51 -6 29 -35 24 -61 -10z"/>
<path d="M10348 3003 c-14 -16 -42 -55 -63 -88 -21 -33 -81 -127 -132 -210
-81 -127 -150 -228 -371 -541 -37 -53 -35 -69 4 -33 29 27 242 327 415 584
157 233 230 377 147 288z"/>
<path d="M9931 2649 c-10 -17 -28 -37 -40 -45 -12 -9 -30 -32 -41 -52 -11 -20
-72 -111 -135 -202 -123 -177 -152 -226 -142 -236 11 -11 46 26 104 111 30 44
75 108 101 142 88 117 173 243 188 278 13 31 13 35 -1 35 -8 0 -24 -14 -34
-31z"/>
<path d="M9426 2217 c-66 -102 -149 -218 -268 -376 -72 -95 -91 -131 -70 -131
23 0 233 266 309 391 21 35 56 86 76 112 36 48 49 97 25 97 -7 0 -40 -42 -72
-93z"/>
<path d="M9477 2000 c-79 -88 -142 -180 -123 -180 24 0 196 223 183 236 -3 3
-29 -23 -60 -56z"/>
<path d="M9645 1975 c-21 -30 -36 -57 -33 -60 6 -6 58 56 77 93 23 43 -7 21
-44 -33z"/>
<path d="M8982 1903 c-61 -66 -134 -171 -129 -186 8 -26 29 -14 66 40 22 32
61 84 86 116 41 54 56 87 38 87 -4 0 -31 -26 -61 -57z"/>
<path d="M8775 1345 c-71 -34 -308 -188 -313 -203 -2 -8 7 -12 25 -12 19 0 67
25 143 76 63 42 133 84 155 94 45 19 70 44 60 60 -9 14 -13 13 -70 -15z"/>
<path d="M7540 1134 c-19 -8 -78 -44 -130 -79 -145 -98 -302 -184 -570 -316
-303 -149 -294 -144 -299 -165 -5 -29 40 -12 249 91 254 125 359 181 500 269
63 40 152 92 198 115 88 46 132 77 132 92 0 14 -40 10 -80 -7z"/>
<path d="M7568 962 c-26 -15 -91 -57 -145 -94 -54 -36 -124 -80 -157 -98 -32
-17 -81 -46 -109 -65 -29 -19 -57 -35 -63 -35 -6 0 -19 -9 -29 -20 -18 -19
-17 -20 3 -20 11 0 24 5 27 11 4 6 39 26 79 45 143 68 466 267 474 292 6 20
-30 13 -80 -16z"/>
<path d="M3446 952 c-10 -16 47 -42 93 -42 40 0 61 14 44 31 -14 14 -129 23
-137 11z"/>
<path d="M8334 885 c-49 -25 -98 -55 -109 -65 -19 -20 -19 -20 3 -20 24 0 176
72 205 98 20 18 22 32 4 32 -7 0 -53 -20 -103 -45z"/>
<path d="M7776 864 c-81 -41 -166 -96 -166 -106 0 -18 39 -5 129 43 103 55
134 77 125 90 -8 13 -13 12 -88 -27z"/>
<path d="M7896 720 c-67 -37 -102 -70 -75 -70 15 0 117 56 142 78 18 16 23 32
10 32 -5 -1 -39 -18 -77 -40z"/>
<path d="M7532 709 c-31 -12 -242 -139 -242 -146 0 -23 238 94 270 132 15 18
1 25 -28 14z"/>
<path d="M6800 538 c-53 -28 -68 -55 -24 -44 38 10 87 38 86 51 -1 17 -17 15
-62 -7z"/>
<path d="M7196 517 c-22 -12 -41 -28 -44 -34 -8 -25 35 -12 74 22 45 39 29 46
-30 12z"/>
<path d="M6600 463 c-109 -40 -173 -67 -185 -79 -21 -22 -19 -44 5 -44 22 0
147 60 193 92 41 29 33 48 -13 31z"/>
<path d="M7005 413 c-11 -3 -35 -16 -55 -29 -19 -13 -44 -24 -56 -24 -30 0
-312 -86 -329 -100 -37 -30 19 -40 81 -14 21 9 79 28 129 44 81 25 127 42 233
86 17 8 32 20 32 29 0 16 -2 16 -35 8z"/>
<path d="M3951 381 c-11 -7 -9 -12 10 -24 34 -22 236 -65 362 -76 60 -6 112
-13 117 -16 12 -7 449 -41 725 -56 193 -10 345 -6 345 11 0 15 -49 20 -380 35
-184 8 -396 19 -470 25 -135 10 -454 58 -559 84 -84 21 -134 26 -150 17z"/>
<path d="M4065 249 c-14 -21 5 -57 38 -72 18 -9 78 -26 133 -38 54 -11 128
-32 164 -46 104 -40 400 -57 400 -24 0 15 -56 29 -185 46 -166 23 -472 99
-500 125 -24 22 -40 25 -50 9z"/>
</g>
</svg>
