<?xml version="1.0" standalone="no"?>
<!DOCTYPE svg PUBLIC "-//W3C//DTD SVG 20010904//EN"
 "http://www.w3.org/TR/2001/REC-SVG-20010904/DTD/svg10.dtd">
<svg version="1.0" xmlns="http://www.w3.org/2000/svg"
 width="1280.000000pt" height="1121.000000pt" viewBox="0 0 1280.000000 1121.000000"
 preserveAspectRatio="xMidYMid meet">
<metadata>
Created by potrace 1.15, written by Peter Selinger 2001-2017
</metadata>
<g transform="translate(0.000000,1121.000000) scale(0.100000,-0.100000)"
fill="#000000" stroke="none">
<path d="M1490 11203 c-14 -2 -56 -11 -94 -19 -39 -8 -105 -21 -148 -29 -89
-15 -142 -43 -276 -142 -96 -72 -216 -197 -277 -288 -38 -58 -145 -269 -171
-338 -9 -23 -22 -73 -30 -112 -7 -38 -20 -95 -29 -125 -8 -30 -18 -93 -22
-138 -5 -75 -9 -88 -39 -123 -31 -38 -74 -133 -74 -165 0 -43 -37 -89 -127
-156 -105 -78 -130 -108 -169 -194 -38 -81 -40 -186 -6 -214 30 -24 48 -17 72
30 18 35 29 42 127 80 114 44 202 100 294 187 49 47 64 55 114 63 32 5 122 29
199 54 160 50 282 63 388 41 67 -13 94 -37 130 -114 19 -41 20 -55 13 -245 -5
-133 -3 -241 5 -321 13 -129 62 -342 115 -495 18 -52 47 -140 65 -195 36 -112
99 -263 159 -383 22 -43 50 -110 61 -148 26 -81 114 -324 135 -372 8 -18 15
-47 15 -65 0 -31 56 -263 87 -362 8 -27 49 -129 90 -225 40 -96 92 -220 116
-275 87 -208 304 -627 368 -710 34 -44 95 -129 136 -190 119 -177 156 -220
347 -410 257 -254 399 -367 711 -565 186 -118 616 -330 670 -330 25 0 55 -19
55 -35 0 -8 -19 -24 -43 -36 -23 -12 -61 -35 -85 -51 -23 -16 -93 -47 -155
-69 -62 -22 -149 -58 -193 -78 -69 -33 -88 -47 -122 -94 -32 -43 -52 -59 -89
-73 -96 -35 -129 -52 -183 -95 -108 -88 -194 -137 -294 -169 -86 -28 -105 -38
-152 -84 -37 -36 -54 -60 -54 -78 0 -13 -8 -32 -18 -42 -29 -26 -173 -74 -266
-89 -74 -12 -94 -20 -166 -67 -77 -51 -89 -55 -208 -77 -70 -12 -144 -23 -165
-23 -21 0 -71 -7 -113 -15 -59 -13 -86 -14 -134 -5 -35 6 -92 8 -135 4 -70 -6
-77 -9 -90 -34 -8 -16 -26 -31 -42 -35 -39 -9 -51 -21 -58 -58 -4 -18 -22 -48
-40 -67 -31 -33 -41 -61 -48 -139 -4 -41 20 -46 144 -31 62 7 133 12 158 10
89 -5 107 -3 206 18 55 12 110 22 121 22 12 0 46 -18 75 -40 50 -37 58 -40
119 -40 36 0 76 -6 89 -13 28 -14 46 -57 37 -90 -7 -29 -228 -229 -308 -280
-35 -22 -89 -64 -121 -94 -89 -81 -253 -202 -295 -217 -21 -8 -64 -30 -96 -50
-31 -21 -77 -43 -101 -51 -25 -7 -66 -31 -93 -53 -26 -22 -61 -42 -77 -44 -26
-3 -30 -8 -33 -37 -6 -64 3 -78 57 -86 64 -9 96 -40 86 -84 -9 -41 -22 -47
-49 -22 -12 12 -30 21 -40 21 -15 0 -17 -5 -11 -33 4 -17 8 -51 8 -74 3 -60
18 -72 63 -48 29 15 37 16 44 6 7 -13 -3 -67 -15 -79 -2 -3 0 -11 6 -18 8 -10
16 -11 31 -3 26 14 41 0 63 -57 19 -50 45 -57 55 -14 4 16 14 26 29 28 30 5
36 25 16 56 -17 25 -16 26 25 73 23 27 50 64 60 83 26 50 42 62 162 118 59 28
137 74 175 104 37 30 95 69 128 87 33 19 85 54 115 80 30 26 72 57 93 70 21
13 56 50 78 82 39 58 115 118 150 119 9 0 50 34 93 76 43 41 99 89 124 105 26
16 65 47 87 69 22 22 68 66 103 97 35 32 88 92 118 135 57 82 67 90 148 118
28 9 76 33 106 52 30 19 85 49 122 66 71 32 192 107 242 149 22 18 37 23 57
19 21 -4 34 2 62 29 51 50 306 174 381 186 37 6 83 23 116 43 31 18 98 47 150
65 99 34 200 86 262 133 60 47 184 98 271 113 31 5 41 12 52 38 12 29 24 36
141 76 70 24 141 52 158 62 17 9 51 23 76 29 24 7 65 22 90 35 25 12 71 30
103 39 58 17 60 17 135 -7 211 -67 326 -93 632 -141 47 -7 103 -23 125 -35 22
-11 49 -21 60 -21 24 0 136 -35 184 -58 19 -10 73 -63 123 -122 49 -58 128
-138 176 -178 48 -41 159 -145 247 -231 88 -87 183 -171 210 -186 28 -16 61
-37 74 -47 31 -23 54 -23 76 2 10 11 23 20 30 20 6 0 54 -55 107 -123 114
-144 277 -307 368 -366 35 -24 102 -57 148 -73 75 -27 88 -29 122 -19 35 10
79 51 105 96 10 16 16 12 60 -36 106 -118 434 -437 481 -469 27 -18 69 -50 94
-70 25 -21 70 -45 100 -55 30 -10 72 -31 93 -48 33 -26 44 -29 84 -24 l47 5
76 -77 c125 -126 328 -305 452 -400 65 -49 146 -114 180 -146 35 -31 97 -82
138 -113 41 -31 106 -83 144 -116 38 -34 109 -88 157 -121 191 -130 246 -170
289 -205 61 -50 82 -60 129 -60 31 0 44 6 60 26 28 35 26 66 -4 103 -35 41
-57 32 -49 -20 10 -60 21 -66 -248 127 -62 44 -131 91 -153 104 -22 13 -67 49
-100 82 -33 32 -97 86 -142 121 -45 34 -121 96 -170 137 -48 42 -104 86 -123
99 -59 41 -180 141 -280 231 -52 48 -120 105 -150 127 -68 51 -269 253 -252
253 7 0 21 -4 31 -10 12 -6 28 -5 48 2 28 10 35 7 143 -72 63 -45 151 -113
195 -150 123 -103 312 -241 509 -372 224 -150 402 -282 416 -308 43 -81 264
-290 306 -290 24 0 31 15 16 35 -11 15 -173 149 -204 170 -26 16 -38 45 -20
45 5 0 62 -39 128 -86 65 -48 139 -101 163 -118 25 -17 88 -63 141 -102 110
-82 247 -172 405 -266 61 -36 149 -90 196 -121 148 -95 356 -185 403 -173 28
7 91 90 81 107 -4 5 -37 25 -73 43 -114 55 -264 146 -322 193 -30 25 -97 70
-149 100 -51 31 -116 74 -145 97 -28 23 -67 53 -86 66 -19 13 -60 47 -90 76
-30 28 -87 72 -126 98 -39 25 -118 89 -175 142 -57 53 -116 104 -130 113 -14
9 -50 37 -80 63 -30 27 -112 94 -184 150 -71 56 -170 141 -220 190 -49 49
-116 110 -149 136 -33 26 -79 65 -101 88 -22 22 -56 51 -75 65 -19 13 -97 79
-172 146 -76 68 -187 163 -247 212 -131 106 -361 311 -361 322 0 9 -259 213
-292 230 -13 6 -129 116 -258 243 -229 225 -357 340 -451 403 -62 43 -75 59
-59 78 9 11 9 18 -2 33 -17 25 -139 159 -263 291 -197 211 -385 428 -385 447
0 8 10 14 23 14 27 0 62 -35 218 -220 152 -180 479 -527 582 -617 76 -67 117
-89 117 -62 0 6 -46 59 -102 118 -126 131 -335 362 -448 496 -46 55 -113 131
-147 169 -35 38 -63 73 -63 79 0 11 50 5 92 -12 15 -6 67 -58 115 -117 48 -59
143 -172 211 -251 67 -79 134 -163 149 -186 15 -23 57 -79 93 -123 36 -45 85
-110 110 -145 103 -144 471 -509 788 -781 206 -177 653 -566 697 -606 59 -53
95 -66 95 -33 0 11 -14 30 -31 43 -17 13 -67 57 -112 98 -109 99 -508 453
-688 610 -233 202 -708 695 -739 767 -10 22 -54 81 -97 130 -154 173 -169 193
-140 193 14 0 136 -123 257 -260 46 -52 136 -149 200 -215 64 -66 171 -184
239 -262 79 -93 129 -143 142 -143 10 0 19 4 19 10 0 5 -54 77 -119 159 -119
148 -223 261 -559 603 -102 104 -171 182 -167 188 4 7 40 -20 94 -72 47 -46
178 -168 291 -271 249 -227 374 -359 365 -386 -9 -28 44 -87 327 -367 343
-339 477 -466 648 -616 141 -123 520 -425 547 -435 7 -3 16 3 20 13 8 22 -52
78 -241 227 -257 203 -541 462 -1049 958 -113 111 -177 181 -177 194 0 11 -27
50 -60 87 -83 95 -114 137 -106 145 10 10 203 -185 372 -374 191 -214 867
-833 910 -833 36 0 39 -3 -466 464 -241 223 -404 388 -439 443 -14 22 -225
242 -468 487 -243 245 -454 462 -468 481 -25 32 -27 55 -5 55 20 0 1776 -1771
2184 -2202 87 -91 185 -190 219 -220 108 -93 619 -602 931 -928 385 -401 450
-473 487 -537 34 -59 41 -65 63 -57 30 11 29 44 -1 87 -16 23 -42 64 -58 92
-46 79 -165 205 -480 508 -206 198 -510 501 -551 548 -33 40 -325 322 -365
354 -21 17 -71 68 -112 115 -41 47 -176 188 -301 313 -124 126 -226 232 -226
237 0 5 -34 36 -75 70 -41 33 -110 104 -154 158 -43 53 -161 176 -262 272
-100 96 -354 346 -563 556 -210 209 -434 424 -499 478 -104 86 -129 116 -96
116 6 0 95 -30 197 -66 152 -53 202 -67 269 -71 68 -5 87 -3 109 12 24 15 25
21 20 63 -15 105 -29 147 -66 187 -21 22 -60 76 -88 121 -29 44 -70 95 -92
113 -22 18 -51 54 -65 81 -29 58 -98 145 -169 216 -56 55 -186 198 -254 278
-43 50 -266 285 -469 495 -57 58 -103 110 -103 117 0 6 7 17 15 24 25 21 17
51 -46 164 -66 120 -122 198 -278 391 -208 258 -371 419 -616 606 -66 50 -172
140 -235 198 -63 59 -144 131 -180 161 -36 30 -141 125 -235 211 -93 85 -197
175 -230 199 -33 24 -118 92 -190 150 -71 58 -193 154 -270 212 -160 122 -196
152 -370 303 -70 61 -180 144 -245 185 -65 41 -197 127 -293 191 -95 64 -260
170 -367 235 -107 64 -240 147 -297 183 -202 130 -290 181 -393 229 -58 27
-135 67 -170 89 -36 22 -120 70 -187 107 -67 37 -159 95 -205 129 -46 35 -101
74 -123 87 -90 54 -375 291 -375 311 0 4 -45 55 -101 114 -75 81 -110 127
-138 184 -46 92 -87 166 -117 206 -12 17 -53 93 -91 170 -101 206 -160 300
-240 385 -79 84 -196 158 -293 186 -30 9 -102 31 -160 49 -164 52 -309 73
-400 58z m162 -63 c59 -6 138 -23 205 -44 59 -19 138 -43 175 -55 37 -11 94
-37 127 -56 67 -39 230 -189 219 -200 -4 -4 -58 32 -119 80 -119 94 -204 137
-251 128 -20 -4 -39 2 -68 21 -22 15 -54 29 -71 33 -25 5 -31 2 -36 -15 -4
-18 -14 -22 -66 -24 -49 -2 -62 -7 -65 -20 -4 -19 50 -38 111 -38 33 0 37 3
37 25 0 30 18 32 52 6 13 -11 53 -27 89 -36 35 -9 87 -23 114 -32 96 -31 305
-195 305 -241 0 -12 -4 -22 -10 -22 -5 0 -48 35 -95 79 -71 65 -103 86 -188
124 -106 47 -199 67 -227 47 -23 -16 9 -36 71 -43 83 -10 205 -76 293 -158 66
-61 80 -71 104 -66 25 5 33 -1 73 -51 54 -68 125 -173 133 -199 3 -10 2 -24
-3 -31 -6 -10 -18 -1 -47 35 -64 82 -158 173 -176 173 -10 0 -37 19 -61 43
-29 28 -59 46 -90 54 -37 10 -47 17 -47 34 0 39 -20 57 -92 84 -40 15 -100 38
-133 50 -33 12 -86 30 -117 39 -57 16 -58 16 -93 -6 -19 -13 -35 -28 -35 -34
0 -7 35 -14 91 -17 163 -12 194 -50 44 -55 -82 -2 -99 0 -122 17 -16 11 -56
27 -91 35 -70 16 -94 12 -195 -33 -34 -15 -73 -31 -87 -34 -46 -12 -100 -67
-137 -140 -34 -69 -35 -75 -29 -147 3 -41 13 -97 21 -124 14 -47 14 -51 -9
-101 -14 -32 -38 -63 -62 -81 -53 -39 -179 -141 -229 -186 -56 -50 -106 -71
-140 -58 -39 15 -156 12 -185 -5 -14 -8 -28 -14 -32 -15 -25 -1 9 239 57 400
39 134 131 336 196 431 97 143 245 280 373 344 79 41 156 60 141 36 -3 -6 -49
-34 -102 -63 -180 -100 -328 -250 -433 -439 -97 -176 -222 -531 -202 -574 11
-24 95 -70 110 -61 5 3 12 40 15 81 7 78 31 148 100 295 20 41 44 87 54 103
14 21 15 31 7 45 -6 9 -17 17 -24 17 -17 0 -153 -309 -178 -405 -19 -74 -34
-95 -46 -65 -15 41 112 379 212 564 50 91 70 116 173 215 133 128 188 167 315
225 114 51 215 62 336 37 100 -21 178 -21 178 -1 0 8 -15 18 -37 23 -62 15
-181 32 -222 32 -51 0 -78 10 -59 21 17 11 59 11 180 -1z m5 -436 c73 -25 177
-32 188 -14 10 16 161 12 201 -5 20 -8 52 -28 70 -45 22 -19 46 -30 65 -30 21
0 39 -10 60 -32 16 -18 29 -36 29 -40 0 -12 -28 -10 -35 2 -13 20 -149 82
-223 101 -96 24 -168 24 -233 0 -46 -18 -54 -18 -73 -5 -30 19 -36 10 -36 -50
0 -70 -35 -140 -102 -202 -71 -67 -120 -91 -213 -105 -103 -16 -118 -6 -140
97 -20 86 -15 155 13 194 25 34 104 93 176 131 99 53 105 53 253 3z m368 -110
c28 -8 91 -36 140 -62 131 -69 126 -97 -8 -46 -37 14 -74 23 -82 20 -34 -13
-11 -35 68 -67 78 -33 84 -38 124 -98 50 -78 131 -161 155 -161 10 0 18 4 18
9 0 5 -29 44 -65 86 -64 75 -87 127 -46 106 28 -16 116 -115 134 -153 16 -35
13 -113 -5 -124 -6 -4 -26 10 -47 30 -24 23 -46 36 -64 36 -15 0 -27 -4 -27
-9 0 -5 32 -39 71 -77 78 -76 94 -100 104 -159 4 -22 17 -56 30 -75 12 -19 40
-62 60 -95 21 -33 74 -107 119 -164 84 -108 128 -140 189 -141 43 0 59 -13
132 -100 37 -44 71 -80 76 -80 19 0 8 49 -20 86 -44 61 -91 99 -153 129 -53
24 -76 44 -104 91 -10 17 -13 17 -29 4 -16 -13 -19 -12 -34 8 -9 13 -34 46
-57 75 -99 127 -183 262 -170 275 7 6 33 -24 108 -128 80 -111 127 -160 153
-160 31 0 138 -86 196 -158 50 -62 81 -87 93 -75 15 15 1 39 -76 128 -57 65
-105 109 -159 144 -150 98 -360 372 -329 430 14 28 12 64 -5 87 -8 10 -19 36
-25 56 -10 36 -71 105 -159 180 -45 38 -47 58 -5 58 16 0 28 -8 36 -25 7 -15
19 -25 33 -25 12 0 31 -10 42 -22 28 -32 109 -156 175 -268 86 -147 137 -208
355 -428 112 -113 203 -210 203 -217 0 -8 12 -28 28 -46 32 -39 210 -182 253
-204 43 -23 56 -8 23 26 l-28 29 32 0 c18 0 39 -8 47 -17 8 -10 32 -38 52 -61
20 -24 65 -64 99 -88 73 -52 94 -74 71 -74 -9 0 -18 4 -21 9 -3 4 -43 23 -88
41 -191 76 -243 106 -328 192 -67 67 -82 78 -95 68 -8 -7 -15 -18 -15 -25 0
-6 35 -46 78 -87 42 -41 86 -85 96 -97 17 -18 237 -151 251 -151 11 0 4 25
-12 42 -15 17 -15 18 4 18 41 0 331 -209 458 -329 80 -76 102 -92 353 -255
135 -87 262 -183 262 -197 0 -4 64 -75 143 -157 147 -154 204 -232 171 -232
-9 0 -65 47 -123 104 -282 276 -469 441 -584 518 -107 70 -157 93 -157 70 0
-12 34 -41 134 -112 49 -35 157 -126 240 -203 516 -477 468 -437 498 -418 16
10 29 5 86 -33 77 -51 111 -62 141 -46 17 9 22 8 27 -5 10 -26 -12 -39 -63
-39 -42 0 -247 65 -380 121 -34 14 -44 33 -18 33 33 0 11 37 -63 109 -95 93
-359 333 -462 421 -42 36 -106 90 -141 121 -100 88 -338 245 -429 284 -131 56
-259 125 -279 151 -21 26 -71 34 -71 10 0 -32 108 -114 218 -165 28 -13 54
-32 57 -42 3 -10 23 -33 44 -52 41 -37 169 -113 177 -105 11 12 -11 36 -76 83
-38 28 -70 53 -70 58 -1 24 75 -15 160 -83 36 -29 99 -76 141 -106 41 -29 154
-122 250 -206 237 -208 280 -245 379 -322 47 -37 88 -73 93 -81 15 -27 -15
-26 -56 1 -57 37 -485 376 -562 444 -84 74 -235 166 -314 190 -47 15 -93 42
-170 99 -58 44 -144 102 -191 130 -124 73 -156 99 -203 161 -23 30 -64 80 -92
110 -27 31 -64 76 -82 102 -39 57 -121 123 -192 155 -78 35 -255 222 -307 324
-15 30 -35 54 -49 59 -14 5 -38 24 -55 42 -24 27 -31 30 -39 19 -16 -25 11
-74 45 -83 22 -6 35 -19 53 -55 48 -99 255 -319 336 -357 83 -39 132 -82 204
-180 38 -52 75 -97 81 -101 6 -4 23 -26 38 -50 33 -52 105 -113 183 -155 31
-16 92 -56 136 -87 313 -226 338 -241 431 -263 59 -14 194 -98 220 -137 8 -13
96 -86 196 -163 194 -148 222 -173 212 -189 -11 -18 -58 7 -111 58 -27 27 -84
71 -127 99 -42 28 -93 72 -113 97 -44 54 -145 122 -234 160 -35 14 -80 38
-102 52 -61 40 -85 4 -26 -41 34 -26 238 -129 274 -138 21 -6 43 -39 57 -85
11 -35 -16 -29 -85 18 -33 22 -89 53 -125 69 -82 37 -149 89 -300 231 -277
261 -324 300 -419 344 -85 40 -94 47 -157 128 -38 47 -68 95 -68 107 0 25 -28
69 -79 123 -62 65 -84 41 -30 -33 17 -24 38 -59 46 -79 19 -46 95 -159 144
-215 27 -30 57 -50 109 -71 55 -22 97 -51 186 -127 62 -54 132 -123 154 -153
43 -58 123 -129 221 -196 55 -37 60 -43 57 -72 -2 -21 -8 -32 -18 -31 -15 1
-211 136 -283 195 -30 25 -37 36 -33 54 8 32 -30 75 -115 131 -37 25 -83 62
-102 84 -26 28 -59 48 -128 75 -186 75 -215 91 -289 163 -100 96 -234 161
-338 162 -18 0 -97 21 -174 46 -109 36 -150 55 -180 82 -43 39 -51 67 -15 57
12 -4 58 -23 102 -42 108 -47 174 -66 346 -99 154 -29 187 -28 170 4 -8 14
-33 23 -93 35 -94 17 -138 32 -138 46 0 7 29 8 78 4 64 -5 80 -3 91 11 11 14
10 17 -14 26 -14 5 -44 10 -65 10 -21 0 -57 9 -81 20 -24 11 -55 20 -69 20
-71 0 -233 62 -287 110 -51 44 -61 48 -70 23 -5 -12 7 -29 40 -59 49 -44 147
-85 265 -109 35 -7 69 -18 74 -23 15 -15 2 -42 -19 -42 -19 0 -211 71 -308
114 -57 26 -60 26 -73 9 -21 -27 -11 -112 17 -150 14 -18 21 -38 18 -47 -4 -9
-2 -27 3 -40 12 -32 144 -124 189 -132 46 -9 193 -62 206 -75 12 -13 -67 -4
-180 18 -78 16 -82 18 -153 87 -55 53 -75 67 -84 58 -15 -15 -1 -42 63 -119
27 -32 49 -67 49 -78 0 -35 30 -66 94 -96 40 -19 77 -29 108 -29 26 0 71 -9
100 -21 71 -28 180 -59 190 -53 4 3 8 14 8 24 0 18 -70 60 -102 60 -9 0 -32 7
-53 16 -21 8 -78 22 -128 30 -90 15 -168 42 -181 63 -19 30 238 -9 357 -54 51
-20 151 -56 222 -80 159 -55 223 -86 354 -171 59 -39 107 -64 116 -60 34 13
22 25 -125 124 -106 72 -277 147 -475 209 -105 33 -131 48 -138 75 -7 27 -88
74 -194 112 -115 41 -213 95 -213 118 0 18 65 -1 227 -68 134 -55 165 -72 200
-109 44 -45 99 -70 143 -63 43 5 27 29 -35 54 -57 23 -115 71 -115 95 0 15 20
7 108 -43 101 -58 141 -93 125 -109 -23 -24 -13 -37 40 -55 123 -41 288 -124
412 -209 72 -48 140 -97 152 -108 25 -22 22 -37 -7 -37 -10 0 -21 -4 -24 -8
-5 -9 130 -111 221 -167 71 -43 89 -60 74 -70 -13 -7 -89 25 -152 66 -54 34
-69 36 -69 10 0 -12 17 -31 42 -48 23 -15 43 -34 46 -40 6 -21 -49 -15 -83 8
-59 40 -127 71 -137 61 -15 -15 0 -36 49 -66 62 -37 46 -46 -88 -46 -115 0
-169 15 -299 80 -33 17 -64 30 -70 30 -24 0 -3 -45 30 -67 79 -50 80 -52 33
-53 -31 0 -43 -4 -43 -15 0 -8 -3 -15 -6 -15 -14 0 -114 86 -114 99 0 8 -34
47 -76 87 -57 54 -75 77 -72 92 8 30 -9 50 -70 81 -41 20 -80 31 -137 36 -44
4 -101 16 -128 26 -94 37 -121 23 -103 -54 22 -93 61 -144 141 -186 90 -47
117 -11 32 43 -81 52 -154 142 -133 164 4 3 25 -5 48 -18 34 -19 54 -23 120
-21 79 1 80 1 148 -46 48 -33 69 -54 70 -69 0 -24 36 -81 86 -137 19 -20 34
-41 34 -46 0 -5 20 -21 45 -35 25 -15 45 -31 45 -36 0 -5 -21 -20 -47 -32 -54
-27 -57 -42 -8 -46 19 -2 35 -7 35 -12 0 -19 -44 -49 -101 -71 -33 -12 -78
-35 -100 -51 -23 -16 -47 -27 -55 -24 -7 3 -25 28 -39 56 -25 49 -38 60 -50
40 -11 -18 17 -94 45 -120 l29 -27 -19 -31 c-11 -18 -24 -32 -29 -32 -6 0 -15
19 -22 43 -15 56 -23 71 -41 75 -28 5 -27 -25 5 -108 l31 -82 -22 -86 c-11
-48 -24 -112 -27 -142 -3 -30 -10 -82 -16 -115 -11 -63 -3 -119 52 -353 52
-225 172 -510 302 -717 24 -38 79 -133 122 -209 43 -76 111 -180 150 -230 39
-50 80 -107 92 -126 30 -49 329 -341 378 -370 22 -13 68 -45 101 -72 34 -26
131 -84 215 -129 85 -45 168 -89 184 -99 17 -10 64 -32 105 -48 41 -16 111
-46 155 -66 111 -49 361 -144 540 -204 186 -62 324 -99 469 -122 120 -20 166
-33 166 -50 0 -13 -14 -11 -255 26 -94 15 -201 39 -260 59 -55 18 -159 52
-231 74 -72 23 -155 54 -185 70 -55 29 -139 50 -139 34 0 -4 19 -19 43 -31
125 -70 185 -95 303 -126 71 -19 156 -44 189 -56 178 -63 600 -126 680 -102
39 11 105 -3 126 -28 19 -22 14 -62 -10 -84 -10 -9 -41 -16 -76 -18 -71 -4
-83 -26 -23 -43 52 -14 54 -21 16 -41 -46 -25 -218 -33 -218 -11 0 10 17 19
50 27 38 9 50 17 50 31 0 17 -7 18 -97 12 -124 -7 -321 17 -458 58 -162 48
-461 157 -594 218 -97 43 -128 62 -141 85 -18 33 -23 37 -106 69 -63 24 -378
225 -519 331 -44 33 -122 100 -172 149 -85 81 -118 100 -118 68 0 -45 282
-297 424 -378 25 -15 91 -57 147 -94 207 -138 400 -252 508 -301 61 -28 226
-89 366 -135 140 -46 261 -86 269 -89 10 -3 11 -8 3 -16 -32 -32 -329 30 -462
97 -41 21 -139 62 -218 91 -157 58 -205 82 -397 201 -71 44 -157 96 -189 116
-45 28 -62 34 -68 24 -12 -18 38 -56 224 -172 160 -100 221 -152 117 -100
-137 69 -253 141 -329 206 -46 39 -104 82 -129 97 -164 94 -320 211 -428 318
-103 105 -143 133 -143 102 0 -6 19 -35 41 -64 24 -32 39 -60 35 -69 -8 -21
-29 -10 -50 26 -9 16 -54 69 -99 117 -67 71 -268 336 -364 477 -18 27 -200
367 -260 486 -25 51 -30 93 -11 87 7 -3 42 -63 78 -134 36 -71 78 -148 93
-171 15 -23 51 -93 81 -155 44 -92 73 -136 155 -233 222 -262 294 -329 332
-304 11 8 -1 24 -57 77 -39 37 -91 92 -115 122 -24 30 -84 100 -134 155 -80
88 -96 113 -139 210 -26 61 -67 137 -91 171 -24 33 -69 111 -100 173 -41 80
-73 129 -114 170 -57 60 -84 107 -196 346 -55 117 -71 164 -82 234 -9 58 19
31 48 -45 14 -38 49 -114 77 -169 28 -55 62 -125 75 -156 25 -57 41 -76 51
-60 8 13 -57 200 -113 319 -111 241 -154 516 -131 840 6 85 11 157 12 160 0 4
0 35 -1 70 -1 54 -5 66 -30 92 -16 17 -50 78 -76 137 -26 59 -56 120 -66 138
-55 92 -142 378 -164 540 -16 112 -28 142 -46 115 -21 -33 -21 -67 1 -174 47
-227 109 -393 263 -704 88 -175 101 -212 80 -219 -14 -5 -46 45 -88 137 -16
36 -53 108 -82 160 -79 145 -180 420 -214 584 -16 76 -32 143 -35 147 -13 21
-24 -6 -24 -58 0 -94 39 -250 106 -426 76 -200 88 -226 220 -462 117 -210 117
-210 98 -226 -18 -14 -11 -22 -74 81 -28 47 -74 117 -100 155 -27 39 -66 108
-86 154 -19 46 -48 104 -64 130 -15 25 -40 90 -54 145 -28 105 -53 166 -67
166 -22 0 -20 -34 4 -88 29 -66 36 -95 22 -102 -16 -8 -50 91 -100 290 -41
159 -48 203 -52 315 -4 106 -3 128 8 118 8 -8 17 -66 25 -155 19 -225 29 -278
55 -278 7 0 8 22 4 65 -5 45 -4 65 4 65 7 0 11 35 11 106 0 59 7 149 16 200
16 93 16 94 -6 129 -20 33 -21 40 -10 86 22 90 -9 219 -51 219 -23 0 -25 -24
-4 -73 18 -43 19 -111 4 -173 -10 -38 -9 -52 10 -102 14 -38 20 -68 16 -85 -7
-26 -25 -38 -25 -17 0 6 -12 23 -26 37 -27 26 -27 28 -25 163 2 109 -2 146
-15 179 -12 32 -14 45 -5 54 18 18 13 37 -16 49 -33 14 -63 38 -63 50 0 16 41
8 92 -18 28 -14 87 -35 132 -46 44 -11 96 -29 114 -40 34 -21 62 -18 62 5 0
27 -38 47 -157 81 -132 37 -167 52 -158 67 11 17 99 9 170 -17 195 -70 188
-68 236 -53 36 11 45 19 47 40 6 50 -52 78 -213 105 -94 15 -125 23 -125 34 0
14 31 20 104 20 65 0 80 -4 151 -41 61 -31 87 -39 119 -37 29 2 42 8 44 20 3
13 -8 18 -53 23 -43 6 -68 16 -107 45 -56 42 -113 56 -168 40 -19 -5 -51 -10
-70 -10 -55 0 -79 -10 -82 -34 -2 -16 -11 -22 -38 -24 -19 -2 -39 -8 -45 -13
-17 -17 16 -28 69 -22 40 4 55 2 65 -11 12 -14 8 -16 -43 -16 -32 0 -89 5
-128 12 -117 19 -263 -16 -523 -125 -104 -44 -135 -54 -135 -42 0 5 59 95 169
258 29 42 63 83 74 89 12 6 44 33 72 59 28 27 67 55 87 63 40 17 79 59 108
117 l20 38 72 -1 c40 -1 98 6 129 16 65 18 156 83 222 155 38 44 51 70 72 149
4 12 12 22 18 22 7 0 28 11 48 24 68 46 122 49 244 10z m632 -297 c30 -40 118
-245 108 -255 -19 -20 -145 201 -145 256 0 28 14 28 37 -1z m214 -359 c11 -13
35 -42 51 -65 17 -24 38 -45 47 -48 9 -3 49 -41 90 -85 80 -88 224 -202 340
-270 41 -23 165 -111 277 -194 112 -83 230 -168 261 -188 32 -21 88 -60 124
-88 37 -27 113 -76 170 -107 99 -56 125 -81 102 -104 -9 -9 -24 0 -129 81 -32
25 -90 61 -129 80 -173 87 -260 149 -481 344 -37 32 -84 62 -119 75 -73 27
-139 71 -240 161 -44 38 -85 70 -92 70 -6 0 -44 37 -85 81 -40 45 -110 122
-156 171 -74 79 -90 108 -62 108 5 0 19 -10 31 -22z m-2391 -75 c0 -25 -45
-133 -58 -138 -40 -15 -32 51 14 123 13 20 44 31 44 15z m233 -15 c30 -16 15
-40 -33 -51 -14 -4 -50 -21 -81 -40 -71 -43 -83 -47 -100 -37 -17 11 5 61 52
114 32 37 33 37 88 30 31 -3 64 -11 74 -16z m606 -120 c28 -6 51 -15 51 -18 0
-4 -35 -10 -77 -13 -43 -4 -113 -9 -155 -13 -85 -7 -108 7 -40 25 125 32 154
35 221 19z m443 -14 c15 -3 32 -12 38 -19 19 -23 -30 -29 -100 -11 -34 9 -64
16 -66 16 -2 0 -4 7 -4 16 0 13 8 15 53 9 28 -3 64 -8 79 -11z m-1097 -25 c14
-22 -19 -71 -74 -108 -31 -21 -90 -67 -132 -103 -92 -78 -127 -103 -156 -112
-64 -20 9 65 118 137 31 20 94 73 140 117 46 43 87 79 91 80 4 0 10 -5 13 -11z
m-215 -28 c0 -11 -22 -35 -54 -59 -29 -23 -71 -62 -92 -87 -69 -83 -180 -195
-192 -195 -36 0 21 105 92 170 21 19 77 70 123 113 83 76 123 95 123 58z
m3703 -617 c95 -54 167 -104 167 -116 0 -19 -44 -5 -107 33 -128 78 -188 129
-153 129 6 0 48 -21 93 -46z m-230 -48 c34 -24 99 -64 144 -89 56 -31 101 -65
140 -108 40 -43 112 -98 228 -175 233 -155 376 -285 665 -607 125 -139 148
-173 131 -190 -7 -7 -20 2 -43 29 -18 21 -62 68 -98 104 -36 36 -122 128 -192
205 -185 205 -286 289 -528 439 -69 43 -159 107 -200 143 -41 36 -130 110
-197 165 -68 54 -123 105 -123 113 0 22 5 20 73 -29z m483 -100 c14 -11 16
-18 8 -26 -8 -8 -19 -5 -40 14 -26 23 -27 25 -8 26 11 0 29 -6 40 -14z m7 -78
c27 -14 252 -196 324 -262 52 -47 203 -238 203 -256 0 -29 -30 -5 -151 121
-74 77 -161 159 -194 181 -72 49 -201 163 -216 189 -9 18 -5 39 7 39 3 0 15
-5 27 -12z m358 -154 c30 -20 151 -100 269 -177 118 -77 233 -154 255 -172 22
-18 78 -55 125 -83 90 -54 333 -249 343 -276 15 -37 -19 -21 -115 57 -57 46
-141 110 -188 142 -47 32 -113 80 -146 107 -34 26 -65 48 -69 48 -15 0 -128
73 -172 112 -25 21 -77 55 -117 75 -117 59 -256 162 -256 190 0 20 14 16 71
-23z m192 -216 c18 -12 55 -41 82 -64 28 -24 100 -73 159 -109 60 -37 137 -89
170 -116 119 -97 138 -112 264 -207 203 -154 441 -363 486 -426 16 -22 62 -75
101 -116 40 -41 84 -96 98 -122 19 -33 39 -52 70 -67 24 -12 58 -38 75 -60 29
-36 30 -42 25 -100 l-6 -62 -43 42 c-33 33 -47 40 -55 32 -9 -9 -5 -21 16 -50
53 -70 148 -163 167 -163 29 0 21 21 -29 73 -41 43 -45 49 -23 43 72 -19 78
-19 90 4 7 13 9 36 5 58 -6 34 -27 63 -127 177 -44 51 -79 127 -65 142 4 3 15
2 26 -3 20 -10 153 -160 254 -288 34 -43 97 -116 139 -162 43 -47 81 -96 84
-110 8 -30 -3 -150 -16 -173 -4 -9 -20 -23 -33 -30 -31 -16 -135 -1 -208 31
-53 22 -82 21 -87 -4 -8 -40 148 -98 264 -98 67 0 74 2 94 28 35 44 51 93 49
149 -1 29 0 55 2 58 3 2 32 -23 64 -55 59 -60 60 -61 45 -88 -10 -17 -27 -29
-45 -32 -30 -6 -34 -17 -21 -51 5 -10 -1 -19 -19 -27 -35 -16 -32 -27 18 -59
23 -15 57 -40 75 -55 18 -15 39 -28 47 -28 8 0 20 -9 28 -20 8 -11 47 -43 86
-71 40 -28 104 -83 142 -122 54 -54 72 -68 81 -59 18 18 -16 76 -70 121 -24
20 -57 48 -74 62 -21 17 -29 31 -25 42 11 30 41 18 109 -43 36 -33 69 -60 72
-60 3 0 6 11 6 25 0 34 -49 86 -126 135 -67 42 -72 48 -52 68 16 16 49 15 72
-3 26 -19 46 -19 46 0 0 17 -55 72 -142 142 -54 43 -73 73 -47 73 36 0 124
-41 189 -89 93 -67 430 -400 430 -424 0 -28 -34 -5 -131 89 -62 62 -92 84
-111 84 -21 0 -32 10 -53 48 -47 81 -119 171 -137 172 -10 0 -18 -2 -18 -5 0
-3 29 -58 65 -123 71 -127 81 -159 72 -234 -12 -102 -68 -154 -175 -164 -64
-6 -77 -4 -124 19 -29 15 -84 52 -123 83 -38 31 -160 117 -270 190 -110 74
-258 176 -330 227 l-130 93 -29 72 c-16 39 -27 74 -23 78 3 3 21 -3 40 -15 41
-25 141 -61 170 -61 12 0 31 10 44 22 20 19 27 20 41 10 52 -37 62 -38 121 -5
78 43 78 58 -2 136 -66 63 -74 80 -92 180 -5 33 -27 58 -40 45 -2 -2 1 -36 6
-75 11 -82 1 -139 -31 -168 -11 -10 -22 -33 -26 -51 -3 -19 -10 -34 -15 -34
-12 0 -190 50 -216 60 -13 5 -23 16 -23 24 0 25 27 25 63 0 20 -13 41 -24 46
-24 29 0 0 41 -111 158 -68 71 -154 172 -193 224 -45 61 -96 115 -142 152 -40
32 -113 93 -163 138 -58 51 -96 78 -106 74 -12 -5 -13 -10 -4 -26 18 -34 128
-137 227 -212 56 -43 106 -91 131 -126 22 -31 54 -70 71 -86 29 -28 42 -66 22
-66 -14 0 -62 40 -168 141 -55 53 -127 116 -160 140 -32 23 -78 61 -103 84
-39 37 -136 105 -222 159 -28 16 -37 36 -18 36 5 0 37 -18 71 -40 74 -48 117
-54 91 -14 -4 7 -45 35 -91 64 -94 58 -211 147 -211 160 0 5 -19 22 -43 38
-30 21 -51 47 -71 91 -16 33 -27 64 -23 67 3 4 48 -30 98 -75 50 -44 143 -119
205 -167 99 -74 116 -84 134 -74 33 18 202 -120 437 -358 139 -140 207 -202
218 -198 8 3 15 10 15 15 0 16 -343 362 -450 455 -158 137 -187 157 -215 144
-21 -10 -29 -7 -63 23 -48 42 -187 154 -295 236 -84 64 -227 215 -227 239 0
24 22 16 70 -25 26 -22 85 -62 132 -90 83 -49 113 -71 366 -265 222 -170 390
-333 624 -606 37 -43 74 -76 86 -78 33 -5 26 16 -19 56 -23 20 -57 60 -77 87
-73 100 -230 271 -346 377 -128 117 -487 395 -595 460 -36 22 -111 71 -168
109 -56 38 -107 69 -113 69 -21 0 -150 141 -150 164 0 13 34 5 63 -16z m-3323
-195 c7 -16 25 -59 41 -96 15 -37 60 -125 98 -195 38 -70 90 -175 115 -233 24
-58 54 -122 66 -142 15 -25 24 -64 30 -124 5 -48 18 -141 29 -207 24 -133 25
-156 11 -156 -19 0 -32 45 -51 174 -30 203 -55 296 -88 331 -19 19 -35 52 -44
91 -9 33 -50 132 -92 220 -84 175 -155 337 -155 353 0 22 27 10 40 -16z m2156
-34 c3 -6 2 -15 -2 -19 -12 -12 -38 5 -30 19 9 14 23 14 32 0z m139 -19 c17
-18 17 -20 1 -26 -23 -9 -66 12 -66 31 0 22 43 19 65 -5z m1132 -12 c44 -49
57 -98 20 -73 -31 20 -69 73 -62 85 9 15 20 12 42 -12z m-1157 -55 c136 -34
450 -140 550 -184 47 -20 128 -49 180 -64 110 -32 113 -33 203 -92 63 -42 86
-73 53 -73 -17 0 -165 62 -198 83 -13 9 -106 52 -208 98 -130 58 -227 94 -325
120 -77 20 -187 50 -245 67 -58 17 -123 34 -145 39 -27 5 -41 14 -43 27 -3 16
1 17 40 11 23 -4 86 -18 138 -32z m-175 -27 c55 -14 147 -41 205 -61 58 -20
132 -42 165 -51 182 -47 223 -63 246 -101 12 -19 36 -41 54 -49 81 -34 496
-329 544 -387 11 -15 11 -17 -1 -17 -20 0 -91 47 -178 119 -92 76 -130 84 -67
14 25 -28 11 -30 -23 -3 -25 20 -60 27 -60 12 0 -26 213 -162 253 -162 30 0
37 -6 269 -206 103 -90 246 -210 317 -269 72 -59 131 -111 131 -116 0 -20 -39
-7 -90 31 -51 38 -55 39 -77 24 -24 -15 -27 -13 -171 127 -152 147 -342 305
-496 412 -50 34 -127 97 -173 140 -46 42 -88 77 -92 77 -5 0 -16 3 -25 6 -34
13 -14 -26 34 -66 28 -23 47 -46 44 -51 -11 -19 -43 -8 -87 31 -25 22 -50 40
-56 40 -16 0 -14 -25 3 -40 8 -6 20 -27 26 -45 14 -41 81 -104 120 -111 16 -4
46 -21 68 -39 88 -76 244 -138 187 -75 -10 11 -46 36 -81 55 -62 35 -75 49
-66 73 8 23 31 12 105 -50 41 -35 139 -118 218 -184 79 -67 188 -169 241 -225
155 -165 221 -228 248 -234 14 -4 59 -28 100 -55 41 -27 101 -61 133 -76 38
-19 57 -34 57 -46 0 -26 -20 -23 -117 18 -99 40 -189 96 -283 175 -97 81 -297
277 -321 315 -11 18 -41 46 -67 62 -26 16 -69 48 -95 71 -66 56 -92 35 -28
-23 56 -51 -3 -62 -65 -13 -195 153 -334 275 -370 325 -39 54 -72 73 -81 46
-2 -6 28 -44 67 -84 38 -39 70 -75 70 -80 0 -4 78 -76 173 -160 181 -160 242
-223 232 -240 -12 -20 -42 -10 -76 26 -18 20 -88 80 -154 134 -66 54 -158 137
-205 185 -131 134 -175 168 -198 156 -15 -8 -36 -5 -83 11 -57 19 -75 32 -164
122 -141 142 -256 233 -370 291 -115 58 -134 82 -59 71 127 -17 193 -62 453
-311 106 -102 156 -144 164 -136 7 7 1 22 -19 48 -46 61 -193 210 -261 266
-35 28 -63 54 -63 59 0 15 22 8 52 -17 29 -24 68 -34 68 -16 0 15 -22 28 -116
69 -134 59 -170 70 -305 87 -131 17 -142 20 -136 38 2 8 34 11 103 9 173 -6
229 -18 303 -63 83 -51 167 -101 251 -149 36 -21 112 -65 170 -99 110 -64 134
-72 128 -44 -3 18 -21 30 -175 127 -43 27 -72 51 -66 53 19 7 200 -82 258
-126 82 -62 133 -91 160 -91 31 0 32 14 3 40 -36 30 -221 147 -269 169 -207
94 -290 127 -405 162 -151 45 -222 59 -312 59 -69 0 -102 12 -102 37 0 14 12
15 93 11 50 -3 137 -17 192 -32z m-662 7 c26 -14 55 -17 165 -15 138 2 142 1
126 -42 -7 -20 -87 -21 -232 -5 -125 14 -156 31 -120 67 16 16 23 15 61 -5z
m1275 -19 c30 -18 41 -29 34 -36 -14 -14 -152 28 -152 46 0 35 47 31 118 -10z
m-995 -100 c31 -6 37 -11 37 -30 0 -13 -4 -24 -10 -24 -17 0 -120 41 -125 51
-7 10 42 12 98 3z m-185 -38 c91 -28 240 -101 291 -144 l35 -29 -13 -46 c-18
-64 -1 -178 49 -329 50 -150 94 -246 158 -341 88 -129 218 -277 245 -277 34 0
15 33 -75 129 -51 54 -115 135 -141 178 -60 100 -128 268 -162 398 -28 109
-38 255 -18 262 6 2 34 -15 61 -39 147 -127 254 -202 336 -235 79 -32 86 -39
80 -72 -9 -44 50 -186 90 -216 38 -29 71 -32 85 -8 9 17 11 16 34 -5 36 -34
39 -68 11 -102 -13 -15 -24 -31 -24 -35 0 -4 61 -69 135 -146 125 -129 154
-169 122 -169 -7 0 -66 54 -132 120 -66 66 -123 120 -127 120 -41 0 61 -141
170 -238 43 -37 120 -110 172 -162 165 -166 361 -310 556 -408 23 -12 60 -43
83 -70 33 -41 38 -52 27 -61 -19 -16 -87 21 -260 142 -76 53 -143 94 -148 91
-30 -19 133 -170 255 -235 53 -29 73 -33 139 -35 65 -1 81 -5 110 -27 58 -44
122 -69 152 -57 41 15 126 103 126 130 0 13 -16 47 -36 76 -24 35 -38 68 -41
99 -5 37 -12 50 -37 67 -17 12 -56 42 -86 68 -68 56 -96 79 -235 184 -132 101
-337 273 -348 293 -34 57 92 -6 173 -87 47 -47 94 -80 168 -120 104 -55 136
-77 299 -204 169 -134 415 -277 516 -301 57 -14 26 22 -58 68 -109 60 -526
338 -533 355 -2 7 0 18 6 24 7 7 36 -4 94 -35 45 -25 113 -55 151 -67 53 -17
67 -26 67 -42 0 -30 53 -78 87 -78 15 0 56 -15 91 -32 69 -36 82 -32 82 23 0
23 7 29 58 45 70 23 75 40 28 95 -19 23 -33 46 -30 50 12 21 50 6 85 -32 37
-40 39 -41 86 -35 26 4 92 9 146 12 53 3 97 10 97 15 0 5 -11 19 -25 31 -14
12 -25 27 -25 34 0 28 22 23 65 -17 37 -34 45 -48 45 -77 0 -38 -35 -122 -54
-126 -6 -2 -33 -9 -61 -15 -27 -7 -59 -21 -70 -31 -20 -18 -21 -18 -45 0 -35
27 -47 25 -53 -10 -6 -30 -7 -30 -75 -30 -37 0 -94 7 -126 15 -87 23 -103 3
-33 -42 52 -34 53 -36 72 -100 36 -121 7 -160 -83 -114 -20 11 -62 30 -92 43
-30 12 -90 49 -132 81 -43 32 -82 56 -88 52 -26 -16 -7 -46 53 -86 76 -51 72
-48 64 -55 -3 -3 -26 8 -51 25 -53 37 -87 41 -79 10 13 -46 172 -114 243 -103
45 7 134 -20 127 -39 -10 -32 -142 -27 -251 10 -84 28 -86 28 -86 4 0 -23 27
-41 100 -69 89 -33 144 -37 210 -17 l58 18 36 -28 c20 -15 36 -34 36 -41 0
-17 -3 -17 -47 1 -44 19 -43 19 -43 -4 0 -27 32 -50 163 -115 l115 -57 35 21
36 22 102 -21 c56 -12 120 -21 143 -21 49 0 138 22 181 44 26 14 32 14 50 1
102 -75 296 -185 326 -185 69 0 91 23 102 112 l6 46 -103 110 c-69 72 -106
120 -111 141 -3 17 -12 31 -20 31 -7 0 -34 -25 -60 -55 -25 -30 -52 -55 -59
-55 -7 0 -21 -9 -30 -19 -10 -11 -57 -36 -104 -57 -71 -31 -99 -38 -152 -38
-128 -1 -285 60 -445 172 -43 31 -52 34 -77 24 -21 -8 -30 -7 -39 4 -15 18 7
74 29 74 8 0 58 -27 111 -59 125 -77 251 -141 276 -141 19 1 19 2 -3 20 -13
11 -76 51 -140 90 -198 120 -229 146 -252 208 -12 31 -19 61 -16 69 4 9 26 13
76 13 l70 0 109 -74 c60 -41 123 -81 139 -90 43 -22 78 -21 85 4 3 11 13 22
24 26 72 22 123 72 123 121 0 31 -48 107 -79 126 -54 33 -92 78 -89 105 2 14
8 27 13 29 15 4 163 -121 300 -255 66 -64 177 -169 245 -232 69 -63 163 -153
210 -200 95 -95 270 -321 270 -348 -1 -34 -38 -100 -72 -125 -44 -34 -85 -51
-188 -77 -139 -35 -167 -33 -310 29 -208 90 -318 149 -462 247 -75 52 -142 94
-148 94 -5 0 -10 -9 -10 -19 0 -55 262 -212 538 -321 45 -18 82 -36 82 -41 0
-5 -23 -9 -50 -9 -45 0 -74 13 -268 115 -123 65 -256 144 -305 181 -84 63
-117 74 -117 39 0 -24 84 -78 280 -179 187 -96 236 -125 212 -126 -23 0 -304
116 -445 185 l-139 68 6 31 c19 93 18 121 -1 145 -30 36 -43 19 -43 -55 0 -81
-13 -89 -84 -49 -83 47 -325 204 -378 246 -49 38 -68 42 -68 14 0 -30 152
-147 300 -231 55 -31 100 -60 100 -65 0 -19 -51 -8 -116 26 -73 38 -185 121
-267 197 -53 49 -77 59 -77 33 0 -20 69 -95 120 -130 40 -28 55 -54 23 -40
-31 13 -73 18 -73 8 0 -28 149 -111 276 -154 74 -25 96 -28 149 -23 62 6 65 6
216 -63 181 -83 435 -186 499 -203 25 -7 100 -16 168 -20 67 -4 125 -10 128
-13 13 -12 -8 -45 -33 -52 -14 -3 -81 -6 -148 -6 -119 -1 -127 1 -246 42 -68
23 -178 67 -244 96 -166 75 -335 140 -430 164 -44 11 -87 26 -95 33 -25 22
-43 24 -82 9 -27 -11 -67 -14 -142 -11 l-104 3 -167 85 c-130 66 -168 81 -175
70 -4 -7 -6 -18 -4 -25 7 -16 147 -98 217 -127 56 -22 79 -50 60 -69 -13 -13
-155 8 -165 24 -5 6 -12 17 -16 23 -4 5 -36 20 -72 33 -36 13 -84 34 -107 47
-34 20 -50 23 -88 17 -26 -3 -49 -12 -52 -19 -11 -30 -47 -9 -195 110 -168
136 -190 157 -170 163 6 3 12 10 12 17 0 14 -119 110 -127 102 -3 -2 1 -20 8
-40 7 -20 9 -39 5 -43 -7 -8 -26 11 -86 82 -14 17 -43 44 -65 60 -22 16 -84
69 -138 117 -97 86 -127 103 -127 73 0 -28 282 -324 360 -378 25 -17 77 -56
115 -87 39 -31 108 -82 155 -114 89 -61 113 -83 104 -97 -11 -18 -41 -8 -113
37 -40 25 -89 51 -110 57 -25 8 -40 22 -50 44 -8 18 -24 34 -38 38 -13 3 -41
22 -63 41 -30 27 -46 35 -63 30 -18 -4 -34 3 -65 30 -52 44 -53 57 -4 49 l37
-6 -30 23 c-16 12 -59 52 -95 89 -36 36 -85 75 -110 86 -32 14 -64 43 -110 99
-36 43 -83 96 -104 118 -76 74 -291 355 -354 460 -52 86 -62 109 -52 121 10
12 5 26 -24 72 -20 31 -47 87 -61 124 -49 127 -91 131 -82 8 5 -73 4 -79 -14
-79 -28 0 -94 64 -117 113 -11 23 -36 65 -55 94 -101 151 -158 461 -123 675
20 122 20 148 1 148 -21 0 -34 -31 -51 -123 -27 -146 -2 -392 55 -559 55 -158
77 -205 100 -218 17 -9 21 -20 21 -68 1 -86 15 -136 77 -261 55 -112 112 -191
139 -191 20 0 17 27 -5 58 -19 28 -32 53 -106 202 -63 128 -69 172 -15 115 21
-22 31 -25 81 -23 70 3 83 -7 103 -75 25 -86 154 -291 272 -431 254 -301 303
-361 316 -385 7 -14 34 -46 61 -71 49 -49 61 -80 28 -80 -27 0 -81 56 -88 92
-3 18 -16 34 -34 43 -15 8 -45 36 -66 62 -21 26 -51 61 -68 78 -16 17 -38 45
-47 62 -10 20 -45 51 -88 78 -41 27 -87 68 -110 98 -22 29 -63 78 -91 109 -53
59 -64 96 -17 59 14 -12 29 -21 32 -21 17 0 2 41 -31 86 -21 28 -43 60 -49 70
-10 17 -13 17 -28 5 -22 -18 -32 -5 -41 51 -7 42 -23 58 -36 37 -16 -26 -9
-52 36 -129 25 -42 48 -92 51 -111 9 -43 37 -82 154 -213 74 -82 101 -106 127
-111 26 -5 36 -14 47 -40 21 -51 81 -128 195 -250 96 -104 117 -141 85 -152
-13 -4 -183 168 -264 267 -33 41 -81 92 -105 114 -25 21 -53 52 -62 70 -9 17
-51 67 -94 111 -43 44 -99 108 -124 143 -45 61 -69 81 -82 68 -10 -10 27 -113
59 -163 35 -55 37 -86 6 -81 -28 4 -65 58 -80 115 -12 50 -38 59 -38 13 0 -44
-13 -37 -41 23 -26 56 -42 63 -47 22 -5 -36 39 -126 86 -177 43 -47 142 -191
142 -207 0 -5 -9 -7 -20 -4 -24 6 -80 70 -142 162 -71 107 -95 88 -32 -25 36
-64 32 -81 -10 -49 -11 8 -32 15 -46 15 -29 0 -50 16 -50 39 0 28 -71 161 -86
161 -17 0 -18 -23 -3 -52 7 -13 8 -23 1 -30 -15 -15 -40 29 -51 85 -6 33 -21
62 -53 99 -68 80 -98 130 -98 160 0 17 -8 33 -20 40 -11 7 -20 23 -20 36 0 13
-14 37 -34 55 -34 33 -81 141 -72 167 2 8 7 27 10 42 3 15 15 30 26 33 11 3
20 13 20 21 0 20 -27 29 -44 15 -17 -14 -29 -1 -46 54 -7 22 -23 60 -36 84
-23 44 -23 44 -4 81 17 33 17 40 5 56 -9 12 -14 45 -15 90 0 39 -5 85 -11 103
-8 24 -8 35 1 46 24 29 37 -4 54 -138 24 -190 24 -187 52 -187 26 0 31 -11 37
-100 2 -33 17 -84 36 -129 23 -52 31 -81 26 -100 -11 -46 -7 -61 38 -134 24
-40 50 -94 56 -121 14 -59 41 -112 76 -155 20 -23 35 -31 60 -31 18 0 38 -7
45 -15 18 -21 45 -19 75 8 l27 23 -36 43 c-20 23 -36 46 -36 51 0 4 11 11 25
14 32 8 31 18 -4 76 -60 97 -190 357 -209 420 -26 79 -45 187 -37 200 12 20
24 9 30 -27 17 -118 53 -209 107 -269 20 -22 43 -64 53 -94 20 -62 58 -142
118 -245 45 -79 74 -115 94 -115 23 0 14 33 -28 105 -93 158 -123 238 -213
565 -57 209 -64 240 -81 377 -18 139 -6 314 25 379 25 50 25 64 1 64 -42 0
-81 -133 -81 -274 0 -144 19 -259 78 -486 35 -132 42 -182 26 -187 -16 -5 -42
70 -61 176 -14 77 -21 95 -39 103 -19 9 -23 21 -29 92 -3 44 -13 115 -21 156
-17 90 -17 148 -1 257 7 44 11 86 9 92 -7 22 -22 10 -38 -29 -16 -40 -34 -53
-34 -25 0 8 7 33 16 55 14 36 27 46 93 81 74 39 78 39 156 34 45 -2 118 -16
163 -29z m805 13 c12 -6 43 -25 69 -42 48 -32 63 -52 31 -40 -22 8 -153 85
-153 90 0 7 33 2 53 -8z m-481 -57 c22 -20 29 -34 25 -46 -6 -16 -10 -16 -48
5 -47 27 -63 44 -54 59 11 18 44 11 77 -18z m983 -42 c8 -12 -25 -13 -44 -1
-21 14 -4 33 19 21 10 -6 22 -15 25 -20z m-1765 -2 c0 -13 -7 -61 -15 -108 -9
-47 -15 -128 -14 -181 3 -103 -2 -119 -32 -119 -24 0 -39 36 -29 71 6 20 1 37
-21 73 -32 50 -35 72 -18 110 15 33 29 24 29 -19 0 -37 17 -56 31 -34 5 8 9
52 9 98 0 73 3 88 22 108 27 29 38 29 38 1z m3200 -13 c6 -8 9 -19 5 -25 -9
-14 -45 6 -45 25 0 19 24 19 40 0z m-1299 -46 c72 -38 101 -69 64 -69 -19 0
-88 43 -133 81 -45 40 -24 36 69 -12z m-918 -16 c70 -54 226 -188 245 -211 17
-21 15 -32 -4 -32 -37 0 -324 245 -324 276 0 24 19 16 83 -33z m2431 -113 c70
-58 158 -127 194 -153 70 -50 87 -70 77 -87 -11 -18 -31 -10 -66 26 -18 19
-68 59 -109 88 -41 29 -100 75 -130 103 -85 76 -110 93 -139 93 -32 0 -67 23
-58 37 3 5 27 7 54 3 43 -5 64 -18 177 -110z m-4127 -3 c-8 -25 -28 -17 -42
17 -23 55 -17 64 16 28 17 -19 28 -39 26 -45z m745 17 c-2 -27 4 -94 13 -149
9 -55 20 -181 25 -280 7 -145 13 -197 34 -266 27 -94 105 -266 161 -358 30
-50 35 -67 35 -120 0 -53 -2 -61 -17 -59 -12 2 -19 -5 -21 -20 -2 -13 -9 -21
-15 -19 -19 6 -63 94 -76 153 -11 46 -10 57 4 82 16 27 16 30 -19 92 -54 100
-94 204 -126 331 -35 138 -40 221 -17 266 15 28 15 35 2 66 -15 37 -23 286
-10 320 14 34 30 11 27 -39z m2278 30 c0 -9 -5 -14 -12 -12 -18 6 -21 28 -4
28 9 0 16 -7 16 -16z m9 -74 c111 -96 107 -103 -20 -35 -97 53 -104 58 -96 79
12 29 46 16 116 -44z m-205 20 c26 -17 82 -48 124 -69 42 -22 88 -51 102 -66
14 -15 77 -69 140 -120 140 -112 200 -168 200 -185 0 -16 -19 -3 -157 102 -58
44 -176 126 -262 183 -161 107 -226 159 -216 176 9 14 17 11 69 -21z m299 6
c18 -7 69 -39 112 -71 44 -31 142 -88 218 -125 153 -76 180 -94 284 -192 40
-37 77 -68 82 -68 14 0 14 27 1 35 -5 3 -10 11 -10 16 0 15 203 -164 330 -291
94 -93 123 -130 154 -193 63 -123 56 -122 -177 26 -48 30 -93 58 -100 61 -7 3
6 21 33 45 l45 40 -29 30 c-15 16 -42 35 -60 42 -17 7 -47 25 -66 39 -19 15
-68 42 -109 61 -44 19 -131 76 -209 136 -126 96 -162 113 -162 76 0 -17 34
-49 115 -111 33 -25 83 -67 110 -93 38 -37 62 -51 100 -59 28 -6 61 -15 75
-21 27 -11 110 -139 110 -169 0 -10 12 -32 26 -49 35 -41 204 -153 276 -183
32 -13 60 -29 63 -37 8 -21 -4 -51 -22 -51 -29 0 -299 174 -420 272 -115 91
-163 117 -163 85 0 -39 199 -194 386 -301 124 -71 152 -98 108 -104 -25 -4
-53 8 -124 53 -30 19 -64 35 -76 35 -11 0 -41 14 -67 30 -26 17 -56 30 -66 30
-10 0 -37 15 -59 33 -22 17 -80 63 -129 102 -48 38 -137 112 -198 165 -60 53
-134 115 -163 138 -99 77 -262 224 -262 236 0 6 4 17 9 25 8 12 22 4 73 -38
121 -101 193 -157 258 -201 36 -24 101 -72 145 -108 93 -75 140 -101 156 -85
21 21 -13 62 -92 108 -91 52 -107 69 -56 60 69 -13 53 18 -34 68 -26 15 -89
69 -140 120 -52 52 -127 117 -166 146 -40 29 -73 56 -73 61 0 5 -3 15 -6 24
-13 33 28 15 120 -54 112 -82 142 -98 158 -82 8 8 8 16 -3 28 -14 17 -220 154
-310 207 -45 25 -64 48 -52 61 9 9 20 7 56 -8z m268 -67 c115 -79 139 -98 139
-111 0 -13 -66 18 -187 88 -109 63 -121 73 -106 87 17 18 59 1 154 -64z m863
-121 c16 -26 -5 -44 -33 -29 -29 16 -29 54 0 49 12 -2 27 -11 33 -20z m-2146
-87 c20 -10 55 -24 77 -30 94 -28 113 -44 256 -198 79 -85 149 -165 156 -177
9 -16 9 -33 3 -56 -7 -25 -4 -42 14 -85 18 -38 21 -56 13 -64 -17 -17 -29 -13
-53 16 -20 25 -24 26 -46 15 -23 -13 -28 -9 -119 83 -51 53 -95 100 -97 106
-7 17 24 9 58 -16 34 -25 100 -35 100 -15 0 6 12 15 26 20 14 6 24 15 22 20
-6 19 -142 120 -162 120 -27 1 -45 15 -81 65 -37 52 -107 125 -118 125 -10 0
-5 -65 8 -94 6 -14 4 -17 -11 -15 -12 3 -34 34 -61 89 -59 117 -57 127 15 91z
m-1440 -20 c2 -14 1 -50 -3 -80 -6 -49 -9 -53 -20 -38 -16 22 -28 101 -20 128
9 27 39 20 43 -10z m4070 -210 c181 -181 263 -253 317 -276 28 -11 35 -20 35
-41 0 -20 18 -46 66 -96 50 -52 64 -72 55 -81 -6 -6 -11 -14 -11 -19 0 -4 29
-42 65 -85 63 -75 77 -103 54 -103 -18 0 -101 78 -131 123 -16 23 -33 58 -38
77 -7 27 -47 70 -171 185 -89 83 -189 184 -223 225 -33 41 -103 120 -153 175
-94 102 -121 146 -62 104 17 -12 106 -97 197 -188z m-2344 -113 c5 -9 7 -20 3
-24 -11 -11 -57 14 -57 31 0 21 39 16 54 -7z m729 -156 c37 -36 67 -69 67 -74
0 -19 -31 -5 -93 42 -67 50 -87 75 -87 105 0 24 34 2 113 -73z m1127 73 c19
-23 1 -39 -21 -19 -10 9 -19 21 -19 26 0 13 27 9 40 -7z m-1286 -21 c10 -27 7
-34 -18 -34 -28 0 -40 14 -32 35 7 20 42 19 50 -1z m-193 -173 c25 -16 97 -71
159 -122 l114 -94 -38 -3 c-30 -3 -41 2 -57 23 -12 14 -26 25 -32 24 -46 -5
-65 7 -153 93 -52 50 -94 98 -94 106 0 20 43 8 101 -27z m489 4 c9 -10 10 -19
4 -25 -13 -13 -49 13 -40 28 10 16 21 15 36 -3z m-137 -20 c40 -28 50 -68 20
-79 -23 -9 -143 71 -143 96 0 19 86 7 123 -17z m601 -46 c150 -123 138 -155
-23 -64 -149 83 -152 87 -109 113 18 11 38 19 45 17 7 -2 46 -32 87 -66z
m-1041 -6 c42 -29 107 -98 107 -113 0 -23 -38 -6 -120 55 -49 36 -94 73 -101
82 -13 15 -10 16 31 9 25 -4 62 -19 83 -33z m670 -9 c28 -26 31 -44 9 -52 -13
-4 -72 50 -72 67 0 20 35 11 63 -15z m-716 -81 c49 -38 119 -89 154 -116 35
-26 93 -72 129 -103 82 -70 138 -107 248 -164 86 -44 101 -61 83 -89 -14 -22
-27 -16 -287 152 -58 37 -142 95 -187 129 -144 110 -281 258 -239 258 5 0 49
-30 99 -67z m553 -181 c69 -52 128 -100 133 -107 10 -18 -19 -45 -46 -45 -33
1 -56 17 -154 110 -84 79 -90 87 -86 117 6 39 -7 45 153 -75z m790 33 c13 -16
6 -35 -14 -35 -22 0 -37 25 -24 38 16 16 23 15 38 -3z m-979 -24 c56 -36 145
-119 136 -127 -7 -7 -142 74 -185 111 -14 12 -22 27 -18 33 10 17 17 15 67
-17z m2859 -416 c117 -121 244 -260 282 -310 38 -49 86 -101 106 -115 39 -27
53 -64 29 -73 -8 -3 -66 -7 -130 -8 -112 -2 -116 -2 -147 25 -39 32 -66 46
-172 91 -119 50 -218 112 -218 135 0 24 9 25 57 5 45 -19 103 -19 130 0 24 17
11 27 183 -157 55 -60 80 -72 80 -39 0 21 -107 153 -160 198 -17 14 -42 49
-55 77 -46 102 -115 178 -191 211 -37 15 -50 33 -36 47 12 12 39 -5 149 -94
40 -33 94 -87 120 -121 26 -34 72 -91 103 -128 30 -36 76 -93 102 -127 50 -64
78 -79 78 -39 0 48 -344 421 -473 512 -31 22 -64 55 -72 73 -18 36 -12 77 9
65 8 -5 109 -107 226 -228z m-816 79 c71 -53 150 -109 175 -125 25 -15 55 -41
65 -56 39 -58 228 -212 526 -428 90 -65 172 -127 182 -137 21 -21 14 -42 -11
-35 -16 4 -253 175 -496 358 -49 37 -144 118 -210 179 -66 62 -165 147 -220
190 -208 162 -217 208 -11 54z m-3560 50 c21 -8 146 -177 146 -198 0 -37 -51
-1 -93 65 -9 15 -28 29 -45 32 -35 7 -58 56 -41 88 11 21 11 21 33 13z m-87
-20 c8 -21 -13 -42 -28 -27 -13 13 -5 43 11 43 6 0 13 -7 17 -16z m4555 -99
c40 -30 240 -282 255 -321 9 -24 -13 -15 -25 10 -12 27 -128 160 -224 259 -64
65 -79 87 -59 87 4 0 29 -16 53 -35z m-4742 -31 c58 -17 116 -65 163 -133 17
-25 46 -64 64 -85 38 -45 41 -56 15 -56 -21 0 -62 41 -119 120 -22 30 -50 63
-61 74 -21 18 -21 18 -28 -8 -3 -14 -9 -26 -13 -26 -4 0 -23 18 -41 41 -18 23
-47 47 -66 55 -36 15 -47 27 -36 38 8 8 49 2 122 -20z m4279 -118 c28 -30 51
-60 51 -65 0 -22 -38 -10 -93 29 -82 59 -94 90 -37 90 20 0 41 -15 79 -54z
m-3961 -70 c90 -93 117 -132 111 -162 -4 -21 3 -34 36 -74 75 -90 214 -180
277 -180 23 0 47 -17 111 -80 73 -71 98 -88 222 -150 77 -38 185 -83 240 -101
106 -33 147 -61 123 -85 -11 -11 -28 -7 -98 20 -47 18 -125 48 -175 66 -49 18
-154 68 -232 111 -78 44 -171 93 -207 109 -66 29 -74 38 -56 56 14 14 0 26
-69 59 -47 22 -82 49 -131 102 -60 64 -72 73 -103 73 -20 0 -39 -5 -43 -11 -3
-6 19 -36 50 -68 31 -31 56 -62 56 -69 0 -31 -42 -5 -120 75 -47 49 -102 101
-123 116 -21 16 -36 34 -34 40 2 6 42 11 103 12 55 1 106 5 112 9 21 12 13 31
-20 50 -69 41 -175 157 -162 177 12 21 36 3 132 -95z m157 78 c18 -7 47 -58
38 -68 -12 -12 -46 -6 -65 11 -21 19 -23 34 -6 51 14 14 12 14 33 6z m-386
-60 c30 -38 27 -68 -5 -46 -13 9 -44 54 -44 64 0 18 30 6 49 -18z m544 -103
c42 -41 67 -73 63 -80 -11 -16 -58 14 -112 71 -42 45 -56 78 -33 78 6 0 43
-31 82 -69z m3127 -1 c26 -26 25 -40 -3 -40 -28 0 -47 17 -47 42 0 24 25 23
50 -2z m-2768 -47 c46 -46 60 -73 37 -73 -21 0 -109 82 -109 101 0 30 21 22
72 -28z m-441 -89 c46 -45 73 -61 126 -79 54 -17 69 -26 71 -43 2 -13 -3 -25
-12 -28 -39 -15 -266 149 -266 192 0 26 21 15 81 -42z m384 17 c3 -5 0 -13 -5
-16 -13 -8 -52 24 -44 36 6 10 39 -5 49 -20z m-106 -40 c36 -26 85 -60 109
-75 70 -44 44 -78 -31 -40 -53 27 -187 126 -187 139 0 39 33 32 109 -24z m269
5 c3 -13 -1 -17 -14 -14 -11 2 -20 11 -22 22 -3 13 1 17 14 14 11 -2 20 -11
22 -22z m3269 -15 c26 -21 59 -51 73 -66 34 -37 196 -159 303 -228 79 -51 109
-87 73 -87 -18 0 -329 206 -389 258 -53 46 -137 141 -137 154 0 18 31 6 77
-31z m291 -5 c58 -29 90 -62 75 -77 -13 -13 -58 8 -108 52 -59 52 -44 64 33
25z m-3385 -87 c70 -35 109 -79 70 -79 -33 0 -123 59 -123 80 0 25 1 25 53 -1z
m3808 -66 c24 -32 165 -182 314 -333 274 -279 495 -515 495 -531 0 -16 -15
-10 -55 23 -30 25 -37 28 -31 13 29 -69 7 -88 -38 -34 -30 36 -32 45 -10 57
22 12 14 25 -77 119 -136 139 -252 247 -349 324 -52 42 -102 84 -110 94 -27
33 -193 166 -231 186 -21 10 -42 25 -46 31 -4 7 -25 26 -45 41 -21 16 -38 37
-38 48 0 17 7 19 89 19 l89 0 43 -57z m-4198 11 c23 -15 62 -44 87 -64 55 -45
87 -63 100 -55 19 11 10 25 -29 44 -21 11 -41 27 -44 36 -10 24 32 18 78 -10
49 -30 65 -31 88 -5 48 56 194 -24 281 -154 14 -21 23 -42 20 -47 -8 -14 -91
50 -147 114 -27 31 -54 57 -58 57 -4 0 -9 -12 -11 -27 -2 -19 -8 -27 -18 -24
-8 2 -26 5 -40 5 -20 1 -24 -3 -22 -19 4 -27 42 -58 130 -106 39 -23 82 -49
95 -60 l22 -18 -27 -1 c-15 0 -29 4 -32 9 -3 5 -18 12 -33 16 -54 13 -204 94
-228 123 -14 17 -44 37 -67 47 -47 18 -218 141 -218 156 0 16 30 9 73 -17z
m787 -45 c0 -5 -9 -9 -20 -9 -19 0 -27 20 -13 33 7 8 33 -11 33 -24z m98 -21
c7 -7 12 -26 12 -44 0 -17 8 -41 18 -51 48 -54 365 -214 532 -270 57 -19 108
-26 215 -33 139 -7 195 -19 195 -41 0 -7 -49 -10 -167 -7 -163 4 -171 5 -283
42 -63 21 -141 51 -172 67 -32 16 -63 29 -70 29 -6 0 -53 20 -103 45 -50 24
-154 67 -230 95 -138 50 -207 87 -226 122 -11 21 -4 38 15 38 6 0 43 -20 80
-45 76 -50 104 -55 131 -25 18 20 18 22 2 49 -9 16 -14 31 -10 35 11 10 48 7
61 -6z m2801 -72 c69 -46 198 -125 286 -176 194 -113 261 -158 433 -289 89
-69 132 -108 132 -121 0 -14 -5 -18 -17 -13 -28 10 -147 88 -215 141 -74 58
-294 205 -428 287 -52 32 -115 74 -140 95 -100 81 -170 119 -170 92 0 -15 122
-126 190 -173 36 -25 106 -70 155 -99 50 -29 158 -103 240 -165 83 -61 177
-130 210 -153 140 -96 255 -239 255 -317 0 -59 -6 -61 -132 -37 -161 31 -301
50 -473 62 -82 6 -184 15 -225 20 -79 11 -265 31 -490 56 -74 8 -196 19 -270
25 -135 10 -413 53 -459 71 -35 13 -290 65 -456 93 -77 13 -220 44 -318 70
-97 25 -182 43 -187 40 -21 -13 -9 -37 26 -51 62 -26 314 -91 479 -124 88 -18
247 -52 354 -76 106 -24 195 -44 197 -44 2 0 4 -7 4 -16 0 -14 -10 -16 -62
-11 -92 7 -262 36 -343 57 -38 10 -110 26 -160 35 -49 9 -117 25 -150 35 -33
11 -100 29 -150 40 -49 11 -162 40 -250 64 -223 62 -259 72 -355 99 -119 35
-303 68 -314 57 -14 -14 21 -26 290 -104 194 -55 249 -75 252 -89 5 -23 -23
-22 -90 3 -29 10 -89 26 -133 35 -88 18 -238 67 -300 98 -67 33 -153 95 -200
145 -75 78 -60 81 103 16 120 -48 362 -114 506 -140 118 -20 231 -18 285 6 34
16 65 20 141 20 89 0 101 -2 127 -24 58 -49 101 -60 513 -135 734 -134 640
-122 1060 -131 272 -6 407 -13 490 -26 151 -23 224 -22 275 2 54 25 57 61 16
149 -36 77 -98 146 -205 227 -86 64 -124 84 -138 70 -13 -13 27 -58 85 -96 71
-45 130 -105 178 -179 74 -114 40 -135 -171 -106 -215 29 -411 41 -468 28 -31
-8 -59 -8 -76 -3 -16 6 -59 5 -107 0 -67 -8 -105 -6 -223 12 -77 12 -184 26
-236 32 -92 11 -227 34 -495 87 -71 14 -182 33 -245 42 -87 12 -115 20 -115
31 0 12 25 17 117 24 113 9 121 8 195 -17 99 -34 287 -72 473 -97 181 -25 969
-49 1011 -32 32 13 40 49 27 128 -21 134 -61 193 -216 322 -66 54 -89 63 -99
36 -4 -11 23 -44 94 -113 105 -101 134 -146 154 -242 7 -34 8 -54 1 -61 -10
-10 -645 -13 -704 -3 -18 3 -105 12 -193 20 -151 13 -413 57 -462 76 -31 12
-29 26 9 45 28 14 45 15 157 5 69 -7 151 -18 181 -26 30 -8 105 -19 165 -25
61 -6 191 -24 290 -40 99 -16 206 -32 238 -35 l57 -6 1 38 c3 89 -4 128 -38
197 -20 39 -49 85 -66 103 -34 36 -29 51 23 73 31 13 100 94 100 117 0 21 19
53 32 53 6 0 67 -38 137 -84z m-1939 -31 c294 -139 459 -188 521 -154 16 8 29
6 57 -7 20 -10 98 -34 172 -54 74 -21 136 -42 138 -48 4 -13 -41 -24 -70 -17
-13 3 -83 12 -157 20 -74 9 -188 29 -254 46 -66 16 -148 33 -183 36 -62 6 -77
14 -53 29 15 9 0 17 -130 69 -58 24 -151 64 -206 90 -95 46 -98 49 -70 55 51
13 96 0 235 -65z m-362 -33 c74 -48 273 -134 392 -168 47 -14 123 -30 170 -35
47 -5 155 -24 240 -42 117 -24 155 -36 155 -47 0 -21 -36 -24 -150 -10 -165
19 -211 29 -409 87 -221 65 -283 89 -450 177 -68 36 -132 66 -143 66 -23 0
-48 24 -39 38 3 5 42 1 88 -8 63 -13 98 -27 146 -58z m-745 5 c41 -32 45 -42
21 -51 -19 -7 -84 53 -84 79 0 18 8 15 63 -28z m1537 -77 c0 -5 -4 -10 -9 -10
-6 0 -13 5 -16 10 -3 6 1 10 9 10 9 0 16 -4 16 -10z m1153 -42 c56 -75 122
-234 106 -255 -13 -14 -42 -10 -239 34 -87 19 -220 41 -304 49 -137 13 -183
24 -171 44 3 4 42 11 87 15 46 4 100 10 121 15 32 7 47 4 85 -16 26 -13 99
-39 163 -58 146 -43 189 -48 189 -23 0 19 -28 32 -180 78 -146 44 -175 60
-160 89 7 13 28 20 82 25 40 4 90 13 113 20 65 21 82 18 108 -17z m-2546 6 c3
-8 1 -20 -6 -27 -15 -15 -65 3 -69 26 -3 14 4 17 33 17 23 0 38 -5 42 -16z
m3559 -66 c104 -74 231 -178 367 -302 74 -67 93 -96 63 -96 -20 0 -155 109
-208 169 -24 26 -54 54 -68 61 -14 7 -47 32 -75 55 -27 23 -76 61 -107 84 -55
41 -74 71 -45 71 8 0 40 -19 73 -42z m-3311 -55 c39 -13 104 -27 145 -30 105
-7 347 -84 334 -105 -8 -13 -94 -4 -246 27 -257 53 -379 92 -404 130 -25 39
-9 47 49 24 29 -12 84 -32 122 -46z m-1809 25 c43 -32 94 -81 94 -90 0 -4 -8
-8 -17 -8 -24 0 -133 88 -133 106 0 20 23 17 56 -8z m135 -111 c-1 -12 -15 -9
-19 4 -3 6 1 10 8 8 6 -3 11 -8 11 -12z m1317 -10 c2 -11 -3 -17 -17 -17 -23
0 -35 15 -26 31 10 15 39 6 43 -14z m-1108 -103 c36 -23 76 -54 89 -68 l24
-26 -24 0 c-26 0 -166 82 -207 120 -12 12 -20 25 -17 30 9 14 64 -9 135 -56z
m270 -191 c36 -22 132 -72 215 -112 179 -86 196 -96 189 -116 -8 -20 -41 -11
-134 36 -41 21 -136 68 -210 103 -151 72 -240 122 -240 134 0 5 26 5 58 1 41
-5 75 -18 122 -46z m1709 44 c13 -16 5 -27 -20 -27 -21 0 -33 15 -24 30 9 14
31 12 44 -3z m313 -77 c99 -23 137 -43 103 -56 -24 -10 -216 33 -235 52 -13
13 -13 16 0 24 8 5 20 8 25 6 6 -2 54 -14 107 -26z m2831 -49 c34 -27 85 -60
112 -74 89 -45 253 -174 275 -217 26 -50 26 -94 0 -120 -26 -26 -57 -25 -128
3 -58 24 -131 43 -277 72 -44 9 -144 29 -221 45 -78 16 -198 34 -266 40 -68 6
-151 15 -184 21 -32 6 -95 14 -139 19 -433 42 -814 101 -823 128 -6 18 27 16
300 -17 134 -17 358 -40 498 -51 293 -24 434 -41 643 -75 100 -17 155 -22 167
-15 10 6 22 32 30 70 15 69 9 88 -42 152 -25 33 -32 68 -13 68 3 0 33 -22 68
-49z m396 -47 c35 -38 40 -48 30 -60 -11 -13 -19 -8 -62 34 -46 46 -54 72 -23
72 8 0 32 -21 55 -46z m-2909 16 c0 -5 -11 -10 -25 -10 -14 0 -25 5 -25 10 0
6 11 10 25 10 14 0 25 -4 25 -10z m-1831 -50 c45 -18 79 -35 76 -40 -6 -10
-132 23 -176 45 -15 8 -31 20 -35 26 -10 17 39 6 135 -31z m1549 -5 c258 -56
507 -134 563 -176 19 -14 21 -20 12 -30 -10 -10 -27 -8 -84 10 -68 22 -99 22
-99 2 0 -19 62 -43 159 -62 70 -14 101 -25 114 -40 21 -26 22 -49 1 -49 -27 0
-241 70 -311 101 -36 16 -73 29 -84 29 -31 0 -23 -36 14 -58 47 -29 226 -90
346 -117 106 -25 138 -42 128 -68 -5 -14 -12 -14 -64 -1 -125 32 -376 117
-541 182 -141 57 -174 67 -183 55 -30 -35 47 -72 366 -176 193 -63 327 -98
462 -123 13 -2 30 -18 38 -34 9 -17 14 -30 13 -30 -24 0 -192 43 -333 85 -99
29 -230 67 -292 84 -62 17 -174 57 -250 90 -143 61 -205 84 -260 96 -18 3 -33
10 -33 15 0 4 27 36 60 71 71 75 48 73 322 30 108 -17 206 -31 218 -31 25 0
27 25 3 35 -25 10 -337 72 -406 80 -60 8 -73 16 -63 40 8 21 49 19 184 -10z
m590 -7 c3 -13 -3 -18 -22 -18 -20 0 -26 5 -26 21 0 15 5 20 22 17 13 -2 24
-11 26 -20z m582 -48 c199 -37 205 -39 192 -52 -11 -11 -99 -3 -277 24 -38 5
-134 13 -212 17 -138 7 -182 18 -166 44 12 20 286 1 463 -33z m-2610 -45 c68
-19 130 -35 137 -35 26 0 143 -43 143 -53 0 -6 -32 -8 -87 -4 -124 8 -356 89
-338 117 8 14 7 14 145 -25z m1956 -4 c-10 -15 -31 -14 -45 3 -10 11 -8 17 6
25 21 11 50 -10 39 -28z m159 -17 c11 -7 41 -45 65 -85 59 -94 145 -205 165
-213 36 -13 25 27 -24 95 -28 38 -65 94 -81 123 -27 48 -29 55 -15 66 21 17
34 4 73 -70 62 -119 335 -487 357 -482 6 2 9 16 8 33 -1 24 1 28 13 18 8 -6
27 -34 43 -63 16 -28 55 -84 85 -125 l56 -75 -21 -22 c-21 -23 -21 -24 -4 -51
89 -137 245 -313 278 -313 25 0 207 -190 207 -215 0 -28 -32 -30 -54 -4 -12
13 -38 35 -58 47 -21 13 -53 41 -71 63 -19 21 -67 68 -108 103 -41 35 -114
110 -164 167 -49 57 -128 142 -176 189 -47 47 -106 112 -131 145 -26 33 -63
77 -83 98 -20 21 -52 64 -72 95 -20 31 -74 102 -119 157 -128 154 -254 316
-254 324 0 24 45 21 85 -5z m1015 -30 c0 -16 -18 -18 -40 -4 -13 9 -13 11 -1
19 18 12 41 3 41 -15z m-740 -41 c19 -29 72 -99 117 -155 45 -57 90 -126 101
-153 11 -28 23 -58 27 -67 19 -46 -18 -9 -85 85 -41 56 -109 148 -152 205 -77
101 -97 147 -61 140 10 -2 33 -27 53 -55z m133 -11 c36 -66 34 -93 -4 -64 -14
11 -38 39 -54 62 -24 34 -26 43 -14 51 26 16 44 4 72 -49z m-1744 25 c70 -8
106 -17 109 -26 9 -26 -24 -30 -162 -24 -117 5 -145 10 -172 27 -18 12 -33 27
-34 35 0 15 46 13 259 -12z m1837 -9 c11 -13 33 -43 49 -68 57 -90 370 -471
384 -468 28 6 21 26 -27 84 -82 99 -303 397 -320 431 -9 18 -13 36 -9 39 14
15 39 -9 95 -93 33 -48 91 -128 130 -177 38 -49 97 -135 131 -190 118 -196
257 -374 511 -656 52 -58 195 -220 317 -361 122 -141 245 -277 272 -302 28
-25 51 -48 51 -51 0 -12 -91 -96 -104 -96 -7 0 -62 25 -122 55 -126 63 -243
160 -364 301 -41 48 -97 113 -125 143 -93 104 -142 166 -160 200 -9 18 -63 81
-119 140 -56 58 -115 124 -131 146 -16 22 -42 54 -56 72 -15 17 -44 60 -64 95
-20 35 -66 102 -101 149 -40 54 -64 96 -64 112 0 17 -31 67 -88 144 -126 170
-139 194 -109 192 15 0 172 -193 294 -363 63 -86 86 -107 103 -90 19 19 -45
112 -245 354 -132 159 -190 243 -182 265 9 22 30 19 53 -7z m271 -15 c10 -16
49 -66 88 -113 102 -121 191 -239 275 -363 70 -104 98 -127 92 -76 -4 33 -49
105 -159 255 -90 122 -107 154 -81 154 30 0 129 -129 230 -296 93 -156 124
-198 240 -324 141 -154 394 -409 866 -870 160 -157 297 -297 303 -313 10 -21
10 -30 1 -39 -9 -9 -36 13 -115 94 -56 58 -127 135 -157 171 -30 35 -84 84
-119 108 -36 24 -85 67 -110 94 -100 109 -161 165 -181 165 -36 0 -21 -27 53
-94 68 -62 70 -66 40 -60 -28 6 -33 4 -33 -14 0 -24 221 -272 384 -429 141
-136 157 -148 185 -133 18 9 24 6 43 -17 12 -16 89 -95 170 -176 82 -81 146
-153 142 -158 -21 -34 -204 92 -384 266 -69 66 -154 146 -188 178 -75 71 -302
312 -397 422 -38 44 -110 123 -160 175 -49 53 -117 129 -150 169 -33 41 -87
104 -120 141 -141 158 -189 214 -226 260 -21 27 -68 82 -105 122 -38 42 -78
99 -94 133 -15 33 -47 85 -72 115 -24 30 -90 119 -147 198 -57 78 -123 166
-147 194 -46 54 -53 73 -31 81 28 12 47 5 64 -20z m1927 11 c18 -17 21 -44 6
-44 -13 0 -50 37 -50 50 0 15 27 12 44 -6z m-1795 -30 c22 -28 36 -63 28 -71
-8 -8 -54 26 -72 53 -30 46 9 62 44 18z m-2491 4 c14 -14 -2 -38 -27 -38 -25
0 -55 25 -47 38 9 15 59 15 74 0z m2664 -15 c22 -20 23 -46 3 -63 -13 -10 -19
-10 -35 5 -11 10 -20 28 -20 40 0 38 21 46 52 18z m686 -15 c11 -9 11 -13 -1
-25 -10 -11 -20 -11 -48 -2 -43 15 -61 28 -53 41 8 12 82 2 102 -14z m952 -93
c101 -89 170 -171 170 -200 0 -9 -8 -19 -17 -22 -27 -11 -122 15 -172 46 -35
22 -76 34 -171 51 -69 13 -145 30 -170 40 -25 9 -133 38 -240 64 -107 26 -206
53 -219 59 -36 18 -38 37 -4 37 25 0 357 -81 513 -125 84 -23 114 -20 144 16
30 35 41 69 32 103 -7 27 1 39 20 28 7 -4 58 -47 114 -97z m-3679 64 c147 -74
388 -161 617 -223 280 -76 535 -151 570 -169 34 -16 50 -43 36 -57 -8 -8 -28
-5 -70 13 -109 46 -282 97 -550 162 -220 54 -295 77 -428 132 -88 37 -174 77
-191 89 -16 12 -43 25 -60 29 l-30 6 38 -33 c65 -58 36 -66 -58 -15 -70 37
-80 63 -24 60 29 -2 38 2 42 17 7 28 38 25 108 -11z m2223 15 c9 -3 39 -36 68
-73 28 -36 104 -124 168 -196 64 -71 150 -170 190 -220 40 -49 96 -111 126
-138 29 -26 83 -89 120 -140 84 -115 197 -228 295 -294 42 -30 183 -158 331
-301 142 -138 273 -260 291 -271 18 -11 39 -31 46 -44 7 -14 32 -35 55 -47 22
-13 91 -72 153 -131 62 -59 206 -187 320 -285 114 -98 260 -226 323 -284 63
-58 154 -139 202 -178 48 -40 154 -135 236 -210 81 -76 204 -183 272 -237 69
-55 176 -143 239 -198 62 -54 156 -130 210 -169 53 -39 123 -95 156 -123 68
-59 295 -228 400 -298 190 -126 299 -203 303 -214 10 -32 -48 -5 -204 93 -93
59 -207 130 -253 158 -46 28 -95 66 -109 84 -13 18 -46 43 -73 57 -27 13 -160
99 -296 191 -137 92 -315 213 -398 269 -82 55 -184 126 -225 156 -41 31 -88
63 -105 72 -27 14 -102 67 -417 291 -46 33 -128 97 -184 142 -56 46 -155 120
-220 165 -65 44 -146 107 -179 138 -33 31 -98 90 -145 131 -138 121 -1287
1259 -1343 1330 -28 36 -92 110 -143 165 -120 129 -255 310 -257 343 -4 52 27
34 103 -60 41 -51 153 -172 250 -268 96 -97 184 -187 196 -200 26 -32 374
-347 574 -519 85 -74 200 -177 254 -228 94 -88 136 -112 136 -78 0 22 -159
175 -435 419 -137 121 -276 247 -307 281 -32 33 -109 114 -172 180 -64 68
-121 137 -130 158 -9 22 -47 73 -86 115 -67 74 -274 307 -353 398 -49 56 -40
90 17 68z m-2972 -59 c0 -5 -5 -11 -11 -13 -6 -2 -11 4 -11 13 0 9 5 15 11 13
6 -2 11 -8 11 -13z m451 -91 c50 -2 52 -4 55 -33 4 -41 -11 -66 -56 -91 -32
-18 -47 -39 -87 -120 -46 -94 -102 -170 -124 -170 -19 0 -12 19 24 66 26 34
35 55 35 84 0 71 -34 61 -76 -22 -29 -57 -90 -128 -110 -128 -18 0 -18 14 1
50 18 36 10 62 -19 58 -14 -2 -29 -20 -46 -54 -34 -71 -46 -82 -88 -86 -48 -4
-57 -38 -16 -57 34 -15 21 -31 -33 -40 -28 -5 -41 -13 -51 -33 -23 -48 -177
-108 -157 -60 4 9 11 37 15 62 4 25 13 64 20 86 12 40 11 44 -14 77 -42 55
-111 107 -163 122 -33 10 -63 29 -93 59 l-44 46 23 24 c31 33 100 69 211 109
165 59 196 67 230 54 27 -10 32 -9 46 11 19 28 35 28 63 -2 32 -34 85 -60 106
-52 16 6 14 12 -20 46 -32 33 -36 40 -22 46 10 3 32 3 50 0 17 -4 48 -7 69 -6
31 0 39 -5 57 -34 24 -39 48 -51 67 -36 9 9 10 18 2 42 -16 47 7 54 55 16 30
-24 50 -31 90 -34z m2492 36 c23 -25 13 -55 -13 -41 -27 14 -45 39 -37 51 10
16 30 12 50 -10z m724 -52 c40 -43 74 -105 61 -113 -11 -7 -105 77 -122 108
-7 15 -7 22 3 28 21 13 26 11 58 -23z m-4239 -28 c0 -17 -44 -50 -67 -50 -46
0 -37 51 12 70 21 8 55 -4 55 -20z m4382 18 c8 -7 26 -29 39 -48 13 -19 106
-122 208 -227 102 -106 189 -200 194 -209 16 -27 -1 -28 -37 0 -49 37 -430
410 -467 458 l-31 38 39 0 c22 0 46 -6 55 -12z m-3152 -13 c9 -11 7 -25 -13
-67 -33 -72 -62 -106 -77 -91 -9 8 -8 28 6 85 11 40 23 76 29 80 16 12 42 9
55 -7z m110 -40 c24 -29 -34 -115 -76 -115 -22 0 -16 26 17 80 33 54 40 58 59
35z m-1479 -27 c10 -18 8 -24 -11 -40 -67 -55 -134 -21 -75 37 30 31 70 33 86
3z m1559 -12 c0 -8 -4 -17 -9 -21 -12 -7 -24 12 -16 25 9 15 25 12 25 -4z
m-1723 -83 c40 -19 63 -57 45 -75 -14 -14 -44 -2 -90 37 -58 49 -29 74 45 38z
m1358 -14 c0 -7 -8 -15 -17 -17 -18 -3 -25 18 -11 32 10 10 28 1 28 -15z
m-1197 -16 c5 -17 -26 -29 -40 -15 -6 6 -7 15 -3 22 9 14 37 9 43 -7z m-224
-54 c38 -30 32 -99 -9 -99 -16 0 -77 99 -69 112 9 15 51 8 78 -13z m-244 -53
c0 -28 -13 -47 -41 -61 -36 -19 -39 -19 -39 4 0 19 52 71 71 71 5 0 9 -6 9
-14z m144 -12 c23 -22 20 -39 -9 -52 -59 -27 -84 -3 -49 46 18 26 37 28 58 6z
m461 -48 c27 -21 34 -36 44 -88 17 -88 31 -106 83 -110 l43 -3 -4 -40 c-5 -58
-16 -73 -64 -86 -23 -6 -57 -17 -75 -25 -18 -8 -37 -12 -41 -9 -11 6 -2 101
14 152 7 23 11 44 7 47 -9 9 -95 7 -111 -3 -11 -7 -12 -17 -2 -54 6 -25 11
-58 11 -73 0 -28 -57 -144 -71 -144 -5 0 -9 20 -9 44 0 85 -45 65 -75 -34 -24
-78 -36 -88 -79 -65 -49 27 -79 15 -119 -48 -19 -28 -45 -62 -58 -74 -36 -32
-190 -123 -200 -117 -4 2 -11 31 -15 64 -7 63 -21 84 -48 74 -19 -7 -22 -68
-5 -129 10 -35 9 -41 -11 -57 -12 -10 -31 -18 -42 -18 -18 0 -20 4 -14 33 17
78 18 97 6 112 -16 20 -46 19 -54 -1 -3 -9 -6 -51 -6 -95 l0 -80 -65 -29 c-67
-30 -165 -112 -165 -137 0 -27 -83 -123 -106 -123 l-22 0 20 68 c18 59 28 74
85 129 66 63 75 85 40 107 -15 9 -24 3 -61 -38 -46 -53 -56 -54 -81 -5 -11 20
-23 29 -41 29 -33 0 -40 -24 -20 -66 18 -39 21 -90 6 -99 -6 -3 -24 3 -40 15
-23 16 -31 18 -35 8 -24 -67 -25 -70 -39 -59 -7 6 -16 29 -20 51 -7 44 -31 63
-73 58 -14 -2 -31 -11 -37 -21 -9 -14 -5 -22 22 -43 41 -32 42 -67 6 -161 -44
-114 -42 -143 7 -128 22 7 69 95 69 131 0 42 76 88 99 60 18 -21 6 -48 -29
-68 -37 -21 -38 -35 -5 -50 14 -6 25 -15 25 -19 0 -14 -63 -60 -171 -124 -60
-35 -135 -85 -166 -110 -92 -75 -143 -93 -143 -49 0 24 -29 54 -52 54 -19 0
-21 -8 -18 -76 1 -23 -4 -45 -10 -49 -6 -4 -29 9 -50 29 -40 36 -79 46 -109
27 -21 -13 -6 -40 29 -52 27 -10 30 -15 30 -53 0 -40 -21 -86 -41 -86 -5 0 -9
13 -9 29 0 70 -38 103 -94 81 -33 -12 -33 -20 4 -58 25 -27 30 -40 30 -81 0
-48 -2 -51 -62 -105 -34 -31 -68 -56 -75 -56 -8 0 -22 20 -33 45 -18 41 -22
45 -40 35 -30 -16 -42 -47 -35 -90 5 -32 3 -40 -14 -49 -36 -19 -61 -14 -61
14 0 28 -29 48 -63 43 -32 -4 -33 -36 -2 -68 15 -16 24 -33 20 -39 -12 -20
-66 -42 -93 -39 -33 4 -39 31 -22 94 11 38 10 46 -9 77 -20 32 -20 35 -3 50 9
8 60 36 112 61 91 44 261 166 355 256 22 21 66 52 98 70 32 18 95 66 140 108
45 41 105 95 134 120 89 77 100 145 36 230 l-24 32 20 56 c25 66 27 107 5 125
-25 21 -45 0 -68 -72 -14 -43 -27 -65 -38 -67 -23 -4 -24 29 -3 88 19 55 19
79 -2 87 -10 4 -24 -3 -40 -21 l-24 -28 -39 36 c-66 59 -125 48 -154 -29 -10
-25 -21 -45 -24 -45 -4 0 -18 9 -32 20 -14 11 -32 20 -41 20 -8 0 -30 11 -49
25 -58 43 -70 36 -70 -43 0 -73 -10 -92 -47 -92 -26 0 -43 27 -43 68 0 37 -46
84 -60 62 -5 -8 -10 -32 -10 -53 0 -69 -36 -102 -60 -56 -15 27 -3 96 21 120
10 10 31 19 45 19 15 0 38 12 56 31 41 40 67 49 114 39 22 -5 72 -5 119 1 108
13 304 39 335 45 14 3 47 9 73 14 28 5 68 23 96 45 65 47 106 63 193 75 39 6
86 17 102 26 17 9 55 25 84 36 29 11 74 36 99 55 26 20 71 46 100 59 59 26
117 32 111 12 -5 -14 -21 -23 -111 -64 -40 -18 -68 -39 -87 -66 -48 -66 -52
-145 -10 -168 17 -9 24 -4 56 46 33 51 38 55 62 48 45 -14 114 -8 162 13 25
11 83 56 130 100 47 44 100 85 118 91 18 6 45 20 60 30 15 11 37 23 50 26 16
5 22 15 22 35 0 18 12 39 35 61 19 19 35 42 35 52 0 22 22 22 75 -1 40 -18 40
-18 100 11 33 15 66 28 73 28 21 0 85 36 107 60 25 28 72 22 120 -14z m-560
-40 c21 -15 15 -40 -14 -56 -17 -8 -24 -7 -41 10 -39 39 9 80 55 46z m-178
-23 c5 -15 -55 -83 -73 -83 -23 0 -16 42 13 72 27 29 53 33 60 11z m113 -68
c9 -11 7 -19 -14 -40 -27 -27 -55 -32 -74 -13 -30 30 -5 68 44 68 17 0 37 -7
44 -15z m-253 -22 c7 -18 -29 -53 -53 -53 -23 0 -28 29 -9 50 22 24 53 26 62
3z m-139 -45 c-2 -28 -8 -34 -30 -36 -21 -2 -28 1 -28 13 0 28 20 55 41 55 17
0 20 -5 17 -32z m5942 -5 c14 -18 17 -29 10 -31 -12 -4 -60 36 -60 50 0 18 30
6 50 -19z m-5684 -8 c9 -21 -14 -45 -42 -45 -32 0 -33 37 -1 50 31 13 37 12
43 -5z m-356 -8 c0 -17 -29 -57 -41 -57 -15 0 -10 32 8 52 19 21 33 23 33 5z
m248 -59 c18 -18 15 -42 -7 -62 -42 -38 -83 13 -45 55 20 22 35 24 52 7z
m5880 -21 c2 -12 -1 -15 -12 -11 -19 7 -22 38 -3 32 6 -3 13 -12 15 -21z
m-5980 -69 c33 -33 -12 -62 -79 -52 -48 8 -49 18 -6 44 36 23 67 26 85 8z
m-1048 -423 c20 -24 -3 -67 -33 -63 -27 4 -34 39 -12 62 20 20 29 20 45 1z
m-185 -65 c0 -18 -33 -26 -47 -12 -6 6 -7 15 -3 22 10 16 50 8 50 -10z m265
-15 c16 -20 6 -45 -19 -45 -26 0 -34 15 -21 40 13 24 23 25 40 5z m150 -751
c-16 -18 -50 -18 -50 0 0 8 12 24 28 36 l27 22 3 -22 c2 -11 -2 -28 -8 -36z
m7097 -62 c66 -56 88 -80 80 -88 -15 -15 -157 96 -157 122 0 23 17 16 77 -34z
m-7199 10 c2 -15 -6 -30 -23 -45 -15 -12 -44 -37 -65 -54 -20 -18 -52 -36 -70
-39 -30 -7 -32 -6 -21 14 6 12 31 34 54 51 24 16 52 45 62 65 23 42 58 47 63
8z"/>
<path d="M1430 11017 c-19 -7 -35 -19 -35 -27 0 -22 107 -27 128 -5 39 38 -17
58 -93 32z"/>
<path d="M1198 10943 c-49 -27 -66 -49 -49 -66 26 -26 151 44 138 76 -9 24
-34 21 -89 -10z"/>
<path d="M1072 10860 c-58 -36 -68 -103 -13 -85 26 8 76 79 66 94 -9 15 -15
14 -53 -9z"/>
<path d="M915 10698 c-71 -82 -105 -188 -63 -196 13 -3 24 12 43 53 13 31 40
75 60 98 37 43 43 79 14 85 -10 2 -33 -16 -54 -40z"/>
<path d="M791 10247 c-23 -29 -63 -154 -64 -207 -2 -50 0 -55 20 -58 24 -4 27
4 38 93 3 28 17 73 32 101 27 51 26 84 0 84 -8 0 -20 -6 -26 -13z"/>
<path d="M1435 10658 c-83 -42 -134 -80 -160 -118 -25 -36 -27 -46 -22 -95 3
-31 14 -70 24 -88 18 -31 22 -32 74 -29 108 7 222 90 252 184 9 30 17 64 17
74 0 27 -35 63 -76 80 -44 18 -61 17 -109 -8z m23 -70 c27 -27 1 -108 -33
-108 -8 0 -22 11 -31 25 -33 51 23 124 64 83z"/>
<path d="M1840 10559 c-35 -14 -70 -49 -70 -70 0 -31 18 -30 53 1 33 28 39 30
121 30 87 0 104 8 74 38 -15 15 -142 15 -178 1z"/>
<path d="M2245 10271 c-9 -16 3 -31 26 -31 14 0 19 6 17 17 -4 20 -33 29 -43
14z"/>
<path d="M2190 10144 c-21 -9 -50 -14 -72 -11 -27 4 -44 0 -60 -13 -13 -9 -41
-26 -63 -36 -48 -23 -57 -50 -20 -64 14 -5 53 -28 86 -51 92 -62 120 -72 176
-58 45 12 47 11 71 -17 13 -16 33 -39 44 -52 15 -19 22 -21 34 -12 23 20 17
39 -26 81 -44 43 -48 56 -24 66 11 4 32 -10 66 -46 40 -41 53 -49 64 -40 8 6
14 15 14 20 0 23 -77 90 -136 119 l-65 33 6 38 c5 31 3 39 -14 48 -26 14 -39
13 -81 -5z"/>
<path d="M2566 10132 c-8 -14 38 -102 89 -171 66 -86 204 -231 221 -231 31 0
7 37 -96 145 -37 39 -92 109 -123 156 -59 90 -82 116 -91 101z"/>
<path d="M1947 9946 c-7 -18 6 -29 65 -51 80 -30 90 8 12 44 -52 25 -70 26
-77 7z"/>
<path d="M1351 9933 c-48 -3 -68 -9 -80 -24 -9 -11 -66 -37 -127 -58 -128 -44
-188 -72 -186 -86 2 -19 43 -16 120 8 145 47 198 58 257 51 47 -6 55 -4 55 10
0 9 -13 24 -30 35 -16 10 -27 21 -23 24 3 4 63 7 132 7 135 0 174 6 168 24 -4
11 -159 16 -286 9z"/>
<path d="M1833 9894 c-8 -22 23 -48 74 -63 27 -7 67 -35 118 -81 62 -56 80
-68 91 -59 20 16 18 22 -21 73 -30 39 -32 47 -18 54 31 18 4 33 -48 26 -42 -6
-53 -3 -72 13 -27 25 -81 53 -102 53 -9 0 -18 -7 -22 -16z"/>
<path d="M2165 9880 c-21 -34 49 -111 145 -160 25 -13 65 -40 89 -62 43 -37
61 -43 68 -22 7 21 -45 80 -97 111 -30 17 -79 51 -109 75 -85 68 -88 71 -96
58z"/>
<path d="M869 9751 c-18 -15 -21 -22 -12 -31 15 -16 66 8 71 33 5 23 -29 22
-59 -2z"/>
<path d="M2140 9744 c0 -38 34 -79 84 -104 32 -15 48 -30 56 -53 13 -40 78
-107 102 -107 30 0 20 29 -31 88 -27 31 -52 67 -55 78 -4 12 -19 27 -35 34
-15 6 -45 29 -67 51 -45 46 -54 48 -54 13z"/>
<path d="M2920 9692 c0 -10 161 -171 183 -184 24 -13 31 10 10 34 -10 11 -53
52 -96 89 -72 65 -97 80 -97 61z"/>
<path d="M1914 9675 c-4 -9 15 -38 50 -76 31 -33 56 -66 56 -73 0 -8 7 -19 16
-26 12 -11 18 -11 30 2 14 14 14 20 -5 57 -27 52 -102 131 -125 131 -9 0 -19
-7 -22 -15z"/>
<path d="M2113 9614 c-8 -22 22 -59 103 -127 90 -77 102 -82 228 -107 115 -23
152 -21 124 6 -18 18 -148 54 -197 54 -29 0 -47 13 -130 95 -54 52 -103 95
-109 95 -7 0 -15 -7 -19 -16z"/>
<path d="M2426 9593 c-23 -24 14 -93 50 -93 29 0 30 13 4 55 -21 33 -43 49
-54 38z"/>
<path d="M1899 9579 c-11 -7 -8 -20 21 -74 46 -86 60 -100 86 -81 18 14 18 15
-5 58 -51 90 -75 114 -102 97z"/>
<path d="M1575 9518 c4 -18 9 -72 10 -120 2 -87 8 -118 22 -118 39 1 60 115
36 190 -17 51 -39 80 -61 80 -11 0 -13 -7 -7 -32z"/>
<path d="M2520 9519 c0 -32 63 -104 133 -151 34 -23 84 -59 110 -80 45 -35 87
-50 87 -30 0 13 -79 85 -158 145 -41 31 -88 74 -105 96 -34 45 -67 54 -67 20z"/>
<path d="M2067 9434 c-14 -14 -7 -35 11 -32 9 2 17 10 17 17 0 16 -18 25 -28
15z"/>
<path d="M3110 9362 c0 -30 190 -235 250 -270 26 -15 75 -46 110 -69 34 -23
87 -52 117 -63 57 -21 196 -98 248 -136 17 -12 59 -37 95 -56 36 -18 75 -40
87 -48 16 -10 26 -11 33 -4 17 17 -23 59 -82 84 -29 12 -89 49 -133 80 -106
77 -197 126 -269 144 -35 9 -79 31 -110 54 -28 21 -74 53 -101 70 -28 17 -67
53 -88 80 -64 85 -157 164 -157 134z"/>
<path d="M2767 9233 c-12 -11 -8 -22 20 -48 34 -31 63 -33 63 -5 0 12 -13 28
-32 40 -36 22 -41 23 -51 13z"/>
<path d="M3120 9225 c0 -8 40 -56 89 -106 82 -85 111 -102 111 -64 0 12 -180
185 -194 185 -3 0 -6 -7 -6 -15z"/>
<path d="M2850 9105 c-19 -7 -35 -19 -35 -26 0 -20 172 -182 185 -174 16 10
12 31 -14 62 -13 15 -38 56 -55 91 -17 34 -35 61 -39 61 -4 -1 -23 -7 -42 -14z"/>
<path d="M1570 9010 c0 -21 4 -30 13 -27 6 2 12 14 12 27 0 13 -6 25 -12 28
-9 2 -13 -7 -13 -28z"/>
<path d="M2081 8722 c-12 -22 37 -195 101 -362 45 -115 53 -130 76 -130 22 0
10 78 -22 142 -23 47 -85 230 -106 314 -14 57 -31 69 -49 36z"/>
<path d="M2234 8729 c-3 -6 9 -26 27 -45 25 -26 56 -42 126 -64 104 -33 151
-38 159 -15 10 25 -14 43 -69 55 -29 6 -88 26 -132 45 -86 38 -100 41 -111 24z"/>
<path d="M2780 8665 c-19 -23 -4 -32 57 -37 61 -5 155 -52 253 -125 45 -35 83
-40 88 -12 7 38 -271 189 -347 189 -22 0 -44 -6 -51 -15z"/>
<path d="M1855 8650 c-14 -23 66 -262 131 -392 37 -74 64 -97 84 -73 10 12 8
22 -14 55 -35 53 -88 183 -125 309 -17 57 -31 105 -31 107 0 9 -39 3 -45 -6z"/>
<path d="M2606 8617 c-26 -19 -17 -51 16 -55 55 -6 90 35 49 58 -26 13 -43 13
-65 -3z"/>
<path d="M1990 8576 c0 -34 81 -269 118 -341 29 -59 30 -61 14 -95 -15 -31
-17 -85 -17 -450 l0 -415 50 -150 c34 -101 56 -151 67 -153 28 -5 26 22 -9
133 -19 61 -43 164 -55 230 -18 107 -20 145 -15 364 4 134 12 300 19 368 11
114 11 129 -6 171 -10 26 -31 88 -48 137 -65 193 -79 225 -99 225 -13 0 -19
-7 -19 -24z"/>
<path d="M2744 8589 c-9 -16 5 -25 61 -38 28 -7 81 -24 118 -38 47 -18 71 -23
78 -16 15 15 -38 50 -119 79 -72 25 -127 31 -138 13z"/>
<path d="M2713 8524 c-8 -22 2 -28 93 -58 84 -28 239 -121 280 -169 24 -27
111 -60 146 -55 33 4 28 30 -7 39 -16 5 -39 19 -50 33 -37 44 -214 143 -353
197 -88 33 -100 35 -109 13z"/>
<path d="M3210 8491 c0 -6 23 -29 51 -53 28 -23 46 -44 39 -46 -6 -2 -40 9
-76 24 -46 19 -68 24 -75 17 -6 -6 -8 -17 -4 -23 13 -21 128 -70 164 -70 43 0
132 41 129 59 -2 8 -26 21 -54 31 -28 9 -71 28 -97 43 -46 28 -77 34 -77 18z"/>
<path d="M2423 8424 c-8 -20 1 -28 72 -57 67 -28 85 -26 85 10 0 19 -9 28 -42
43 -53 24 -106 26 -115 4z"/>
<path d="M2763 8405 c-8 -21 20 -50 73 -74 59 -28 74 -27 74 5 0 21 -10 30
-65 55 -75 34 -74 34 -82 14z"/>
<path d="M2310 8277 c0 -13 15 -38 35 -57 37 -36 55 -81 55 -142 0 -21 7 -44
17 -53 16 -16 18 -16 36 6 21 27 18 58 -15 148 -33 89 -128 162 -128 98z"/>
<path d="M2503 8264 c-3 -9 1 -40 10 -68 9 -28 22 -70 29 -94 8 -31 24 -54 54
-79 67 -54 90 -18 34 52 -27 34 -60 117 -60 152 0 15 -36 53 -50 53 -6 0 -13
-7 -17 -16z"/>
<path d="M2635 8226 c1 -30 8 -63 15 -73 36 -47 76 -83 92 -83 28 0 22 30 -13
66 -30 31 -30 32 -10 39 30 9 26 23 -21 67 -56 52 -66 50 -63 -16z"/>
<path d="M2236 8124 c-4 -16 -7 -51 -8 -79 0 -27 -7 -72 -15 -100 -17 -57 -30
-370 -19 -458 8 -63 28 -98 46 -81 9 9 10 48 3 150 -5 80 -5 179 0 234 5 52
10 120 12 150 1 30 8 69 15 85 14 35 7 92 -14 113 -12 12 -15 10 -20 -14z"/>
<path d="M2335 8050 c-3 -5 -1 -10 4 -10 6 0 11 5 11 10 0 6 -2 10 -4 10 -3 0
-8 -4 -11 -10z"/>
<path d="M2336 7973 c-12 -30 -19 -176 -12 -226 6 -36 11 -47 25 -47 23 0 31
27 30 105 -1 123 -25 216 -43 168z"/>
<path d="M2356 7571 c-7 -10 21 -140 34 -161 7 -12 12 -12 21 -3 9 9 9 28 0
84 -6 40 -14 76 -17 81 -7 11 -31 10 -38 -1z"/>
<path d="M2284 7368 c15 -95 126 -308 161 -308 21 0 20 2 -26 102 -23 49 -53
124 -68 166 -22 64 -30 78 -50 80 -23 4 -24 2 -17 -40z"/>
<path d="M2236 7221 c-4 -5 -4 -15 -2 -23 2 -7 7 -25 10 -40 9 -39 46 -39 46
0 0 44 -38 89 -54 63z"/>
<path d="M2274 7087 c-7 -19 21 -97 67 -190 42 -82 73 -122 89 -112 19 12 9
51 -28 115 -21 36 -46 85 -56 110 -31 80 -59 110 -72 77z"/>
<path d="M2260 6785 c0 -56 145 -358 174 -364 31 -5 16 50 -59 210 -84 182
-79 173 -99 177 -12 3 -16 -4 -16 -23z"/>
<path d="M2964 5616 c-7 -18 24 -62 198 -278 66 -81 147 -173 181 -204 77 -69
232 -174 258 -174 42 0 17 31 -81 100 -41 29 -95 72 -118 94 -59 55 -254 281
-334 386 -64 85 -93 105 -104 76z"/>
<path d="M3520 5276 c0 -7 7 -19 15 -26 13 -10 18 -11 28 -1 9 10 8 15 -7 27
-25 18 -36 18 -36 0z"/>
<path d="M3665 5180 c-10 -16 0 -26 106 -106 118 -89 220 -151 346 -210 51
-24 141 -74 200 -112 128 -81 236 -128 393 -171 63 -18 153 -47 200 -66 125
-49 432 -105 575 -105 116 1 174 17 175 51 0 4 -51 4 -112 1 -149 -6 -331 28
-603 113 -60 19 -153 44 -205 55 -52 12 -133 36 -180 54 -67 25 -85 36 -90 55
-4 19 -37 38 -170 100 -325 152 -424 207 -546 303 -63 49 -78 56 -89 38z"/>
<path d="M7210 6232 c0 -19 51 -72 87 -91 63 -32 57 14 -8 67 -56 45 -79 52
-79 24z"/>
<path d="M7347 6124 c-11 -11 -8 -21 8 -38 9 -8 22 -13 30 -10 16 7 21 44 6
44 -5 0 -16 2 -23 5 -8 3 -17 2 -21 -1z"/>
<path d="M4024 7788 c-8 -13 30 -48 52 -48 21 0 17 38 -5 50 -25 13 -38 13
-47 -2z"/>
<path d="M4196 7684 c-4 -10 -15 -14 -33 -12 -38 4 -42 -24 -9 -57 28 -28 54
-32 62 -10 4 9 19 15 40 15 22 0 37 6 43 19 12 22 2 33 -48 50 -44 14 -48 14
-55 -5z"/>
<path d="M3017 7934 c-14 -14 -7 -35 11 -32 9 2 17 10 17 17 0 16 -18 25 -28
15z"/>
<path d="M3091 7896 c-6 -7 -18 -60 -27 -117 -33 -214 -1 -417 106 -682 27
-69 53 -139 56 -156 8 -37 19 -40 28 -8 12 45 5 86 -24 156 -92 216 -130 383
-130 575 0 101 4 146 16 176 22 55 5 93 -25 56z"/>
<path d="M3171 7883 c-31 -68 -22 -379 15 -504 24 -82 114 -272 138 -291 25
-21 56 -23 56 -5 0 8 -33 79 -73 158 -69 135 -75 152 -91 257 -11 73 -17 161
-16 245 2 161 2 167 -8 167 -5 0 -14 -12 -21 -27z"/>
<path d="M3244 7836 c-3 -14 -1 -67 6 -118 47 -376 142 -590 405 -915 48 -58
173 -298 162 -310 -25 -24 -206 221 -280 380 -50 106 -67 125 -67 75 0 -84
139 -369 256 -524 115 -153 270 -314 303 -314 31 0 -1 48 -108 163 -130 138
-177 194 -168 203 21 22 233 -161 324 -279 53 -68 85 -87 150 -87 46 0 52 -3
106 -58 31 -32 57 -61 57 -65 0 -17 -27 -3 -88 48 -75 62 -118 76 -81 26 26
-36 131 -122 176 -145 18 -9 42 -16 55 -16 23 -1 52 -20 148 -97 53 -44 90
-55 90 -27 0 18 -28 46 -125 124 -139 112 -302 270 -279 270 4 0 22 -11 40
-25 36 -28 67 -33 62 -11 -2 8 -22 29 -45 48 -195 155 -267 229 -376 383 -41
58 -72 91 -86 93 -34 5 -26 -19 35 -104 126 -175 200 -256 297 -322 47 -33 59
-58 33 -68 -35 -13 -133 70 -268 226 -84 98 -110 137 -174 263 -48 94 -93 167
-123 201 -118 130 -228 319 -295 504 -31 87 -70 254 -86 372 -13 93 -24 130
-40 130 -5 0 -12 -11 -16 -24z"/>
<path d="M3367 7813 c-12 -11 -7 -118 9 -204 38 -203 120 -420 207 -549 62
-91 219 -280 233 -280 31 0 11 45 -52 118 -72 84 -156 208 -197 289 -72 140
-137 361 -151 508 -4 39 -9 82 -12 98 -5 25 -23 35 -37 20z"/>
<path d="M3593 7623 c-15 -38 75 -340 140 -468 39 -79 125 -199 222 -310 36
-41 83 -100 106 -132 60 -87 165 -206 228 -261 68 -59 338 -265 368 -280 22
-12 53 -7 53 8 0 5 16 29 35 55 l36 46 -20 25 c-27 34 -131 120 -293 241 -137
103 -194 159 -294 289 -41 53 -56 83 -64 124 -11 60 -23 72 -61 65 -21 -5 -32
1 -59 32 -58 65 -127 180 -155 255 -41 113 -44 118 -59 118 -27 0 -28 -20 -6
-92 43 -142 145 -304 249 -395 26 -23 73 -80 105 -127 107 -159 249 -291 411
-380 39 -22 72 -41 74 -42 2 -2 -3 -12 -12 -22 -22 -25 -22 -30 13 -81 31 -45
33 -59 7 -44 -22 12 -247 214 -360 323 -55 52 -117 122 -140 155 -22 33 -79
103 -127 155 -173 191 -231 298 -305 560 -26 91 -52 173 -57 183 -11 22 -27
22 -35 0z m1077 -1403 c0 -5 -2 -10 -4 -10 -3 0 -8 5 -11 10 -3 6 -1 10 4 10
6 0 11 -4 11 -10z"/>
<path d="M3883 7434 c-8 -20 8 -65 57 -169 42 -89 149 -215 181 -215 37 0 20
41 -51 122 -49 57 -78 102 -101 156 -48 116 -71 144 -86 106z"/>
<path d="M2625 7070 c-3 -5 -1 -10 4 -10 6 0 11 5 11 10 0 6 -2 10 -4 10 -3 0
-8 -4 -11 -10z"/>
<path d="M3900 6751 c0 -23 171 -259 248 -343 32 -34 120 -120 197 -191 134
-125 211 -177 260 -177 11 0 76 -34 144 -75 135 -81 201 -111 226 -101 28 10
11 29 -60 69 -126 69 -259 164 -357 256 -88 81 -118 103 -118 85 0 -3 25 -36
55 -72 62 -75 73 -106 24 -71 -44 31 -274 250 -352 334 -35 39 -80 96 -100
127 -39 60 -143 178 -158 178 -5 0 -9 -8 -9 -19z"/>
<path d="M4744 6149 c-21 -35 238 -215 337 -233 42 -7 84 -48 75 -71 -5 -13
-10 -14 -28 -4 -13 6 -33 21 -45 32 -29 26 -55 16 -51 -20 2 -22 -1 -27 -14
-25 -24 4 -58 -15 -58 -33 0 -16 69 -78 146 -131 53 -36 61 -39 120 -37 37 1
83 10 107 21 26 12 56 17 76 14 28 -4 39 1 72 34 41 40 46 61 28 113 -10 28
-15 31 -53 31 -30 0 -74 15 -156 55 -81 39 -126 55 -155 55 -57 0 -161 52
-275 138 -96 73 -113 81 -126 61z"/>
<path d="M5780 6151 c0 -5 25 -32 56 -60 56 -52 126 -81 152 -65 26 17 16 28
-50 55 -37 15 -83 39 -101 53 -35 27 -57 33 -57 17z"/>
<path d="M6230 6016 c0 -22 45 -52 235 -159 176 -99 230 -118 230 -82 0 13
-15 27 -45 43 -25 14 -122 67 -216 118 -170 94 -204 107 -204 80z"/>
<path d="M4610 5939 c0 -23 94 -127 125 -139 24 -9 45 -2 45 14 0 13 -146 146
-161 146 -5 0 -9 -9 -9 -21z"/>
<path d="M4814 5750 c-12 -4 -24 -16 -28 -26 -6 -15 -9 -15 -31 6 -28 27 -55
21 -55 -12 0 -17 26 -45 94 -103 52 -44 102 -92 111 -107 18 -32 27 -34 45
-13 7 8 18 15 24 15 30 1 39 19 37 75 -3 78 -14 101 -54 114 -19 7 -45 23 -57
36 -24 26 -49 30 -86 15z"/>
<path d="M5410 5579 c0 -6 14 -27 31 -46 16 -19 28 -37 26 -39 -3 -3 -31 11
-63 30 -57 35 -74 37 -74 11 0 -28 208 -112 291 -116 58 -4 64 -2 64 16 0 14
-11 22 -41 31 -53 15 -74 27 -147 80 -59 44 -87 54 -87 33z"/>
<path d="M6626 5491 c-12 -19 8 -42 68 -82 159 -105 468 -226 490 -191 11 18
-15 33 -114 67 -141 50 -279 115 -355 170 -65 46 -80 52 -89 36z"/>
<path d="M7989 3123 c-8 -21 -6 -37 6 -70 22 -56 161 -255 237 -337 54 -60 64
-66 99 -66 27 0 52 -9 83 -31 86 -61 92 0 8 98 -31 38 -92 111 -134 164 -42
53 -98 114 -124 135 -26 21 -69 60 -94 87 -25 26 -52 47 -58 47 -7 0 -17 -12
-23 -27z"/>
<path d="M8497 3003 c-4 -3 -7 -12 -7 -20 0 -15 26 -18 34 -4 7 11 -18 33 -27
24z"/>
<path d="M9460 2466 c0 -23 45 -70 58 -62 18 11 14 34 -8 56 -23 23 -50 26
-50 6z"/>
<path d="M9545 2390 c-3 -5 0 -19 7 -30 27 -43 797 -730 818 -730 20 0 22 31
4 52 -11 11 -104 96 -209 188 -104 91 -253 224 -330 295 -152 139 -265 235
-276 235 -4 0 -10 -4 -14 -10z"/>
<path d="M4734 3625 c-8 -20 2 -44 21 -52 24 -8 39 12 31 41 -7 29 -43 36 -52
11z"/>
<path d="M4410 3391 c0 -12 6 -21 16 -21 9 0 14 7 12 17 -5 25 -28 28 -28 4z"/>
<path d="M3752 3118 c-32 -32 -1 -102 42 -96 16 2 22 11 24 39 4 53 -35 88
-66 57z"/>
<path d="M3326 2928 c-9 -12 -16 -29 -16 -38 0 -47 88 -96 118 -66 12 12 12
18 1 38 -54 94 -74 107 -103 66z"/>
<path d="M10830 7145 c-9 -11 -7 -21 11 -47 33 -46 30 -119 -11 -206 -35 -75
-96 -143 -185 -207 -88 -62 -299 -180 -416 -231 -56 -25 -150 -76 -208 -113
-278 -178 -280 -179 -477 -216 -99 -19 -210 -43 -249 -54 -38 -10 -131 -35
-205 -55 -74 -20 -164 -45 -200 -56 -36 -10 -90 -22 -120 -25 -87 -10 -149
-25 -230 -58 -41 -16 -106 -38 -145 -48 -85 -22 -133 -69 -89 -86 19 -7 173
38 266 79 49 20 101 32 185 43 65 7 138 21 163 30 25 9 106 32 180 51 74 20
160 44 190 55 61 21 349 79 393 79 39 0 48 5 387 215 47 30 137 77 200 106 63
29 146 73 184 96 37 24 87 51 110 60 50 20 76 37 186 125 145 115 208 233 190
356 -12 84 -33 122 -69 122 -16 0 -34 -7 -41 -15z"/>
<path d="M10990 7120 c0 -13 10 -24 28 -31 109 -42 223 -122 208 -147 -14 -22
-115 18 -174 70 -35 30 -55 32 -60 7 -4 -23 36 -68 94 -105 36 -23 63 -51 88
-92 42 -69 70 -85 193 -107 l88 -17 93 -98 c98 -105 124 -122 150 -97 13 14
11 20 -28 54 -23 21 -69 72 -101 114 -32 41 -69 80 -81 86 -13 6 -63 18 -113
28 -91 16 -131 34 -142 61 -13 35 15 38 100 11 95 -31 137 -34 137 -12 0 24
-53 52 -132 69 -16 4 -34 18 -42 34 -8 15 -39 56 -70 90 -31 35 -56 69 -56 76
0 20 -23 26 -106 26 -68 0 -74 -2 -74 -20z"/>
<path d="M11196 6621 c-11 -18 5 -37 70 -81 92 -62 133 -105 161 -167 19 -45
27 -54 46 -51 53 7 24 96 -62 190 -71 78 -196 141 -215 109z"/>
<path d="M11437 6576 c-3 -7 12 -35 34 -61 21 -26 39 -50 39 -54 0 -4 14 -12
30 -18 l30 -11 0 -99 c0 -128 -17 -186 -70 -238 -22 -21 -40 -42 -40 -46 0
-16 32 -17 77 -4 26 7 78 17 115 20 52 6 73 13 101 36 41 33 71 91 62 119 -10
31 -27 24 -68 -25 -37 -44 -90 -75 -128 -75 -24 0 -24 3 2 75 14 42 20 77 17
120 -3 67 -10 62 74 48 29 -4 39 -2 44 11 9 24 -12 44 -57 51 -39 7 -168 93
-213 144 -22 24 -42 27 -49 7z"/>
<path d="M11805 6336 c-19 -14 -19 -16 15 -63 44 -60 45 -108 6 -176 -20 -34
-26 -55 -22 -73 5 -20 -2 -36 -34 -76 -42 -53 -46 -71 -16 -76 38 -8 115 97
116 156 0 12 18 45 40 73 32 41 40 59 40 92 0 50 -25 95 -73 131 -39 30 -46
31 -72 12z"/>
<path d="M11428 6278 c-3 -7 -1 -29 2 -50 13 -67 -43 -155 -128 -205 -42 -25
-54 -27 -131 -25 -94 3 -141 -10 -141 -39 0 -18 9 -19 126 -19 l125 0 58 39
c73 50 164 186 164 247 0 44 -63 88 -75 52z"/>
<path d="M10000 6103 c-33 -6 -152 -49 -193 -69 -51 -26 -160 -118 -211 -177
-69 -81 -117 -99 -286 -107 -147 -7 -190 -18 -190 -49 0 -30 12 -32 96 -15 52
11 99 14 141 10 49 -5 74 -2 120 14 31 11 67 20 79 20 22 0 135 -86 163 -123
17 -23 42 -18 113 25 29 17 78 41 108 53 47 19 58 29 79 70 14 26 26 71 29 99
3 44 1 54 -21 74 -20 19 -33 23 -78 20 -40 -2 -55 -7 -57 -19 -2 -12 9 -21 40
-30 35 -11 44 -19 46 -41 5 -42 -45 -128 -74 -128 -7 0 -24 31 -39 69 -28 76
-39 88 -82 100 -63 17 -11 64 115 105 89 29 198 50 213 41 5 -4 7 -16 3 -27
-3 -11 2 -37 11 -58 17 -38 17 -39 -9 -95 -31 -69 -33 -95 -7 -95 23 0 78 61
87 95 3 14 3 40 0 59 -8 42 -1 47 91 70 103 26 113 16 58 -57 -27 -35 -35 -55
-35 -86 0 -46 -20 -65 -83 -76 -45 -9 -55 -22 -32 -39 17 -12 16 -14 -6 -29
-13 -10 -27 -17 -32 -17 -5 0 -76 -32 -158 -71 l-150 -72 -73 13 c-66 11 -84
10 -214 -14 -78 -14 -146 -26 -152 -26 -5 0 -10 15 -10 33 0 68 -56 92 -73 32
-8 -27 -22 -65 -60 -157 -18 -44 -1 -52 75 -40 87 15 299 25 273 13 -11 -5
-58 -17 -105 -26 -47 -8 -114 -22 -150 -30 -36 -8 -82 -15 -102 -15 -37 0
-191 -52 -215 -72 -10 -8 -10 -14 -2 -24 15 -19 42 -18 127 6 39 11 87 20 106
20 19 0 62 9 97 19 196 60 272 71 542 76 217 5 217 5 294 37 42 17 129 66 193
109 64 43 161 98 216 124 118 56 178 86 263 131 l63 35 187 -2 186 -2 33 -29
c19 -16 44 -28 61 -28 76 0 89 -9 106 -69 34 -120 45 -141 104 -187 80 -62
274 -295 358 -432 40 -64 101 -163 135 -219 35 -57 69 -105 77 -108 8 -3 22 1
30 10 15 14 12 23 -24 92 -42 81 -170 302 -226 392 -19 29 -105 126 -192 215
l-159 161 -24 80 c-30 95 -54 121 -121 130 -27 4 -66 19 -87 34 -38 25 -45 26
-207 29 -98 2 -190 -1 -221 -7 -29 -6 -123 -45 -208 -86 -85 -41 -162 -75
-172 -75 -14 0 -18 8 -18 38 0 20 -11 58 -25 83 -27 51 -25 59 15 59 15 0 53
9 85 20 77 27 89 15 47 -45 -43 -61 -41 -72 8 -65 44 6 80 81 80 167 0 60 -14
66 -74 33 -28 -15 -69 -33 -91 -40 -71 -21 -115 -43 -115 -58 0 -9 -8 -24 -17
-34 -15 -16 -15 -23 -4 -51 30 -76 33 -96 15 -132 -16 -34 -57 -75 -75 -75 -4
0 -11 16 -15 35 -7 39 -36 63 -52 42 -5 -6 -12 -32 -15 -56 -3 -25 -18 -62
-34 -85 -43 -62 -109 -84 -309 -104 -153 -15 -198 -13 -164 8 8 5 64 21 124
35 120 28 146 39 146 60 0 19 -38 19 -110 0 -30 -8 -56 -13 -58 -11 -4 4 62
46 72 46 4 0 41 16 82 35 41 19 79 35 84 35 22 0 21 -27 -6 -81 -21 -44 -25
-62 -16 -71 30 -30 101 68 102 139 0 32 6 40 121 146 13 11 19 31 19 59 0 28
11 61 35 105 42 76 43 95 9 122 -32 25 -55 26 -139 5 -71 -18 -95 -14 -95 14
0 33 -21 42 -94 41 -39 -1 -82 -4 -96 -6z m-241 -260 c40 -41 67 -117 53 -149
-23 -50 -31 -47 -162 64 l-35 29 29 42 c36 51 73 55 115 14z m70 -342 c28 -18
-24 -29 -209 -46 -102 -9 -201 -18 -221 -22 -24 -3 -39 -1 -44 7 -13 20 24 40
74 41 25 0 82 6 126 13 94 16 254 19 274 7z"/>
<path d="M10861 6046 c-8 -9 -8 -22 -2 -37 10 -28 2 -55 -33 -106 -48 -70 3
-74 74 -5 60 58 67 97 24 137 -31 28 -47 31 -63 11z"/>
<path d="M11907 6013 c-2 -4 -7 -28 -11 -53 -9 -61 -78 -160 -111 -160 -13 0
-26 -4 -29 -9 -3 -4 16 -39 42 -77 153 -224 230 -384 282 -590 11 -46 34 -72
45 -54 20 32 -30 246 -86 368 -34 75 -35 85 -13 107 21 20 39 6 55 -43 26 -82
91 -247 119 -303 31 -61 31 -62 -14 -93 -28 -19 -13 -56 24 -56 43 0 72 33
136 155 32 61 73 128 91 151 24 30 33 51 33 78 0 32 -11 47 -97 139 -102 107
-134 124 -167 92 -9 -9 -16 -20 -16 -25 0 -13 84 -93 148 -142 28 -22 52 -46
52 -54 0 -21 -98 -238 -109 -242 -12 -4 -16 4 -102 213 -98 238 -94 221 -64
267 30 46 25 62 -17 52 -31 -6 -31 -6 -24 27 19 86 19 108 2 115 -28 11 -44
-16 -59 -99 -11 -60 -12 -85 -4 -108 9 -24 8 -34 -5 -57 -26 -42 -43 -39 -74
15 -15 26 -45 70 -66 97 -39 50 -41 66 -7 66 45 0 112 144 93 198 -9 26 -37
41 -47 25z"/>
<path d="M11610 5837 c0 -22 143 -258 216 -358 41 -56 99 -109 119 -109 24 0
17 18 -29 75 -23 29 -87 127 -141 217 -54 89 -105 171 -113 181 -22 25 -52 22
-52 -6z"/>
<path d="M8743 5643 c-27 -10 -10 -34 56 -77 57 -37 71 -51 86 -90 17 -45 17
-47 -5 -112 -23 -68 -19 -89 15 -82 33 6 57 52 62 120 9 112 -29 176 -132 224
-51 24 -61 26 -82 17z"/>
<path d="M9023 5613 c-22 -8 -14 -36 20 -71 28 -29 32 -40 32 -85 -1 -40 -7
-62 -28 -92 -15 -22 -27 -45 -27 -52 0 -22 37 -14 70 13 45 39 63 80 64 151 1
52 -3 65 -24 88 -39 42 -79 60 -107 48z"/>
<path d="M8564 5575 c-10 -26 3 -41 47 -54 23 -7 55 -26 71 -42 28 -27 29 -32
22 -88 -7 -68 -1 -106 21 -114 32 -13 45 20 45 117 0 110 -11 130 -92 170 -58
29 -106 34 -114 11z"/>
<path d="M12457 5313 c-2 -4 -10 -26 -17 -48 -20 -64 -69 -156 -112 -212 -45
-59 -45 -83 1 -83 16 0 32 -4 35 -9 10 -15 -21 -98 -53 -143 -41 -57 -48 -97
-24 -127 17 -20 21 -21 46 -10 53 24 99 161 101 304 1 76 6 99 30 149 34 71
42 178 14 184 -9 2 -18 -1 -21 -5z"/>
<path d="M8860 5229 c-53 -13 -93 -17 -135 -13 -49 5 -63 3 -74 -10 -20 -24 1
-43 63 -56 73 -15 249 18 284 54 49 49 -5 58 -138 25z"/>
<path d="M10854 1689 c-14 -23 152 -171 575 -512 134 -108 247 -194 252 -191
5 3 9 11 9 17 0 15 -72 85 -150 148 -31 24 -123 101 -205 170 -485 410 -465
394 -481 368z"/>
<path d="M11233 1514 c-7 -20 35 -64 262 -269 99 -89 258 -242 353 -339 95
-97 179 -176 187 -176 43 0 -2 54 -238 286 -138 137 -311 301 -382 365 -72 64
-136 123 -144 132 -17 21 -30 22 -38 1z"/>
</g>
</svg>
